<?xml version="1.0" encoding="utf-8"?>
<!-- Generator: Adobe Illustrator 27.5.0, SVG Export Plug-In . SVG Version: 6.00 Build 0)  -->
<svg version="1.1" xmlns="http://www.w3.org/2000/svg" xmlns:xlink="http://www.w3.org/1999/xlink" x="0px" y="0px"
	 viewBox="0 0 750 500" style="enable-background:new 0 0 750 500;" xml:space="preserve">
<g id="Background_Complete">
	<g>
		<g>
			<path style="fill:#F5F5F5;" d="M124.117,238.823l37.762-83.711l58.871,87.525l22.407-23.308l154.484,127.045l56.851-75.332
				l29.969,14.038l70.578-92.25l68.553,10.834c0,0,95.81,151.08,93.601,154.032c-2.209,2.952,0,107.556,0,107.556H32.769
				L124.117,238.823z"/>
		</g>
	</g>
	<g>
		<g>
			<g>
				<path style="fill:#E0E0E0;" d="M354.743,73.519c0.612-4.445-5.661-8.101-10.375-8.481c-2.248-0.181-4.583,0.162-6.712-0.58
					c-4.614-1.608-6.457-7.569-10.959-9.468c-3.366-1.42-7.241-0.156-10.503,1.486c-3.263,1.642-6.488,3.709-10.133,3.942
					c-3.171,0.203-6.614-0.973-9.389,0.576c-2.067,1.154-3.15,3.536-5.056,4.942c-1.864,1.375-4.296,1.666-6.609,1.792
					c-2.313,0.126-4.707,0.149-6.814,1.113c-2.106,0.964-3.848,3.191-3.411,5.466L354.743,73.519z"/>
			</g>
		</g>
	</g>
	<g>
		<g>
			<g>
				<path style="fill:#EBEBEB;" d="M283.797,126.823c0.879-6.387-8.135-11.641-14.908-12.187c-3.23-0.261-6.585,0.233-9.645-0.833
					c-6.63-2.311-9.278-10.876-15.747-13.604c-4.836-2.04-10.404-0.224-15.093,2.136c-4.689,2.36-9.322,5.329-14.56,5.665
					c-4.556,0.291-9.504-1.398-13.491,0.827c-2.971,1.659-4.527,5.082-7.265,7.101c-2.679,1.976-6.173,2.394-9.496,2.575
					c-3.324,0.181-6.764,0.214-9.791,1.6c-3.026,1.385-5.53,4.586-4.902,7.854L283.797,126.823z"/>
			</g>
		</g>
	</g>
	<g>
		<g>
			<g>
				<path style="fill:#F5F5F5;" d="M709.69,144.199c0.879-6.387-8.135-11.641-14.908-12.187c-3.23-0.26-6.585,0.233-9.645-0.833
					c-6.63-2.311-9.278-10.876-15.747-13.605c-4.836-2.04-10.404-0.224-15.093,2.136c-4.689,2.36-9.322,5.329-14.56,5.665
					c-4.556,0.292-9.504-1.398-13.491,0.828c-2.97,1.659-4.527,5.082-7.265,7.101c-2.679,1.976-6.173,2.394-9.496,2.575
					c-3.324,0.181-6.764,0.214-9.791,1.6c-3.026,1.386-5.53,4.586-4.902,7.854L709.69,144.199z"/>
			</g>
		</g>
	</g>
	<g>
		<g>
			<g>
				<path style="fill:#F5F5F5;" d="M145.339,76.828c0.416-3.025-3.852-5.513-7.06-5.771c-1.53-0.123-3.118,0.11-4.568-0.395
					c-3.14-1.094-4.394-5.15-7.457-6.443c-2.29-0.966-4.927-0.106-7.147,1.011c-2.22,1.117-4.415,2.524-6.895,2.683
					c-2.158,0.138-4.501-0.662-6.389,0.392c-1.407,0.786-2.144,2.407-3.44,3.363c-1.269,0.936-2.923,1.134-4.497,1.219
					c-1.574,0.086-3.203,0.102-4.636,0.758c-1.433,0.656-2.619,2.172-2.321,3.719L145.339,76.828z"/>
			</g>
		</g>
	</g>
	<g>
		<g>
			<g>
				<path style="fill:#EBEBEB;" d="M622.714,84.59c0.416-3.025-3.852-5.513-7.06-5.771c-1.53-0.123-3.118,0.11-4.568-0.395
					c-3.14-1.094-4.394-5.15-7.457-6.443c-2.29-0.966-4.927-0.106-7.148,1.011c-2.22,1.118-4.415,2.524-6.895,2.683
					c-2.158,0.138-4.501-0.662-6.389,0.392c-1.407,0.785-2.144,2.407-3.44,3.363c-1.269,0.936-2.923,1.134-4.497,1.219
					c-1.574,0.086-3.203,0.102-4.636,0.758c-1.433,0.656-2.619,2.172-2.321,3.72L622.714,84.59z"/>
			</g>
		</g>
	</g>
	<g>
		<g>
			<g>
				<g>
					<path style="fill:#E0E0E0;" d="M468.137,77.173c-0.014,0.039-0.413-0.108-1.156-0.258c-0.739-0.147-1.842-0.276-3.174-0.084
						c-1.323,0.188-2.883,0.728-4.247,1.859c-1.362,1.111-2.526,2.785-2.992,4.767l-0.014,0.053l-0.182,0.706l-0.271-0.67
						c-0.763-1.885-2.117-3.387-3.587-4.346c-1.473-0.976-3.06-1.388-4.389-1.49c-2.701-0.184-4.28,0.659-4.299,0.547
						c-0.01-0.023,0.359-0.237,1.092-0.474c0.729-0.234,1.841-0.472,3.228-0.408c1.377,0.062,3.047,0.455,4.605,1.458
						c1.553,0.984,2.986,2.549,3.791,4.536l-0.453,0.036l0.014-0.056c0.493-2.097,1.733-3.851,3.179-4.999
						c1.451-1.171,3.103-1.701,4.479-1.852c1.388-0.156,2.518,0.031,3.26,0.237C467.769,76.944,468.147,77.15,468.137,77.173z"/>
				</g>
			</g>
		</g>
	</g>
	<g>
		<g>
			<g>
				<g>
					<path style="fill:#E0E0E0;" d="M337.374,145.924c-0.014,0.039-0.463-0.129-1.299-0.302c-0.833-0.17-2.077-0.318-3.582-0.104
						c-1.494,0.21-3.258,0.817-4.8,2.094c-1.54,1.254-2.856,3.146-3.383,5.386l-0.015,0.06l-0.181,0.706l-0.271-0.67
						c-0.862-2.13-2.393-3.826-4.055-4.908c-1.665-1.102-3.458-1.564-4.959-1.677c-1.51-0.115-2.739,0.09-3.562,0.292
						c-0.826,0.205-1.268,0.383-1.283,0.345c-0.006-0.015,0.098-0.073,0.304-0.17c0.205-0.098,0.517-0.225,0.93-0.353
						c0.822-0.26,2.073-0.524,3.633-0.449c1.548,0.072,3.425,0.517,5.175,1.644c1.744,1.107,3.354,2.867,4.258,5.098l-0.453,0.036
						l0.016-0.063c0.554-2.356,1.946-4.327,3.57-5.618c1.629-1.316,3.485-1.914,5.032-2.087c1.56-0.178,2.832,0.029,3.667,0.258
						c0.42,0.112,0.738,0.228,0.947,0.321C337.274,145.854,337.38,145.908,337.374,145.924z"/>
				</g>
			</g>
		</g>
	</g>
</g>
<g id="Background_Simple" style="display:none;">
	<path style="display:inline;fill:#EBEBEB;" d="M503.504,150.855l-1.854-3.056c-15.632-25.76-43.895-41.289-73.693-39.404
		c-3.83,0.242-7.644,0.761-11.407,1.566c-27.093,5.799-50.667,26.287-60.438,52.527c-5.747,15.432-7.352,33.199-18.258,45.448
		c-14.193,15.941-38.289,16.442-59.474,15.781c-21.185-0.66-45.297-0.097-59.421,15.907c-8.845,10.023-11.657,24.277-10.943,37.7
		c1.888,35.538,26.652,67.314,58.145,83.109c31.493,15.794,68.572,17.209,103.039,10.261c48.284-9.733,94.202-36.463,121.803-77.748
		C518.602,251.661,525.587,195.414,503.504,150.855z"/>
</g>
<g id="Floor">
	<g>
		<g>
			<g>
				<path style="fill:#263238;" d="M726.276,465.252c0,0.149-157.284,0.271-351.259,0.271c-194.042,0-351.293-0.121-351.293-0.271
					c0-0.149,157.251-0.271,351.293-0.271C568.992,464.982,726.276,465.103,726.276,465.252z"/>
			</g>
		</g>
	</g>
</g>
<g id="Trees">
	<g>
		<g>
			<polygon style="fill:#263238;" points="630.78,324.002 597.131,138.106 544.385,310.81 559.845,304.813 521.649,407.955 
				543.475,398.361 517.102,465.523 635.327,465.523 625.324,403.158 635.327,421.148 613.458,312.342 			"/>
		</g>
	</g>
	<g>
		<g>
			<polygon style="fill:#263238;" points="182.948,329.382 148.154,93.078 100.002,316.717 114.845,310.959 78.174,409.983 
				99.129,400.772 73.809,465.252 187.313,465.252 177.709,405.377 187.313,422.649 166.318,318.188 			"/>
		</g>
	</g>
	<g>
		<g>
			<g>
				<g>
					<polygon style="fill:#455A64;" points="651.802,373.062 638.71,365.546 634.368,342.997 630.713,344 633.883,365.303 
						621.335,356.818 618.586,359.97 635.194,370.536 651.802,378.317 					"/>
				</g>
			</g>
			<g>
				<g>
					<g>
						<rect x="649.986" y="340.167" style="fill:#455A64;" width="9.594" height="124.431"/>
					</g>
				</g>
				<g>
					<g>
						<path style="fill:#455A64;" d="M652.165,102.495c0,1.309-25.75,82.486-25.75,82.486l12.875-13.093l-18.548,56.736
							l12.22-17.021l-14.402,71.139l6.983-7.419l-12.22,50.19l10.474-13.093l-10.474,37.533l82.922-6.11l-19.64-70.702
							l11.861,13.093l-15.352-51.499l7.856,4.364l-17.894-66.338l8.292,5.674L652.165,102.495z"/>
					</g>
				</g>
			</g>
		</g>
		<g>
			<g>
				<g>
					<path style="fill:#263238;" d="M654.945,247.388c0.027,0.011-0.118,0.433-0.411,1.203c-0.331,0.84-0.764,1.942-1.295,3.293
						c-1.176,2.879-2.78,6.807-4.642,11.365l-0.204,0.499l-0.258-0.477c-1.214-2.249-2.386-4.792-3.385-7.523
						c-0.37-1.01-0.706-2.016-1-2.977l0.507,0.019c-2.289,5.833-4.528,10.913-6.216,14.519c-0.843,1.804-1.544,3.241-2.042,4.224
						c-0.232,0.445-0.424,0.815-0.585,1.123c-0.139,0.253-0.219,0.383-0.234,0.375c-0.032-0.015,0.2-0.574,0.642-1.582
						c0.477-1.083,1.114-2.527,1.891-4.289c1.599-3.641,3.774-8.738,6.043-14.567l0.28-0.718l0.227,0.737
						c0.293,0.951,0.628,1.948,0.995,2.949c0.99,2.706,2.141,5.229,3.328,7.467l-0.461,0.022c1.934-4.528,3.6-8.43,4.822-11.29
						c0.587-1.327,1.066-2.41,1.432-3.236C654.72,247.776,654.918,247.376,654.945,247.388z"/>
				</g>
			</g>
		</g>
		<g>
			<g>
				<g>
					<path style="fill:#263238;" d="M663.78,217.087c-0.029,0.012-0.19-0.298-0.468-0.876c-0.319-0.664-0.716-1.489-1.192-2.479
						c-1.027-2.11-2.532-5.054-4.487-8.344l0.474-0.066c-0.414,1.597-0.861,3.318-1.324,5.102c-0.292,1.111-0.579,2.199-0.854,3.245
						l-0.192,0.729l-0.308-0.686c-1.768-3.936-3.299-7.402-4.374-9.891c-0.497-1.177-0.912-2.158-1.241-2.937
						c-0.281-0.692-0.42-1.077-0.39-1.091c0.03-0.014,0.227,0.345,0.562,1.013c0.368,0.762,0.831,1.721,1.387,2.872
						c1.16,2.45,2.752,5.889,4.541,9.815l-0.5,0.042c0.273-1.047,0.556-2.135,0.846-3.247c0.47-1.782,0.924-3.501,1.346-5.096
						l0.16-0.606l0.315,0.54c1.937,3.325,3.388,6.314,4.336,8.469c0.475,1.078,0.828,1.946,1.057,2.547
						C663.701,216.743,663.808,217.076,663.78,217.087z"/>
				</g>
			</g>
		</g>
		<g>
			<g>
				<g>
					<path style="fill:#263238;" d="M652.034,154.897c0.057,0.033-0.497,1.114-1.463,2.884c-0.967,1.769-2.346,4.226-3.94,7.011
						l-0.363,0.634l-0.129-0.72c-0.145-0.807-0.295-1.643-0.449-2.498c-0.258-1.478-0.506-2.898-0.736-4.214l0.471,0.091
						c-1.48,2.345-2.769,4.35-3.699,5.761c-0.931,1.411-1.504,2.227-1.555,2.196c-0.051-0.032,0.428-0.907,1.283-2.365
						c0.855-1.458,2.085-3.499,3.535-5.863l0.351-0.573l0.12,0.663c0.238,1.315,0.495,2.733,0.763,4.21
						c0.151,0.855,0.298,1.692,0.44,2.499l-0.492-0.086c1.614-2.773,3.051-5.197,4.099-6.919
						C651.318,155.885,651.977,154.864,652.034,154.897z"/>
				</g>
			</g>
		</g>
	</g>
	<g>
		<g>
			<g>
				<g>
					<rect x="81.169" y="387.314" style="fill:#455A64;" width="13.398" height="77.938"/>
				</g>
			</g>
			<g>
				<g>
					<path style="fill:#455A64;" d="M85.011,131.012c0,1.428-28.092,89.989-28.092,89.989l14.046-14.284L50.73,268.615
						l13.332-18.569l-15.712,77.61l7.618-8.094l-13.332,54.755l11.427-14.284L42.635,400.98l90.466-6.666l-21.426-77.134
						l12.94,14.284l-16.749-56.184l8.57,4.761l-19.521-72.373l9.047,6.19L85.011,131.012z"/>
				</g>
			</g>
		</g>
		<g>
			<g>
				<g>
					<path style="fill:#263238;" d="M98.483,274.162c-0.01,0.01-0.114-0.076-0.304-0.252c-0.222-0.213-0.493-0.473-0.823-0.788
						c-0.752-0.749-1.771-1.762-3.033-3.017c-2.617-2.658-6.235-6.332-10.457-10.62l0.43-0.133
						c-0.593,3.471-1.241,7.27-1.919,11.241c-0.386,2.226-0.762,4.399-1.124,6.492l-0.159,0.919l-0.347-0.865
						c-2.727-6.788-4.325-13.014-5.192-17.494c-0.437-2.242-0.711-4.049-0.869-5.294c-0.084-0.622-0.128-1.106-0.161-1.432
						c-0.03-0.327-0.038-0.498-0.022-0.5c0.016-0.002,0.056,0.165,0.117,0.487c0.066,0.375,0.149,0.843,0.25,1.418
						c0.215,1.235,0.541,3.028,1.022,5.253c0.955,4.447,2.611,10.623,5.347,17.365l-0.507,0.054
						c0.359-2.094,0.731-4.267,1.113-6.494c0.69-3.969,1.351-7.766,1.954-11.235l0.086-0.493l0.345,0.36
						c4.165,4.343,7.734,8.064,10.316,10.756c1.219,1.297,2.203,2.345,2.93,3.118c0.306,0.338,0.558,0.617,0.764,0.845
						C98.41,274.046,98.494,274.152,98.483,274.162z"/>
				</g>
			</g>
		</g>
		<g>
			<g>
				<g>
					<path style="fill:#263238;" d="M65.573,344.491c-0.147-0.025,0.187-2.722,0.746-6.024c0.56-3.302,1.133-5.959,1.28-5.934
						c0.147,0.025-0.187,2.722-0.747,6.024C66.293,341.859,65.72,344.516,65.573,344.491z"/>
				</g>
			</g>
		</g>
		<g>
			<g>
				<g>
					<path style="fill:#263238;" d="M96.483,314.096c0.017,0.007-0.067,0.239-0.241,0.673c-0.2,0.48-0.461,1.109-0.786,1.892
						c-0.728,1.691-1.743,4.047-2.991,6.945c-2.599,5.908-6.164,14.01-10.143,23.053l-0.332,0.755l-0.179-0.806
						c-0.145-0.655-0.301-1.357-0.457-2.064c-1.342-6.112-2.606-11.875-3.703-16.871l0.434,0.082
						c-3.385,4.984-6.234,9.179-8.275,12.184c-0.992,1.431-1.786,2.577-2.366,3.414c-0.259,0.36-0.47,0.654-0.641,0.891
						c-0.149,0.2-0.231,0.299-0.242,0.292c-0.011-0.007,0.05-0.121,0.178-0.335c0.154-0.248,0.345-0.555,0.58-0.932
						c0.553-0.855,1.31-2.026,2.255-3.489c2-3.031,4.793-7.263,8.112-12.292l0.311-0.471l0.123,0.552
						c1.114,4.992,2.399,10.75,3.762,16.858c0.156,0.707,0.312,1.41,0.457,2.065l-0.511-0.051
						c4.039-9.016,7.658-17.095,10.297-22.985c1.312-2.869,2.38-5.203,3.145-6.877c0.363-0.767,0.654-1.382,0.876-1.852
						C96.352,314.306,96.467,314.089,96.483,314.096z"/>
				</g>
			</g>
		</g>
		<g>
			<g>
				<g>
					<path style="fill:#263238;" d="M103.602,383.746c-0.118,0.092-2.975-3.371-6.38-7.734c-3.407-4.365-6.072-7.976-5.954-8.068
						c0.118-0.092,2.974,3.371,6.381,7.735C101.054,380.042,103.72,383.655,103.602,383.746z"/>
				</g>
			</g>
		</g>
		<g>
			<g>
				<g>
					<path style="fill:#263238;" d="M95,200.434c-0.023,0.015-0.26-0.306-0.678-0.914c-0.454-0.677-1.046-1.561-1.772-2.644
						c-1.535-2.357-3.631-5.577-6.086-9.349l0.452-0.084c-0.619,3.09-1.183,6.548-1.603,10.205c-0.333,2.906-0.546,5.71-0.668,8.279
						l-0.047,0.984l-0.438-0.88c-2.285-4.592-3.636-8.799-4.393-11.81c-0.38-1.507-0.623-2.718-0.768-3.551
						c-0.142-0.834-0.195-1.288-0.168-1.293c0.031-0.006,0.141,0.438,0.334,1.258c0.196,0.82,0.487,2.015,0.908,3.503
						c0.839,2.973,2.246,7.125,4.543,11.662l-0.485,0.104c0.104-2.582,0.308-5.4,0.642-8.319c0.422-3.674,1.005-7.145,1.655-10.243
						l0.127-0.603l0.325,0.519c2.389,3.815,4.428,7.071,5.921,9.455c0.678,1.115,1.23,2.023,1.654,2.72
						C94.832,200.07,95.023,200.419,95,200.434z"/>
				</g>
			</g>
		</g>
	</g>
</g>
<g id="Sunny">
	<g>
		<g>
			<g>
				<circle style="fill:#E8505B;" cx="462.56" cy="90.74" r="16.962"/>
			</g>
		</g>
		<g>
			<g>
				<g>
					<path style="fill:#E8505B;" d="M461.593,109.578c0.144,0,0.26,3.152,0.26,7.039c0,3.888-0.117,7.039-0.26,7.039
						s-0.26-3.151-0.26-7.039C461.333,112.729,461.449,109.578,461.593,109.578z"/>
				</g>
			</g>
		</g>
		<g>
			<g>
				<g>
					<path style="fill:#E8505B;" d="M452.113,107.266c0.11,0.093-1.118,1.717-2.741,3.627c-1.624,1.911-3.028,3.384-3.138,3.291
						c-0.109-0.093,1.117-1.717,2.741-3.628C450.599,108.646,452.004,107.173,452.113,107.266z"/>
				</g>
			</g>
		</g>
		<g>
			<g>
				<g>
					<path style="fill:#E8505B;" d="M442.456,97.145c0.069,0.126-3.032,1.94-6.924,4.051c-3.893,2.111-7.104,3.72-7.173,3.593
						c-0.069-0.126,3.031-1.94,6.924-4.051C439.176,98.628,442.387,97.019,442.456,97.145z"/>
				</g>
			</g>
		</g>
		<g>
			<g>
				<g>
					<path style="fill:#E8505B;" d="M439.073,85.064c0.01,0.144-2.446,0.432-5.485,0.644c-3.04,0.212-5.511,0.268-5.521,0.124
						c-0.01-0.143,2.445-0.432,5.485-0.644C436.591,84.976,439.063,84.92,439.073,85.064z"/>
				</g>
			</g>
		</g>
		<g>
			<g>
				<g>
					<path style="fill:#E8505B;" d="M444.68,76.835c-0.101,0.103-2.761-2.335-5.942-5.444c-3.182-3.11-5.679-5.714-5.578-5.817
						c0.1-0.103,2.76,2.334,5.942,5.444C442.283,74.128,444.781,76.732,444.68,76.835z"/>
				</g>
			</g>
		</g>
		<g>
			<g>
				<g>
					<path style="fill:#E8505B;" d="M455.122,70.447c-0.132,0.057-0.81-1.215-1.515-2.841c-0.705-1.627-1.169-2.992-1.037-3.049
						c0.132-0.057,0.81,1.215,1.515,2.842C454.79,69.025,455.254,70.39,455.122,70.447z"/>
				</g>
			</g>
		</g>
		<g>
			<g>
				<g>
					<path style="fill:#E8505B;" d="M464.456,54.804c0.144,0.002,0.21,3.328,0.147,7.427c-0.063,4.1-0.23,7.422-0.374,7.419
						c-0.144-0.002-0.21-3.327-0.147-7.427C464.145,58.123,464.312,54.801,464.456,54.804z"/>
				</g>
			</g>
		</g>
		<g>
			<g>
				<g>
					<path style="fill:#E8505B;" d="M481.56,64.787c0.118,0.082-0.931,1.81-2.345,3.859c-1.414,2.05-2.655,3.646-2.774,3.564
						c-0.118-0.082,0.931-1.809,2.345-3.86C480.2,66.301,481.441,64.705,481.56,64.787z"/>
				</g>
			</g>
		</g>
		<g>
			<g>
				<g>
					<path style="fill:#E8505B;" d="M497.684,68.877c0.076,0.122-3.584,2.519-8.173,5.354c-4.591,2.835-8.372,5.033-8.448,4.911
						c-0.076-0.122,3.583-2.519,8.174-5.354C493.826,70.954,497.608,68.755,497.684,68.877z"/>
				</g>
			</g>
		</g>
		<g>
			<g>
				<g>
					<path style="fill:#E8505B;" d="M477.69,114.461c-0.109,0.083-1.226-1.232-2.211-3.107c-0.992-1.871-1.449-3.535-1.319-3.578
						c0.141-0.051,0.807,1.503,1.779,3.335C476.904,112.947,477.811,114.373,477.69,114.461z"/>
				</g>
			</g>
		</g>
		<g>
			<g>
				<g>
					<path style="fill:#E8505B;" d="M494.621,111.353c-0.07,0.126-3.711-1.767-8.132-4.226c-4.422-2.46-7.949-4.556-7.879-4.682
						c0.07-0.126,3.71,1.766,8.133,4.227C491.163,109.131,494.691,111.227,494.621,111.353z"/>
				</g>
			</g>
		</g>
		<g>
			<g>
				<g>
					<path style="fill:#E8505B;" d="M492.813,98.587c-0.055,0.133-2.333-0.679-5.087-1.814c-2.755-1.135-4.944-2.163-4.889-2.296
						c0.055-0.133,2.332,0.679,5.088,1.814C490.679,97.426,492.868,98.454,492.813,98.587z"/>
				</g>
			</g>
		</g>
		<g>
			<g>
				<g>
					<path style="fill:#E8505B;" d="M495.64,86.072c0.015,0.143-2.611,0.531-5.863,0.867c-3.254,0.336-5.903,0.492-5.917,0.349
						c-0.015-0.143,2.61-0.531,5.864-0.867C492.976,86.086,495.625,85.929,495.64,86.072z"/>
				</g>
			</g>
		</g>
	</g>
</g>
<g id="Plant">
	<g>
		<g>
			<g>
				<path style="fill:#FAFAFA;" d="M102.662,420.828c0.035-0.013,0.29,0.586,0.722,1.681c0.436,1.093,1.025,2.692,1.718,4.679
					c1.388,3.973,3.126,9.529,4.692,15.761c1.561,6.235,2.65,11.954,3.302,16.112c0.327,2.079,0.562,3.766,0.694,4.935
					c0.136,1.169,0.194,1.817,0.157,1.823c-0.037,0.005-0.165-0.634-0.365-1.792c-0.219-1.245-0.51-2.899-0.862-4.902
					c-0.747-4.134-1.893-9.826-3.449-16.045c-1.562-6.215-3.238-11.773-4.53-15.771c-0.635-1.932-1.159-3.527-1.553-4.729
					C102.815,421.464,102.627,420.841,102.662,420.828z"/>
			</g>
		</g>
	</g>
	<g>
		<g>
			<g>
				<path style="fill:#FAFAFA;" d="M112.848,429.757c0.036-0.01,0.211,0.48,0.496,1.376c0.286,0.896,0.677,2.198,1.143,3.813
					c0.931,3.229,2.144,7.711,3.367,12.691c1.222,4.982,2.222,9.517,2.891,12.81c0.335,1.647,0.592,2.982,0.752,3.908
					c0.162,0.926,0.234,1.441,0.197,1.449c-0.037,0.007-0.178-0.493-0.403-1.406c-0.241-1.015-0.55-2.314-0.92-3.87
					c-0.765-3.27-1.823-7.786-3.043-12.763c-1.222-4.975-2.375-9.467-3.211-12.72c-0.393-1.551-0.72-2.845-0.976-3.856
					C112.918,430.277,112.812,429.767,112.848,429.757z"/>
			</g>
		</g>
	</g>
	<g>
		<g>
			<g>
				<path style="fill:#FAFAFA;" d="M128.927,419.017c0.036,0.009-0.072,0.645-0.297,1.786c-0.233,1.14-0.545,2.794-0.9,4.842
					c-0.715,4.094-1.497,9.789-1.865,16.118c-0.358,6.332-0.23,12.079,0.013,16.228c0.119,2.075,0.241,3.754,0.342,4.912
					c0.094,1.16,0.129,1.803,0.092,1.808c-0.037,0.004-0.142-0.631-0.301-1.786c-0.165-1.154-0.345-2.831-0.514-4.909
					c-0.341-4.154-0.531-9.926-0.171-16.285c0.369-6.356,1.215-12.069,2.029-16.156c0.405-2.045,0.775-3.691,1.071-4.818
					C128.714,419.628,128.891,419.008,128.927,419.017z"/>
			</g>
		</g>
	</g>
	<g>
		<g>
			<g>
				<path style="fill:#FAFAFA;" d="M134.484,445.935c0.08,0.023-0.194,1.119-0.56,2.9c-0.367,1.781-0.791,4.256-1.034,7.015
					c-0.238,2.761-0.248,5.272-0.195,7.09c0.052,1.817,0.132,2.944,0.049,2.953c-0.066,0.008-0.281-1.106-0.432-2.933
					c-0.152-1.825-0.203-4.366,0.038-7.157c0.245-2.789,0.735-5.283,1.201-7.055C134.015,446.976,134.42,445.916,134.484,445.935z"
					/>
			</g>
		</g>
	</g>
	<g>
		<g>
			<g>
				<g>
					<path style="fill:#E8505B;" d="M459.159,412.186c-0.005,0.002,0.005,0.048,0.028,0.136c0.03,0.105,0.066,0.232,0.11,0.388
						c0.095,0.342,0.263,0.837,0.438,1.486c0.376,1.292,0.866,3.177,1.341,5.534c0.975,4.708,1.675,11.347,1.55,18.687
						c-0.12,7.343-0.852,13.963-1.385,18.745c-0.275,2.372-0.499,4.3-0.657,5.664c-0.072,0.65-0.128,1.164-0.17,1.542
						c-0.015,0.161-0.027,0.293-0.037,0.402c-0.007,0.091-0.007,0.138-0.002,0.138c0.005,0.001,0.016-0.045,0.033-0.134
						c0.018-0.107,0.04-0.238,0.066-0.398c0.055-0.376,0.131-0.888,0.226-1.534c0.189-1.333,0.453-3.264,0.752-5.654
						c0.587-4.778,1.354-11.404,1.474-18.766c0.126-7.359-0.611-14.023-1.642-18.734c-0.503-2.359-1.026-4.241-1.437-5.524
						c-0.193-0.646-0.379-1.136-0.493-1.472c-0.056-0.152-0.101-0.277-0.138-0.379C459.183,412.228,459.164,412.185,459.159,412.186
						z"/>
				</g>
			</g>
		</g>
		<g>
			<g>
				<g>
					<path style="fill:#E8505B;" d="M462.351,427.23c0.284,0.292,2.128-1.057,3.797-3.282c1.677-2.22,2.463-4.365,2.104-4.557
						c-0.37-0.203-1.7,1.533-3.304,3.654C463.354,425.172,462.053,426.931,462.351,427.23z"/>
				</g>
			</g>
		</g>
		<g>
			<g>
				<g>
					<path style="fill:#E8505B;" d="M456.713,421.087c-0.259,0.328,0.8,1.591,2.275,2.925c1.478,1.331,2.843,2.254,3.143,1.963
						c0.296-0.286-0.617-1.71-2.137-3.078C458.477,421.526,456.967,420.763,456.713,421.087z"/>
				</g>
			</g>
		</g>
		<g>
			<g>
				<g>
					<path style="fill:#E8505B;" d="M461.588,421.246c0.356,0.191,1.885-2.021,2.87-5.146c0.997-3.123,1.023-5.811,0.622-5.86
						c-0.421-0.059-1.099,2.421-2.054,5.406C462.087,418.634,461.21,421.052,461.588,421.246z"/>
				</g>
			</g>
		</g>
		<g>
			<g>
				<g>
					<path style="fill:#E8505B;" d="M453.972,412.258c-0.307,0.279,1.079,2.31,3.096,4.538c2.018,2.228,3.903,3.808,4.21,3.53
						c0.307-0.278-1.079-2.31-3.097-4.538C456.164,413.56,454.279,411.98,453.972,412.258z"/>
				</g>
			</g>
		</g>
		<g>
			<g>
				<g>
					<path style="fill:#E8505B;" d="M462.693,434.523c0.278,0.3,2.409-1.231,4.521-3.642c2.119-2.407,3.362-4.717,3.029-4.954
						c-0.342-0.246-2.092,1.618-4.157,3.962C464.029,432.239,462.406,434.216,462.693,434.523z"/>
				</g>
			</g>
		</g>
		<g>
			<g>
				<g>
					<path style="fill:#E8505B;" d="M458.005,427.081c-0.33,0.252,0.428,1.797,1.692,3.452c1.264,1.655,2.556,2.792,2.886,2.54
						c0.329-0.252-0.428-1.797-1.693-3.452C459.626,427.966,458.334,426.829,458.005,427.081z"/>
				</g>
			</g>
		</g>
		<g>
			<g>
				<g>
					<path style="fill:#E8505B;" d="M462.7,442.036c0.283,0.289,2.305-1.258,4.09-3.794c1.795-2.531,2.578-4.953,2.211-5.123
						c-0.383-0.185-1.723,1.843-3.437,4.257C463.862,439.796,462.398,441.738,462.7,442.036z"/>
				</g>
			</g>
		</g>
		<g>
			<g>
				<g>
					<path style="fill:#E8505B;" d="M458.191,435.335c-0.303,0.287,0.5,1.626,1.69,3.08c1.193,1.452,2.349,2.501,2.69,2.26
						c0.337-0.237-0.298-1.714-1.529-3.212C459.814,435.963,458.489,435.052,458.191,435.335z"/>
				</g>
			</g>
		</g>
		<g>
			<g>
				<g>
					<path style="fill:#E8505B;" d="M462.17,448.408c0.311,0.274,2.222-1.386,4.268-3.707c2.046-2.322,3.452-4.426,3.141-4.7
						c-0.311-0.274-2.221,1.385-4.268,3.707C463.265,446.029,461.859,448.134,462.17,448.408z"/>
				</g>
			</g>
		</g>
		<g>
			<g>
				<g>
					<path style="fill:#E8505B;" d="M456.549,442.594c-0.319,0.27,0.755,2.056,2.279,4.08c1.528,2.022,2.95,3.544,3.297,3.312
						c0.343-0.228-0.541-2.156-2.098-4.217C458.474,443.706,456.862,442.327,456.549,442.594z"/>
				</g>
			</g>
		</g>
		<g>
			<g>
				<g>
					<path style="fill:#E8505B;" d="M461.447,456.544c0.287,0.3,2.602-1.45,5.17-3.907c2.569-2.458,4.419-4.693,4.132-4.993
						c-0.287-0.3-2.601,1.45-5.17,3.908C463.01,454.009,461.16,456.245,461.447,456.544z"/>
				</g>
			</g>
		</g>
		<g>
			<g>
				<g>
					<path style="fill:#E8505B;" d="M456.535,449.379c-0.365,0.182,0.197,2.027,1.581,3.909c1.378,1.887,2.968,2.978,3.251,2.684
						c0.296-0.3-0.744-1.794-2.04-3.572C458.022,450.629,456.91,449.187,456.535,449.379z"/>
				</g>
			</g>
		</g>
	</g>
	<g>
		<g>
			<g>
				<path style="fill:#263238;" d="M439.492,408.994c0.018-0.005,0.094,0.181,0.222,0.54c0.141,0.419,0.318,0.942,0.535,1.582
					c0.458,1.376,1.074,3.382,1.792,5.874c1.44,4.982,3.212,11.932,4.733,19.7c1.514,7.773,2.487,14.879,3.028,20.037
					c0.272,2.579,0.457,4.669,0.549,6.116c0.04,0.674,0.073,1.226,0.1,1.667c0.017,0.382,0.017,0.582-0.002,0.584
					c-0.019,0.001-0.055-0.197-0.107-0.575c-0.053-0.439-0.12-0.986-0.201-1.657c-0.179-1.514-0.423-3.576-0.72-6.091
					c-0.637-5.139-1.668-12.221-3.179-19.977c-1.518-7.752-3.228-14.701-4.571-19.702c-0.671-2.442-1.221-4.445-1.625-5.915
					c-0.177-0.652-0.322-1.184-0.438-1.611C439.516,409.196,439.475,408.999,439.492,408.994z"/>
			</g>
		</g>
	</g>
	<g>
		<g>
			<g>
				<path style="fill:#263238;" d="M437.688,438.366c0.034-0.015,0.228,0.34,0.549,0.996c0.323,0.655,0.765,1.615,1.292,2.808
					c1.055,2.388,2.428,5.724,3.8,9.465c1.37,3.742,2.477,7.177,3.214,9.681c0.369,1.252,0.651,2.27,0.828,2.978
					c0.178,0.708,0.26,1.104,0.224,1.115c-0.036,0.01-0.186-0.366-0.426-1.054c-0.272-0.802-0.603-1.778-0.991-2.924
					c-0.829-2.471-1.991-5.877-3.358-9.61c-1.368-3.731-2.681-7.082-3.644-9.503c-0.444-1.126-0.822-2.084-1.132-2.872
					C437.783,438.765,437.654,438.381,437.688,438.366z"/>
			</g>
		</g>
	</g>
	<g>
		<g>
			<g>
				<path style="fill:#263238;" d="M444.556,465.476c-0.16,0.07-1.491-3.41-4.174-7.075c-2.654-3.688-5.549-6.031-5.434-6.161
					c0.041-0.052,0.817,0.467,1.942,1.469c1.125,0.999,2.574,2.511,3.929,4.375c1.351,1.865,2.34,3.712,2.941,5.091
					C444.365,464.555,444.617,465.453,444.556,465.476z"/>
			</g>
		</g>
	</g>
	<g>
		<g>
			<g>
				<g>
					<path style="fill:#E8505B;" d="M504.678,465.123c-0.017,0.008-0.116-0.17-0.288-0.517c-0.193-0.403-0.434-0.908-0.73-1.527
						c-0.317-0.663-0.691-1.481-1.084-2.449c-0.398-0.965-0.879-2.054-1.326-3.291c-0.953-2.451-1.949-5.423-2.917-8.764
						c-0.936-3.349-1.826-7.073-2.53-11.026c-0.681-3.959-1.108-7.764-1.364-11.233c-0.224-3.471-0.296-6.605-0.231-9.234
						c0-1.315,0.083-2.503,0.13-3.545c0.041-1.043,0.115-1.94,0.188-2.671c0.068-0.682,0.124-1.239,0.168-1.684
						c0.045-0.384,0.077-0.585,0.095-0.583c0.019,0.002,0.023,0.206,0.013,0.592c-0.018,0.446-0.04,1.004-0.067,1.689
						c-0.041,0.732-0.084,1.628-0.096,2.67c-0.018,1.041-0.074,2.226-0.049,3.537c-0.015,2.62,0.096,5.74,0.346,9.194
						c0.282,3.452,0.723,7.236,1.4,11.176c0.7,3.934,1.571,7.643,2.477,10.985c0.937,3.333,1.892,6.305,2.796,8.765
						c0.422,1.241,0.876,2.337,1.247,3.31c0.366,0.975,0.71,1.804,0.997,2.479c0.258,0.634,0.468,1.152,0.636,1.566
						C504.63,464.922,504.695,465.115,504.678,465.123z"/>
				</g>
			</g>
		</g>
		<g>
			<g>
				<path style="fill:#E8505B;" d="M498.533,448.386c1.288-7.813,3.88-25.574,11.673-36.132c-4.026,2.324-7.101,6.05-9.327,10.131
					c-2.226,4.081-3.666,8.536-5.036,12.979C495.844,435.364,498.471,448.765,498.533,448.386z"/>
			</g>
		</g>
		<g>
			<g>
				<path style="fill:#E8505B;" d="M499.778,452.37c-0.433-3.218,0.24-6.574,1.88-9.377c1.64-2.803,4.236-5.033,7.254-6.233
					c-2.824,3.472-5.782,7.279-5.982,11.75c-0.172,3.841-0.343,7.682-0.514,11.523C501.488,457.548,500.704,454.855,499.778,452.37"
					/>
			</g>
		</g>
		<g>
			<g>
				<path style="fill:#E8505B;" d="M497.91,445.667c-1.691-2.572-4.191-5.195-6.27-7.465c-2.079-2.271-4.571-4.233-7.462-5.288
					c6.324,6.255,11.728,13.438,15.986,21.248"/>
			</g>
		</g>
		<g>
			<g>
				<path style="fill:#E8505B;" d="M494.304,421.004c-1.303-4.853-4.31-9.23-8.372-12.187c0.313,0.913,0.781,1.764,1.246,2.609
					c2.581,4.685,4.806,9.37,7.387,14.056"/>
			</g>
		</g>
		<g>
			<g>
				<path style="fill:#E8505B;" d="M494.627,411.417c0.886-3.717,2.268-7.36,4.491-10.468s5.336-5.66,8.987-6.784
					c-6.376,5.781-11.277,13.4-13.7,21.659"/>
			</g>
		</g>
		<g>
			<g>
				<path style="fill:#E8505B;" d="M495.217,410.129c-0.064-4.063-1.424-8.304-4.545-10.906c-0.622-0.519-1.346-0.98-2.155-1.036
					c-0.808-0.057-1.699,0.412-1.883,1.201c-0.143,0.613,0.163,1.256,0.607,1.703c0.444,0.446,1.012,0.742,1.547,1.074
					c3.216,1.993,5.402,5.563,5.714,9.334"/>
			</g>
		</g>
	</g>
	<g>
		<g>
			<g>
				<g>
					<g>
						<path style="fill:#E8505B;" d="M184.054,423.73c2.062,0.475,3.793,1.979,4.861,3.807c1.067,1.828,1.527,3.955,1.676,6.066
							c0.288,4.085-1.237,8.545-3.093,12.195c-3.914-2.316-5.639-7.302-6.355-9.886C180.01,431.828,180.444,423.759,184.054,423.73"
							/>
					</g>
				</g>
			</g>
		</g>
		<g>
			<g>
				<g>
					<g>
						<path style="fill:#E8505B;" d="M192.637,451.676c-0.958-2.161-0.477-4.816,0.972-6.684s3.753-2.972,6.104-3.224
							c1.087-0.117,2.303-0.019,3.08,0.75c0.727,0.719,0.876,1.882,0.575,2.859c-0.301,0.977-0.983,1.792-1.735,2.484
							C199.053,450.233,196.121,452.055,192.637,451.676"/>
					</g>
				</g>
			</g>
		</g>
		<g>
			<g>
				<g>
					<g>
						<g>
							<path style="fill:#263238;" d="M190.589,464.743c-0.021-0.001-0.029-0.301-0.032-0.843c-0.001-0.597-0.003-1.37-0.004-2.297
								c0.028-1.926,0.014-4.674,0.978-7.523c0.946-2.839,2.587-5.105,4.091-6.357c0.744-0.637,1.42-1.059,1.907-1.303
								c0.238-0.133,0.44-0.204,0.57-0.263c0.133-0.055,0.204-0.079,0.208-0.069c0.036,0.061-1.115,0.496-2.546,1.793
								c-1.44,1.269-3.018,3.503-3.949,6.294c-0.946,2.79-0.968,5.507-1.049,7.432c-0.032,0.969-0.057,1.754-0.09,2.296
								C190.641,464.445,190.609,464.744,190.589,464.743z"/>
						</g>
					</g>
				</g>
			</g>
		</g>
		<g>
			<g>
				<g>
					<g>
						<g>
							<path style="fill:#263238;" d="M184.266,429.904c0.01-0.002,0.047,0.119,0.108,0.351c0.065,0.264,0.149,0.602,0.252,1.02
								c0.214,0.887,0.507,2.174,0.855,3.767c0.698,3.186,1.6,7.602,2.486,12.5c0.885,4.9,1.586,9.353,2.048,12.582
								c0.232,1.615,0.408,2.922,0.518,3.828c0.049,0.428,0.09,0.774,0.121,1.043c0.024,0.239,0.032,0.365,0.022,0.367
								c-0.01,0.001-0.038-0.122-0.081-0.358c-0.045-0.267-0.104-0.611-0.176-1.035c-0.15-0.937-0.357-2.23-0.611-3.813
								c-0.515-3.219-1.248-7.664-2.133-12.56c-0.886-4.895-1.755-9.314-2.4-12.51c-0.317-1.571-0.575-2.855-0.763-3.786
								c-0.081-0.423-0.147-0.765-0.198-1.032C184.273,430.032,184.256,429.906,184.266,429.904z"/>
						</g>
					</g>
				</g>
			</g>
		</g>
		<g>
			<g>
				<g>
					<g>
						<path style="fill:#E8505B;" d="M187.26,455.191c-1.663-4.699-5.737-8.471-10.549-9.769c-1.225-0.331-2.761-0.411-3.531,0.598
							c-0.772,1.011-0.285,2.477,0.384,3.559c2.785,4.498,8.487,6.981,13.677,5.956"/>
					</g>
				</g>
			</g>
		</g>
		<g>
			<g>
				<g>
					<g>
						<g>
							<path style="fill:#263238;" d="M177.96,449.116c0.005-0.02,0.279,0.045,0.773,0.179c0.247,0.065,0.549,0.147,0.887,0.281
								c0.338,0.133,0.738,0.25,1.148,0.454c0.416,0.192,0.877,0.392,1.341,0.668c0.479,0.249,0.959,0.567,1.463,0.906
								c0.988,0.702,2.013,1.568,2.946,2.616c0.923,1.057,1.657,2.181,2.224,3.254c0.267,0.545,0.522,1.062,0.701,1.572
								c0.21,0.497,0.344,0.982,0.473,1.422c0.145,0.435,0.2,0.849,0.281,1.203c0.082,0.354,0.116,0.666,0.142,0.92
								c0.056,0.508,0.077,0.789,0.057,0.791c-0.066,0.01-0.157-1.122-0.681-2.855c-0.14-0.43-0.283-0.904-0.5-1.39
								c-0.186-0.498-0.446-1.003-0.714-1.536c-0.571-1.047-1.298-2.146-2.204-3.184c-0.916-1.029-1.917-1.887-2.881-2.589
								c-0.491-0.339-0.959-0.661-1.427-0.915c-0.452-0.281-0.902-0.489-1.307-0.691
								C179.041,449.452,177.941,449.178,177.96,449.116z"/>
						</g>
					</g>
				</g>
			</g>
		</g>
	</g>
</g>
<g id="Dog">
	<g>
		<g>
			<g>
				<g>
					<g>
						<path style="fill:#455A64;" d="M344.407,384.864c-0.155-0.058,0.884-2.313,0.925-5.294c0.081-2.981-0.865-5.276-0.708-5.328
							c0.1-0.078,1.309,2.223,1.229,5.339C345.805,382.695,344.504,384.945,344.407,384.864z"/>
					</g>
				</g>
			</g>
			<g>
				<g>
					<g>
						<path style="fill:#455A64;" d="M347.522,382.769c-0.157-0.035,0.35-2.039,0.063-4.515c-0.256-2.48-1.184-4.326-1.039-4.395
							c0.101-0.08,1.284,1.738,1.556,4.338C348.399,380.793,347.637,382.825,347.522,382.769z"/>
					</g>
				</g>
			</g>
		</g>
		<g>
			<g>
				<g>
					<g>
						<g>
							<path style="fill:#455A64;" d="M293.739,405.158c0.631,0.356,12.987,9.659,16.233,17.271
								c2.478,5.812,4.941,22.232,4.941,22.232l-2.568,16.136c0,0-6.537,0.751-6.96,4.787l10.754-0.217
								c0,0,5.072-19.227,7.544-20.887c0,0-3.439-22.671-1.123-30.858c2.316-8.187,4.143-11.973,4.143-11.973l-28.994-1.437
								L293.739,405.158z"/>
						</g>
					</g>
					<g>
						<g>
							<path style="fill:#455A64;" d="M229.059,406.202c0.631,0.356,1.388,9.971,2.277,16.226
								c0.889,6.256,1.992,21.682,1.992,21.682l-1.639,14.77c0,0-6.776,2.732-7.201,6.555l12.978-0.168
								c0,0,1.925-12.392,4.396-14.053c0,0-0.256-29.405,2.06-37.592c2.316-8.187,4.143-11.973,4.143-11.973l-22.292-2.473
								L229.059,406.202z"/>
						</g>
					</g>
					<g>
						<g>
							<g>
								<path style="fill:#455A64;" d="M233.443,409.073c0.666,0.284,5.056,7.518,6.63,13.637s4.371,21.33,4.371,21.33v14.861
									c0,0-6.308,2.624-6.308,6.471h12.509c0,0,0.792-13.289,3.065-15.212c0,0-3.497-29.197-2.098-37.59
									s2.797-12.357,2.797-12.357H231.98L233.443,409.073z"/>
							</g>
						</g>
						<g>
							<g>
								<path style="fill:#455A64;" d="M190.305,347.274c0,0,4.427-2.066,6.69-2.558c2.263-0.492,7.084-2.263,7.871-3.247
									c0.787-0.984,1.574-2.853,1.574-2.853s4.624-2.853,7.477-3.345c2.853-0.492,9.544-0.394,11.413,0
									c1.869,0.393,3.542,3.247,3.542,3.247s5.411,5.313,6.789,9.347c1.377,4.034,6.69,13.676,6.69,13.676l-18.69,18.995
									c0,0-3.939-8.074-4.038-10.731c-0.098-2.656-3.296-9.543-3.296-9.543v-1.476l-8.707-1.2c0,0-2.066,1.003-3.148,0.904
									c-1.082-0.098-2.952-1.673-2.952-1.673s-1.771,1.339-3.247,0.768c-1.476-0.571-5.154-1.842-6.433-4.794
									C190.562,349.841,189.513,347.634,190.305,347.274z"/>
							</g>
						</g>
						<g>
							<g>
								<path style="fill:#263238;" d="M191.49,351.87c0.763-0.136,1.281-1.044,1.012-1.77c-0.052-0.141-0.128-0.301-0.053-0.43
									c0.054-0.094,0.168-0.132,0.269-0.172c0.668-0.261,1.165-0.944,1.148-1.661c-0.017-0.717-0.588-1.398-1.299-1.484
									c-0.552-0.067-1.086,0.194-1.581,0.448c-0.514,0.263-1.089,0.608-1.176,1.179c-0.047,0.309,0.066,0.618,0.182,0.909
									C190.415,349.94,190.921,350.89,191.49,351.87"/>
							</g>
						</g>
						<g>
							<g>
								<g>
									<path style="fill:#263238;" d="M210.871,343.513c-0.049,0.056-0.305-0.102-0.689-0.355
										c-0.382-0.246-0.917-0.586-1.548-0.623c-0.624-0.052-1.112,0.324-1.434,0.632c-0.323,0.312-0.52,0.538-0.584,0.496
										c-0.056-0.035,0.024-0.327,0.305-0.736c0.143-0.201,0.344-0.434,0.639-0.625c0.29-0.193,0.697-0.318,1.105-0.287
										c0.827,0.057,1.41,0.53,1.748,0.856C210.756,343.213,210.917,343.461,210.871,343.513z"/>
								</g>
							</g>
						</g>
						<g>
							<g>
								<path style="fill:#455A64;" d="M223.626,380.393c0,0,0.57,2.035,0,3.335c-0.57,1.301-0.568,7.803,0,10.404
									c0.568,2.601,3.007,10.404,6.583,13.168c3.576,2.764,15.931,6.015,18.695,6.665c2.764,0.65,38.04-7.315,43.729-7.64
									s13.818,0.975,18.044,6.828c4.227,5.852,8.128,14.956,14.793,16.744c6.665,1.788,18.207,11.704,19.508,15.281
									c1.301,3.576,1.951,14.793,1.951,14.793s-5.016,1.88-4.418,5.465l0,0l11.264-0.064l-1.807-27.835
									c0,0-12.355-8.778-15.118-14.956c-2.764-6.177-5.69-14.793-5.69-14.793s-0.325-19.995-4.064-22.759
									c-3.739-2.763-11.379-9.429-30.074-8.128c-18.695,1.3-30.074-2.601-30.724-2.926c-0.65-0.325-9.916-3.576-14.793-5.039
									c-4.877-1.463-9.21-7.5-9.21-7.5L223.626,380.393z"/>
							</g>
						</g>
						<g>
							<g>
								<path style="fill:#455A64;" d="M324.427,384.7c3.712,0.412,7.564-0.605,10.589-2.795c3.025-2.19,5.193-5.533,5.96-9.188
									c2.514,1.807,2.645,4.006,0.875,7.517c-1.188,2.357-2.94,4.422-5.209,5.771c-2.269,1.349-7.966,3.8-10.525,4.449"/>
							</g>
						</g>
					</g>
					<g>
						<g>
							<polygon style="fill:#263238;" points="221.874,377.874 242.679,361.436 244.596,364.151 223.733,380.865 							"/>
						</g>
					</g>
					<g>
						<g>
							<path style="fill:#263238;" d="M207.654,342.679c0.003,0.346,0.066,0.699,0.216,0.981c0.15,0.282,0.395,0.484,0.653,0.485
								c0.217,0.001,0.449-0.128,0.56-0.377c0.175-0.393,0.42-1.097,0.036-1.363c-0.384-0.266-1.22-0.171-1.466,0.305"/>
						</g>
					</g>
					<g>
						<g>
							<g>
								<path style="fill:#263238;" d="M209.738,354.971c-0.005,0.155-1.893,0.155-4.151,0.617
									c-2.262,0.445-4.004,1.174-4.068,1.033c-0.065-0.116,1.629-1.082,3.965-1.543
									C207.816,354.602,209.753,354.839,209.738,354.971z"/>
							</g>
						</g>
					</g>
					<g>
						<g>
							<g>
								<path style="fill:#263238;" d="M254.743,403.741c0.066,0.027-0.147,0.712-0.55,1.793c-0.399,1.082-0.993,2.557-1.548,4.211
									c-0.555,1.655-0.912,3.19-1.066,4.32c-0.162,1.128-0.175,1.841-0.258,1.844c-0.06,0.004-0.179-0.714-0.108-1.882
									c0.063-1.167,0.374-2.764,0.939-4.446c0.564-1.682,1.216-3.143,1.702-4.189
									C254.344,404.346,254.677,403.714,254.743,403.741z"/>
							</g>
						</g>
					</g>
					<g>
						<g>
							<g>
								<path style="fill:#263238;" d="M223.199,390.746c0.044-0.003,0.108,0.689,0.36,1.916c0.254,1.225,0.693,2.988,1.422,5.105
									c0.749,2.095,1.677,4.644,3.318,7.064c0.857,1.19,1.917,2.316,3.073,3.441c1.149,1.13,2.375,2.305,3.414,3.705
									c2.01,2.845,3.334,5.882,4.336,8.691c0.989,2.819,1.632,5.43,2.118,7.627c0.478,2.2,0.801,3.991,1.012,5.231
									c0.091,0.572,0.166,1.044,0.228,1.43c0.046,0.328,0.062,0.502,0.044,0.505c-0.018,0.003-0.068-0.164-0.147-0.485
									c-0.087-0.381-0.194-0.847-0.324-1.411c-0.272-1.227-0.65-3.005-1.172-5.187c-0.53-2.179-1.206-4.766-2.211-7.549
									c-1.012-2.767-2.348-5.777-4.302-8.542c-2.03-2.697-4.756-4.664-6.46-7.179c-1.679-2.528-2.561-5.093-3.276-7.227
									c-0.69-2.149-1.078-3.939-1.272-5.185c-0.096-0.624-0.15-1.111-0.163-1.444
									C223.181,390.921,223.181,390.747,223.199,390.746z"/>
							</g>
						</g>
					</g>
					<g>
						<g>
							<g>
								<path style="fill:#263238;" d="M335.045,435.168c-0.029,0.038-0.647-0.423-1.809-1.181
									c-1.156-0.769-2.895-1.775-5.134-2.849c-2.208-1.115-5.02-2.194-7.682-4.231c-1.325-1.016-2.522-2.336-3.532-3.839
									c-0.996-1.513-1.853-3.172-2.705-4.868c-1.717-3.353-3.262-6.75-5.998-8.581c-2.649-1.893-5.585-2.637-8.013-2.988
									c-2.45-0.343-4.468-0.358-5.856-0.396c-0.648-0.015-1.178-0.028-1.602-0.038c-0.366-0.013-0.559-0.028-0.559-0.046
									c0-0.018,0.192-0.038,0.558-0.059c0.366-0.021,0.906-0.043,1.603-0.06c1.391-0.023,3.417-0.067,5.906,0.234
									c2.465,0.31,5.483,1.025,8.243,2.963c1.374,0.95,2.611,2.291,3.534,3.843c0.966,1.53,1.795,3.2,2.65,4.894
									c0.851,1.695,1.697,3.338,2.665,4.822c0.981,1.471,2.123,2.744,3.403,3.743c2.566,2.001,5.35,3.119,7.549,4.279
									c2.228,1.122,3.957,2.187,5.083,3.011c0.579,0.39,0.987,0.75,1.277,0.974C334.912,435.025,335.056,435.154,335.045,435.168z
									"/>
							</g>
						</g>
					</g>
					<g>
						<g>
							<g>
								<path style="fill:#263238;" d="M210.549,354.267c0.048-0.048,0.2-0.001,0.339,0.195c0.136,0.189,0.236,0.542,0.109,0.91
									c-0.13,0.368-0.429,0.581-0.653,0.644c-0.231,0.067-0.378,0.009-0.386-0.059c-0.018-0.136,0.404-0.326,0.548-0.757
									C210.661,354.774,210.45,354.362,210.549,354.267z"/>
							</g>
						</g>
					</g>
					<g>
						<g>
							<g>
								<path style="fill:none;stroke:#4E585D;stroke-width:0.05;stroke-miterlimit:10;" d="M223.785,380.764"/>
							</g>
						</g>
					</g>
					<g>
						<g>
							<g>
								<path style="fill:none;stroke:#F3A7AD;stroke-miterlimit:10;" d="M226.766,383.658"/>
							</g>
						</g>
					</g>
					<g>
						<g>
							<path style="fill:#E8505B;" d="M226.839,383.101c0.363-0.047,0.704-0.273,0.866-0.601c0.162-0.328,0.128-0.75-0.103-1.034
								c-0.3-0.368-0.857-0.44-1.305-0.284c-0.396,0.138-0.5,0.303-0.738,0.582h-3.244c-0.268-0.275-0.402-0.356-0.815-0.488
								c-0.452-0.145-1.007-0.059-1.298,0.316c-0.224,0.289-0.248,0.712-0.078,1.036c0.17,0.324,0.516,0.542,0.88,0.58
								c-0.514,0.129-0.892,0.666-0.839,1.194c0.053,0.527,0.529,0.979,1.059,1.004c0.48,0.023,0.946-0.309,1.105-0.759h3.25
								c0.193,0.406,0.641,0.689,1.092,0.657c0.529-0.038,0.994-0.501,1.034-1.03C227.747,383.746,227.356,383.217,226.839,383.101z
								"/>
						</g>
					</g>
					<g>
						<g>
							<g>
								<path style="fill:#263238;" d="M224.378,381.848c-0.074,0.004-0.13-0.12-0.193-0.245c-0.034-0.063-0.07-0.097-0.105-0.107
									c-0.045-0.021-0.122-0.049-0.191-0.052c-0.286-0.044-0.41,0.283-0.521,0.333c-0.061,0.025-0.188-0.091-0.153-0.333
									c0.009-0.227,0.319-0.564,0.71-0.52c0.187,0.014,0.347,0.089,0.471,0.211c0.139,0.138,0.161,0.311,0.153,0.413
									C224.526,381.758,224.446,381.844,224.378,381.848z"/>
							</g>
						</g>
					</g>
				</g>
				<g>
					<g>
						<path style="fill:#FFFFFF;" d="M230.867,348.503c-1.157-0.298-2.887,0.671-3.531,1.677c-0.645,1.006-0.565,2.422,0.189,3.348
							c-0.728,0.159-1.341,0.718-1.628,1.406c-0.288,0.688-0.264,1.486-0.001,2.183c0.262,0.692,0.794,1.319,1.506,1.519
							c0.782,0.219,1.41-0.163,2.084-0.618c2.241-1.511,2.976-4.389,2.102-6.947c-0.335-0.981-0.811-2.52-0.836-2.594"/>
					</g>
				</g>
				<g>
					<g>
						<g>
							<path style="fill:#263238;" d="M226.001,339.626c0.009-0.011,0.181,0.103,0.473,0.363c0.291,0.26,0.707,0.663,1.172,1.245
								c0.945,1.149,2.023,3.054,2.873,5.569c0.432,1.257,0.851,2.633,1.279,4.137c0.399,1.484,0.709,3.297-0.07,5.007
								c-0.387,0.856-1.104,1.505-1.774,2.107c-0.693,0.598-1.274,1.254-1.708,2.085c-0.451,0.811-0.813,1.716-1.339,2.578
								c-0.514,0.851-1.247,1.704-2.281,2.09c-0.506,0.193-1.069,0.272-1.616,0.166c-0.55-0.103-1.04-0.41-1.406-0.793
								c-0.731-0.784-1.061-1.758-1.364-2.655c-0.603-1.821-0.991-3.626-1.3-5.351c-0.306-1.725-0.461-3.429-0.18-5.004
								c0.145-0.783,0.401-1.523,0.764-2.173c0.363-0.653,0.819-1.187,1.207-1.712c0.825-1.019,1.208-2.136,1.235-3.17
								c0.048-1.026-0.15-1.91-0.352-2.61c-0.43-1.4-0.803-2.136-0.755-2.156c0.016-0.007,0.119,0.169,0.292,0.518
								c0.17,0.35,0.417,0.871,0.656,1.577c0.235,0.703,0.471,1.605,0.45,2.681c-0.012,0.535-0.091,1.113-0.293,1.695
								c-0.199,0.586-0.546,1.145-0.936,1.682c-0.387,0.541-0.824,1.074-1.152,1.688c-0.331,0.613-0.562,1.31-0.69,2.053
								c-0.25,1.496-0.088,3.146,0.227,4.845c0.319,1.706,0.714,3.49,1.312,5.273c0.299,0.887,0.63,1.797,1.254,2.458
								c0.608,0.677,1.592,0.856,2.464,0.499c0.88-0.327,1.532-1.066,2.024-1.874c0.499-0.812,0.862-1.709,1.335-2.556
								c0.447-0.86,1.126-1.619,1.821-2.206c0.684-0.606,1.329-1.193,1.673-1.943c0.714-1.522,0.465-3.231,0.086-4.693
								c-0.404-1.486-0.807-2.882-1.21-4.128c-0.798-2.504-1.804-4.392-2.685-5.563
								C226.611,340.179,225.965,339.663,226.001,339.626z"/>
						</g>
					</g>
				</g>
				<g>
					<g>
						<path style="fill:#FFFFFF;" d="M203.274,342.498c-1.602,0.704-3.724,1.571-5.618,2.088l0,0
							c0.643,1.305,2.315,1.998,3.692,1.53C202.726,345.647,203.56,343.924,203.274,342.498z"/>
					</g>
				</g>
				<g>
					<g>
						<path style="fill:#EBEBEB;" d="M251.825,430.537c-2.427-1.181-3.948-3.704-4.157-6.395c-0.209-2.691,1.409-5.586,3.624-7.127
							L251.825,430.537z"/>
					</g>
				</g>
			</g>
			<g>
				<g>
					<path style="fill:#FFFFFF;" d="M283.922,377.011c1.069,2.475,3.206,4.825,5.75,5.716c2.544,0.892,5.457,0.67,7.837-0.596
						c1.224-0.651,2.348-1.577,3.713-1.826c1.588-0.289,3.286,0.391,4.81-0.14c1.401-0.489,2.371-1.591,2.122-3.054
						c0.082-0.184-8.992-0.699-12.116-0.146C292.925,377.515,283.922,377.011,283.922,377.011z"/>
				</g>
			</g>
		</g>
	</g>
</g>
<g id="Character">
	<g>
		<g>
			<g>
				<g>
					<g>
						<path style="fill:#723C31;" d="M260.757,296.026l-5.93-5.209l0.242-10.058l7.753,3.153c0,0,1.817,8.177,1.635,8.237
							C264.275,292.21,260.757,296.026,260.757,296.026z"/>
					</g>
				</g>
				<g>
					<g>
						<path style="fill:#AA6550;" d="M311.945,240.59c-0.73,0.313-6.468,3.443-7.615,10.015c-1.147,6.572-4.799,35.26-4.799,35.26
							l-30.878,3.442l-1.982,8.867c0,0,24.932,7.302,32.86,6.781c7.928-0.522,6.749,0.212,9.493-2.086
							c2.745-2.298,3.964-5.737,3.964-5.737l2.578-58.783L311.945,240.59z"/>
					</g>
				</g>
				<g>
					<g>
						<path style="fill:#AA6550;" d="M268.653,289.307l-5.898-8.674l-9.811-1.447c0,0-0.566,1.006,1.258,2.39
							c1.824,1.384,5.031,2.013,5.031,2.013l1.524,3.333l0.803,4.277c0,0-1.447,2.453-1.384,4.403
							c0.063,1.95,6.495,2.572,6.495,2.572L268.653,289.307z"/>
					</g>
				</g>
				<g>
					<g>
						<path style="fill:#263238;" d="M252.86,277.16c-0.124,0.293,2.162,8.516,1.844,12.393c-0.318,3.877-1.398,5.084-1.398,5.084
							h6.905v-18.176C260.211,276.461,253.94,274.618,252.86,277.16z"/>
					</g>
				</g>
				<g>
					<g>
						<rect x="256.533" y="294.637" style="fill:#263238;" width="1.284" height="168.149"/>
					</g>
				</g>
				<g>
					<g>
						<path style="fill:#E8505B;" d="M315.016,236.913c0,0-10.303,5.97-11.52,9.959c-1.218,3.99-4.151,24.792-4.151,24.792
							l14.55,4.819C313.894,276.484,315.349,236.339,315.016,236.913z"/>
					</g>
				</g>
				<g>
					<g>
						<path style="fill:#AA6550;" d="M252.86,280.759c0,0-1.363,0.126-1.552,0.818c-0.189,0.692,0,1.95,0,1.95l2.013,1.572
							c0,0-0.713,0-1.048,0.44c-0.335,0.44-0.105,1.887,0,2.138c0.105,0.252,0.588,0.629,0.588,0.629s-0.567,0.566-0.588,1.132
							c-0.021,0.566,0,1.069,0,1.069h1.048c0,0-0.964,0.314-1.048,0.755c-0.084,0.44,0.021,0.943,0,1.132
							c-0.021,0.189,1.551,0.629,1.551,0.629l5.472-0.629c0,0,0.943-0.943,0.377-1.51c0,0,1.781-0.251,1.669-0.847
							c-0.112-0.596-0.362-1.929-0.362-1.929l-1.998,0.009c0,0,1.392-0.574,1.631-0.87c0.288-0.357-0.541-1.825-0.541-1.825
							l-2.033,0.053c0,0,0.809-1.933,0.003-2.182C257.233,283.046,252.86,280.759,252.86,280.759z"/>
					</g>
				</g>
			</g>
			<g>
				<g>
					<g>
						<path style="fill:#723C31;" d="M303.313,293.548c-0.161,0.007-0.102-2.049-1.185-4.244c-1.047-2.214-2.695-3.444-2.589-3.566
							c0.043-0.124,1.938,0.987,3.058,3.34C303.744,291.416,303.438,293.591,303.313,293.548z"/>
					</g>
				</g>
			</g>
			<g>
				<g>
					<g>
						<path style="fill:#723C31;" d="M258.261,284.455c0.056,0.008,0.148,0.378,0.012,1.021c-0.082,0.314-0.264,0.72-0.702,0.972
							c-0.456,0.255-1.015,0.153-1.456,0.002c-1.737-0.703-3.069-1.403-3.006-1.527c0.066-0.132,1.485,0.348,3.168,1.032
							c0.418,0.143,0.801,0.2,1.073,0.066c0.279-0.13,0.468-0.414,0.573-0.662C258.125,284.839,258.177,284.441,258.261,284.455z"/>
					</g>
				</g>
			</g>
			<g>
				<g>
					<g>
						<path style="fill:#723C31;" d="M259.438,287.967c0.056,0.122-1.353,0.788-3.241,0.882c-1.889,0.107-3.359-0.407-3.317-0.534
							c0.035-0.15,1.492,0.117,3.289,0.014C257.966,288.242,259.388,287.822,259.438,287.967z"/>
					</g>
				</g>
			</g>
			<g>
				<g>
					<g>
						<path style="fill:#723C31;" d="M259.929,290.688c0.013,0.138-1.585,0.393-3.572,0.319c-1.987-0.068-3.564-0.436-3.54-0.573
							c0.022-0.147,1.607-0.014,3.559,0.053C258.327,290.559,259.917,290.54,259.929,290.688z"/>
					</g>
				</g>
			</g>
			<g>
				<g>
					<g>
						<path style="fill:#723C31;" d="M267.973,295.587c-0.141-0.006-0.204-1.099,0.012-2.421c0.213-1.324,0.618-2.34,0.754-2.301
							c0.141,0.039-0.032,1.093-0.24,2.384C268.288,294.539,268.12,295.594,267.973,295.587z"/>
					</g>
				</g>
			</g>
		</g>
		<g>
			<g>
				<g>
					<g>
						<path style="fill:#723C31;" d="M260.757,296.026l-5.93-5.209l0.242-10.058l7.753,3.153c0,0,1.817,8.177,1.635,8.237
							C264.275,292.21,260.757,296.026,260.757,296.026z"/>
					</g>
				</g>
				<g>
					<g>
						<path style="fill:#AA6550;" d="M311.945,240.59c-0.73,0.313-6.468,3.443-7.615,10.015c-1.147,6.572-4.799,35.26-4.799,35.26
							l-30.878,3.442l-1.982,8.867c0,0,24.932,7.302,32.86,6.781c7.928-0.522,6.749,0.212,9.493-2.086
							c2.745-2.298,3.964-5.737,3.964-5.737l2.578-58.783L311.945,240.59z"/>
					</g>
				</g>
				<g>
					<g>
						<path style="fill:#AA6550;" d="M268.653,289.307l-5.898-8.674l-9.811-1.447c0,0-0.566,1.006,1.258,2.39
							c1.824,1.384,5.031,2.013,5.031,2.013l1.524,3.333l0.803,4.277c0,0-1.447,2.453-1.384,4.403
							c0.063,1.95,6.495,2.572,6.495,2.572L268.653,289.307z"/>
					</g>
				</g>
				<g>
					<g>
						<path style="fill:#263238;" d="M252.86,277.16c-0.124,0.293,2.162,8.516,1.844,12.393c-0.318,3.877-1.398,5.084-1.398,5.084
							h6.905v-18.176C260.211,276.461,253.94,274.618,252.86,277.16z"/>
					</g>
				</g>
				<g>
					<g>
						<rect x="256.533" y="294.637" style="fill:#263238;" width="1.284" height="168.149"/>
					</g>
				</g>
				<g>
					<g>
						<path style="fill:#E8505B;" d="M315.016,236.913c0,0-10.303,5.97-11.52,9.959c-1.218,3.99-4.151,24.792-4.151,24.792
							l14.55,4.819C313.894,276.484,315.349,236.339,315.016,236.913z"/>
					</g>
				</g>
				<g>
					<g>
						<path style="fill:#AA6550;" d="M252.86,280.759c0,0-1.363,0.126-1.552,0.818c-0.189,0.692,0,1.95,0,1.95l2.013,1.572
							c0,0-0.713,0-1.048,0.44c-0.335,0.44-0.105,1.887,0,2.138c0.105,0.252,0.588,0.629,0.588,0.629s-0.567,0.566-0.588,1.132
							c-0.021,0.566,0,1.069,0,1.069h1.048c0,0-0.964,0.314-1.048,0.755c-0.084,0.44,0.021,0.943,0,1.132
							c-0.021,0.189,1.551,0.629,1.551,0.629l5.472-0.629c0,0,0.943-0.943,0.377-1.51c0,0,1.781-0.251,1.669-0.847
							c-0.112-0.596-0.362-1.929-0.362-1.929l-1.998,0.009c0,0,1.392-0.574,1.631-0.87c0.288-0.357-0.541-1.825-0.541-1.825
							l-2.033,0.053c0,0,0.809-1.933,0.003-2.182C257.233,283.046,252.86,280.759,252.86,280.759z"/>
					</g>
				</g>
			</g>
			<g>
				<g>
					<g>
						<path style="fill:#723C31;" d="M303.313,293.548c-0.161,0.007-0.102-2.049-1.185-4.244c-1.047-2.214-2.695-3.444-2.589-3.566
							c0.043-0.124,1.938,0.987,3.058,3.34C303.744,291.416,303.438,293.591,303.313,293.548z"/>
					</g>
				</g>
			</g>
			<g>
				<g>
					<g>
						<path style="fill:#723C31;" d="M258.261,284.455c0.056,0.008,0.148,0.378,0.012,1.021c-0.082,0.314-0.264,0.72-0.702,0.972
							c-0.456,0.255-1.015,0.153-1.456,0.002c-1.737-0.703-3.069-1.403-3.006-1.527c0.066-0.132,1.485,0.348,3.168,1.032
							c0.418,0.143,0.801,0.2,1.073,0.066c0.279-0.13,0.468-0.414,0.573-0.662C258.125,284.839,258.177,284.441,258.261,284.455z"/>
					</g>
				</g>
			</g>
			<g>
				<g>
					<g>
						<path style="fill:#723C31;" d="M259.438,287.967c0.056,0.122-1.353,0.788-3.241,0.882c-1.889,0.107-3.359-0.407-3.317-0.534
							c0.035-0.15,1.492,0.117,3.289,0.014C257.966,288.242,259.388,287.822,259.438,287.967z"/>
					</g>
				</g>
			</g>
			<g>
				<g>
					<g>
						<path style="fill:#723C31;" d="M259.929,290.688c0.013,0.138-1.585,0.393-3.572,0.319c-1.987-0.068-3.564-0.436-3.54-0.573
							c0.022-0.147,1.607-0.014,3.559,0.053C258.327,290.559,259.917,290.54,259.929,290.688z"/>
					</g>
				</g>
			</g>
			<g>
				<g>
					<g>
						<path style="fill:#723C31;" d="M267.973,295.587c-0.141-0.006-0.204-1.099,0.012-2.421c0.213-1.324,0.618-2.34,0.754-2.301
							c0.141,0.039-0.032,1.093-0.24,2.384C268.288,294.539,268.12,295.594,267.973,295.587z"/>
					</g>
				</g>
			</g>
		</g>
		<g>
			<g>
				<g>
					<path style="fill:#455A64;" d="M360.162,315.051c0,0,9.065,4.571,15.615,2.837c6.55-1.734,8.663-6.171,8.663-6.171l0,0
						c2.01-12.987,1.375-26.246-1.866-38.981l-3.179-12.487c0,0-11.109-20.814-19.233-26.012
						c-8.124-5.198-16.367-3.653-15.674-2.802c0.693,0.851,9.284,74.391,9.284,74.391L360.162,315.051z"/>
				</g>
			</g>
			<g>
				<g>
					<g>
						<path style="fill:#263238;" d="M361.803,293.471c-0.018-0.015,0.381-0.03,1.15-0.047c0.832-0.014,1.958-0.033,3.364-0.057
							c3.002-0.029,7.193-0.07,12.211-0.118l0.213-0.002l0.009,0.216c0.111,2.633,0.232,5.509,0.36,8.563
							c0.062,1.53,0.125,3.104,0.19,4.714c0.06,1.599,0.184,3.29-0.201,4.986c-0.265,1.206-0.918,2.413-2.006,3.081
							c-1.082,0.684-2.361,0.753-3.504,0.686c-1.16-0.089-2.257-0.259-3.351-0.463c-1.084-0.218-2.162-0.54-3.078-1.144
							c-0.927-0.592-1.596-1.488-2.016-2.41c-0.43-0.926-0.677-1.874-0.905-2.777c-0.446-1.816-0.758-3.524-1.025-5.085
							c-0.526-3.123-0.862-5.661-1.099-7.414c-0.107-0.839-0.192-1.512-0.258-2.027C361.807,293.688,361.792,293.46,361.803,293.471
							c0.011,0.011,0.07,0.267,0.161,0.701c0.09,0.508,0.207,1.172,0.353,2c0.298,1.743,0.69,4.273,1.261,7.379
							c0.289,1.552,0.621,3.251,1.081,5.042c0.235,0.895,0.487,1.817,0.901,2.688c0.408,0.871,1.015,1.668,1.863,2.203
							c0.84,0.548,1.858,0.852,2.913,1.058c1.058,0.193,2.176,0.36,3.285,0.441c1.101,0.063,2.266-0.019,3.197-0.615
							c0.941-0.581,1.523-1.628,1.775-2.761c0.363-1.59,0.252-3.236,0.193-4.847c-0.06-1.61-0.118-3.185-0.175-4.715
							c-0.108-3.055-0.21-5.932-0.304-8.566l0.222,0.213c-4.955-0.049-9.093-0.089-12.058-0.118
							c-1.429-0.024-2.574-0.043-3.42-0.057c-0.366-0.01-0.667-0.018-0.916-0.024C361.925,293.487,361.812,293.479,361.803,293.471z
							"/>
					</g>
				</g>
			</g>
			<g>
				<g>
					<g>
						<path style="fill:#263238;" d="M364.366,237.925c0.089,0.172-2.903,0.546-6.453,1.263c-1.781,0.363-3.374,0.773-4.477,1.189
							c-1.116,0.399-1.68,0.863-1.727,0.818c-0.064-0.049,0.464-0.656,1.585-1.157c1.105-0.519,2.716-0.993,4.515-1.36
							c1.8-0.367,3.449-0.577,4.644-0.69C363.634,237.877,364.425,237.864,364.366,237.925z"/>
					</g>
				</g>
			</g>
			<g>
				<g>
					<g>
						<path style="fill:#263238;" d="M371.059,282.229c-0.036-0.001-0.075-0.64-0.116-1.792c-0.006-0.576-0.058-1.279-0.133-2.095
							c-0.057-0.816-0.139-1.743-0.288-2.763c-0.228-2.046-0.696-4.457-1.273-7.116c-0.623-2.651-1.421-5.538-2.382-8.531
							c-1.956-5.98-4.172-11.238-5.878-14.993c-0.845-1.882-1.564-3.39-2.059-4.432c-0.497-1.042-0.757-1.627-0.725-1.643
							c0.032-0.017,0.352,0.536,0.906,1.552c0.552,1.016,1.322,2.502,2.212,4.368c1.795,3.724,4.074,8.979,6.039,14.988
							c0.966,3.007,1.754,5.915,2.355,8.587c0.555,2.681,0.987,5.114,1.171,7.179c0.126,1.029,0.182,1.964,0.212,2.787
							c0.048,0.822,0.071,1.529,0.045,2.109c-0.015,0.527-0.028,0.967-0.038,1.333C371.093,282.07,371.077,282.23,371.059,282.229z"
							/>
					</g>
				</g>
			</g>
			<g>
				<g>
					<g>
						<rect x="366.341" y="287.8" style="fill:#EBEBEB;" width="9.436" height="5.671"/>
					</g>
				</g>
				<g>
					<g>
						<path style="fill:#263238;" d="M376.09,286.616c-0.135-1.015-4.059-2.232-4.059-2.232v-1.623h-2.3v1.623
							c0,0-3.179,1.421-3.585,1.962c-0.406,0.541,0.203,2.638,0.203,2.638h9.74C376.09,288.983,376.226,287.63,376.09,286.616z"/>
					</g>
				</g>
				<g>
					<g>
						<g>
							<path style="fill:#E0E0E0;" d="M375.829,291.775c0,0.144-2.128,0.26-4.752,0.26c-2.625,0-4.752-0.117-4.752-0.26
								c0-0.144,2.127-0.26,4.752-0.26C373.701,291.514,375.829,291.631,375.829,291.775z"/>
						</g>
					</g>
				</g>
				<g>
					<g>
						<g>
							<path style="fill:#455A64;" d="M375.97,286.578c0.014,0.138-2.215,0.467-4.988,0.481c-2.774,0.019-5.007-0.283-4.995-0.422
								c0.012-0.148,2.243-0.08,4.991-0.099C373.726,286.525,375.957,286.43,375.97,286.578z"/>
						</g>
					</g>
				</g>
				<g>
					<g>
						<g>
							<path style="fill:#455A64;" d="M372.055,284.344c0.11,0.089-0.323,0.652-1.139,0.687c-0.817,0.024-1.29-0.505-1.187-0.602
								c0.087-0.118,0.571,0.11,1.168,0.082C371.493,284.496,371.96,284.233,372.055,284.344z"/>
						</g>
					</g>
				</g>
			</g>
			<g>
				<g>
					<g>
						<path style="fill:#263238;" d="M379.63,260.253c0.007,0.151-2.62,0.365-5.827,0.837c-3.21,0.463-5.788,1.007-5.824,0.861
							c-0.036-0.132,2.508-0.908,5.749-1.376C376.966,260.099,379.626,260.117,379.63,260.253z"/>
					</g>
				</g>
			</g>
			<g>
				<g>
					<g>
						<path style="fill:#263238;" d="M384.509,280.427c-0.069,0.043-0.845-1.129-2.171-2.967c-1.324-1.839-3.228-4.324-5.519-6.91
							c-2.295-2.583-4.537-4.769-6.205-6.303c-1.667-1.535-2.738-2.445-2.687-2.508c0.022-0.028,0.316,0.168,0.828,0.546
							c0.514,0.376,1.235,0.95,2.104,1.686c1.739,1.47,4.039,3.631,6.351,6.233c2.307,2.604,4.179,5.144,5.432,7.046
							c0.628,0.95,1.113,1.734,1.424,2.289C384.38,280.093,384.54,280.408,384.509,280.427z"/>
					</g>
				</g>
			</g>
			<g>
				<g>
					<g>
						<path style="fill:#263238;" d="M384.44,280.233c0.047,0.128-2.584,1.172-5.981,1.94c-3.396,0.778-6.219,0.975-6.232,0.84
							c-0.018-0.15,2.753-0.577,6.117-1.348C381.708,280.905,384.391,280.09,384.44,280.233z"/>
					</g>
				</g>
			</g>
			<g>
				<g>
					<g>
						<path style="fill:#263238;" d="M379.936,260.25c0.036,0,0.06,0.341,0.072,0.96c0.02,0.619-0.014,1.515-0.11,2.617
							c-0.188,2.204-0.745,5.242-1.914,8.425c-1.178,3.18-2.728,5.852-4.016,7.651c-0.643,0.901-1.199,1.604-1.616,2.062
							c-0.411,0.462-0.651,0.706-0.678,0.683c-0.069-0.057,0.794-1.114,1.989-2.951c1.198-1.833,2.672-4.491,3.832-7.624
							c1.152-3.135,1.757-6.113,2.037-8.285C379.816,261.613,379.847,260.249,379.936,260.25z"/>
					</g>
				</g>
			</g>
		</g>
		<g>
			<g>
				<g>
					<path style="fill:#AA6550;" d="M301.197,383.44l-11.873,60.668l12.762,2.991c0,0,13.845-36.042,15.604-41.756
						c1.758-5.714,3.736-21.098,3.736-21.098L301.197,383.44z"/>
				</g>
			</g>
			<g>
				<g>
					<g>
						<g>
							<g>
								<g>
									<g>
										<g>
											<g>
												<path style="fill:#E8505B;" d="M288.962,443.645l-2.931,13.522c0,0-14.465,0.591-15.251,3.037l25.751,7.596
													l5.963-20.747L288.962,443.645z"/>
											</g>
										</g>
									</g>
								</g>
							</g>
						</g>
					</g>
					<g style="opacity:0.6;">
						<g>
							<g>
								<g>
									<g>
										<g>
											<g>
												<g>
													<path style="fill:#FFFFFF;" d="M294.362,458.088c0.468,0.266,0.672,0.921,0.426,1.4
														c-0.246,0.479-0.91,0.692-1.384,0.434c-0.473-0.258-0.742-1.036-0.443-1.484c0.298-0.448,1.092-0.656,1.489-0.292"/>
												</g>
											</g>
										</g>
									</g>
								</g>
							</g>
						</g>
					</g>
					<g style="opacity:0.6;">
						<g>
							<g>
								<g>
									<g>
										<g>
											<g>
												<path style="fill:#FFFFFF;" d="M296.531,467.799l0.548-2.105l-25.121-6.468c0,0-0.932,0.12-1.363,1.126L296.531,467.799
													z"/>
											</g>
										</g>
									</g>
								</g>
							</g>
						</g>
					</g>
					<g>
						<g>
							<g>
								<g>
									<g>
										<g>
											<g>
												<g>
													<path style="fill:#263238;" d="M285.643,456.927c-0.028,0.128,0.592,0.348,1.113,0.915
														c0.536,0.554,0.718,1.186,0.848,1.166c0.123,0.005,0.128-0.803-0.516-1.479
														C286.451,456.847,285.645,456.803,285.643,456.927z"/>
												</g>
											</g>
										</g>
									</g>
								</g>
							</g>
						</g>
					</g>
					<g>
						<g>
							<g>
								<g>
									<g>
										<g>
											<g>
												<g>
													<path style="fill:#263238;" d="M282.627,457.36c-0.061,0.116,0.435,0.472,0.729,1.119
														c0.314,0.638,0.275,1.247,0.402,1.274c0.114,0.05,0.392-0.671,0.01-1.469
														C283.394,457.483,282.66,457.24,282.627,457.36z"/>
												</g>
											</g>
										</g>
									</g>
								</g>
							</g>
						</g>
					</g>
					<g>
						<g>
							<g>
								<g>
									<g>
										<g>
											<g>
												<g>
													<path style="fill:#263238;" d="M280.246,460.231c0.108,0.056,0.447-0.533,0.298-1.312
														c-0.143-0.78-0.673-1.207-0.753-1.115c-0.098,0.086,0.192,0.558,0.305,1.199
														C280.223,459.642,280.123,460.186,280.246,460.231z"/>
												</g>
											</g>
										</g>
									</g>
								</g>
							</g>
						</g>
					</g>
					<g>
						<g>
							<g>
								<g>
									<g>
										<g>
											<g>
												<g>
													<path style="fill:#263238;" d="M286.653,453.919c0.024,0.129,0.651,0.103,1.357,0.334
														c0.71,0.217,1.207,0.601,1.301,0.508c0.097-0.073-0.329-0.682-1.164-0.943
														C287.315,453.551,286.616,453.803,286.653,453.919z"/>
												</g>
											</g>
										</g>
									</g>
								</g>
							</g>
						</g>
					</g>
				</g>
				<g>
					<g>
						<g>
							<g>
								<g>
									<g>
										<g>
											<g>
												<path style="fill:#263238;" d="M287.294,451.202c-0.015,0.052,0.467,0.259,1.305,0.325
													c0.417,0.033,0.92,0.022,1.47-0.072c0.274-0.047,0.56-0.114,0.849-0.206c0.139-0.047,0.301-0.088,0.471-0.206
													c0.174-0.097,0.34-0.413,0.23-0.661c-0.082-0.234-0.296-0.38-0.483-0.432c-0.19-0.055-0.355-0.056-0.506-0.057
													c-0.308-0.003-0.604,0.023-0.881,0.072c-0.555,0.099-1.031,0.283-1.402,0.483c-0.746,0.405-1.073,0.827-1.036,0.863
													c0.047,0.057,0.442-0.266,1.174-0.571c0.365-0.152,0.816-0.289,1.329-0.359c0.256-0.033,0.527-0.049,0.807-0.04
													c0.294-0.002,0.529,0.055,0.568,0.196c0.014,0.053,0.012,0.073-0.066,0.139c-0.079,0.059-0.209,0.104-0.346,0.15
													c-0.268,0.091-0.533,0.163-0.789,0.218c-0.511,0.11-0.984,0.153-1.382,0.162
													C287.809,451.223,287.31,451.133,287.294,451.202z"/>
											</g>
										</g>
									</g>
								</g>
							</g>
						</g>
					</g>
				</g>
				<g>
					<g>
						<g>
							<g>
								<g>
									<g>
										<g>
											<g>
												<path style="fill:#263238;" d="M287.413,451.426c0.04,0.031,0.408-0.36,0.664-1.171
													c0.126-0.402,0.209-0.908,0.186-1.471c-0.014-0.281-0.054-0.577-0.13-0.876c-0.087-0.296-0.185-0.687-0.664-0.869
													c-0.255-0.075-0.52,0.071-0.637,0.225c-0.131,0.154-0.186,0.301-0.255,0.444c-0.125,0.292-0.195,0.591-0.224,0.877
													c-0.059,0.574,0.05,1.093,0.214,1.487c0.337,0.804,0.828,1.09,0.85,1.05c0.059-0.053-0.322-0.411-0.546-1.158
													c-0.111-0.368-0.174-0.833-0.1-1.329c0.036-0.247,0.105-0.502,0.216-0.747c0.111-0.266,0.272-0.463,0.368-0.408
													c0.13,0.031,0.297,0.295,0.347,0.543c0.074,0.267,0.12,0.533,0.143,0.788c0.043,0.512,0,0.98-0.078,1.364
													C287.606,450.948,287.349,451.389,287.413,451.426z"/>
											</g>
										</g>
									</g>
								</g>
							</g>
						</g>
					</g>
				</g>
			</g>
		</g>
		<g>
			<g>
				<g>
					<path style="fill:#AA6550;" d="M346.161,387.741l21.804,62.965l11.645-1.336c0,0,0-39.864-2.978-47.195
						c-2.978-7.331-10.796-21.159-10.796-21.159L346.161,387.741z"/>
				</g>
			</g>
			<g>
				<g>
					<g>
						<g>
							<g>
								<g>
									<g>
										<g>
											<g>
												<path style="fill:#E8505B;" d="M365.911,446.182l3.087,13.487c0,0-12.846,6.676-12.519,9.224l26.54-4.055l-3.409-21.317
													L365.911,446.182z"/>
											</g>
										</g>
									</g>
								</g>
							</g>
						</g>
					</g>
					<g style="opacity:0.6;">
						<g>
							<g>
								<g>
									<g>
										<g>
											<g>
												<g>
													<path style="fill:#FFFFFF;" d="M376.932,456.967c0.537,0.042,0.999,0.548,0.98,1.086
														c-0.02,0.538-0.531,1.013-1.068,0.98c-0.538-0.032-1.111-0.623-1.031-1.156c0.08-0.533,0.71-1.057,1.224-0.897"/>
												</g>
											</g>
										</g>
									</g>
								</g>
							</g>
						</g>
					</g>
					<g style="opacity:0.6;">
						<g>
							<g>
								<g>
									<g>
										<g>
											<g>
												<path style="fill:#FFFFFF;" d="M383.019,464.839l-0.398-2.138l-25.49,4.808c0,0-0.793,0.504-0.756,1.598
													L383.019,464.839z"/>
											</g>
										</g>
									</g>
								</g>
							</g>
						</g>
					</g>
					<g>
						<g>
							<g>
								<g>
									<g>
										<g>
											<g>
												<g>
													<path style="fill:#263238;" d="M368.545,459.617c0.029,0.128,0.684,0.063,1.396,0.356
														c0.721,0.274,1.154,0.769,1.262,0.696c0.114-0.048-0.225-0.781-1.095-1.12
														C369.243,459.202,368.494,459.504,368.545,459.617z"/>
												</g>
											</g>
										</g>
									</g>
								</g>
							</g>
						</g>
					</g>
					<g>
						<g>
							<g>
								<g>
									<g>
										<g>
											<g>
												<g>
													<path style="fill:#263238;" d="M365.999,461.29c-0.006,0.13,0.594,0.243,1.135,0.703
														c0.555,0.445,0.778,1.013,0.905,0.983c0.125-0.003,0.07-0.774-0.614-1.334
														C366.745,461.076,365.978,461.167,365.999,461.29z"/>
												</g>
											</g>
										</g>
									</g>
								</g>
							</g>
						</g>
					</g>
					<g>
						<g>
							<g>
								<g>
									<g>
										<g>
											<g>
												<g>
													<path style="fill:#263238;" d="M365.061,464.901c0.122,0.005,0.178-0.673-0.287-1.314
														c-0.461-0.645-1.121-0.807-1.155-0.689c-0.052,0.12,0.411,0.423,0.785,0.956
														C364.79,464.376,364.931,464.912,365.061,464.901z"/>
												</g>
											</g>
										</g>
									</g>
								</g>
							</g>
						</g>
					</g>
					<g>
						<g>
							<g>
								<g>
									<g>
										<g>
											<g>
												<g>
													<path style="fill:#263238;" d="M368.182,456.465c0.076,0.107,0.633-0.184,1.37-0.274
														c0.735-0.105,1.348,0.031,1.394-0.092c0.057-0.107-0.587-0.478-1.454-0.36
														C368.626,455.851,368.1,456.376,368.182,456.465z"/>
												</g>
											</g>
										</g>
									</g>
								</g>
							</g>
						</g>
					</g>
				</g>
				<g>
					<g>
						<g>
							<g>
								<g>
									<g>
										<g>
											<g>
												<path style="fill:#263238;" d="M367.61,453.733c0.009,0.053,0.533,0.036,1.319-0.259c0.391-0.148,0.843-0.371,1.3-0.689
													c0.228-0.159,0.458-0.341,0.681-0.547c0.107-0.102,0.236-0.208,0.339-0.387c0.117-0.161,0.133-0.519-0.072-0.696
													c-0.174-0.177-0.429-0.218-0.62-0.186c-0.196,0.031-0.346,0.1-0.482,0.163c-0.28,0.128-0.536,0.277-0.767,0.439
													c-0.46,0.325-0.814,0.694-1.065,1.032c-0.503,0.684-0.62,1.204-0.571,1.221c0.066,0.031,0.287-0.429,0.82-1.015
													c0.266-0.292,0.616-0.608,1.051-0.889c0.218-0.139,0.456-0.268,0.713-0.379c0.265-0.127,0.502-0.174,0.598-0.064
													c0.035,0.043,0.042,0.061-0.001,0.153c-0.046,0.087-0.145,0.182-0.25,0.283c-0.204,0.197-0.413,0.374-0.621,0.532
													c-0.416,0.316-0.826,0.556-1.183,0.734C368.085,453.533,367.594,453.664,367.61,453.733z"/>
											</g>
										</g>
									</g>
								</g>
							</g>
						</g>
					</g>
				</g>
				<g>
					<g>
						<g>
							<g>
								<g>
									<g>
										<g>
											<g>
												<path style="fill:#263238;" d="M367.813,453.885c0.049,0.011,0.217-0.499,0.104-1.342
													c-0.057-0.418-0.196-0.911-0.457-1.411c-0.132-0.249-0.294-0.499-0.49-0.737c-0.204-0.231-0.46-0.544-0.97-0.505
													c-0.263,0.04-0.441,0.285-0.481,0.474c-0.053,0.195-0.041,0.352-0.043,0.51c0.01,0.317,0.074,0.618,0.169,0.89
													c0.19,0.545,0.509,0.968,0.825,1.256c0.646,0.585,1.213,0.636,1.215,0.59c0.031-0.073-0.466-0.236-0.986-0.817
													c-0.256-0.286-0.511-0.68-0.655-1.161c-0.073-0.239-0.118-0.499-0.122-0.768c-0.013-0.288,0.049-0.534,0.16-0.526
													c0.131-0.027,0.394,0.141,0.545,0.344c0.18,0.211,0.335,0.432,0.464,0.653c0.257,0.445,0.416,0.887,0.508,1.269
													C367.784,453.371,367.739,453.879,367.813,453.885z"/>
											</g>
										</g>
									</g>
								</g>
							</g>
						</g>
					</g>
				</g>
			</g>
		</g>
		<g>
			<g>
				<g>
					<path style="fill:#263238;" d="M309.717,321.405l34.552-1.339c0,0,0.852,20.995,0.797,26.52
						c-0.055,5.525-10.925,21.731-10.925,21.731l-10.199,24.126l-27.809-8.287l5.341-37.754c0,0,7.008-20.264,8.087-24.345
						c0.107-0.406,0.156-0.652,0.133-0.702"/>
				</g>
			</g>
			<g>
				<g>
					<path style="fill:#263238;" d="M327.756,356.254c0.041,0.089,17.314,37.003,17.314,37.003l26.972-7.173l-11.001-33.786
						c0,0-0.975-17.154-1.578-21.103c-0.603-3.95-0.728-4.678-0.728-4.678l-15.802-8.629l-24.95,5.406
						C317.983,323.294,324.144,348.493,327.756,356.254z"/>
				</g>
			</g>
			<g>
				<g>
					<g>
						<path style="fill:#455A64;" d="M323.962,348.139c0.066-0.029,0.702,1.18,1.677,3.158c0.975,1.978,2.289,4.724,3.711,7.771
							c1.422,3.048,2.683,5.819,3.573,7.837c0.89,2.018,1.408,3.282,1.343,3.314c-0.064,0.032-0.699-1.175-1.674-3.153
							c-0.975-1.978-2.29-4.727-3.714-7.777c-1.423-3.049-2.685-5.823-3.575-7.84C324.413,349.43,323.896,348.168,323.962,348.139z"
							/>
					</g>
				</g>
			</g>
			<g>
				<g>
					<g>
						<path style="fill:#455A64;" d="M363.289,359.274c0.053,0.13-2.792,1.404-6.422,2.659c-3.63,1.26-6.653,2.017-6.692,1.883
							c-0.042-0.142,2.906-1.12,6.522-2.375C360.313,360.191,363.234,359.137,363.289,359.274z"/>
					</g>
				</g>
			</g>
			<g>
				<g>
					<g>
						<path style="fill:#455A64;" d="M364.593,364.778c0.031,0.058-0.881,0.63-2.447,1.383c-1.564,0.753-3.791,1.674-6.341,2.411
							c-0.636,0.189-1.264,0.35-1.871,0.501c-0.304,0.071-0.604,0.14-0.898,0.209c-0.297,0.062-0.645,0.127-0.998,0.006
							c-0.353-0.123-0.581-0.404-0.727-0.657c-0.15-0.26-0.239-0.516-0.331-0.755c-0.178-0.485-0.318-0.945-0.424-1.37
							c-0.417-1.708-0.36-2.803-0.303-2.803c0.086-0.009,0.161,1.067,0.658,2.704c0.126,0.408,0.282,0.849,0.472,1.312
							c0.188,0.453,0.404,0.985,0.811,1.115c0.394,0.125,1.028-0.132,1.619-0.255c0.599-0.156,1.219-0.32,1.848-0.506
							c2.522-0.73,4.745-1.586,6.336-2.248C363.588,365.164,364.557,364.709,364.593,364.778z"/>
					</g>
				</g>
			</g>
			<g>
				<g>
					<g>
						<path style="fill:#455A64;" d="M369.081,379.298c0.02,0.026-0.212,0.254-0.669,0.621c-0.458,0.366-1.138,0.878-2.05,1.413
							c-0.914,0.519-2.077,1.085-3.497,1.284c-1.407,0.22-3.07-0.073-4.459-0.978c-1.393-0.894-2.402-2.139-3.088-3.367
							c-0.681-1.235-1.078-2.439-1.358-3.45c-0.277-1.014-0.438-1.847-0.542-2.422c-0.101-0.576-0.138-0.899-0.103-0.907
							c0.083-0.021,0.381,1.243,0.998,3.223c0.32,0.984,0.745,2.145,1.422,3.319c0.677,1.161,1.651,2.331,2.95,3.164
							c1.298,0.84,2.797,1.118,4.118,0.942c1.33-0.158,2.467-0.664,3.381-1.131C368.002,380.028,369.027,379.221,369.081,379.298z"
							/>
					</g>
				</g>
			</g>
			<g>
				<g>
					<g>
						<path style="fill:#263238;" d="M321.763,342.125c-0.065,0.017-0.36-0.844-0.709-2.27c-0.349-1.426-0.735-3.422-0.988-5.65
							c-0.251-2.229-0.322-4.261-0.3-5.729c0.021-1.468,0.116-2.373,0.184-2.371c0.076,0.002,0.112,0.907,0.185,2.364
							c0.072,1.457,0.2,3.467,0.449,5.677c0.251,2.209,0.576,4.196,0.831,5.633C321.669,341.216,321.837,342.107,321.763,342.125z"
							/>
					</g>
				</g>
			</g>
			<g>
				<g>
					<g>
						<path style="fill:#455A64;" d="M356.666,329.089c0.052-0.005,0.151,0.773-0.249,1.944c-0.381,1.151-1.383,2.688-3.101,3.559
							c-1.723,0.861-3.555,0.751-4.707,0.371c-1.179-0.376-1.745-0.919-1.71-0.958c0.046-0.078,0.672,0.339,1.806,0.602
							c1.114,0.27,2.803,0.305,4.376-0.481c1.568-0.795,2.546-2.173,2.992-3.229C356.538,329.83,356.576,329.079,356.666,329.089z"
							/>
					</g>
				</g>
			</g>
			<g>
				<g>
					<g>
						<path style="fill:#455A64;" d="M312.963,326.106c0.056,0.007,0.008,0.969-0.388,2.47c-0.391,1.497-1.198,3.516-2.531,5.485
							c-1.34,1.965-2.92,3.459-4.168,4.374c-1.25,0.921-2.127,1.32-2.154,1.27c-0.115-0.138,3.29-2.051,5.891-5.937
							C312.267,329.921,312.793,326.05,312.963,326.106z"/>
					</g>
				</g>
			</g>
			<g>
				<g>
					<g>
						<path style="fill:#455A64;" d="M323.676,326.973c0.001-0.031,0.135-0.072,0.383-0.032c0.242,0.041,0.61,0.195,0.893,0.567
							c0.263,0.362,0.517,0.926,0.284,1.577c-0.239,0.592-0.821,1.11-1.602,1.142c-0.794-0.005-1.376-0.589-1.571-1.181
							c-0.22-0.62,0.021-1.237,0.325-1.565C323.038,326.78,323.71,326.919,323.676,326.973c0.023,0.082-0.553,0.114-0.999,0.737
							c-0.211,0.3-0.34,0.745-0.163,1.175c0.159,0.426,0.613,0.829,1.116,0.822c0.499-0.006,0.987-0.396,1.161-0.802
							c0.18-0.393,0.039-0.883-0.142-1.187C324.246,327.07,323.65,327.06,323.676,326.973z"/>
					</g>
				</g>
			</g>
		</g>
		<g>
			<g>
				<g>
					<g>
						<g>
							<path style="fill:#AA6550;" d="M321.14,186.093l-0.749,0.029c-7.541,0.29-13.597,6.319-13.915,13.859
								c-0.295,7.014-0.532,14.768-0.342,18.518c0.394,7.763,8.208,8.672,8.208,8.672l0.145,5.868l0.078,3.146
								c0.138,5.596,6.853,8.601,10.949,4.785c0.102-0.095,0.202-0.193,0.299-0.295l2.481-2.585l4.731-10.024l0.214-26.751
								C333.626,193.223,329.239,186.254,321.14,186.093z"/>
						</g>
					</g>
					<g>
						<g>
							<g>
								<g>
									<g>
										<g>
											<path style="fill:#723C31;" d="M314.334,227.165c0,0,4.924,0.211,10.015-3.266c0,0-2.179,5.681-9.955,5.279
												L314.334,227.165z"/>
										</g>
									</g>
								</g>
							</g>
						</g>
					</g>
					<g>
						<g>
							<g>
								<g>
									<g>
										<g>
											<g>
												<g>
													<g>
														<path style="fill:#263238;" d="M308.55,205.394c0.002,0.586,0.5,1.068,1.112,1.078
															c0.611,0.009,1.106-0.457,1.105-1.044c-0.002-0.587-0.5-1.069-1.111-1.079
															C309.043,204.34,308.548,204.808,308.55,205.394z"/>
													</g>
												</g>
											</g>
										</g>
									</g>
								</g>
							</g>
						</g>
					</g>
					<g>
						<g>
							<g>
								<g>
									<g>
										<g>
											<g>
												<g>
													<g>
														<g>
															<path style="fill:#263238;" d="M308.16,203.315c0.143,0.139,0.959-0.515,2.153-0.558
																c1.192-0.06,2.091,0.521,2.215,0.37c0.061-0.067-0.089-0.323-0.481-0.586c-0.386-0.262-1.037-0.506-1.78-0.475
																c-0.743,0.033-1.358,0.33-1.707,0.624C308.204,202.987,308.09,203.253,308.16,203.315z"/>
														</g>
													</g>
												</g>
											</g>
										</g>
									</g>
								</g>
							</g>
						</g>
					</g>
					<g>
						<g>
							<g>
								<g>
									<g>
										<g>
											<g>
												<g>
													<g>
														<path style="fill:#263238;" d="M320.135,205.042c0.002,0.587,0.5,1.068,1.112,1.078
															c0.611,0.009,1.107-0.457,1.105-1.044c-0.002-0.586-0.5-1.069-1.111-1.079
															C320.629,203.988,320.134,204.456,320.135,205.042z"/>
													</g>
												</g>
											</g>
										</g>
									</g>
								</g>
							</g>
						</g>
					</g>
					<g>
						<g>
							<g>
								<g>
									<g>
										<g>
											<g>
												<g>
													<g>
														<g>
															<path style="fill:#263238;" d="M320.04,202.523c0.127,0.154,1.011-0.408,2.201-0.321
																c1.191,0.07,2.022,0.744,2.162,0.607c0.068-0.06-0.052-0.33-0.415-0.634c-0.355-0.303-0.975-0.616-1.718-0.665
																c-0.742-0.048-1.386,0.181-1.765,0.436C320.12,202.201,319.977,202.453,320.04,202.523z"/>
														</g>
													</g>
												</g>
											</g>
										</g>
									</g>
								</g>
							</g>
						</g>
					</g>
					<g>
						<g>
							<g>
								<g>
									<g>
										<g>
											<g>
												<g>
													<g>
														<path style="fill:#263238;" d="M316.04,212.508c0.003-0.068-0.744-0.168-1.952-0.275
															c-0.306-0.02-0.597-0.069-0.656-0.275c-0.08-0.217,0.035-0.551,0.169-0.911c0.258-0.748,0.529-1.533,0.812-2.355
															c1.125-3.352,1.926-6.104,1.791-6.148c-0.136-0.044-1.157,2.637-2.282,5.989c-0.27,0.826-0.528,1.614-0.774,2.368
															c-0.102,0.351-0.285,0.751-0.112,1.202c0.091,0.225,0.321,0.381,0.518,0.426c0.198,0.052,0.369,0.049,0.52,0.052
															C315.288,212.6,316.038,212.576,316.04,212.508z"/>
													</g>
												</g>
											</g>
										</g>
									</g>
								</g>
							</g>
						</g>
					</g>
					<g>
						<g>
							<g>
								<g>
									<g>
										<path style="fill:#263238;" d="M319.678,197.38c0.13,0.32,1.316,0.12,2.723,0.235c1.409,0.087,2.554,0.453,2.729,0.155
											c0.077-0.143-0.131-0.44-0.6-0.737c-0.464-0.296-1.198-0.567-2.042-0.628c-0.844-0.06-1.609,0.103-2.111,0.33
											C319.871,196.963,319.622,197.228,319.678,197.38z"/>
									</g>
								</g>
							</g>
						</g>
					</g>
					<g>
						<g>
							<g>
								<g>
									<g>
										<path style="fill:#263238;" d="M308.33,200.959c0.22,0.263,1.032-0.05,2.02-0.101c0.986-0.086,1.833,0.112,2.015-0.179
											c0.079-0.141-0.063-0.407-0.439-0.65c-0.37-0.242-0.981-0.428-1.66-0.381c-0.678,0.048-1.258,0.316-1.591,0.607
											C308.337,200.546,308.233,200.83,308.33,200.959z"/>
									</g>
								</g>
							</g>
						</g>
					</g>
					<g>
						<g>
							<g>
								<g>
									<g>
										<g>
											<g>
												<g>
													<g>
														<g>
															<g>
																<g>
																	<g>
																		<g>
																			<g>
																				<g>
																					<g>
																						<g>
																							<g>
																								<g>
																									<path style="fill:#AA6550;" d="M332.826,207.089c0.13-0.062,5.276-1.783,5.31,3.533
																										c0.034,5.316-5.31,4.254-5.32,4.102C332.806,214.571,332.826,207.089,332.826,207.089z"/>
																								</g>
																							</g>
																						</g>
																					</g>
																				</g>
																			</g>
																		</g>
																	</g>
																</g>
															</g>
														</g>
													</g>
												</g>
											</g>
										</g>
									</g>
								</g>
							</g>
						</g>
						<g>
							<g>
								<g>
									<g>
										<g>
											<g>
												<g>
													<g>
														<g>
															<g>
																<g>
																	<g>
																		<g>
																			<g>
																				<g>
																					<g>
																						<g>
																							<g>
																								<g>
																									<g>
																										<path style="fill:#723C31;" d="M334.427,212.699c0.023-0.017,0.093,0.064,0.25,0.135
																											c0.153,0.069,0.416,0.115,0.692,0.01c0.56-0.21,1.027-1.104,1.047-2.063
																											c0.01-0.484-0.094-0.944-0.268-1.324c-0.165-0.388-0.418-0.658-0.701-0.706
																											c-0.282-0.063-0.481,0.107-0.545,0.258c-0.07,0.149-0.036,0.255-0.064,0.264
																											c-0.015,0.013-0.115-0.089-0.073-0.308c0.021-0.106,0.083-0.232,0.207-0.334
																											c0.127-0.105,0.314-0.159,0.511-0.139c0.41,0.026,0.782,0.401,0.973,0.818
																											c0.214,0.419,0.342,0.936,0.331,1.48c-0.027,1.072-0.569,2.077-1.336,2.305
																											c-0.373,0.1-0.686-0.011-0.848-0.135C334.437,212.827,334.408,212.708,334.427,212.699z"/>
																									</g>
																								</g>
																							</g>
																						</g>
																					</g>
																				</g>
																			</g>
																		</g>
																	</g>
																</g>
															</g>
														</g>
													</g>
												</g>
											</g>
										</g>
									</g>
								</g>
							</g>
						</g>
					</g>
				</g>
				<g>
					<g>
						<g>
							<g>
								<path style="fill:#263238;" d="M306.066,214.249c0.771-0.647,2.141-0.295,2.503,0.644c0.407-0.657,1.205-1.049,1.974-0.969
									c0.769,0.08,1.469,0.628,1.732,1.355c0.273-1.15,2.026-1.57,2.79-0.668c0.257-0.492,0.855-0.781,1.4-0.674
									c-0.097-0.512,0.146-1.073,0.586-1.352c0.44-0.279,1.051-0.26,1.473,0.046c0.519-1.112,2.155-1.498,3.117-0.736
									c0.119-0.503,0.6-0.896,1.117-0.912s1.022,0.347,1.171,0.842c0.457-0.684,1.399-0.998,2.175-0.725
									c-0.06-0.768,0.764-1.467,1.513-1.282c-0.228-0.642,0.713-1.001,1.173-1.504c0.206-0.225,0.327-0.521,0.551-0.727
									c0.224-0.206,0.633-0.276,0.805-0.024c-0.161-0.514,0.123-1.128,0.619-1.338c0.496-0.21,1.134,0.012,1.392,0.485
									c0.152,0.28,0.176,0.609,0.242,0.921c0.215,1.006,0.867,2.175,0.178,2.94c-0.121,0.135-0.283,0.25-0.327,0.426
									c-0.074,0.301,0.233,0.562,0.275,0.869c0.049,0.357-0.262,0.653-0.387,0.991c-0.185,0.501,0.052,1.047,0.126,1.576
									c0.074,0.529-0.183,1.224-0.717,1.206c0.448,0.746,0.254,1.812-0.429,2.35c0.472,0.87,0.018,2.106-0.905,2.463
									c0.372,0.259,0.385,0.836,0.151,1.224c-0.234,0.388-0.642,0.631-1.034,0.859c0.381,0.167,0.465,0.714,0.259,1.076
									c-0.206,0.362-0.604,0.567-0.996,0.706c-0.168,0.06-0.354,0.122-0.446,0.276c-0.171,0.288,0.108,0.645,0.079,0.979
									c-0.046,0.511-0.748,0.704-0.93,1.184c-0.162,0.427,0.125,0.991-0.186,1.326c-0.202,0.217-0.545,0.202-0.817,0.319
									c-0.485,0.208-0.668,0.782-0.956,1.225c-0.543,0.834-1.531,1.249-2.477,1.557c-0.482,0.157-0.969,0.298-1.46,0.424
									c-0.979,0.251-1.973,0.439-2.966,0.628c-0.493,0.093-1.104,0.142-1.394-0.267c-0.638,0.898-2.229,0.818-2.773-0.139
									c-0.879,0.3-1.836-0.015-2.71-0.327c-0.302-0.108-0.604-0.216-0.906-0.324c-0.901-0.322-1.908-0.746-2.227-1.648
									c-1.157-0.086-2.008-1.473-1.56-2.543c-0.391,0.141-0.805-0.236-0.896-0.642c-0.091-0.406,0.027-0.825,0.074-1.238
									c0.191-1.681-0.804-3.314-0.688-5.002c0.082-1.182,0.701-2.386,0.29-3.497c-0.085-0.229-0.213-0.451-0.213-0.694
									c0.001-0.244,0.207-0.51,0.444-0.454c-0.345-0.649,0.263-1.569,0.995-1.507"/>
							</g>
						</g>
					</g>
				</g>
				<g>
					<g>
						<g>
							<g>
								<g>
									<g>
										<g>
											<g>
												<g>
													<path style="fill:#FFFFFF;" d="M319.584,213.199c-0.195-0.004-0.147,1.292-1.221,2.254
														c-1.071,0.965-2.458,0.873-2.461,1.054c-0.015,0.082,0.317,0.24,0.901,0.233c0.573-0.002,1.4-0.218,2.057-0.807
														c0.655-0.59,0.917-1.353,0.94-1.887C319.829,213.503,319.673,213.188,319.584,213.199z"/>
												</g>
											</g>
										</g>
									</g>
								</g>
							</g>
						</g>
					</g>
				</g>
				<g>
					<g>
						<g>
							<g>
								<g>
									<path style="fill:#455A64;" d="M309.047,228.062c-0.001,0.021-0.357-0.045-0.77-0.421
										c-0.414-0.369-0.806-1.044-1.053-1.832c-0.257-0.79-0.328-1.547-0.317-2.087c0.011-0.542,0.086-0.87,0.111-0.866
										c0.067-0.002-0.103,1.345,0.405,2.888c0.242,0.769,0.594,1.416,0.958,1.791
										C308.741,227.914,309.062,228.028,309.047,228.062z"/>
								</g>
							</g>
						</g>
					</g>
				</g>
				<g>
					<g>
						<g>
							<g>
								<g>
									<path style="fill:#455A64;" d="M310.157,227.703c-0.011,0.02-0.272-0.091-0.625-0.379
										c-0.352-0.285-0.778-0.768-1.078-1.399c-0.298-0.632-0.402-1.268-0.398-1.721c0.001-0.455,0.081-0.727,0.104-0.723
										c0.035,0.004,0.008,0.28,0.044,0.717c0.034,0.436,0.156,1.034,0.44,1.638c0.286,0.602,0.672,1.075,0.987,1.378
										C309.946,227.519,310.175,227.674,310.157,227.703z"/>
								</g>
							</g>
						</g>
					</g>
				</g>
				<g>
					<g>
						<g>
							<g>
								<g>
									<path style="fill:#455A64;" d="M315.883,228.723c-0.016,0.016-0.282-0.212-0.608-0.671
										c-0.327-0.456-0.689-1.161-0.882-2.003c-0.19-0.843-0.168-1.635-0.071-2.188c0.096-0.555,0.238-0.875,0.259-0.868
										c0.034,0.01-0.056,0.342-0.112,0.887c-0.058,0.544-0.055,1.307,0.128,2.122c0.187,0.813,0.514,1.503,0.801,1.968
										C315.685,228.439,315.91,228.7,315.883,228.723z"/>
								</g>
							</g>
						</g>
					</g>
				</g>
				<g>
					<g>
						<g>
							<g>
								<g>
									<path style="fill:#455A64;" d="M317.24,228.548c-0.025,0.044-0.837-0.652-1.264-1.857c-0.44-1.201-0.26-2.255-0.212-2.237
										c0.067,0-0.014,1.017,0.409,2.166C316.581,227.774,317.292,228.506,317.24,228.548z"/>
								</g>
							</g>
						</g>
					</g>
				</g>
			</g>
			<g>
				<g>
					<g>
						<path style="fill:#455A64;" d="M334.646,207.075l2.494-8.499c0,0-0.649-4.302-1.45-8.477
							c-0.801-4.175-3.374-5.649-3.374-5.649s2.289-0.759,1.955-3.535c-0.333-2.776-7.433-2.507-10.779-2.458
							c-3.346,0.049-5.152,2.599-5.152,2.599c-7.662,2.061-10.528,8.435-10.528,8.435s-1.155-0.007-1.663,0.829
							c0,0-1.005,1.288,0.082,2.129c0,0,10.261-0.924,18.337,2.38c8.076,3.304,8.939,7.729,8.939,7.729L334.646,207.075z"/>
					</g>
				</g>
				<g>
					<g>
						<g>
							<path style="fill:#263238;" d="M331.452,181.265c0.037,0.037-0.562,0.627-1.814,1.044c-1.242,0.438-3.072,0.547-5.02,0.404
								c-1.946-0.143-3.686-0.245-4.931-0.066c-1.246,0.154-1.971,0.481-2.006,0.4c-0.03-0.047,0.661-0.507,1.946-0.764
								c1.28-0.281,3.088-0.233,5.023-0.09c1.931,0.141,3.676,0.091,4.884-0.237C330.748,181.65,331.403,181.188,331.452,181.265z"
								/>
						</g>
					</g>
				</g>
				<g>
					<g>
						<g>
							<path style="fill:#263238;" d="M333.647,183.492c0.105,0.097-0.456,0.667-1.363,0.618c-0.904-0.045-1.409-0.648-1.302-0.738
								c0.095-0.115,0.625,0.192,1.328,0.218C333.012,183.637,333.56,183.371,333.647,183.492z"/>
						</g>
					</g>
				</g>
			</g>
			<g>
				<g>
					<path style="fill:#263238;" d="M305.922,191.57c-0.604,0.131-1.203,0.402-1.584,0.888c-0.381,0.486-0.486,1.219-0.13,1.724
						c0.239,0.339,0.636,0.528,0.923,0.826c0.692,0.718,0.693,1.991,1.543,2.513c0.721,0.443,1.819-0.058,1.958-0.893
						c0.696,0.78,2.007,0.726,2.865,0.128c0.858-0.598,1.346-1.592,1.697-2.577c0.709,0.07,1.47,0.13,2.09-0.22
						c0.621-0.35,0.953-1.285,0.453-1.791c-0.227-0.229-0.558-0.315-0.873-0.384c-3.016-0.663-6.165-0.714-9.2-0.147"/>
				</g>
			</g>
			<g>
				<g>
					<path style="fill:#263238;" d="M329.911,197.687c-0.889,0.549-0.99,1.225-0.789,2.25c0.201,1.025,0.803,1.919,1.391,2.783
						c-0.537,0.053-0.988,0.46-1.236,0.939c-0.248,0.479-0.327,1.025-0.394,1.561c-0.128,1.032-0.215,2.122,0.205,3.074
						c0.42,0.952,1.517,1.684,2.5,1.345c0.549-0.19,0.957-0.671,1.192-1.202c0.235-0.531,0.32-1.114,0.403-1.689
						c0.033,0.415,0.561,0.66,0.948,0.507c0.387-0.154,0.608-0.583,0.638-0.998c0.03-0.415-0.095-0.825-0.219-1.222
						c-0.443-1.421-0.89-2.853-1.602-4.16C332.234,199.566,331.23,198.376,329.911,197.687"/>
				</g>
			</g>
			<g>
				<g>
					<g>
						<path style="fill:#263238;" d="M336.281,201.503c-0.046,0.004-0.077-0.483-0.29-1.325c-0.212-0.835-0.633-2.042-1.562-3.272
							c-0.966-1.187-2.266-2.561-3.914-3.748c-0.815-0.593-1.81-1.023-2.814-1.543c-1.018-0.502-2.027-1-3.184-1.293
							c-4.562-1.358-8.921-1.563-12.024-1.377c-1.556,0.088-2.811,0.247-3.677,0.368c-0.865,0.127-1.345,0.197-1.353,0.159
							c-0.007-0.032,0.459-0.17,1.318-0.359c0.859-0.184,2.117-0.4,3.686-0.536c3.128-0.283,7.564-0.134,12.196,1.245
							c1.169,0.294,2.27,0.834,3.266,1.336c0.992,0.522,2.004,0.97,2.864,1.608c1.699,1.261,2.964,2.657,3.933,3.922
							c0.929,1.311,1.307,2.58,1.463,3.447c0.082,0.436,0.104,0.78,0.114,1.012C336.306,201.38,336.299,201.502,336.281,201.503z"/>
					</g>
				</g>
			</g>
			<g>
				<g>
					<g>
						<path style="fill:#263238;" d="M329.528,197.592c-0.104-0.086,0.469-1.056,0.514-2.45c0.091-1.38-0.155-2.501-0.017-2.543
							c0.132-0.056,0.632,1.082,0.537,2.577c-0.04,0.741-0.249,1.405-0.492,1.833C329.826,197.439,329.578,197.632,329.528,197.592z
							"/>
					</g>
				</g>
			</g>
			<g>
				<g>
					<g>
						<path style="fill:#263238;" d="M332.947,200.873c-0.049-0.061,0.141-0.265,0.324-0.639c0.189-0.372,0.337-0.932,0.425-1.594
							c0.085-0.682,0.233-1.282,0.278-1.703c0.051-0.428,0.064-0.711,0.14-0.721c0.067-0.009,0.185,0.257,0.229,0.726
							c0.047,0.479-0.047,1.098-0.131,1.773c-0.091,0.692-0.321,1.338-0.63,1.717C333.277,200.817,332.982,200.926,332.947,200.873z
							"/>
					</g>
				</g>
			</g>
			<g>
				<g>
					<g>
						<path style="fill:#263238;" d="M324.839,194.968c-0.137,0.006-0.261-1.063,0.106-2.315c0.359-1.255,1.035-2.092,1.147-2.013
							c0.128,0.079-0.313,0.984-0.647,2.158C325.1,193.969,324.989,194.969,324.839,194.968z"/>
					</g>
				</g>
			</g>
			<g>
				<g>
					<g>
						<path style="fill:#263238;" d="M317.929,192.871c-0.137-0.008-0.157-1.003,0.316-2.111c0.467-1.111,1.195-1.789,1.297-1.696
							c0.116,0.095-0.387,0.869-0.817,1.899C318.284,191.989,318.078,192.888,317.929,192.871z"/>
					</g>
				</g>
			</g>
			<g>
				<g>
					<g>
						<path style="fill:#263238;" d="M311.612,192.323c-0.139-0.004-0.209-0.887,0.096-1.917c0.301-1.032,0.837-1.736,0.957-1.665
							c0.129,0.072-0.177,0.844-0.457,1.812C311.921,191.518,311.76,192.333,311.612,192.323z"/>
					</g>
				</g>
			</g>
		</g>
		<g>
			<g>
				<g>
					<path style="fill:#E8505B;" d="M314.886,237.261c0,0-4.816,16.387-5.113,22.924c-0.297,6.536,0.891,32.682,0.891,32.682
						s1.931,10.993,1.188,13.073c-0.743,2.08-4.754,12.776-4.605,18.718h13.816c0,0,12.905-1.093,25.254-1.486
						c6.96-0.221,13.667,4.16,13.667,4.16s2.377-8.765,0-19.906c-2.377-11.142-1.782-23.581-1.782-23.581
						c0.262,1.409,3.751-13.933-1.09-40.806c-1.267-7.033-4.728-14.527-11.71-14.973l-13.024,0.202L314.886,237.261z"/>
				</g>
			</g>
			<g>
				<g>
					<path style="fill:#455A64;" d="M344.357,224.454c0,0-7.082-0.031-10.531,5.055c-3.449,5.086-5.22,10.286-3.738,19.179
						c1.306,7.835,6.287,12.107,6.287,12.107l-2.63-16.27c0,0,0.195-14.937,10.094-15.717l9.172,2.654
						C352.569,229.199,349.956,225.511,344.357,224.454z"/>
				</g>
			</g>
			<g>
				<g>
					<path style="fill:#263238;" d="M311.425,297.597c0,0-2.021,1.116-1.694,4.417c0.327,3.301,1.588,4.986,1.588,4.986
						s1.465-2.307,5.719-3.455c4.254-1.148,9.149-1.174,11.649-1.051c2.5,0.123,11.572,2.487,11.572,2.487l2.302-15.58
						c0,0-15.618,3.815-20.748,5.388C316.684,296.363,311.425,297.597,311.425,297.597z"/>
				</g>
			</g>
			<g>
				<g>
					<path style="fill:#455A64;" d="M312.6,238.413c-3.929-1.754-6.218,0.917-6.515,1.558c-0.297,0.641-0.384,1.358-0.438,2.063
						c-0.493,6.437,2.002,22.198,3.913,28.365l0.751-30.846L312.6,238.413z"/>
				</g>
			</g>
			<g>
				<g>
					<path style="fill:#263238;" d="M309.906,256.219c6.5-4.356,20.244-4.746,21.003-4.024l-0.903-4.023
						c0,0-3.163-0.062-11.128,0.757c-6.723,0.692-8.181,1.986-8.595,2.622c-0.191,0.293-0.278,0.637-0.278,0.637L309.906,256.219z"
						/>
				</g>
			</g>
			<g>
				<g>
					<g>
						<path style="fill:#263238;" d="M309.719,263.925c0.036,0,0.067,0.475,0.092,1.332c0.023,0.96,0.052,2.177,0.087,3.629
							c0.069,3.064,0.196,7.295,0.424,11.964c0.23,4.671,0.507,8.896,0.705,11.955c0.089,1.451,0.163,2.666,0.221,3.624
							c0.044,0.857,0.052,1.332,0.016,1.335c-0.036,0.003-0.112-0.466-0.218-1.318c-0.107-0.852-0.24-2.086-0.386-3.613
							c-0.293-3.054-0.628-7.281-0.858-11.959c-0.228-4.677-0.297-8.918-0.272-11.986c0.012-1.534,0.04-2.776,0.079-3.634
							C309.645,264.398,309.683,263.925,309.719,263.925z"/>
					</g>
				</g>
			</g>
			<g>
				<g>
					<g>
						<path style="fill:#263238;" d="M317.014,316.048c-0.066,0.004-0.179-0.726-0.199-1.918c-0.021-1.19,0.08-2.843,0.421-4.633
							c0.345-1.79,0.862-3.363,1.322-4.461c0.459-1.1,0.834-1.736,0.893-1.709c0.149,0.063-1.042,2.745-1.704,6.268
							C317.06,313.112,317.175,316.044,317.014,316.048z"/>
					</g>
				</g>
			</g>
			<g>
				<g>
					<g>
						<path style="fill:#263238;" d="M321.873,320.852c-0.065,0.015-0.364-0.975-0.704-2.609c-0.342-1.633-0.703-3.915-0.902-6.456
							c-0.196-2.542-0.192-4.853-0.107-6.519c0.084-1.667,0.226-2.691,0.293-2.686c0.077,0.005,0.065,1.034,0.076,2.694
							c0.01,1.659,0.064,3.949,0.258,6.471c0.198,2.521,0.498,4.792,0.745,6.432C321.778,319.82,321.949,320.836,321.873,320.852z"
							/>
					</g>
				</g>
			</g>
			<g>
				<g>
					<g>
						<path style="fill:#263238;" d="M325.139,276.268c0.075-0.016,0.322,0.919,0.743,2.418c0.421,1.499,1.037,3.558,1.838,5.79
							c0.804,2.233,1.639,4.213,2.269,5.637c0.629,1.424,1.034,2.302,0.966,2.338c-0.059,0.031-0.58-0.787-1.298-2.179
							c-0.719-1.391-1.616-3.367-2.426-5.619c-0.808-2.252-1.373-4.346-1.705-5.877
							C325.192,277.244,325.073,276.281,325.139,276.268z"/>
					</g>
				</g>
			</g>
			<g>
				<g>
					<g>
						<path style="fill:#263238;" d="M334.625,275.646c0.069-0.007,0.23,0.859,0.385,2.272c0.155,1.413,0.293,3.374,0.321,5.543
							c0.026,2.17-0.062,4.134-0.183,5.55c-0.12,1.417-0.259,2.286-0.328,2.28c-0.074-0.006-0.065-0.884-0.04-2.299
							c0.026-1.415,0.056-3.368,0.029-5.525c-0.028-2.156-0.106-4.108-0.167-5.522C334.582,276.532,334.551,275.654,334.625,275.646
							z"/>
					</g>
				</g>
			</g>
			<g>
				<g>
					<g>
						<path style="fill:#263238;" d="M315.018,263.059c-0.132,0.031-0.655-1.923-0.715-4.402c-0.071-2.48,0.349-4.458,0.482-4.434
							c0.151,0.021-0.031,1.992,0.039,4.421C314.881,261.07,315.167,263.03,315.018,263.059z"/>
					</g>
				</g>
			</g>
			<g style="opacity:0.3;">
				<g>
					<g>
						<path d="M326.286,277.855c-0.123,5.243,3.38,12.008,4.636,14.532l2.517-0.711
							C332.419,286.253,330.016,281.921,326.286,277.855z"/>
					</g>
				</g>
			</g>
			<g style="opacity:0.3;">
				<g>
					<g>
						<path d="M320.462,302.884l-0.835,0.102c-1.617,3.144-2.899,7.891-2.263,12.01c0.077,0.501,0.253,1.087,0.738,1.231
							c0.564,0.167,1.076-0.401,1.291-0.949c0.448-1.14,0.341-2.41,0.296-3.634C319.567,308.345,319.604,306.073,320.462,302.884z"
							/>
					</g>
				</g>
			</g>
			<g style="opacity:0.3;">
				<g>
					<g>
						<path d="M330.117,251.729c0.437,3.421,2.07,6.678,4.552,9.074c1.072,1.035,1.115,2.704,1.148,4.193
							c0.058,2.596,0.303,5.189,0.733,7.75c0.133,0.794,0.322,1.651,0.942,2.165c1.101,0.912,2.744,0.207,3.976-0.52
							c-0.259-3.033-0.521-6.083-1.285-9.029c-0.765-2.946-2.065-5.812-4.162-8.018c-1.821-1.915-3.642-3.83-5.463-5.744"/>
					</g>
				</g>
			</g>
		</g>
		<g>
			<g>
				<g>
					<path style="fill:#AA6550;" d="M338.097,251.858c0.07,0.547,4.804,35.235,4.804,35.235l-6.526,47.545l10.115,1.556
						c0,0,16.008-38.175,15.662-45.014c-0.346-6.839-3.917-39.323-3.917-39.323s-3.589-22.511-10.44-22.348
						C340.944,229.673,336.257,237.381,338.097,251.858z"/>
				</g>
			</g>
			<g>
				<g>
					<path style="fill:#E8505B;" d="M343.515,228.55c0,0-6.148,3.017-8.108,9.276c-1.96,6.259,3.36,35.29,3.36,35.29l24.597-5.203
						C363.363,267.912,357.875,223.482,343.515,228.55z"/>
				</g>
			</g>
			<g>
				<g>
					<g>
						<path style="fill:#AA6550;" d="M336.495,333.825l-5.618,10.091l-0.932,10.139c0,0,2.681,0.874,2.739-1.282
							c0,0,1.107,1.457,1.981,1.107c0.874-0.35,1.398-1.282,1.398-1.282s0.524,1.632,1.865,1.165
							c1.34-0.466,1.457-1.049,1.515-1.282c0.058-0.233,0.874,0.291,1.806-0.116c0.932-0.408,0.874-1.34,0.874-1.34
							s1.515,0.291,1.981-0.117c0.466-0.408,0.816-1.457,0.816-1.457s0.874-2.564,0.583-2.972c-0.291-0.408-1.107-0.408-1.107-0.408
							l0.117-1.34c0,0,1.806-3.234,1.981-4.385s0.026-6.223,0.026-6.223L336.495,333.825z"/>
					</g>
				</g>
				<g>
					<g>
						<g>
							<path style="fill:#723C31;" d="M330.381,348.2c0.129-0.064,0.77,0.97,1.433,2.309c0.663,1.34,1.095,2.477,0.966,2.54
								c-0.129,0.064-0.77-0.97-1.433-2.31C330.685,349.401,330.252,348.264,330.381,348.2z"/>
						</g>
					</g>
				</g>
				<g>
					<g>
						<g>
							<path style="fill:#723C31;" d="M333.702,347.565c0.146-0.038,0.583,1.241,1.318,2.719c0.726,1.483,1.475,2.608,1.356,2.7
								c-0.104,0.088-1.068-0.93-1.823-2.469C333.79,348.979,333.568,347.594,333.702,347.565z"/>
						</g>
					</g>
				</g>
				<g>
					<g>
						<g>
							<path style="fill:#723C31;" d="M336.825,347.991c0.139-0.052,0.672,1.051,1.4,2.363c0.723,1.315,1.373,2.354,1.254,2.443
								c-0.109,0.086-0.966-0.838-1.71-2.191C337.02,349.255,336.694,348.037,336.825,347.991z"/>
						</g>
					</g>
				</g>
				<g>
					<g>
						<g>
							<path style="fill:#723C31;" d="M339.479,346.415c0.139-0.052,0.672,1.051,1.4,2.363c0.723,1.315,1.372,2.353,1.254,2.443
								c-0.109,0.086-0.966-0.838-1.71-2.191C339.674,347.68,339.348,346.462,339.479,346.415z"/>
						</g>
					</g>
				</g>
				<g>
					<g>
						<g>
							<path style="fill:#723C31;" d="M343.158,348.941c-0.137-0.031-0.071-0.824,0.304-1.716c0.372-0.894,0.891-1.498,1.009-1.421
								c0.125,0.078-0.176,0.773-0.529,1.622C343.585,348.273,343.3,348.975,343.158,348.941z"/>
						</g>
					</g>
				</g>
			</g>
		</g>
		<g>
			<g>
				<g>
					<path style="fill:#263238;" d="M334.044,247.378c0.018-0.003,0.061,0.173,0.128,0.508c0.073,0.394,0.163,0.88,0.273,1.47
						c0.252,1.352,0.592,3.179,1.007,5.403c0.902,4.626,2.122,10.885,3.471,17.802c0.034,0.172,0.069,0.344,0.1,0.503l-0.303-0.205
						c6.849-1.283,13.014-2.506,17.46-3.432c2.163-0.465,3.938-0.846,5.253-1.128c0.572-0.125,1.043-0.227,1.426-0.311
						c0.327-0.067,0.501-0.093,0.506-0.076c0.005,0.017-0.161,0.077-0.48,0.176c-0.319,0.097-0.791,0.241-1.404,0.405
						c-1.225,0.332-3.008,0.779-5.223,1.29c-4.431,1.019-10.588,2.301-17.443,3.587l-0.253,0.047l-0.05-0.252
						c-0.032-0.159-0.066-0.331-0.1-0.504c-1.379-6.95-2.551-13.258-3.323-17.838c-0.384-2.291-0.676-4.148-0.844-5.437
						c-0.09-0.643-0.142-1.146-0.176-1.487C334.035,247.56,334.026,247.38,334.044,247.378z"/>
				</g>
			</g>
		</g>
	</g>
</g>
<g id="Birds">
	<g>
		<g>
			<g>
				<g>
					<path style="fill:#263238;" d="M406.026,85.233c0.028,0.029-0.371,0.441-1.052,1.215c-0.681,0.773-1.611,1.944-2.582,3.505
						c-1.951,3.082-3.904,7.988-3.837,13.613c0,0.059-0.001,0.117-0.001,0.171l-0.473,0.039c-0.815-5.534-3.719-9.943-6.267-12.492
						c-2.563-2.604-4.647-3.615-4.577-3.711c0.008-0.014,0.137,0.045,0.376,0.172c0.234,0.134,0.598,0.304,1.026,0.591
						c0.876,0.538,2.087,1.425,3.413,2.712c1.328,1.282,2.733,3.007,3.928,5.149c1.198,2.135,2.147,4.704,2.573,7.512l-0.473,0.039
						c0-0.055,0.001-0.115,0.001-0.175c-0.069-5.742,1.978-10.724,4.028-13.799c1.02-1.559,2.001-2.711,2.73-3.451
						c0.351-0.382,0.664-0.641,0.862-0.829C405.903,85.311,406.015,85.221,406.026,85.233z"/>
				</g>
			</g>
		</g>
	</g>
	<g>
		<g>
			<g>
				<g>
					<path style="fill:#263238;" d="M466.304,142.217c-0.017,0.047-0.823-0.284-2.345-0.622c-1.515-0.333-3.789-0.627-6.547-0.252
						c-2.738,0.366-5.982,1.467-8.822,3.805c-2.834,2.295-5.258,5.767-6.227,9.887c-0.01,0.037-0.019,0.075-0.028,0.109
						l-0.181,0.706l-0.272-0.67c-1.585-3.914-4.401-7.025-7.455-9.002c-3.063-2.014-6.357-2.848-9.105-3.036
						c-2.766-0.193-5.01,0.204-6.505,0.595c-1.502,0.396-2.295,0.745-2.313,0.7c-0.007-0.015,0.188-0.108,0.566-0.273
						c0.376-0.167,0.946-0.384,1.697-0.605c1.494-0.45,3.76-0.906,6.576-0.753c2.796,0.147,6.174,0.963,9.321,3.003
						c3.137,2.002,6.032,5.176,7.659,9.192l-0.453,0.036c0.009-0.036,0.019-0.074,0.029-0.113c0.996-4.236,3.496-7.788,6.414-10.12
						c2.926-2.377,6.263-3.469,9.054-3.798c2.814-0.338,5.115,0.014,6.633,0.406c0.763,0.192,1.343,0.39,1.726,0.546
						C466.112,142.114,466.31,142.202,466.304,142.217z"/>
				</g>
			</g>
		</g>
	</g>
	<g>
		<g>
			<g>
				<g>
					<path style="fill:#263238;" d="M512.403,120.697c0.029,0.03-0.448,0.513-1.258,1.427c-0.811,0.912-1.918,2.298-3.072,4.147
						c-2.321,3.65-4.642,9.467-4.562,16.142c-0.001,0.07-0.001,0.139-0.002,0.203l-0.473,0.039c-0.493-3.256-1.58-6.245-2.951-8.742
						c-1.368-2.505-2.975-4.539-4.494-6.071c-1.516-1.536-2.9-2.619-3.896-3.303c-0.994-0.687-1.57-1.034-1.548-1.071
						c0.008-0.014,0.159,0.059,0.441,0.211c0.276,0.161,0.706,0.365,1.21,0.707c1.035,0.642,2.464,1.695,4.03,3.22
						c1.568,1.52,3.228,3.563,4.639,6.096c1.415,2.526,2.536,5.565,3.039,8.885l-0.473,0.039c0-0.065,0.001-0.136,0.001-0.207
						c-0.081-6.791,2.334-12.684,4.754-16.328c1.204-1.847,2.361-3.213,3.219-4.092c0.414-0.454,0.782-0.762,1.014-0.987
						C512.261,120.794,512.392,120.685,512.403,120.697z"/>
				</g>
			</g>
		</g>
	</g>
</g>
</svg>
