<?xml version="1.0" encoding="utf-8"?>
<!-- Generator: Adobe Illustrator 27.5.0, SVG Export Plug-In . SVG Version: 6.00 Build 0)  -->
<svg version="1.1" xmlns="http://www.w3.org/2000/svg" xmlns:xlink="http://www.w3.org/1999/xlink" x="0px" y="0px"
	 viewBox="0 0 750 500" style="enable-background:new 0 0 750 500;" xml:space="preserve">
<g id="Background_Complete">
	<g>
		<g>
			<path style="fill:#E0E0E0;" d="M484.641,73.693c-0.019,0.051-0.551-0.144-1.541-0.343c-0.985-0.196-2.456-0.368-4.231-0.112
				c-1.763,0.251-3.843,0.97-5.661,2.478c-1.815,1.48-3.367,3.713-3.988,6.354l-0.018,0.07l-0.242,0.941l-0.361-0.893
				c-1.017-2.512-2.823-4.514-4.782-5.793c-1.964-1.301-4.079-1.85-5.851-1.986c-3.6-0.245-5.705,0.879-5.73,0.729
				c-0.014-0.03,0.479-0.316,1.456-0.632c0.972-0.313,2.454-0.629,4.303-0.543c1.835,0.082,4.062,0.607,6.139,1.943
				c2.07,1.311,3.981,3.398,5.053,6.046l-0.603,0.048l0.019-0.074c0.658-2.796,2.31-5.134,4.238-6.664
				c1.934-1.561,4.137-2.267,5.971-2.469c1.85-0.208,3.357,0.041,4.345,0.316C484.151,73.389,484.654,73.663,484.641,73.693z"/>
		</g>
	</g>
	<g>
		<g>
			<path style="fill:#E0E0E0;" d="M384.165,78.895c0.038,0.039-0.495,0.588-1.402,1.619c-0.908,1.03-2.148,2.592-3.442,4.673
				c-2.601,4.109-5.204,10.647-5.114,18.147c0,0.078-0.001,0.157-0.002,0.229l-0.631,0.052c-1.087-7.377-4.957-13.254-8.354-16.653
				c-3.417-3.471-6.194-4.818-6.102-4.947c0.011-0.019,0.183,0.06,0.501,0.229c0.312,0.178,0.798,0.406,1.367,0.788
				c1.168,0.718,2.782,1.9,4.55,3.615c1.77,1.709,3.643,4.009,5.237,6.863c1.597,2.846,2.862,6.271,3.429,10.013l-0.631,0.052
				c0-0.073,0.001-0.153,0.002-0.233c-0.092-7.655,2.637-14.295,5.37-18.395c1.36-2.078,2.667-3.613,3.639-4.6
				c0.469-0.51,0.885-0.854,1.149-1.105C384.001,78.999,384.15,78.879,384.165,78.895z"/>
		</g>
	</g>
	<g>
		<path style="fill:#F5F5F5;" d="M277.689,144.793c1.218-8.845-11.265-16.12-20.644-16.876c-4.473-0.361-9.119,0.323-13.356-1.154
			c-9.181-3.2-12.848-15.061-21.807-18.839c-6.697-2.825-14.408-0.31-20.901,2.958c-6.493,3.268-12.909,7.38-20.163,7.844
			c-6.31,0.404-13.161-1.936-18.682,1.146c-4.114,2.297-6.268,7.037-10.06,9.833c-3.709,2.736-8.548,3.315-13.15,3.566
			c-4.602,0.251-9.367,0.297-13.558,2.216c-4.191,1.919-7.658,6.35-6.788,10.877L277.689,144.793z"/>
	</g>
	<g>
		<g>
			<path style="fill:#E0E0E0;" d="M707.499,249.887c0,0-0.198-0.089-0.577-0.283c-0.388-0.201-0.948-0.491-1.682-0.87
				c-1.488-0.781-3.672-1.926-6.504-3.411c-5.681-3-13.95-7.367-24.357-12.862c-20.819-11.037-50.177-26.6-84.386-44.735
				l0.226,0.003c-17.278,8.647-36.142,18.087-55.76,27.904c-6.878,3.439-13.663,6.833-20.291,10.147l-0.094,0.047l-0.1-0.032
				c-32.025-10.234-61.498-19.652-86.216-27.551l0.159-0.012c-22.314,11.054-40.704,20.164-53.528,26.517
				c-6.406,3.158-11.419,5.629-14.843,7.317c-1.702,0.831-3.007,1.469-3.899,1.904c-0.882,0.427-1.344,0.632-1.344,0.632
				s0.442-0.244,1.315-0.69c0.885-0.448,2.181-1.104,3.871-1.96c3.413-1.712,8.408-4.218,14.792-7.42
				c12.805-6.392,31.166-15.557,53.447-26.679l0.077-0.038l0.082,0.026c24.727,7.874,54.21,17.262,86.245,27.462l-0.194,0.015
				c6.627-3.315,13.412-6.709,20.289-10.15c19.623-9.809,38.49-19.241,55.773-27.88l0.114-0.057l0.112,0.06
				c34.173,18.202,63.501,33.823,84.298,44.9c10.378,5.549,18.625,9.959,24.29,12.988c2.816,1.516,4.987,2.685,6.467,3.482
				c0.725,0.395,1.278,0.697,1.662,0.907C707.314,249.773,707.499,249.887,707.499,249.887z"/>
		</g>
		<polygon style="fill:#E0E0E0;" points="427.821,198.042 436.779,203.867 431.101,204.931 459.543,213.917 445.052,213.313 
			459.201,222.136 455.019,223.695 466.906,229.608 485.694,219.759 486.314,227.311 514.052,225.549 		"/>
		<polygon style="fill:#E0E0E0;" points="590.109,187.508 591.804,200.212 604.274,200.732 600.406,203.604 618.695,210.077 
			613.202,221.983 707.499,249.887 		"/>
	</g>
	<g>
		<path style="fill:#EBEBEB;" d="M318.505,71.321c0.611-4.435-5.649-8.084-10.352-8.463c-2.243-0.181-4.573,0.162-6.698-0.578
			c-4.604-1.605-6.443-7.552-10.935-9.447c-3.358-1.417-7.225-0.155-10.481,1.483c-3.256,1.639-6.473,3.701-10.111,3.934
			c-3.164,0.202-6.6-0.971-9.368,0.575c-2.063,1.152-3.143,3.529-5.045,4.931c-1.86,1.372-4.286,1.663-6.594,1.788
			c-2.308,0.125-4.697,0.149-6.799,1.111c-2.102,0.962-3.84,3.184-3.404,5.454L318.505,71.321z"/>
	</g>
	<g>
		<path style="fill:#EBEBEB;" d="M112.609,231.19c0.51-3.708-4.722-6.758-8.654-7.075c-1.875-0.151-3.823,0.135-5.599-0.484
			c-3.849-1.341-5.386-6.314-9.141-7.898c-2.808-1.184-6.04-0.13-8.762,1.24c-2.722,1.37-5.412,3.094-8.452,3.288
			c-2.645,0.169-5.517-0.812-7.831,0.48c-1.724,0.963-2.628,2.95-4.217,4.122c-1.555,1.147-3.583,1.39-5.513,1.495
			c-1.929,0.105-3.927,0.124-5.684,0.929c-1.757,0.804-3.21,2.662-2.846,4.559L112.609,231.19z"/>
	</g>
	<g>
		<path style="fill:#F5F5F5;" d="M107.767,89.616c0.465-3.378-4.303-6.158-7.886-6.446c-1.709-0.138-3.483,0.123-5.102-0.441
			c-3.507-1.222-4.908-5.753-8.33-7.196c-2.558-1.079-5.504-0.118-7.984,1.13c-2.48,1.248-4.931,2.819-7.702,2.996
			c-2.41,0.154-5.027-0.74-7.136,0.438c-1.571,0.877-2.394,2.688-3.843,3.756c-1.417,1.045-3.265,1.266-5.023,1.362
			c-1.758,0.096-3.578,0.113-5.179,0.846c-1.601,0.733-2.925,2.426-2.593,4.155L107.767,89.616z"/>
	</g>
	<g>
		<path style="fill:#EBEBEB;" d="M684.791,86.549c0.51-3.708-4.722-6.758-8.654-7.075c-1.875-0.151-3.823,0.135-5.599-0.484
			c-3.849-1.341-5.386-6.314-9.141-7.897c-2.808-1.184-6.04-0.13-8.762,1.24c-2.722,1.37-5.412,3.094-8.452,3.288
			c-2.645,0.169-5.517-0.812-7.831,0.48c-1.724,0.963-2.628,2.95-4.217,4.122c-1.555,1.147-3.583,1.39-5.513,1.495
			c-1.929,0.105-3.927,0.124-5.683,0.929c-1.757,0.804-3.21,2.662-2.846,4.56L684.791,86.549z"/>
	</g>
	<g>
		<path style="fill:#F5F5F5;" d="M613.409,146.345c0.707-5.135-6.541-9.36-11.987-9.799c-2.597-0.209-5.295,0.188-7.755-0.67
			c-5.331-1.858-7.46-8.745-12.662-10.939c-3.889-1.64-8.366-0.18-12.136,1.717c-3.77,1.897-7.496,4.285-11.707,4.555
			c-3.664,0.234-7.642-1.124-10.847,0.665c-2.388,1.333-3.64,4.086-5.841,5.71c-2.154,1.589-4.963,1.925-7.635,2.07
			c-2.672,0.145-5.439,0.172-7.872,1.286c-2.433,1.114-4.446,3.687-3.941,6.315L613.409,146.345z"/>
	</g>
</g>
<g id="Background_Simple" style="display:none;">
	<path style="display:inline;fill:#F5F5F5;" d="M521.593,117.017l-1.924-3.171c-16.223-26.734-45.554-42.849-76.479-40.894
		c-3.975,0.251-7.933,0.789-11.839,1.625c-28.117,6.019-52.582,27.281-62.723,54.512c-5.964,16.015-7.63,34.454-18.948,47.166
		c-14.729,16.544-39.736,17.064-61.722,16.378c-21.986-0.686-47.009-0.101-61.667,16.508c-9.18,10.402-12.097,25.195-11.357,39.125
		c1.96,36.882,27.659,69.859,60.343,86.251c32.684,16.392,71.165,17.86,106.935,10.649c50.11-10.101,97.764-37.841,126.407-80.687
		C537.262,221.634,544.511,163.262,521.593,117.017z"/>
	<circle style="display:inline;fill:#F5F5F5;" cx="604.829" cy="201.479" r="47.316"/>
	<circle style="display:inline;fill:#F5F5F5;" cx="267.111" cy="94.261" r="37.754"/>
</g>
<g id="Floor">
	<g>
		<path style="fill:#263238;" d="M706.537,463.857c0,0.144-151.003,0.26-337.232,0.26c-186.293,0-337.264-0.117-337.264-0.26
			c0-0.144,150.971-0.26,337.264-0.26C555.534,463.597,706.537,463.714,706.537,463.857z"/>
	</g>
</g>
<g id="Small_Town">
	<g>
		<path style="fill:#455A64;" d="M258.965,351.989c32.756-0.823,92.354-58.752,124.977-55.296
			c23.719,2.513,40.51,30.629,64.171,33.775c15.622,2.077,31.695-7.269,46.813-2.332c18.207,5.946,27.862,30.211,45.765,37.252
			c16.542,6.506,34.918-3.615,52.109,0.123c26.373,5.734,41.391,41.443,67.712,47.476c9.852,2.258,20.13-0.028,30.061,1.726
			c20.192,3.566,36.48,25.821,35.919,49.076H269.631L258.965,351.989z"/>
		<g>
			<path style="fill:#263238;" d="M617.229,308.539c-0.568,0.284-15.907,8.238-15.907,8.238l3.125,3.835l13.635-10.51
				L617.229,308.539z"/>
			<path style="fill:#263238;" d="M619.479,312.921c-0.455,0.443-12.657,12.677-12.657,12.677l4.141,2.706l9.802-14.153
				L619.479,312.921z"/>
			<path style="fill:#263238;" d="M615.106,304.132c-0.632,0.067-17.405,0.886-17.405,0.886l1.204,5.945l16.452-5.07
				L615.106,304.132z"/>
			<path style="fill:#263238;" d="M615.557,299.459c-0.625-0.114-16.948-4.062-16.948-4.062l-0.523,6.043l17.214-0.221
				L615.557,299.459z"/>
			<path style="fill:#263238;" d="M618.432,295.92c-0.498-0.395-13.037-11.566-13.037-11.566l-3.307,5.085l15.289,7.914
				L618.432,295.92z"/>
			<path style="fill:#263238;" d="M621.98,294.16c-0.236-0.59-5.577-16.512-5.577-16.512l-5.395,2.772l9.344,14.459L621.98,294.16z"
				/>
			<path style="fill:#263238;" d="M627.213,293.648c0.063-0.632,2.692-17.219,2.692-17.219l-6.065-0.037l1.598,17.141
				L627.213,293.648z"/>
			<polygon style="fill:#263238;" points="627.746,303.779 674.28,294.237 675.116,315.587 627.895,307.585 			"/>
			<path style="fill:#263238;" d="M632.036,304.701c0,2.563-2.077,4.64-4.64,4.64s-4.64-2.077-4.64-4.64
				c0-2.563,2.078-4.64,4.64-4.64S632.036,302.138,632.036,304.701z"/>
			<g>
				<path style="fill:#263238;" d="M610.259,464.033c-0.247-0.025,2.849-33.241,6.913-74.181
					c4.066-40.954,7.561-74.123,7.808-74.099c0.247,0.024-2.848,33.233-6.914,74.188
					C614.002,430.882,610.506,464.058,610.259,464.033z"/>
			</g>
			<g>
				<path style="fill:#263238;" d="M646.9,463.645c0,0-4.55-36.243-8.604-76.364c-4.055-40.135-7.141-72.68-6.894-72.705
					c0.247-0.025,3.733,32.48,7.789,72.614C643.244,427.311,646.899,463.397,646.9,463.645z"/>
			</g>
			<g>
				<path style="fill:#263238;" d="M636.571,368.262c0,0.248-3.586,0.449-8.008,0.449c-4.424,0-8.009-0.201-8.009-0.449
					c0-0.248,3.585-0.449,8.009-0.449C632.986,367.813,636.571,368.014,636.571,368.262z"/>
			</g>
			<g>
				<path style="fill:#263238;" d="M640.007,404.674c0,0.248-5.235,0.45-11.69,0.45c-6.458,0-11.691-0.201-11.691-0.45
					c0-0.248,5.233-0.449,11.691-0.449C634.772,404.225,640.007,404.426,640.007,404.674z"/>
			</g>
			<g>
				<path style="fill:#263238;" d="M644.256,441.794c0,0.248-7.097,0.449-15.85,0.449c-8.756,0-15.851-0.201-15.851-0.449
					c0-0.248,7.096-0.449,15.851-0.449C637.159,441.344,644.256,441.546,644.256,441.794z"/>
			</g>
			<g>
				<path style="fill:#263238;" d="M627.824,307.548c0.248-0.002,0.742,34.351,1.103,76.719c0.361,42.383,0.452,76.732,0.204,76.734
					c-0.248,0.002-0.742-34.343-1.102-76.726C627.667,341.906,627.576,307.55,627.824,307.548z"/>
			</g>
			<g>
				<path style="fill:#263238;" d="M648.69,305.482c-0.008,0-0.021-0.12-0.041-0.353c-0.018-0.254-0.043-0.597-0.075-1.035
					c-0.015-0.229-0.031-0.483-0.049-0.762c-0.031-0.279-0.092-0.581-0.142-0.91c-0.106-0.657-0.207-1.419-0.461-2.247
					c-0.388-1.681-1.18-3.668-2.425-5.772c-1.255-2.095-3.063-4.283-5.522-6.139c-2.451-1.838-5.544-3.402-9.112-4.032
					c-3.544-0.608-7.544-0.497-11.354,0.951c-0.969,0.311-1.881,0.79-2.817,1.24c-0.887,0.537-1.822,1.031-2.648,1.703
					c-0.878,0.603-1.646,1.358-2.45,2.084c-0.726,0.804-1.49,1.591-2.116,2.504c-1.285,1.785-2.407,3.769-3.086,5.95
					c-0.704,2.168-1.083,4.47-1.114,6.813c0.031,2.344,0.409,4.647,1.113,6.815c0.679,2.182,1.801,4.166,3.086,5.952
					c0.626,0.913,1.39,1.701,2.116,2.505c0.804,0.726,1.572,1.481,2.45,2.084c0.826,0.672,1.761,1.167,2.649,1.704
					c0.937,0.45,1.848,0.929,2.818,1.24c3.81,1.448,7.811,1.559,11.355,0.951c3.569-0.631,6.661-2.194,9.112-4.033
					c2.459-1.856,4.267-4.044,5.521-6.139c1.244-2.104,2.036-4.09,2.424-5.771c0.253-0.828,0.354-1.59,0.46-2.247
					c0.05-0.329,0.111-0.631,0.142-0.91c0.018-0.278,0.035-0.532,0.049-0.762c0.031-0.438,0.056-0.78,0.074-1.035
					C648.669,305.602,648.682,305.482,648.69,305.482s0.009,0.12,0.005,0.354c-0.008,0.256-0.017,0.6-0.03,1.039
					c-0.008,0.231-0.018,0.487-0.028,0.767c-0.024,0.281-0.078,0.586-0.121,0.917c-0.093,0.663-0.181,1.432-0.423,2.271
					c-0.365,1.701-1.14,3.716-2.378,5.857c-1.249,2.132-3.062,4.363-5.544,6.263c-2.474,1.882-5.609,3.488-9.236,4.146
					c-3.603,0.635-7.676,0.536-11.565-0.928c-0.989-0.315-1.92-0.8-2.876-1.257c-0.907-0.544-1.861-1.048-2.705-1.731
					c-0.896-0.614-1.682-1.381-2.503-2.122c-0.743-0.818-1.522-1.622-2.163-2.552c-1.314-1.82-2.461-3.845-3.156-6.072
					c-0.72-2.213-1.107-4.565-1.138-6.957c0.031-2.391,0.419-4.742,1.139-6.954c0.695-2.226,1.842-4.25,3.156-6.069
					c0.641-0.93,1.42-1.733,2.163-2.551c0.821-0.74,1.606-1.507,2.502-2.121c0.844-0.683,1.798-1.186,2.704-1.73
					c0.956-0.457,1.887-0.942,2.875-1.257c3.888-1.464,7.961-1.563,11.563-0.928c3.627,0.658,6.762,2.264,9.236,4.146
					c2.483,1.9,4.296,4.131,5.545,6.263c1.239,2.141,2.013,4.156,2.379,5.858c0.242,0.838,0.331,1.608,0.423,2.271
					c0.044,0.332,0.098,0.637,0.121,0.918c0.01,0.28,0.019,0.536,0.028,0.767c0.013,0.44,0.023,0.784,0.03,1.04
					C648.699,305.362,648.698,305.482,648.69,305.482z"/>
			</g>
			<path style="fill:#263238;" d="M635.047,298.418c0.703,0.097,16.384-4.588,16.384-4.588l-4.395-7.691l-12.499,10.833
				L635.047,298.418z"/>
			<path style="fill:#263238;" d="M631.401,294.745c0.455-0.443,13.513-12.226,13.513-12.226l-6.172-4.735l-8.636,16.363
				L631.401,294.745z"/>
			<path style="fill:#263238;" d="M636.923,304.339c0.632-0.067,17.405-0.886,17.405-0.886l-1.204-5.945l-16.452,5.069
				L636.923,304.339z"/>
			<path style="fill:#263238;" d="M636.144,310.287c0.619,0.142,16.747,4.825,16.747,4.825l0.795-6.013l-17.206-0.559
				L636.144,310.287z"/>
			<path style="fill:#263238;" d="M633.786,314.239c0.498,0.395,13.037,11.566,13.037,11.566l3.307-5.085l-15.289-7.914
				L633.786,314.239z"/>
			<path style="fill:#263238;" d="M630.107,314.99c0.236,0.59,5.577,16.512,5.577,16.512l5.395-2.772l-9.344-14.459L630.107,314.99z
				"/>
			<path style="fill:#263238;" d="M623.741,314.576c-0.134,0.621-4.618,16.805-4.618,16.805l6.023,0.721l0.347-17.212
				L623.741,314.576z"/>
		</g>
		<g>
			<polygon style="fill:#EBEBEB;" points="543.064,377.063 513.929,330.716 483.306,374.283 483.306,463.788 543.064,463.788 			"/>
			<polygon style="opacity:0.3;" points="543.064,377.063 513.929,330.716 483.306,374.283 483.306,463.788 543.064,463.788 			"/>
			<polygon style="fill:#FF725E;" points="513.929,330.716 608.461,330.716 638.049,378.565 610.267,378.565 591.12,346.653 
				571.222,377.063 543.064,377.063 			"/>
			<rect x="521.968" y="392.882" style="fill:#263238;" width="5.221" height="13.838"/>
			<rect x="498.972" y="392.882" style="fill:#263238;" width="5.221" height="13.838"/>
			<rect x="521.968" y="427.073" style="fill:#263238;" width="5.221" height="13.838"/>
			<rect x="498.972" y="427.073" style="fill:#263238;" width="5.221" height="13.838"/>
			<g>
				<path style="fill:#263238;" d="M610.819,334.695c0,0.086-21.081,0.156-47.078,0.156c-26.007,0-47.083-0.07-47.083-0.156
					s21.076-0.156,47.083-0.156C589.738,334.539,610.819,334.609,610.819,334.695z"/>
			</g>
			<g>
				<path style="fill:#263238;" d="M613.514,339.075c0,0.086-21.08,0.156-47.079,0.156c-26.007,0-47.083-0.07-47.083-0.156
					s21.076-0.156,47.083-0.156C592.434,338.918,613.514,338.988,613.514,339.075z"/>
			</g>
			<g>
				<path style="fill:#263238;" d="M616.401,343.736c0,0.086-21.081,0.156-47.078,0.156c-26.007,0-47.083-0.07-47.083-0.156
					c0-0.086,21.076-0.156,47.083-0.156C595.321,343.58,616.401,343.65,616.401,343.736z"/>
			</g>
			<g>
				<path style="fill:#263238;" d="M619.288,348.398c0,0.086-21.08,0.156-47.078,0.156c-26.007,0-47.083-0.07-47.083-0.156
					s21.076-0.156,47.083-0.156C598.208,348.241,619.288,348.311,619.288,348.398z"/>
			</g>
			<g>
				<path style="fill:#263238;" d="M622.175,353.059c0,0.086-21.081,0.156-47.079,0.156c-26.007,0-47.083-0.07-47.083-0.156
					s21.076-0.156,47.083-0.156C601.095,352.903,622.175,352.973,622.175,353.059z"/>
			</g>
			<g>
				<path style="fill:#263238;" d="M625.062,357.721c0,0.086-21.081,0.156-47.079,0.156c-26.007,0-47.083-0.07-47.083-0.156
					c0-0.086,21.076-0.156,47.083-0.156C603.982,357.565,625.062,357.635,625.062,357.721z"/>
			</g>
			<g>
				<path style="fill:#263238;" d="M627.949,362.382c0,0.086-21.081,0.156-47.079,0.156c-26.007,0-47.083-0.07-47.083-0.156
					c0-0.086,21.076-0.156,47.083-0.156C606.868,362.226,627.949,362.296,627.949,362.382z"/>
			</g>
			<g>
				<path style="fill:#263238;" d="M630.836,367.044c0,0.086-21.081,0.156-47.078,0.156c-26.007,0-47.083-0.07-47.083-0.156
					c0-0.086,21.076-0.156,47.083-0.156C609.755,366.888,630.836,366.958,630.836,367.044z"/>
			</g>
			<g>
				<path style="fill:#263238;" d="M633.723,371.706c0,0.086-21.081,0.156-47.079,0.156c-26.007,0-47.083-0.07-47.083-0.156
					c0-0.086,21.076-0.156,47.083-0.156C612.642,371.549,633.723,371.619,633.723,371.706z"/>
			</g>
			<g>
				<path style="fill:#263238;" d="M636.61,376.367c0,0.086-21.081,0.156-47.079,0.156c-26.007,0-47.083-0.07-47.083-0.156
					s21.076-0.156,47.083-0.156C615.529,376.211,636.61,376.281,636.61,376.367z"/>
			</g>
			<path style="fill:#EBEBEB;" d="M638.049,463.788c0-1.502,0-85.224,0-85.224h-27.782l-19.147-31.912l-19.898,30.41h-28.158v86.725
				H638.049z"/>
			<polygon style="opacity:0.3;" points="591.12,346.653 551.665,347.27 571.101,377.063 			"/>
			<rect x="587.946" y="364.831" style="fill:#263238;" width="5.221" height="13.838"/>
			<rect x="509.616" y="360.725" style="fill:#263238;" width="5.221" height="13.838"/>
			<rect x="561.981" y="392.882" style="fill:#263238;" width="5.221" height="13.838"/>
			<rect x="587.735" y="392.882" style="fill:#263238;" width="5.221" height="13.838"/>
			<rect x="613.489" y="392.882" style="fill:#263238;" width="5.221" height="13.838"/>
			<rect x="561.97" y="428.335" style="fill:#263238;" width="5.221" height="13.838"/>
			<rect x="587.724" y="428.335" style="fill:#263238;" width="5.221" height="13.838"/>
			<rect x="613.478" y="428.335" style="fill:#263238;" width="5.221" height="13.838"/>
			<g>
				<path style="fill:#263238;" d="M638.049,415.722c0,0.144-34.643,0.26-77.368,0.26c-42.74,0-77.376-0.117-77.376-0.26
					s34.636-0.26,77.376-0.26C603.406,415.461,638.049,415.578,638.049,415.722z"/>
			</g>
			<g>
				<path style="fill:#263238;" d="M483.306,464.033c0,0-0.014-0.145-0.021-0.43c-0.005-0.3-0.011-0.72-0.02-1.268
					c-0.009-1.135-0.022-2.785-0.038-4.925c-0.016-4.319-0.04-10.598-0.069-18.517c-0.023-15.874-0.056-38.307-0.094-64.61l0-0.077
					l0.044-0.063c9.287-13.222,19.486-27.743,30.163-42.944c0.149-0.212,0.298-0.424,0.445-0.633l0.225-0.32l0.208,0.332
					c10.33,16.446,20.167,32.108,29.118,46.358l0.037,0.059l0,0.069c-0.038,25.481-0.071,47.157-0.094,62.481
					c-0.029,7.643-0.052,13.699-0.068,17.863c-0.016,2.062-0.029,3.652-0.038,4.746c-0.008,0.527-0.015,0.932-0.02,1.222
					c-0.007,0.274-0.02,0.414-0.02,0.414s-0.013-0.14-0.02-0.414c-0.005-0.29-0.011-0.694-0.02-1.222
					c-0.009-1.094-0.021-2.684-0.038-4.746c-0.016-4.164-0.039-10.22-0.068-17.863c-0.023-15.323-0.056-37-0.094-62.481l0.037,0.127
					c-8.961-14.243-18.81-29.897-29.153-46.336l0.433,0.011c-0.147,0.208-0.296,0.421-0.445,0.633
					c-10.688,15.194-20.897,29.707-30.193,42.923l0.044-0.139c-0.038,26.304-0.071,48.737-0.094,64.61
					c-0.03,7.919-0.053,14.198-0.069,18.517c-0.017,2.14-0.03,3.79-0.038,4.925c-0.009,0.548-0.015,0.968-0.02,1.268
					C483.32,463.888,483.306,464.033,483.306,464.033z"/>
			</g>
			<g>
				<path style="fill:#263238;" d="M638.049,464.021c-0.144,0-0.26-19.132-0.26-42.726c0-23.603,0.116-42.73,0.26-42.73
					c0.144,0,0.26,19.128,0.26,42.73C638.31,444.889,638.193,464.021,638.049,464.021z"/>
			</g>
		</g>
		<g>
			<polygon style="fill:#EBEBEB;" points="270.388,285.836 241.253,239.489 210.629,283.056 210.629,372.562 270.388,372.562 			"/>
			<polygon style="opacity:0.3;" points="270.388,285.836 241.253,239.489 210.629,283.056 210.629,372.562 270.388,372.562 			"/>
			<polygon style="fill:#FF725E;" points="241.253,239.489 335.784,239.489 365.373,287.338 337.591,287.338 318.444,255.426 
				298.546,285.836 270.388,285.836 			"/>
			<rect x="249.292" y="301.656" style="fill:#263238;" width="5.221" height="13.838"/>
			<rect x="226.296" y="301.656" style="fill:#263238;" width="5.221" height="13.838"/>
			<rect x="249.292" y="335.846" style="fill:#263238;" width="5.221" height="13.838"/>
			<rect x="226.296" y="335.846" style="fill:#263238;" width="5.221" height="13.838"/>
			<g>
				<path style="fill:#263238;" d="M338.143,243.469c0,0.086-21.081,0.156-47.079,0.156c-26.007,0-47.083-0.07-47.083-0.156
					c0-0.086,21.076-0.156,47.083-0.156C317.062,243.312,338.143,243.382,338.143,243.469z"/>
			</g>
			<g>
				<path style="fill:#263238;" d="M340.838,247.848c0,0.086-21.081,0.156-47.079,0.156c-26.007,0-47.083-0.07-47.083-0.156
					c0-0.086,21.076-0.156,47.083-0.156C319.757,247.692,340.838,247.762,340.838,247.848z"/>
			</g>
			<g>
				<path style="fill:#263238;" d="M343.725,252.51c0,0.086-21.081,0.156-47.079,0.156c-26.007,0-47.083-0.07-47.083-0.156
					c0-0.086,21.076-0.156,47.083-0.156C322.644,252.354,343.725,252.423,343.725,252.51z"/>
			</g>
			<g>
				<path style="fill:#263238;" d="M346.612,257.171c0,0.086-21.08,0.156-47.079,0.156c-26.007,0-47.083-0.07-47.083-0.156
					s21.076-0.156,47.083-0.156C325.531,257.015,346.612,257.085,346.612,257.171z"/>
			</g>
			<g>
				<path style="fill:#263238;" d="M349.499,261.833c0,0.086-21.08,0.156-47.078,0.156c-26.007,0-47.083-0.07-47.083-0.156
					c0-0.086,21.076-0.156,47.083-0.156C328.418,261.677,349.499,261.747,349.499,261.833z"/>
			</g>
			<g>
				<path style="fill:#263238;" d="M352.386,266.494c0,0.086-21.081,0.156-47.078,0.156c-26.007,0-47.083-0.07-47.083-0.156
					c0-0.086,21.076-0.156,47.083-0.156C331.305,266.338,352.386,266.408,352.386,266.494z"/>
			</g>
			<g>
				<path style="fill:#263238;" d="M355.273,271.156c0,0.086-21.08,0.156-47.079,0.156c-26.007,0-47.083-0.07-47.083-0.156
					c0-0.086,21.076-0.156,47.083-0.156C334.192,271,355.273,271.07,355.273,271.156z"/>
			</g>
			<g>
				<path style="fill:#263238;" d="M358.16,275.817c0,0.086-21.081,0.156-47.079,0.156c-26.007,0-47.083-0.07-47.083-0.156
					c0-0.086,21.076-0.156,47.083-0.156C337.079,275.661,358.16,275.731,358.16,275.817z"/>
			</g>
			<g>
				<path style="fill:#263238;" d="M361.046,280.479c0,0.086-21.08,0.156-47.078,0.156c-26.007,0-47.083-0.07-47.083-0.156
					s21.076-0.156,47.083-0.156C339.966,280.323,361.046,280.393,361.046,280.479z"/>
			</g>
			<g>
				<path style="fill:#263238;" d="M363.934,285.141c0,0.086-21.081,0.156-47.078,0.156c-26.007,0-47.083-0.07-47.083-0.156
					s21.076-0.156,47.083-0.156C342.853,284.984,363.934,285.054,363.934,285.141z"/>
			</g>
			<path style="fill:#EBEBEB;" d="M363.032,372.562c0-1.502,0.231-85.119,0.231-85.119l-25.672-0.104l-19.147-31.912l-19.898,30.41
				h-28.158v86.725H363.032z"/>
			<polygon style="opacity:0.3;" points="318.444,255.426 278.988,256.043 298.425,285.836 			"/>
			<rect x="315.27" y="273.604" style="fill:#263238;" width="5.221" height="13.838"/>
			<rect x="236.94" y="269.499" style="fill:#263238;" width="5.221" height="13.838"/>
			<rect x="289.305" y="301.656" style="fill:#263238;" width="5.221" height="13.838"/>
			<rect x="315.059" y="301.656" style="fill:#263238;" width="5.221" height="13.838"/>
			<rect x="340.813" y="301.656" style="fill:#263238;" width="5.221" height="13.838"/>
			<rect x="289.294" y="337.109" style="fill:#263238;" width="5.221" height="13.838"/>
			<rect x="315.048" y="337.109" style="fill:#263238;" width="5.221" height="13.838"/>
			<rect x="340.802" y="337.109" style="fill:#263238;" width="5.221" height="13.838"/>
			<g>
				<path style="fill:#263238;" d="M364.26,324.495c0,0.144-34.394,0.26-76.812,0.26c-42.432,0-76.819-0.117-76.819-0.26
					s34.387-0.26,76.819-0.26C329.866,324.235,364.26,324.352,364.26,324.495z"/>
			</g>
			<g>
				<path style="fill:#263238;" d="M270.354,372.533c0,0-0.013-0.139-0.02-0.412c-0.005-0.289-0.011-0.691-0.02-1.216
					c-0.009-1.089-0.021-2.671-0.038-4.723c-0.016-4.145-0.039-10.171-0.068-17.779c-0.023-15.252-0.056-36.828-0.094-62.194
					l0.036,0.126c-8.948-14.354-18.787-30.136-29.119-46.709l0.435,0.011c-0.118,0.169-0.246,0.353-0.374,0.536
					c-10.718,15.374-20.95,30.051-30.265,43.412l0.043-0.138c-0.038,26.131-0.071,48.405-0.094,64.162
					c-0.03,7.861-0.053,14.092-0.069,18.379c-0.017,2.123-0.029,3.761-0.038,4.887c-0.009,0.543-0.015,0.96-0.02,1.258
					c-0.007,0.282-0.02,0.426-0.02,0.426s-0.014-0.144-0.02-0.426c-0.005-0.298-0.011-0.715-0.02-1.258
					c-0.009-1.126-0.022-2.764-0.038-4.887c-0.016-4.286-0.039-10.518-0.069-18.379c-0.023-15.758-0.056-38.031-0.094-64.162
					l0-0.076l0.044-0.063c9.305-13.367,19.527-28.052,30.234-43.433c0.128-0.184,0.256-0.367,0.374-0.536l0.226-0.324l0.209,0.336
					c10.319,16.581,20.146,32.371,29.084,46.731l0.036,0.058l0,0.068c-0.038,25.366-0.071,46.942-0.094,62.194
					c-0.029,7.607-0.052,13.634-0.068,17.779c-0.016,2.052-0.029,3.635-0.038,4.723c-0.009,0.525-0.015,0.927-0.02,1.216
					C270.368,372.394,270.354,372.533,270.354,372.533z"/>
			</g>
			<g>
				<path style="fill:#263238;" d="M363.263,287.442c0.144,0,0.26,18.884,0.26,42.173c0,23.297-0.116,42.177-0.26,42.177
					c-0.144,0-0.26-18.88-0.26-42.177C363.003,306.326,363.119,287.442,363.263,287.442z"/>
			</g>
		</g>
		<g>
			<g>
				<rect x="136.037" y="193.52" style="fill:#E0E0E0;" width="86.224" height="270.125"/>
				<polygon style="fill:#455A64;" points="315.222,321.509 222.261,321.509 222.261,376.747 339.472,376.747 				"/>
				<rect x="222.261" y="376.747" style="fill:#E0E0E0;" width="107.78" height="86.898"/>
				<g>
					<path style="fill:#FFFFFF;" d="M172.26,274.203h11.15v-20.247c0-3.079-2.496-5.575-5.575-5.575l0,0
						c-3.079,0-5.575,2.496-5.575,5.575V274.203z"/>
					<g>
						<path style="fill:#263238;" d="M172.26,274.203c-0.013,0.013-0.025-0.217-0.038-0.666c-0.01-0.506-0.024-1.166-0.04-1.987
							c-0.022-1.809-0.054-4.323-0.092-7.404c-0.013-1.579-0.027-3.302-0.042-5.148c-0.005-0.928-0.01-1.886-0.016-2.873
							c0.023-0.995-0.074-1.986,0.065-3.073c0.292-2.14,1.986-4.169,4.296-4.739c2.275-0.625,5.014,0.34,6.349,2.492
							c0.648,0.994,0.954,2.192,0.927,3.331c-0.001,1.106-0.002,2.196-0.004,3.269c-0.005,2.144-0.009,4.217-0.014,6.199
							c-0.019,3.949-0.036,7.533-0.051,10.6l-0.001,0.194l-0.19-0.002c-3.421-0.043-6.213-0.078-8.215-0.103
							c-0.912-0.02-1.643-0.036-2.198-0.048C172.5,274.23,172.246,274.217,172.26,274.203c0.013-0.013,0.293-0.026,0.811-0.041
							c0.566-0.012,1.311-0.028,2.241-0.048c1.973-0.025,4.725-0.06,8.098-0.103l-0.191,0.191c-0.015-3.066-0.032-6.65-0.051-10.6
							c-0.004-1.982-0.009-4.055-0.014-6.199c-0.001-1.073-0.002-2.163-0.003-3.269c0.022-1.071-0.257-2.137-0.847-3.049
							c-1.217-1.962-3.706-2.842-5.785-2.28c-2.108,0.513-3.668,2.36-3.948,4.319c-0.135,0.965-0.053,2.002-0.083,2.963
							c-0.006,0.971-0.011,1.915-0.016,2.828c-0.015,1.824-0.029,3.526-0.042,5.087c-0.038,3.086-0.069,5.605-0.092,7.417
							c-0.017,0.845-0.03,1.523-0.04,2.043C172.285,273.936,172.272,274.191,172.26,274.203z"/>
					</g>
				</g>
				<polygon style="fill:#455A64;" points="179.149,62.163 131.205,193.52 225.825,193.52 				"/>
				<g>
					<g>
						<path style="fill:#263238;" d="M218.58,173.132c0,0.144-17.895,0.26-39.965,0.26c-22.077,0-39.969-0.117-39.969-0.26
							s17.891-0.26,39.969-0.26C200.685,172.871,218.58,172.988,218.58,173.132z"/>
					</g>
					<g>
						<path style="fill:#263238;" d="M221.562,181.524c0,0.144-19.089,0.26-42.631,0.26c-23.55,0-42.634-0.117-42.634-0.26
							c0-0.144,19.085-0.26,42.634-0.26C202.473,181.264,221.562,181.38,221.562,181.524z"/>
					</g>
					<g>
						<path style="fill:#263238;" d="M215.113,163.373c0,0.144-16.351,0.26-36.515,0.26c-20.172,0-36.519-0.117-36.519-0.26
							s16.347-0.26,36.519-0.26C198.762,163.113,215.113,163.229,215.113,163.373z"/>
					</g>
					<g>
						<path style="fill:#263238;" d="M211.84,154.163c0,0.018-0.232,0.035-0.673,0.052c-0.495,0.013-1.136,0.029-1.931,0.049
							c-1.74,0.02-4.15,0.048-7.101,0.083c-6.051,0.02-14.307,0.047-23.428,0.077c-9.124-0.03-17.381-0.057-23.432-0.077
							c-2.951-0.035-5.361-0.063-7.101-0.083c-0.795-0.02-1.436-0.036-1.93-0.049c-0.441-0.017-0.673-0.035-0.673-0.052
							c0-0.018,0.232-0.036,0.673-0.053c0.495-0.012,1.135-0.029,1.93-0.049c1.739-0.02,4.149-0.048,7.101-0.083
							c6.051-0.02,14.308-0.046,23.432-0.076c9.121,0.029,17.376,0.056,23.428,0.076c2.951,0.034,5.362,0.062,7.101,0.082
							c0.795,0.02,1.436,0.036,1.931,0.049C211.608,154.127,211.84,154.145,211.84,154.163z"/>
					</g>
					<g>
						<path style="fill:#263238;" d="M208.567,144.952c0,0.144-13.351,0.26-29.816,0.26c-16.471,0-29.819-0.117-29.819-0.26
							c0-0.144,13.348-0.26,29.819-0.26C195.216,144.692,208.567,144.808,208.567,144.952z"/>
					</g>
					<g>
						<path style="fill:#263238;" d="M205.294,135.742c0,0.144-11.866,0.26-26.499,0.26c-14.639,0-26.502-0.117-26.502-0.26
							c0-0.144,11.863-0.26,26.502-0.26C193.429,135.481,205.294,135.598,205.294,135.742z"/>
					</g>
					<g>
						<path style="fill:#263238;" d="M202.021,126.531c0,0.144-10.332,0.26-23.074,0.26c-12.746,0-23.076-0.117-23.076-0.26
							s10.329-0.26,23.076-0.26C191.69,126.271,202.021,126.387,202.021,126.531z"/>
					</g>
					<g>
						<path style="fill:#263238;" d="M198.748,117.321c0,0.036-0.556,0.07-1.561,0.101c-1.099,0.021-2.531,0.049-4.258,0.083
							c-3.595,0.047-8.561,0.076-14.046,0.076c-5.487,0-10.454-0.029-14.049-0.076c-1.726-0.034-3.159-0.061-4.257-0.083
							c-1.005-0.031-1.561-0.065-1.561-0.101c0-0.036,0.556-0.07,1.561-0.101c1.099-0.021,2.531-0.049,4.257-0.083
							c3.595-0.047,8.562-0.076,14.049-0.076c5.485,0,10.451,0.029,14.046,0.076c1.726,0.034,3.159,0.061,4.258,0.083
							C198.193,117.25,198.748,117.285,198.748,117.321z"/>
					</g>
					<g>
						<path style="fill:#263238;" d="M195.476,108.11c0,0.036-0.463,0.07-1.3,0.101c-0.942,0.022-2.13,0.05-3.547,0.083
							c-2.995,0.047-7.132,0.076-11.701,0.076c-4.571,0-8.708-0.029-11.703-0.076c-1.416-0.033-2.605-0.061-3.546-0.083
							c-0.837-0.031-1.3-0.065-1.3-0.101c0-0.036,0.463-0.07,1.3-0.101c0.942-0.022,2.13-0.05,3.546-0.083
							c2.995-0.047,7.132-0.076,11.703-0.076c4.569,0,8.706,0.029,11.701,0.076c1.416,0.033,2.605,0.061,3.547,0.083
							C195.013,108.04,195.476,108.074,195.476,108.11z"/>
					</g>
					<g>
						<path style="fill:#263238;" d="M192.203,98.899c0,0.036-0.37,0.07-1.04,0.101c-0.669,0.031-1.638,0.059-2.835,0.083
							c-2.394,0.047-5.702,0.076-9.355,0.076c-3.654,0-6.962-0.029-9.357-0.076c-1.197-0.024-2.166-0.052-2.835-0.083
							c-0.67-0.031-1.04-0.065-1.04-0.101c0-0.036,0.37-0.07,1.04-0.101c0.669-0.031,1.638-0.059,2.835-0.083
							c2.394-0.047,5.702-0.076,9.357-0.076c3.653,0,6.961,0.029,9.355,0.076c1.197,0.024,2.166,0.052,2.835,0.083
							C191.833,98.829,192.203,98.864,192.203,98.899z"/>
					</g>
					<g>
						<path style="fill:#263238;" d="M188.93,89.689c0,0.072-1.193,0.137-3.121,0.184c-1.017,0.017-2.154,0.035-3.387,0.056
							c-0.644,0.005-1.311,0.01-2,0.015c-0.348,0.001-0.7,0.003-1.058,0.004l-0.541,0.001l-0.136,0c-0.026,0-0.054,0-0.013,0h0.017
							h0.008c0.001-0.232,0.003,0.52,0.004-0.521h0.004h0.034h0.275h0.275h0.034h0.004c0.001-0.113,0.003,0.986,0.004,0.521h0.009
							h0.017c0.041,0,0.017,0-0.011,0l-0.137,0l-0.541-0.001c-0.358-0.001-0.711-0.003-1.058-0.004
							c-0.689-0.005-1.357-0.01-2.001-0.015c-1.234-0.02-2.371-0.039-3.388-0.056c-1.929-0.047-3.121-0.112-3.121-0.184
							s1.193-0.137,3.121-0.184c1.017-0.017,2.154-0.035,3.388-0.056c0.644-0.005,1.311-0.01,2.001-0.015
							c0.348-0.001,0.701-0.003,1.058-0.004l0.541-0.001l0.137,0c0.028,0,0.052,0,0.011,0h-0.017l-0.009,0
							c-0.001-0.465-0.003,0.634-0.004,0.521h-0.004h-0.034l-0.275,0l-0.275,0h-0.034h-0.004c-0.001-1.04-0.003-0.288-0.004-0.521
							l-0.008,0h-0.017c-0.041,0-0.014,0,0.013,0l0.136,0l0.541,0.001c0.358,0.001,0.71,0.003,1.058,0.004
							c0.689,0.005,1.357,0.01,2,0.015c1.233,0.02,2.371,0.039,3.387,0.056C187.737,89.552,188.93,89.617,188.93,89.689z"/>
					</g>
					<g>
						<path style="fill:#263238;" d="M185.867,81.619c0,0.144-3.083,0.26-6.884,0.26c-3.803,0-6.885-0.117-6.885-0.26
							c0-0.144,3.082-0.26,6.885-0.26C182.785,81.359,185.867,81.476,185.867,81.619z"/>
					</g>
					<g>
						<path style="fill:#263238;" d="M183.968,73.31c0,0.144-2.073,0.26-4.629,0.26c-2.557,0-4.629-0.117-4.629-0.26
							s2.072-0.26,4.629-0.26C181.895,73.05,183.968,73.167,183.968,73.31z"/>
					</g>
				</g>
				<g>
					<path style="fill:#263238;" d="M222.261,274.203c0,0.144-19.129,0.26-42.721,0.26c-23.6,0-42.725-0.117-42.725-0.26
						s19.125-0.26,42.725-0.26C203.132,273.943,222.261,274.06,222.261,274.203z"/>
				</g>
				<g>
					<path style="fill:#263238;" d="M222.261,281.012c0,0.144-19.129,0.26-42.721,0.26c-23.6,0-42.725-0.117-42.725-0.26
						s19.125-0.26,42.725-0.26C203.132,280.752,222.261,280.868,222.261,281.012z"/>
				</g>
				<g>
					<path style="fill:#263238;" d="M199.798,274.203c-0.007,0-0.014-0.093-0.021-0.275c-0.005-0.203-0.012-0.471-0.021-0.811
						c-0.009-0.74-0.022-1.793-0.04-3.146c-0.017-2.774-0.041-6.779-0.071-11.813c-0.023-10.133-0.056-24.404-0.094-41.075
						l0.072,0.173c-4.899-4.893-10.214-10.201-15.736-15.716l0.184,0.076c-1.93,0-3.993,0.001-6.073,0.001
						c-1.971,0-3.926,0-5.857-0.001l0.184-0.076c-5.712,5.705-11.19,11.176-16.279,16.258l0.072-0.173
						c-0.038,16.511-0.071,30.647-0.094,40.684c-0.03,4.987-0.054,8.954-0.07,11.702c-0.017,1.341-0.03,2.383-0.039,3.117
						c-0.009,0.337-0.015,0.601-0.02,0.803c-0.007,0.18-0.014,0.272-0.021,0.272c-0.007,0-0.014-0.092-0.021-0.272
						c-0.005-0.202-0.012-0.466-0.021-0.803c-0.009-0.734-0.022-1.776-0.039-3.117c-0.017-2.748-0.041-6.715-0.071-11.702
						c-0.023-10.037-0.056-24.173-0.094-40.684l0-0.101l0.072-0.072c5.083-5.089,10.553-10.567,16.258-16.279l0.076-0.076h0.108
						c1.931,0,3.886,0,5.857-0.001c2.08,0,4.143,0.001,6.073,0.001h0.108l0.076,0.076c5.515,5.522,10.824,10.837,15.716,15.736
						l0.072,0.072l0,0.101c-0.038,16.671-0.071,30.942-0.094,41.075c-0.03,5.035-0.054,9.039-0.071,11.813
						c-0.017,1.354-0.03,2.406-0.039,3.146c-0.009,0.34-0.015,0.607-0.021,0.811C199.812,274.111,199.805,274.203,199.798,274.203z"
						/>
				</g>
				<path style="fill:#455A64;" d="M337.573,437.009c-5.428-0.195-11.212,1.329-16.09-1.06c-5.608-2.746-7.977-9.725-13.307-12.977
					c-5.685-3.469-13.177-1.741-18.974,1.537c-5.797,3.278-10.769,7.957-16.823,10.734c-8.497,3.898-18.269,3.685-27.285,6.157
					c-9.016,2.472-18.044,13.295-17.518,22.629l133.922-0.322C361.305,451.137,350.137,437.461,337.573,437.009z"/>
				<g>
					<path style="fill:#263238;" d="M135.296,445.934c-0.144,0-0.26-56.135-0.26-125.366c0-69.255,0.117-125.378,0.26-125.378
						s0.26,56.123,0.26,125.378C135.557,389.798,135.44,445.934,135.296,445.934z"/>
				</g>
				<g>
					<path style="fill:#263238;" d="M222.809,335.457c-0.144,0-0.26-31.124-0.26-69.51c0-38.399,0.117-69.517,0.26-69.517
						c0.144,0,0.26,31.118,0.26,69.517C223.069,304.333,222.952,335.457,222.809,335.457z"/>
				</g>
			</g>
			<g>
				<path style="fill:#263238;" d="M319.121,328.68c0,0.144-21.604,0.26-48.248,0.26c-26.653,0-48.252-0.116-48.252-0.26
					c0-0.144,21.599-0.26,48.252-0.26C297.516,328.42,319.121,328.536,319.121,328.68z"/>
			</g>
			<g>
				<path style="fill:#263238;" d="M320.927,334.505c0,0.144-22.009,0.26-49.151,0.26c-27.152,0-49.156-0.117-49.156-0.26
					s22.004-0.26,49.156-0.26C298.919,334.245,320.927,334.361,320.927,334.505z"/>
			</g>
			<g>
				<path style="fill:#263238;" d="M323.858,340.524c0,0.144-22.665,0.26-50.617,0.26c-27.962,0-50.622-0.117-50.622-0.26
					c0-0.144,22.66-0.26,50.622-0.26C301.193,340.264,323.858,340.38,323.858,340.524z"/>
			</g>
			<g>
				<path style="fill:#263238;" d="M326.383,346.932c0,0.144-23.23,0.26-51.879,0.26c-28.659,0-51.884-0.117-51.884-0.26
					c0-0.144,23.225-0.26,51.884-0.26C303.153,346.671,326.383,346.788,326.383,346.932z"/>
			</g>
			<g>
				<path style="fill:#263238;" d="M329.196,353.339c0,0.144-23.86,0.26-53.285,0.26c-29.436,0-53.29-0.117-53.29-0.26
					s23.855-0.26,53.29-0.26C305.336,353.079,329.196,353.195,329.196,353.339z"/>
			</g>
			<g>
				<path style="fill:#263238;" d="M331.749,359.747c0,0.144-24.431,0.26-54.562,0.26c-30.141,0-54.567-0.117-54.567-0.26
					s24.426-0.26,54.567-0.26C307.318,359.486,331.749,359.603,331.749,359.747z"/>
			</g>
			<g>
				<path style="fill:#263238;" d="M334.579,366.154c0,0.144-25.065,0.26-55.977,0.26c-30.923,0-55.982-0.117-55.982-0.26
					c0-0.144,25.059-0.26,55.982-0.26C309.514,365.894,334.579,366.01,334.579,366.154z"/>
			</g>
			<g>
				<path style="fill:#263238;" d="M332.989,372.562c0,0.144-24.709,0.26-55.182,0.26c-30.483,0-55.187-0.116-55.187-0.26
					c0-0.144,24.703-0.26,55.187-0.26C308.28,372.301,332.989,372.418,332.989,372.562z"/>
			</g>
			<g>
				<path style="fill:#263238;" d="M222.261,463.647c-0.144,0.001-0.383-19.243-0.535-42.977
					c-0.151-23.742-0.158-42.984-0.014-42.985c0.144-0.001,0.383,19.239,0.535,42.982
					C222.399,444.4,222.405,463.646,222.261,463.647z"/>
			</g>
			<polygon style="opacity:0.3;" points="222.261,321.509 253.533,376.747 222.62,376.747 			"/>
			<polygon style="opacity:0.3;" points="136.037,193.52 222.261,201.356 222.261,193.52 			"/>
		</g>
		<g>
			<g>
				<polygon style="fill:#FF725E;" points="164.612,330.716 116.512,378.585 211.787,378.585 				"/>
				<rect x="93.353" y="378.585" style="fill:#EBEBEB;" width="113.642" height="84.999"/>
				<rect x="166.683" y="438.78" style="fill:#263238;" width="11.07" height="25.077"/>
				<rect x="93.353" y="378.585" style="opacity:0.3;" width="38.582" height="85.291"/>
				<polygon style="fill:#FF725E;" points="164.612,330.716 134.239,330.716 86.077,378.585 122.694,378.585 				"/>
				<rect x="151.211" y="416.979" style="fill:#263238;" width="4.735" height="14.205"/>
				<rect x="186.534" y="416.979" style="fill:#263238;" width="4.735" height="14.205"/>
				<rect x="151.211" y="388.389" style="fill:#263238;" width="4.735" height="14.205"/>
				<rect x="111.244" y="416.979" style="fill:#263238;" width="4.735" height="14.205"/>
				<rect x="111.244" y="388.389" style="fill:#263238;" width="4.735" height="14.205"/>
				<rect x="186.534" y="388.389" style="fill:#263238;" width="4.735" height="14.205"/>
				<g>
					<path style="fill:#263238;" d="M207.182,373.913c0,0.086-25.921,0.156-57.888,0.156c-31.979,0-57.894-0.07-57.894-0.156
						s25.915-0.156,57.894-0.156C181.261,373.756,207.182,373.826,207.182,373.913z"/>
				</g>
				<g>
					<path style="fill:#263238;" d="M201.194,368.413c0,0.086-23.575,0.156-52.649,0.156c-29.084,0-52.654-0.07-52.654-0.156
						c0-0.086,23.57-0.156,52.654-0.156C177.619,368.257,201.194,368.327,201.194,368.413z"/>
				</g>
				<g>
					<path style="fill:#263238;" d="M196.342,362.913c0,0.086-21.088,0.156-47.095,0.156c-26.016,0-47.1-0.07-47.1-0.156
						s21.083-0.156,47.1-0.156C175.254,362.757,196.342,362.827,196.342,362.913z"/>
				</g>
				<g>
					<path style="fill:#263238;" d="M190.922,357.414c0,0.086-18.704,0.156-41.77,0.156c-23.075,0-41.774-0.07-41.774-0.156
						c0-0.086,18.699-0.156,41.774-0.156C172.219,357.257,190.922,357.327,190.922,357.414z"/>
				</g>
				<g>
					<path style="fill:#263238;" d="M185.502,351.914c0,0-0.255,0.021-0.74,0.031c-0.536,0.007-1.242,0.017-2.123,0.029
						c-1.901,0.012-4.554,0.029-7.807,0.05c-6.643,0.012-15.724,0.028-25.757,0.046c-10.036-0.018-19.119-0.034-25.762-0.046
						c-3.253-0.021-5.906-0.038-7.807-0.05c-0.881-0.012-1.587-0.022-2.123-0.029c-0.485-0.01-0.74-0.031-0.74-0.031
						s0.255-0.021,0.74-0.031c0.536-0.007,1.242-0.017,2.123-0.029c1.901-0.012,4.553-0.029,7.807-0.05
						c6.643-0.012,15.725-0.028,25.762-0.046c10.033,0.018,19.115,0.034,25.757,0.046c3.253,0.021,5.906,0.038,7.807,0.05
						c0.881,0.012,1.587,0.022,2.123,0.029C185.247,351.892,185.502,351.914,185.502,351.914z"/>
				</g>
				<g>
					<path style="fill:#263238;" d="M179.31,346.414c0,0.086-13.626,0.156-30.431,0.156c-16.811,0-30.434-0.07-30.434-0.156
						s13.623-0.156,30.434-0.156C165.684,346.258,179.31,346.328,179.31,346.414z"/>
				</g>
				<g>
					<path style="fill:#263238;" d="M175.05,340.914c0,0.011-0.179,0.021-0.519,0.031c-0.4,0.008-0.891,0.018-1.488,0.029
						c-1.37,0.012-3.221,0.029-5.473,0.05c-4.692,0.012-11.04,0.028-18.055,0.046c-7.017-0.018-13.366-0.034-18.058-0.046
						c-2.252-0.02-4.102-0.037-5.472-0.05c-0.597-0.012-1.088-0.021-1.488-0.029c-0.34-0.01-0.519-0.021-0.519-0.031
						c0-0.011,0.179-0.021,0.519-0.031c0.4-0.008,0.891-0.018,1.488-0.029c1.37-0.012,3.22-0.029,5.472-0.05
						c4.692-0.012,11.041-0.028,18.058-0.046c7.015,0.018,13.363,0.034,18.055,0.046c2.252,0.02,4.103,0.037,5.473,0.05
						c0.597,0.012,1.088,0.022,1.488,0.029C174.872,340.893,175.05,340.903,175.05,340.914z"/>
				</g>
				<g>
					<path style="fill:#263238;" d="M170.139,335.414c0,0.011-0.142,0.021-0.413,0.032c-0.333,0.008-0.723,0.018-1.184,0.029
						c-1.12,0.013-2.586,0.029-4.354,0.05c-3.765,0.012-8.799,0.028-14.363,0.046c-5.566-0.018-10.601-0.034-14.365-0.046
						c-1.768-0.02-3.233-0.037-4.353-0.05c-0.461-0.011-0.851-0.021-1.184-0.029c-0.271-0.01-0.413-0.021-0.413-0.032
						s0.142-0.021,0.413-0.031c0.333-0.008,0.722-0.018,1.184-0.029c1.12-0.013,2.585-0.03,4.353-0.05
						c3.765-0.012,8.799-0.028,14.365-0.046c5.564,0.018,10.598,0.034,14.363,0.046c1.768,0.02,3.234,0.037,4.354,0.05
						c0.461,0.011,0.851,0.021,1.184,0.029C169.997,335.393,170.139,335.404,170.139,335.414z"/>
				</g>
				<polygon style="opacity:0.3;" points="164.612,330.716 134.239,330.716 86.077,378.585 122.694,378.585 				"/>
			</g>
			<g>
				<path style="fill:#263238;" d="M206.995,463.584c-0.018,0-0.035-0.296-0.051-0.859c-0.011-0.609-0.026-1.43-0.044-2.463
					c-0.029-2.139-0.041-5.234-0.035-9.058c0.01-7.648,0.131-18.214,0.322-29.88c0.185-11.648,0.353-22.19,0.475-29.879
					c0.055-3.786,0.099-6.866,0.131-9.055c0.022-1.032,0.04-1.853,0.054-2.462c0.018-0.563,0.036-0.858,0.054-0.858
					c0.018,0,0.035,0.296,0.051,0.858c0.011,0.609,0.026,1.43,0.044,2.462c0.029,2.139,0.041,5.233,0.035,9.057
					c-0.01,7.648-0.131,18.214-0.322,29.885c-0.185,11.644-0.352,22.185-0.475,29.875c-0.055,3.786-0.099,6.867-0.131,9.055
					c-0.022,1.033-0.04,1.853-0.054,2.462C207.031,463.289,207.013,463.584,206.995,463.584z"/>
			</g>
			<g>
				<path style="fill:#263238;" d="M93.353,463.877c-0.144,0-0.326-19.024-0.407-42.487c-0.081-23.471-0.03-42.492,0.114-42.493
					c0.144-0.001,0.326,19.02,0.407,42.491C93.547,444.851,93.496,463.876,93.353,463.877z"/>
			</g>
			<g>
				<path style="fill:#263238;" d="M131.792,464.183c-0.144,0-0.26-19.052-0.26-42.548c0-23.504,0.117-42.552,0.26-42.552
					s0.26,19.048,0.26,42.552C132.052,445.131,131.935,464.183,131.792,464.183z"/>
			</g>
		</g>
		<g>
			<path style="fill:#E0E0E0;" d="M482.773,245.078c-0.875-2.7-2.499-5.261-4.944-6.704c-2.445-1.443-5.781-1.544-8.01,0.214
				c-3.98,3.139-2.795,10.097-6.671,13.364c-3.525,2.972-8.819,1.141-13.421,1.418c-4.33,0.26-8.476,2.684-10.827,6.329
				c-2.127,3.298-2.904,7.547-5.882,10.103c-6.035,5.179-16.596,0.016-22.77,5.03c-2.303,1.87-3.467,4.86-3.749,7.812
				c-0.282,2.953,0.219,5.918,0.718,8.842l6.122-0.045c-0.393-3.606-0.626-7.725,1.874-10.354c2.622-2.758,7.029-2.576,10.767-1.867
				c3.458,0.656,6.883,1.592,10.398,1.78c3.515,0.188,7.225-0.456,9.986-2.64c3.469-2.744,5.089-7.599,9.057-9.554
				c3.473-1.711,7.6-0.647,11.468-0.821c5.366-0.241,10.553-3.106,13.614-7.52C483.564,256.051,484.429,250.188,482.773,245.078z"/>
			<g>
				<polygon style="fill:#EBEBEB;" points="332.989,463.788 332.989,378.505 424.299,296.544 443.373,296.544 510.663,377.609 
					510.663,463.788 				"/>
				<polygon style="fill:#FF725E;" points="328.971,378.669 383.006,378.669 443.373,296.544 390.526,296.544 				"/>
				<polygon style="fill:#FF725E;" points="426.297,307.479 426.297,285.938 399.976,285.938 399.976,322.903 414.993,322.903 				
					"/>
				<polygon style="opacity:0.3;" points="381.311,378.669 381.625,463.788 332.989,463.788 332.989,378.669 				"/>
				<rect x="443.373" y="440.051" style="fill:#263238;" width="9.979" height="23.737"/>
				<rect x="404.217" y="412.493" style="fill:#263238;" width="4.99" height="14.58"/>
				<rect x="404.217" y="375.759" style="fill:#263238;" width="4.99" height="14.58"/>
				<rect x="445.009" y="412.493" style="fill:#263238;" width="4.989" height="14.58"/>
				<rect x="445.009" y="374.388" style="fill:#263238;" width="4.989" height="14.58"/>
				<rect x="445.009" y="334.711" style="fill:#263238;" width="4.989" height="14.58"/>
				<rect x="485.801" y="412.493" style="fill:#263238;" width="4.99" height="14.58"/>
				<rect x="485.801" y="374.388" style="fill:#263238;" width="4.99" height="14.58"/>
				<rect x="399.976" y="285.938" style="opacity:0.3;" width="15.017" height="36.965"/>
				<g>
					<path style="fill:#263238;" d="M332.989,463.707c-0.144,0-0.26-18.703-0.26-41.768c0-23.074,0.117-41.772,0.26-41.772
						s0.26,18.699,0.26,41.772C333.249,445.004,333.132,463.707,332.989,463.707z"/>
				</g>
				<g>
					<path style="fill:#263238;" d="M381.2,463.468c-0.144,0-0.26-18.984-0.26-42.398c0-23.421,0.117-42.402,0.26-42.402
						c0.144,0,0.26,18.98,0.26,42.402C381.46,444.484,381.344,463.468,381.2,463.468z"/>
				</g>
				<g>
					<path style="fill:#263238;" d="M510.663,464.032c-0.144-0.001-0.154-19.237-0.022-42.959
						c0.132-23.731,0.355-42.961,0.499-42.961c0.144,0.001,0.154,19.233,0.022,42.964
						C511.03,444.798,510.806,464.033,510.663,464.032z"/>
				</g>
			</g>
			<g>
				<path style="fill:#263238;" d="M426.296,286.415c0.011,0,0.021,0.141,0.032,0.408c0.008,0.33,0.018,0.715,0.029,1.171
					c0.013,1.109,0.03,2.559,0.05,4.306c0.012,3.726,0.028,8.704,0.046,14.207c0,0.333,0,0.664,0,0.972v0.051l-0.03,0.041
					c-3.137,4.248-5.951,8.06-8.054,10.907c-0.993,1.322-1.816,2.417-2.448,3.258c-0.262,0.339-0.484,0.626-0.676,0.874
					c-0.157,0.198-0.243,0.298-0.252,0.292c-0.008-0.006,0.061-0.119,0.203-0.328c0.178-0.257,0.386-0.556,0.63-0.908
					c0.612-0.856,1.408-1.97,2.37-3.316c2.082-2.862,4.87-6.694,7.976-10.964l-0.03,0.092c0-0.308,0-0.639,0-0.972
					c0.018-5.503,0.034-10.481,0.046-14.207c0.02-1.747,0.037-3.197,0.05-4.306c0.011-0.455,0.021-0.841,0.029-1.171
					C426.275,286.556,426.286,286.415,426.296,286.415z"/>
			</g>
			<polygon style="fill:#FF725E;" points="443.373,296.544 510.663,377.609 513.929,376.367 446.874,296.544 			"/>
			<g>
				<path style="fill:#263238;" d="M443.373,296.544c0.007,0.005-0.066,0.121-0.217,0.34c-0.167,0.238-0.392,0.559-0.679,0.967
					c-0.623,0.867-1.513,2.106-2.652,3.69c-2.338,3.214-5.693,7.826-9.831,13.514c-8.356,11.401-19.873,27.114-32.594,44.47
					c-4.985,6.775-9.786,13.298-14.195,19.289l-0.075,0.101l-0.125,0c-15.697-0.038-29.197-0.07-38.803-0.093
					c-4.768-0.031-8.569-0.055-11.208-0.072c-1.283-0.017-2.283-0.031-2.991-0.04c-0.321-0.009-0.575-0.016-0.771-0.021
					c-0.173-0.007-0.262-0.014-0.262-0.022c0-0.007,0.088-0.014,0.262-0.021c0.196-0.005,0.45-0.012,0.771-0.021
					c0.707-0.01,1.707-0.023,2.991-0.04c2.639-0.017,6.44-0.041,11.208-0.072c9.606-0.023,23.106-0.056,38.803-0.093l-0.199,0.101
					c4.402-5.996,9.196-12.524,14.174-19.304c12.769-17.321,24.329-33.002,32.717-44.38c4.195-5.648,7.595-10.226,9.965-13.417
					c1.173-1.56,2.089-2.779,2.731-3.632c0.305-0.396,0.543-0.706,0.721-0.937C443.278,296.643,443.366,296.539,443.373,296.544z"/>
			</g>
		</g>
	</g>
</g>
<g id="Birds">
	<g>
		<g>
			<g>
				<path style="fill:#263238;" d="M397.703,167.55c-0.022,0.062-1.097-0.379-3.127-0.83c-2.019-0.443-5.051-0.835-8.727-0.336
					c-3.65,0.488-7.974,1.956-11.759,5.072c-3.778,3.059-7.009,7.688-8.301,13.179c-0.013,0.05-0.026,0.1-0.037,0.146l-0.242,0.942
					l-0.362-0.893c-2.113-5.218-5.866-9.364-9.938-12c-4.083-2.684-8.473-3.796-12.137-4.047c-3.687-0.257-6.678,0.272-8.671,0.794
					c-2.002,0.528-3.059,0.993-3.083,0.933c-0.009-0.02,0.251-0.145,0.754-0.364c0.502-0.222,1.261-0.512,2.263-0.807
					c1.992-0.599,5.012-1.207,8.766-1.003c3.727,0.196,8.23,1.284,12.425,4.003c4.182,2.669,8.041,6.9,10.21,12.253l-0.603,0.048
					c0.012-0.047,0.025-0.099,0.038-0.15c1.328-5.646,4.66-10.381,8.551-13.49c3.901-3.169,8.348-4.624,12.069-5.062
					c3.751-0.451,6.819,0.018,8.841,0.54c1.017,0.256,1.79,0.52,2.301,0.728C397.447,167.413,397.711,167.529,397.703,167.55z"/>
			</g>
		</g>
		<g>
			<g>
				<path style="fill:#263238;" d="M484.956,119.671c-0.019,0.052-0.617-0.172-1.732-0.402c-1.11-0.226-2.769-0.424-4.774-0.139
					c-1.991,0.28-4.342,1.09-6.398,2.792c-2.052,1.671-3.807,4.194-4.509,7.179l-0.02,0.079l-0.242,0.941l-0.362-0.893
					c-1.15-2.839-3.19-5.101-5.405-6.543c-2.22-1.468-4.61-2.085-6.61-2.235c-2.013-0.154-3.651,0.12-4.748,0.39
					c-1.101,0.273-1.69,0.511-1.71,0.46c-0.008-0.02,0.13-0.097,0.405-0.227c0.273-0.131,0.689-0.299,1.24-0.47
					c1.095-0.347,2.763-0.699,4.842-0.599c2.064,0.096,4.566,0.689,6.899,2.192c2.325,1.475,4.471,3.821,5.677,6.796l-0.604,0.049
					l0.021-0.083c0.739-3.14,2.594-5.768,4.759-7.489c2.171-1.755,4.646-2.552,6.708-2.782c2.08-0.237,3.775,0.039,4.889,0.343
					c0.56,0.15,0.984,0.304,1.262,0.427C484.822,119.577,484.964,119.65,484.956,119.671z"/>
			</g>
		</g>
		<g>
			<g>
				<path style="fill:#263238;" d="M427.909,100.075c0.039,0.04-0.597,0.684-1.677,1.902c-1.082,1.216-2.556,3.064-4.095,5.528
					c-3.093,4.866-6.188,12.62-6.081,21.518c-0.001,0.093-0.001,0.186-0.002,0.271l-0.631,0.052
					c-0.657-4.341-2.106-8.325-3.934-11.654c-1.824-3.339-3.966-6.051-5.99-8.092c-2.021-2.047-3.865-3.491-5.193-4.403
					c-1.325-0.916-2.093-1.378-2.064-1.427c0.011-0.019,0.212,0.078,0.588,0.281c0.368,0.214,0.941,0.487,1.613,0.942
					c1.379,0.855,3.285,2.259,5.372,4.292c2.09,2.026,4.302,4.749,6.185,8.126c1.887,3.367,3.381,7.418,4.051,11.843l-0.631,0.052
					c0.001-0.087,0.001-0.181,0.002-0.276c-0.108-9.052,3.112-16.909,6.336-21.765c1.605-2.462,3.147-4.283,4.292-5.455
					c0.552-0.606,1.043-1.016,1.352-1.315C427.72,100.204,427.894,100.059,427.909,100.075z"/>
			</g>
		</g>
	</g>
</g>
<g id="Trees">
	<g>
		<path style="fill:#263238;" d="M648.543,386.788c3.295-6.512,9.314-11.375,15.993-14.316c6.679-2.941,14.012-4.105,21.294-4.589
			c8.112-0.539,16.347-0.258,24.226,1.75c3.946,1.005,7.518,2.583,10.344,5.514c3.075,3.19,4.874,5.306,6.107,9.561
			c3.231,8.271,1.582,17.971-3.157,25.48c-4.739,7.509-12.265,12.966-20.431,16.453c-8.974,3.832-19.036,5.452-28.62,3.615
			s-18.607-7.321-23.85-15.551C645.207,406.476,644.138,395.496,648.543,386.788z"/>
		<polygon style="fill:#C78976;" points="698.136,420.051 696.993,418.923 690.195,428.061 690.195,428.062 690.136,425.378 
			690.208,398.882 687.684,398.882 686.988,422.91 671.995,405.68 669.687,407.729 685.975,426.911 686.725,463.645 
			690.978,463.645 690.279,431.877 		"/>
	</g>
	<g>
		<path style="fill:#455A64;" d="M213.972,402.336c2.618-5.175,7.401-9.039,12.71-11.376c5.308-2.337,11.135-3.262,16.922-3.646
			c6.447-0.428,12.991-0.205,19.252,1.391c3.135,0.799,5.974,2.053,8.22,4.382c2.444,2.535,3.873,4.216,4.853,7.598
			c2.567,6.572,1.257,14.281-2.509,20.249c-3.766,5.967-9.747,10.304-16.236,13.075c-7.132,3.045-15.127,4.333-22.743,2.873
			c-7.616-1.46-14.786-5.818-18.953-12.358C211.321,417.982,210.471,409.255,213.972,402.336z"/>
		<polygon style="fill:#C78976;" points="253.383,428.77 252.475,427.873 247.072,435.135 247.072,435.136 247.025,433.002 
			247.082,411.946 245.077,411.946 244.523,431.042 232.609,417.349 230.775,418.977 243.718,434.221 244.314,463.413 
			247.694,463.413 247.139,438.167 		"/>
	</g>
	<g>
		<path style="fill:#263238;" d="M20.759,376.09c3.743-7.399,10.582-12.924,18.171-16.265c7.589-3.342,15.92-4.664,24.194-5.213
			c9.217-0.613,18.573-0.293,27.525,1.988c4.483,1.143,8.541,2.935,11.752,6.265c3.494,3.624,5.538,6.028,6.939,10.863
			c3.671,9.397,1.797,20.418-3.587,28.95c-5.384,8.532-13.935,14.732-23.213,18.693c-10.197,4.354-21.628,6.194-32.517,4.108
			c-10.889-2.087-21.141-8.318-27.097-17.669C16.969,398.459,15.754,385.983,20.759,376.09z"/>
		<polygon style="fill:#C78976;" points="77.106,413.883 75.807,412.601 68.084,422.983 68.084,422.984 68.017,419.934 
			68.097,389.83 65.23,389.83 64.439,417.131 47.404,397.555 44.783,399.882 63.288,421.676 64.141,463.413 68.972,463.413 
			68.179,427.318 		"/>
	</g>
</g>
</svg>
