<?xml version="1.0" encoding="utf-8"?>
<!-- Generator: Adobe Illustrator 27.5.0, SVG Export Plug-In . SVG Version: 6.00 Build 0)  -->
<svg version="1.1" xmlns="http://www.w3.org/2000/svg" xmlns:xlink="http://www.w3.org/1999/xlink" x="0px" y="0px"
	 viewBox="0 0 500 500" style="enable-background:new 0 0 500 500;" xml:space="preserve">
<g id="Background_Complete">
	<g>
		<path style="fill:#EBEBEB;" d="M360.836,95.182c-97.596,27.345-195.192,54.69-292.788,82.035
			c20.471-13.028,43.195-23.155,65.802-33.219c24.557-10.932,42.394-6.488,69.486-10.573c12.484-1.882,33.349-14.924,43.726-21.292
			c18.696-11.473,37.592-23.641,58.647-22.136c4.743-8.28,14.899-14.231,25.596-14.999c10.696-0.768,21.509,3.678,27.25,11.205
			c0,0,17.665-4.632,24.638-1.161l20.521-0.499L360.836,95.182z"/>
	</g>
	<g>
		<path style="fill:#EBEBEB;" d="M73.354,123.365c31.954-20.737,58.175-17.815,88.673-31.305c8.324-3.682,16.169-8.2,23.961-12.754
			c15.998-9.351,32.81-19.2,51.758-20.267c14.547-3.964,29.452-6.826,44.512-8.548c21.988-2.515,44.234-2.598,66.257-4.838
			C272.606,58.424,145.748,98.879,73.354,123.365"/>
	</g>
	<g>
		<ellipse style="fill:#E0E0E0;" cx="89.597" cy="467.104" rx="41.936" ry="8.835"/>
	</g>
	<g>
		<ellipse style="fill:#E0E0E0;" cx="433.04" cy="361.157" rx="41.936" ry="8.835"/>
	</g>
	<g>
		<path style="fill:#E0E0E0;" d="M62.485,401.809l-12.022,9.059c125.874,41.085,265.004,40.382,390.456-1.973
			C314.72,410.001,188.354,411.004,62.485,401.809z"/>
	</g>
	<g>
		<path style="fill:#F5F5F5;" d="M407.464,144.536c0.834-1.901,1.685-3.829,3.088-5.468c1.403-1.639,3.454-2.982,5.814-3.229
			c2.361-0.247,4.976,0.841,5.745,2.762c0.339-4.329,1.057-8.771,3.596-12.53s7.275-6.712,12.348-6.447
			c4.783,0.25,8.879,3.283,11.155,6.883c2.276,3.6,3.057,2.447,3.804,6.489c1.813-1.899,5.642-1.302,7.534,0.54
			c1.892,1.842,2.372,4.417,2.774,6.844l-58.66,5.283L407.464,144.536z"/>
	</g>
	<g>
		<path style="fill:#F5F5F5;" d="M31.012,230.126c0.834-1.901,1.685-3.829,3.088-5.468c1.403-1.639,3.454-2.982,5.814-3.229
			c2.361-0.247,4.976,0.841,5.745,2.762c0.339-4.329,1.057-8.771,3.596-12.53c2.539-3.759,7.275-6.712,12.348-6.447
			c4.783,0.25,8.879,3.283,11.154,6.883c2.276,3.6,3.057,2.447,3.804,6.488c1.813-1.899,5.642-1.302,7.534,0.54
			s2.372,4.417,2.774,6.843l-58.66,5.283L31.012,230.126z"/>
	</g>
	<g>
		<path style="fill:#F5F5F5;" d="M82.34,70.943c0.834-1.543,1.685-3.107,3.088-4.437c1.403-1.33,3.454-2.42,5.814-2.62
			c2.361-0.2,4.976,0.682,5.745,2.241c0.339-3.513,1.057-7.117,3.596-10.167c2.539-3.05,7.275-5.446,12.348-5.231
			c4.783,0.203,8.879,2.664,11.155,5.585c2.276,2.922,3.057,1.986,3.804,5.265c1.813-1.541,5.642-1.057,7.534,0.438
			c1.892,1.495,2.372,3.584,2.774,5.553l-58.66,4.287L82.34,70.943z"/>
	</g>
</g>
<g id="Background_Simple" style="display:none;">
	<g style="display:inline;">
		<path style="fill:#F5F5F5;" d="M314.322,63.124l-0.485,1.531c-4.091,12.911-0.983,27.068,8.471,36.593
			c1.215,1.224,2.519,2.362,3.905,3.396c9.978,7.451,23.885,9.366,35.654,4.909c6.922-2.621,13.409-7.335,20.78-7.269
			c9.593,0.086,16.892,8.091,22.936,15.454c6.045,7.363,13.369,15.355,22.963,15.399c6.008,0.027,11.663-3.239,15.994-7.451
			c11.466-11.154,14.891-28.934,10.917-44.263c-3.974-15.329-14.466-28.293-27.014-37.9c-17.579-13.457-40.209-21.086-62.344-18.209
			C343.964,28.19,322.866,42.468,314.322,63.124z"/>
	</g>
	<g style="display:inline;">
		<circle style="fill:#F5F5F5;" cx="106.6" cy="83.709" r="39.627"/>
	</g>
</g>
<g id="Sea">
	<g>
		<g>
			<g>
				<path style="fill:#263238;" d="M215.942,464.977c0,0.144-12.291,0.26-27.449,0.26c-15.163,0-27.452-0.117-27.452-0.26
					s12.288-0.26,27.452-0.26C203.651,464.716,215.942,464.833,215.942,464.977z"/>
			</g>
		</g>
		<g>
			<g>
				<path style="fill:#263238;" d="M231.119,471.095c0,0.144-11.105,0.26-24.801,0.26c-13.7,0-24.803-0.117-24.803-0.26
					s11.103-0.26,24.803-0.26C220.014,470.834,231.119,470.951,231.119,471.095z"/>
			</g>
		</g>
		<g>
			<g>
				<path style="fill:#263238;" d="M409.968,453.047c0,0.144-8.647,0.26-19.311,0.26c-10.668,0-19.313-0.117-19.313-0.26
					s8.645-0.26,19.313-0.26C401.321,452.787,409.968,452.904,409.968,453.047z"/>
			</g>
		</g>
		<g>
			<g>
				<path style="fill:#263238;" d="M425.484,458.352c0,0.144-7.813,0.26-17.448,0.26c-9.638,0-17.449-0.117-17.449-0.26
					c0-0.144,7.811-0.26,17.449-0.26C417.671,458.092,425.484,458.208,425.484,458.352z"/>
			</g>
		</g>
		<g>
			<g>
				<path style="fill:#263238;" d="M421.32,447.944c0,0.144-7.813,0.26-17.448,0.26c-9.638,0-17.449-0.117-17.449-0.26
					s7.811-0.26,17.449-0.26C413.508,447.683,421.32,447.8,421.32,447.944z"/>
			</g>
		</g>
	</g>
	<g>
		<g>
			<path style="fill:#263238;" d="M486.469,344.312c0,0.144-105.879,0.26-236.457,0.26c-130.624,0-236.48-0.117-236.48-0.26
				s105.856-0.26,236.48-0.26C380.589,344.052,486.469,344.168,486.469,344.312z"/>
		</g>
	</g>
</g>
<g id="Plant">
	<g>
		<g>
			<g>
				<path style="fill:#263238;" d="M475.939,358.246c0,3.757-17.355,6.802-38.763,6.802c-21.408,0-38.763-3.046-38.763-6.802
					c0-0.463,0.101-3.732,0.101-3.732c3.576-3.108,19.895-3.071,38.662-3.071c18.566,0,35.012-0.877,38.691,3.148
					C475.939,354.67,475.939,357.748,475.939,358.246z"/>
			</g>
			<g>
				<path style="fill:#455A64;" d="M475.939,354.399c0,3.421-17.355,6.194-38.763,6.194c-21.408,0-38.763-2.773-38.763-6.194
					s17.355-6.194,38.763-6.194C458.585,348.204,475.939,350.978,475.939,354.399z"/>
			</g>
		</g>
		<g>
			<g>
				<path style="fill:#455A64;" d="M431.595,328.363c-1.871,0.19-4.697,14.186-5.849,20.331c-0.33,1.759,0.746,3.47,2.462,3.977
					c3.395,1.003,6.013,0.74,7.822,0.192c1.76-0.533,2.822-2.304,2.407-4.095C437.041,342.742,433.467,328.173,431.595,328.363z"/>
			</g>
		</g>
		<g>
			<g>
				<path style="fill:#455A64;" d="M440.02,336.88c-1.244,0.127-3.123,9.434-3.89,13.521c-0.219,1.17,0.496,2.308,1.637,2.645
					c2.258,0.667,3.999,0.492,5.202,0.128c1.17-0.355,1.877-1.532,1.601-2.724C443.642,346.443,441.265,336.753,440.02,336.88z"/>
			</g>
		</g>
		<g>
			<g>
				<path style="fill:#263238;" d="M424.29,339.012c-1.373,0.126-3.445,9.39-4.29,13.458c-0.242,1.164,0.547,2.297,1.806,2.633
					c2.49,0.664,4.411,0.49,5.738,0.127c1.291-0.353,2.07-1.525,1.765-2.711C428.285,348.531,425.664,338.886,424.29,339.012z"/>
			</g>
		</g>
		<g>
			<g>
				<path style="fill:#263238;" d="M437.646,348.205c-0.806,0.074-2.022,5.512-2.518,7.899c-0.142,0.683,0.321,1.348,1.06,1.545
					c1.462,0.39,2.589,0.288,3.368,0.075c0.758-0.207,1.215-0.895,1.036-1.591C439.991,353.792,438.453,348.131,437.646,348.205z"/>
			</g>
		</g>
		<g>
			<g>
				<g>
					<path style="fill:#455A64;" d="M446.349,341.58c-1.088,0.088-2.73,6.569-3.4,9.415c-0.192,0.814,0.434,1.607,1.431,1.842
						c1.973,0.465,3.495,0.343,4.546,0.089c1.023-0.247,1.64-1.067,1.399-1.897C449.514,348.239,447.437,341.492,446.349,341.58z"/>
				</g>
			</g>
			<g style="opacity:0.3;">
				<g>
					<path d="M446.349,341.58c-1.088,0.088-2.73,6.569-3.4,9.415c-0.192,0.814,0.434,1.607,1.431,1.842
						c1.973,0.465,3.495,0.343,4.546,0.089c1.023-0.247,1.64-1.067,1.399-1.897C449.514,348.239,447.437,341.492,446.349,341.58z"/>
				</g>
			</g>
		</g>
		<g>
			<g>
				<g>
					<path style="fill:#455A64;" d="M457.152,338.234c-1.433,0.116-3.597,8.657-4.48,12.407c-0.253,1.073,0.572,2.118,1.886,2.427
						c2.6,0.612,4.606,0.452,5.991,0.117c1.348-0.326,2.161-1.406,1.843-2.499C461.324,347.009,458.587,338.118,457.152,338.234z"/>
				</g>
			</g>
			<g style="opacity:0.3;">
				<g>
					<path d="M457.152,338.234c-1.433,0.116-3.597,8.657-4.48,12.407c-0.253,1.073,0.572,2.118,1.886,2.427
						c2.6,0.612,4.606,0.452,5.991,0.117c1.348-0.326,2.161-1.406,1.843-2.499C461.324,347.009,458.587,338.118,457.152,338.234z"/>
				</g>
			</g>
		</g>
	</g>
	<g>
		<g>
			<g>
				<path style="fill:#263238;" d="M133.656,461.41c0,4.378-20.225,7.928-45.175,7.928c-24.949,0-45.175-3.549-45.175-7.928
					c0-0.54,0.117-4.349,0.117-4.349c4.167-3.623,23.186-3.579,45.058-3.579c21.637,0,40.804-1.022,45.092,3.669
					C133.656,457.242,133.656,460.829,133.656,461.41z"/>
			</g>
			<g>
				<ellipse style="fill:#455A64;" cx="88.481" cy="456.926" rx="45.175" ry="7.219"/>
			</g>
		</g>
		<g>
			<g>
				<path style="fill:#455A64;" d="M81.976,426.583c-2.181,0.222-5.474,16.533-6.816,23.694c-0.384,2.05,0.87,4.044,2.869,4.635
					c3.956,1.169,7.007,0.863,9.116,0.224c2.051-0.622,3.288-2.685,2.805-4.773C88.323,443.341,84.159,426.361,81.976,426.583z"/>
			</g>
		</g>
		<g>
			<g>
				<path style="fill:#455A64;" d="M91.795,436.509c-1.45,0.147-3.64,10.995-4.533,15.758c-0.256,1.363,0.578,2.69,1.909,3.083
					c2.631,0.778,4.66,0.574,6.062,0.149c1.364-0.413,2.187-1.786,1.865-3.174C96.016,447.654,93.246,436.361,91.795,436.509z"/>
			</g>
		</g>
		<g>
			<g>
				<path style="fill:#263238;" d="M73.463,438.994c-1.6,0.147-4.015,10.944-5,15.684c-0.282,1.357,0.638,2.677,2.105,3.068
					c2.902,0.774,5.141,0.571,6.687,0.148c1.505-0.412,2.412-1.778,2.058-3.16C78.119,450.087,75.064,438.847,73.463,438.994z"/>
			</g>
		</g>
		<g>
			<g>
				<path style="fill:#263238;" d="M89.029,449.708c-0.939,0.086-2.357,6.423-2.935,9.206c-0.165,0.796,0.374,1.571,1.236,1.801
					c1.703,0.454,3.017,0.335,3.925,0.087c0.883-0.241,1.416-1.043,1.208-1.854C91.762,456.219,89.969,449.621,89.029,449.708z"/>
			</g>
		</g>
		<g>
			<g>
				<g>
					<path style="fill:#455A64;" d="M99.171,441.987c-1.268,0.103-3.182,7.656-3.962,10.973c-0.223,0.949,0.505,1.873,1.668,2.146
						c2.3,0.542,4.073,0.4,5.299,0.104c1.192-0.288,1.911-1.243,1.63-2.21C102.86,449.747,100.439,441.884,99.171,441.987z"/>
				</g>
			</g>
			<g style="opacity:0.3;">
				<g>
					<path d="M99.171,441.987c-1.268,0.103-3.182,7.656-3.962,10.973c-0.223,0.949,0.505,1.873,1.668,2.146
						c2.3,0.542,4.073,0.4,5.299,0.104c1.192-0.288,1.911-1.243,1.63-2.21C102.86,449.747,100.439,441.884,99.171,441.987z"/>
				</g>
			</g>
		</g>
		<g>
			<g>
				<g>
					<path style="fill:#455A64;" d="M111.762,438.087c-1.671,0.135-4.192,10.089-5.221,14.459c-0.294,1.251,0.666,2.468,2.198,2.828
						c3.03,0.714,5.367,0.526,6.982,0.137c1.571-0.379,2.519-1.639,2.148-2.913C116.623,448.313,113.433,437.951,111.762,438.087z"
						/>
				</g>
			</g>
			<g style="opacity:0.3;">
				<g>
					<path d="M111.762,438.087c-1.671,0.135-4.192,10.089-5.221,14.459c-0.294,1.251,0.666,2.468,2.198,2.828
						c3.03,0.714,5.367,0.526,6.982,0.137c1.571-0.379,2.519-1.639,2.148-2.913C116.623,448.313,113.433,437.951,111.762,438.087z"
						/>
				</g>
			</g>
		</g>
	</g>
</g>
<g id="City">
	<g>
		<g>
			<g>
				<path style="fill:#E0E0E0;" d="M395.602,164.655l-24.215,2.636v3.866c0,0,9.892,0.422,14.131,7.488h10.083h10.083
					c4.239-7.066,14.131-7.488,14.131-7.488v-3.866L395.602,164.655z"/>
			</g>
			<g style="opacity:0.3;">
				<path d="M395.602,164.655l-24.215,2.636v3.866c0,0,9.892,0.422,14.131,7.488h10.083h10.083
					c4.239-7.066,14.131-7.488,14.131-7.488v-3.866L395.602,164.655z"/>
			</g>
			<g>
				<polygon style="fill:#E0E0E0;" points="365.042,167.291 425.855,167.291 414.644,159.306 376.559,159.306 				"/>
			</g>
			<g>
				<path style="fill:#E0E0E0;" d="M388.368,152.827c-4.289,1.063-9.386,3.006-11.809,6.478h38.085c0,0-2.625-4.405-10.876-6.552
					C398.726,151.441,393.426,151.574,388.368,152.827z"/>
			</g>
			<g>
				<rect x="358.875" y="170.271" style="fill:#E0E0E0;" width="73.347" height="1.773"/>
			</g>
			<g>
				<rect x="379.143" y="178.645" style="fill:#E0E0E0;" width="33.529" height="1.773"/>
			</g>
			<g>
				<polygon style="fill:#E0E0E0;" points="386.687,180.423 392.051,185.787 399,185.787 404.662,180.423 				"/>
			</g>
			<g>
				<g>
					<path style="fill:#263238;" d="M395.784,120.924c0.144,0,0.26,6.887,0.26,15.38c0,8.496-0.116,15.382-0.26,15.382
						c-0.144,0-0.26-6.885-0.26-15.382C395.524,127.811,395.64,120.924,395.784,120.924z"/>
				</g>
			</g>
			<g>
				<path style="fill:#E0E0E0;" d="M386.687,364.901c0,0,3.822-131.013,4.345-139.145c0.522-8.133,1.203-42.041,1.203-42.041h4.021
					l0.409,181.192L386.687,364.901z"/>
			</g>
			<g>
				<path style="fill:#E0E0E0;" d="M405.901,364.901c0,0-5.219-131.013-5.741-139.145c-0.522-8.133-1.203-42.041-1.203-42.041
					h-4.021l1.045,181.293L405.901,364.901z"/>
			</g>
			<g>
				<g>
					<path style="fill:#263238;" d="M414.566,159.157c0,0.144-8.508,0.278-19.001,0.301c-10.497,0.022-19.004-0.076-19.004-0.22
						c0-0.144,8.506-0.278,19.003-0.301C406.056,158.915,414.565,159.013,414.566,159.157z"/>
				</g>
			</g>
			<g>
				<g>
					<path style="fill:#263238;" d="M398.068,118.64c-0.043,0.001-0.059-0.203-0.17-0.533c-0.11-0.325-0.351-0.789-0.844-1.136
						c-0.477-0.349-1.24-0.531-1.966-0.251c-0.721,0.259-1.335,1.027-1.327,1.919c-0.008,0.893,0.607,1.661,1.327,1.92
						c0.726,0.281,1.489,0.098,1.966-0.251c0.493-0.347,0.734-0.812,0.844-1.136C398.009,118.843,398.025,118.639,398.068,118.64
						c0.028-0.001,0.085,0.205,0.027,0.582c-0.057,0.369-0.269,0.929-0.817,1.38c-0.528,0.45-1.444,0.728-2.353,0.409
						c-0.901-0.289-1.696-1.246-1.684-2.371c-0.011-1.125,0.783-2.081,1.684-2.37c0.91-0.319,1.825-0.041,2.353,0.409
						c0.548,0.45,0.76,1.01,0.817,1.379C398.152,118.435,398.096,118.642,398.068,118.64z"/>
				</g>
			</g>
			<g>
				<path style="fill:#FF725E;" d="M408.193,157.562h-30.121c0.517-0.49,1.081-0.918,1.7-1.276l28.421-0.133V157.562z"/>
			</g>
			<g>
				<g>
					<path style="fill:#263238;" d="M422.154,164.655c0,0.036-0.418,0.07-1.173,0.101c-0.866,0.022-1.935,0.05-3.199,0.083
						c-2.701,0.047-6.433,0.076-10.554,0.076c-2.592-0.012-5.029-0.023-7.153-0.032l-0.091,0l-0.064-0.06
						c-1.695-1.591-3.103-2.932-4.079-3.884c-0.976-0.952-1.519-1.515-1.486-1.551c0.033-0.036,0.639,0.459,1.668,1.354
						c1.029,0.894,2.481,2.187,4.206,3.746l-0.154-0.06c2.123-0.01,4.56-0.021,7.153-0.032c4.121,0,7.853,0.029,10.554,0.076
						c1.264,0.033,2.334,0.06,3.199,0.083C421.736,164.585,422.154,164.619,422.154,164.655z"/>
				</g>
			</g>
			<g>
				<g>
					<path style="fill:#263238;" d="M412.782,180.446c0,0.144-7.555,0.261-16.873,0.261c-9.321,0-16.875-0.117-16.875-0.261
						c0-0.144,7.554-0.26,16.875-0.26C405.226,180.185,412.782,180.302,412.782,180.446z"/>
				</g>
			</g>
			<g>
				<g>
					<path style="fill:#263238;" d="M412.782,178.525c0,0.144-7.555,0.26-16.873,0.26c-9.321,0-16.875-0.117-16.875-0.26
						c0-0.144,7.554-0.26,16.875-0.26C405.226,178.265,412.782,178.381,412.782,178.525z"/>
				</g>
			</g>
			<g>
				<g>
					<path style="fill:#263238;" d="M405.901,364.901c0,0-0.03-0.312-0.062-0.921c-0.03-0.622-0.073-1.525-0.13-2.705
						c-0.103-2.392-0.255-5.896-0.45-10.408c-0.368-9.055-0.901-22.142-1.56-38.329c-1.269-32.403-3.023-77.209-4.968-126.874
						l0.164,0.232c-0.975-0.386-2.113-0.602-3.255-0.579c-1.246,0.018-2.481,0.318-3.512,0.816l0.148-0.227
						c-1.508,49.626-2.868,94.371-3.851,126.724c-0.516,16.162-0.933,29.226-1.222,38.265c-0.155,4.504-0.275,8.001-0.358,10.388
						c-0.046,1.178-0.082,2.079-0.106,2.7c-0.027,0.608-0.054,0.919-0.054,0.919s-0.008-0.312,0.001-0.921
						c0.013-0.622,0.031-1.523,0.055-2.701c0.06-2.388,0.148-5.887,0.261-10.391c0.25-9.04,0.611-22.105,1.057-38.27
						c0.943-32.353,2.248-77.1,3.695-126.728l0.005-0.158l0.143-0.069c1.099-0.53,2.407-0.847,3.728-0.867
						c1.209-0.024,2.417,0.205,3.455,0.616l0.158,0.063l0.006,0.17c1.884,49.668,3.583,94.476,4.812,126.88
						c0.589,16.19,1.066,29.279,1.395,38.336c0.153,4.513,0.272,8.019,0.353,10.412c0.034,1.181,0.061,2.084,0.079,2.707
						C405.907,364.588,405.901,364.901,405.901,364.901z"/>
				</g>
			</g>
		</g>
		<g>
			<g>
				<g>
					<polygon style="fill:#E0E0E0;" points="227.033,94.698 196.545,74.42 196.545,143.767 222.871,121.615 					"/>
				</g>
				<g>
					<g>
						<path style="fill:#263238;" d="M201.194,78.139c0.144,0,0.26,11.701,0.26,26.131c0,14.435-0.117,26.133-0.26,26.133
							c-0.144,0-0.26-11.698-0.26-26.133C200.934,89.84,201.051,78.139,201.194,78.139z"/>
					</g>
				</g>
				<g>
					<g>
						<path style="fill:#263238;" d="M207.391,82.204c0.144,0,0.26,11.701,0.26,26.131c0,14.435-0.117,26.133-0.26,26.133
							s-0.26-11.698-0.26-26.133C207.13,93.905,207.247,82.204,207.391,82.204z"/>
					</g>
				</g>
				<g>
					<g>
						<path style="fill:#263238;" d="M213.639,85.388c0.144,0,0.26,11.701,0.26,26.13c0,14.435-0.117,26.133-0.26,26.133
							c-0.144,0-0.26-11.698-0.26-26.133C213.379,97.089,213.496,85.388,213.639,85.388z"/>
					</g>
				</g>
				<g>
					<g>
						<path style="fill:#263238;" d="M219.888,89.562c0.144,0,0.26,11.479,0.26,25.635c0,14.161-0.117,25.638-0.26,25.638
							c-0.144,0-0.26-11.476-0.26-25.638C219.628,101.041,219.744,89.562,219.888,89.562z"/>
					</g>
				</g>
				<g>
					<path style="fill:#FF725E;" d="M235.88,78.914c-2.13,0-52.186,44.111-47.926,134.783v180.12h47.926V78.914z"/>
				</g>
				<g>
					<g>
						<path style="fill:#263238;" d="M196.08,337.554c-0.144,0-0.26-42.591-0.26-95.117c0-52.545,0.117-95.126,0.26-95.126
							s0.26,42.582,0.26,95.126C196.34,294.963,196.224,337.554,196.08,337.554z"/>
					</g>
				</g>
				<g style="opacity:0.3;">
					<path d="M235.88,182.096c-1.9,0.15-26.376,22.856-26.376,22.856v141.859h26.376V182.096z"/>
				</g>
				<g>
					<g>
						<path style="fill:#263238;" d="M219.888,330.815c-0.144,0-0.26-30.278-0.26-67.619c0-37.354,0.117-67.626,0.26-67.626
							s0.26,30.272,0.26,67.626C220.148,300.537,220.032,330.815,219.888,330.815z"/>
					</g>
				</g>
				<g>
					<g>
						<path style="fill:#263238;" d="M225.867,325.294c-0.144,0-0.26-30.278-0.26-67.619c0-37.354,0.117-67.626,0.26-67.626
							c0.144,0,0.26,30.272,0.26,67.626C226.127,295.016,226.011,325.294,225.867,325.294z"/>
					</g>
				</g>
				<g>
					<g>
						<path style="fill:#263238;" d="M231.846,319.774c-0.144,0-0.261-30.175-0.261-67.388c0-37.227,0.117-67.395,0.261-67.395
							c0.144,0,0.26,30.168,0.26,67.395C232.106,289.6,231.99,319.774,231.846,319.774z"/>
					</g>
				</g>
				<g>
					<rect x="214.563" y="155.805" style="fill:#455A64;" width="21.318" height="2.689"/>
				</g>
				<g>
					<rect x="214.563" y="161.699" style="fill:#455A64;" width="21.318" height="2.412"/>
				</g>
				<g>
					<rect x="214.563" y="167.663" style="fill:#455A64;" width="21.318" height="2.412"/>
				</g>
				<g>
					<rect x="209.762" y="161.699" style="fill:#455A64;" width="2.893" height="2.412"/>
				</g>
				<g>
					<rect x="205.269" y="161.699" style="fill:#455A64;" width="2.893" height="2.412"/>
				</g>
				<g>
					<g>
						<path style="fill:#263238;" d="M228.119,86.369c0.036,0,0.07,0.597,0.101,1.677c0.021,1.169,0.049,2.709,0.083,4.572
							c0.047,3.861,0.076,9.194,0.076,15.085c-0.016,4.393-0.031,8.474-0.044,11.906l-0.216-0.216
							c1.41,0.015,2.708,0.029,3.874,0.041c0.144,0.002,0.285,0.004,0.424,0.006l0.104,0.002l0.013,0h0.003
							c0.002-0.073,0.001,0.635,0,0.335l-0.007,0l-0.026,0l-0.051-0.001l-0.203-0.003l-0.2-0.003l-0.098-0.002l-0.003,0
							c-0.002,0.069,0-0.601,0.001-0.317l0.006,0l0.012,0l0.024,0l0.049,0.001c0.129,0.002,0.256,0.004,0.38,0.006
							c0.489,0.009,0.944,0.019,1.365,0.027c0.764,0.024,1.396,0.043,1.908,0.059c0.44,0.021,0.673,0.043,0.673,0.065
							s-0.234,0.044-0.673,0.065c-0.512,0.016-1.144,0.035-1.908,0.059c-0.42,0.008-0.875,0.017-1.365,0.027
							c-0.125,0.002-0.251,0.004-0.38,0.006l-0.049,0.001l-0.024,0l-0.012,0l-0.006,0c-0.001,0.284-0.003-0.386-0.001-0.317l0.003,0
							l0.098-0.002l0.2-0.003l0.203-0.003l0.051-0.001l0.026,0l0.007,0c0.001-0.3,0.002,0.408,0,0.335h-0.003l-0.013,0l-0.104,0.001
							c-0.139,0.002-0.281,0.004-0.424,0.006c-1.166,0.012-2.463,0.026-3.874,0.041l-0.215,0.002l-0.001-0.218
							c-0.013-3.432-0.028-7.513-0.044-11.906c0-5.89,0.029-11.224,0.076-15.085c0.034-1.863,0.062-3.404,0.083-4.572
							C228.049,86.966,228.083,86.369,228.119,86.369z"/>
					</g>
				</g>
				<g>
					<rect x="228.667" y="123.336" style="fill:#455A64;" width="7.213" height="2.728"/>
				</g>
			</g>
			<g>
				<g>
					<path style="fill:#263238;" d="M213.909,336.335c-0.144,0-0.26-30.278-0.26-67.619c0-37.354,0.117-67.626,0.26-67.626
						c0.144,0,0.26,30.272,0.26,67.626C214.169,306.057,214.053,336.335,213.909,336.335z"/>
				</g>
			</g>
		</g>
		<g>
			<g>
				<g>
					<path style="fill:#E0E0E0;" d="M345.58,136.882c-1.746,0-42.783,36.163-39.29,110.498v147.666h39.29V136.882z"/>
				</g>
				<g>
					<g>
						<path style="fill:#263238;" d="M312.951,348.92c-0.144,0-0.26-34.917-0.26-77.979c0-43.077,0.117-77.987,0.26-77.987
							s0.26,34.91,0.26,77.987C313.211,314.003,313.095,348.92,312.951,348.92z"/>
					</g>
				</g>
				<g>
					<path style="fill:#455A64;" d="M345.58,221.473c-1.557,0.123-21.624,18.738-21.624,18.738V356.51h21.624V221.473z"/>
				</g>
				<g>
					<rect x="328.103" y="199.919" style="fill:#455A64;" width="17.477" height="2.204"/>
				</g>
				<g>
					<rect x="328.103" y="204.75" style="fill:#455A64;" width="17.477" height="1.977"/>
				</g>
				<g>
					<rect x="328.103" y="209.64" style="fill:#455A64;" width="17.477" height="1.977"/>
				</g>
				<g>
					<rect x="324.168" y="204.75" style="fill:#455A64;" width="2.371" height="1.977"/>
				</g>
				<g>
					<rect x="320.484" y="204.75" style="fill:#455A64;" width="2.372" height="1.977"/>
				</g>
				<g>
					<g>
						<path style="fill:#263238;" d="M339.217,142.993c0.036,0,0.07,0.49,0.101,1.375c0.022,0.986,0.049,2.244,0.083,3.748
							c0.047,3.165,0.076,7.538,0.076,12.367c-0.016,3.595-0.031,6.934-0.044,9.76l-0.216-0.216
							c1.152,0.015,2.214,0.028,3.176,0.041l0.348,0.006l0.085,0.002l0.011,0h0.003c0.001-0.073,0.001,0.635,0,0.335l-0.005,0
							l-0.021,0l-0.042-0.001l-0.167-0.003l-0.164-0.003l-0.081-0.001l-0.003,0c-0.001,0.069,0-0.601,0.001-0.317l0.005,0l0.01,0
							l0.02,0l0.04,0.001l0.312,0.006c0.399,0.009,0.771,0.018,1.119,0.027c1.35,0.037,2.116,0.079,2.116,0.124
							s-0.767,0.087-2.116,0.124c-0.347,0.008-0.72,0.017-1.119,0.027l-0.312,0.006l-0.04,0.001l-0.02,0l-0.01,0l-0.005,0
							c-0.001,0.284-0.002-0.386-0.001-0.317l0.003,0l0.081-0.001l0.164-0.003l0.167-0.003l0.042-0.001l0.021,0l0.005,0
							c0.001-0.3,0.002,0.408,0,0.335h-0.003l-0.011,0l-0.085,0.001l-0.348,0.006c-0.961,0.012-2.024,0.026-3.176,0.041
							l-0.215,0.003l-0.001-0.219c-0.013-2.826-0.028-6.166-0.044-9.76c0-4.829,0.029-9.201,0.076-12.367
							c0.033-1.504,0.061-2.762,0.083-3.748C339.147,143.483,339.181,142.993,339.217,142.993z"/>
					</g>
				</g>
				<g>
					<rect x="339.667" y="173.3" style="fill:#455A64;" width="5.914" height="2.237"/>
				</g>
			</g>
		</g>
		<g>
			<g>
				<g>
					<path style="fill:#263238;" d="M272.068,147.483c0.144,0,0.26,5.796,0.26,12.945c0,7.151-0.117,12.946-0.26,12.946
						s-0.26-5.795-0.26-12.946C271.808,153.279,271.924,147.483,272.068,147.483z"/>
				</g>
			</g>
			<g>
				<g>
					<path style="fill:#263238;" d="M279.121,113.58c0.144,0,0.26,13.399,0.26,29.924c0,16.531-0.117,29.927-0.26,29.927
						c-0.144,0-0.26-13.396-0.26-29.927C278.861,126.98,278.978,113.58,279.121,113.58z"/>
				</g>
			</g>
			<g>
				<rect x="265.004" y="171.881" style="fill:#E0E0E0;" width="24.514" height="228.659"/>
			</g>
			<g>
				<polygon style="fill:#263238;" points="289.518,381.151 273.216,381.151 273.216,201.021 289.518,188.035 				"/>
			</g>
			<g>
				<g>
					<path style="fill:#455A64;" d="M288.907,213.568c0,0.144-3.528,0.26-7.879,0.26c-4.353,0-7.88-0.117-7.88-0.26
						c0-0.144,3.527-0.26,7.88-0.26C285.379,213.308,288.907,213.424,288.907,213.568z"/>
				</g>
			</g>
			<g>
				<g>
					<path style="fill:#455A64;" d="M288.907,234.83c0,0.144-3.528,0.26-7.879,0.26c-4.353,0-7.88-0.117-7.88-0.26
						c0-0.144,3.527-0.26,7.88-0.26C285.379,234.57,288.907,234.687,288.907,234.83z"/>
				</g>
			</g>
			<g>
				<g>
					<path style="fill:#455A64;" d="M288.907,256.093c0,0.144-3.528,0.26-7.879,0.26c-4.353,0-7.88-0.117-7.88-0.26
						c0-0.144,3.527-0.26,7.88-0.26C285.379,255.832,288.907,255.949,288.907,256.093z"/>
				</g>
			</g>
			<g>
				<g>
					<path style="fill:#455A64;" d="M288.907,277.355c0,0.144-3.528,0.26-7.879,0.26c-4.353,0-7.88-0.117-7.88-0.26
						c0-0.144,3.527-0.26,7.88-0.26C285.379,277.095,288.907,277.211,288.907,277.355z"/>
				</g>
			</g>
			<g>
				<g>
					<path style="fill:#455A64;" d="M288.907,298.617c0,0.144-3.528,0.26-7.879,0.26c-4.353,0-7.88-0.117-7.88-0.26
						s3.527-0.26,7.88-0.26C285.379,298.357,288.907,298.474,288.907,298.617z"/>
				</g>
			</g>
			<g>
				<g>
					<path style="fill:#455A64;" d="M288.907,319.88c0,0.144-3.528,0.26-7.879,0.26c-4.353,0-7.88-0.117-7.88-0.26
						c0-0.144,3.527-0.26,7.88-0.26C285.379,319.619,288.907,319.736,288.907,319.88z"/>
				</g>
			</g>
			<g>
				<g>
					<path style="fill:#455A64;" d="M288.907,341.142c0,0.144-3.528,0.26-7.879,0.26c-4.353,0-7.88-0.116-7.88-0.26
						c0-0.144,3.527-0.26,7.88-0.26C285.379,340.882,288.907,340.998,288.907,341.142z"/>
				</g>
			</g>
			<g>
				<g>
					<path style="fill:#455A64;" d="M288.907,362.405c0,0.144-3.528,0.26-7.879,0.26c-4.353,0-7.88-0.117-7.88-0.26
						s3.527-0.26,7.88-0.26C285.379,362.144,288.907,362.261,288.907,362.405z"/>
				</g>
			</g>
			<g>
				<g>
					<path style="fill:#263238;" d="M281.381,112.025c-0.043,0.001-0.059-0.201-0.169-0.527c-0.109-0.321-0.348-0.78-0.835-1.123
						c-0.472-0.344-1.226-0.524-1.943-0.247c-0.712,0.256-1.319,1.015-1.311,1.896c-0.008,0.882,0.599,1.641,1.311,1.897
						c0.718,0.277,1.472,0.097,1.944-0.247c0.488-0.343,0.726-0.802,0.835-1.123C281.322,112.225,281.338,112.024,281.381,112.025
						c0.028-0.001,0.084,0.203,0.028,0.576c-0.056,0.365-0.266,0.92-0.808,1.366c-0.523,0.446-1.43,0.721-2.33,0.405
						c-0.893-0.286-1.68-1.234-1.668-2.348c-0.011-1.114,0.776-2.061,1.668-2.347c0.901-0.316,1.807-0.041,2.33,0.405
						c0.542,0.446,0.752,1.001,0.809,1.366C281.465,111.822,281.409,112.026,281.381,112.025z"/>
				</g>
			</g>
		</g>
		<g>
			<g>
				<path style="fill:#263238;" d="M453.405,406.688c0,6.906-95.266,12.505-212.781,12.505s-212.781-5.599-212.781-12.505
					c0-0.852,0.552-6.859,0.552-6.859c19.628-5.714,109.208-5.645,212.229-5.645c101.915,0,192.193-1.612,212.388,5.787
					C453.405,400.114,453.405,405.771,453.405,406.688z"/>
			</g>
			<g>
				<ellipse style="fill:#455A64;" cx="240.623" cy="400.733" rx="212.781" ry="12.505"/>
			</g>
		</g>
		<g>
			<g>
				<path style="fill:#E0E0E0;" d="M70.364,255.432l-20.919,2.278v3.34c0,0,8.545,0.365,12.208,6.469h8.711h8.711
					c3.662-6.104,12.208-6.469,12.208-6.469v-3.34L70.364,255.432z"/>
			</g>
			<g style="opacity:0.3;">
				<path d="M70.364,255.432l-20.919,2.278v3.34c0,0,8.545,0.365,12.208,6.469h8.711h8.711c3.662-6.104,12.208-6.469,12.208-6.469
					v-3.34L70.364,255.432z"/>
			</g>
			<g>
				<polygon style="fill:#E0E0E0;" points="43.963,257.709 96.499,257.709 86.814,250.81 53.913,250.81 				"/>
			</g>
			<g>
				<path style="fill:#E0E0E0;" d="M64.115,245.214c-3.706,0.918-8.109,2.597-10.202,5.597h32.901c0,0-2.267-3.806-9.395-5.661
					C73.063,244.016,68.484,244.131,64.115,245.214z"/>
			</g>
			<g>
				<rect x="38.636" y="260.283" style="fill:#E0E0E0;" width="63.364" height="1.532"/>
			</g>
			<g>
				<rect x="56.145" y="267.517" style="fill:#E0E0E0;" width="28.966" height="1.532"/>
			</g>
			<g>
				<polygon style="fill:#E0E0E0;" points="62.662,269.053 67.297,273.687 73.299,273.687 78.191,269.053 				"/>
			</g>
			<g>
				<g>
					<path style="fill:#263238;" d="M70.521,217.653c0.144,0,0.26,5.949,0.26,13.287c0,7.34-0.117,13.288-0.26,13.288
						c-0.144,0-0.26-5.948-0.26-13.288C70.261,223.602,70.378,217.653,70.521,217.653z"/>
				</g>
			</g>
			<g>
				<path style="fill:#E0E0E0;" d="M62.662,401.621c0,0,3.302-86.379,3.753-93.405c0.451-7.026,1.04-36.319,1.04-36.319h3.474
					l0.353,129.729L62.662,401.621z"/>
			</g>
			<g>
				<path style="fill:#E0E0E0;" d="M79.261,401.621c0,0-4.508-86.379-4.96-93.405c-0.451-7.026-1.04-36.319-1.04-36.319h-3.474
					l0.903,129.729L79.261,401.621z"/>
			</g>
			<g>
				<g>
					<path style="fill:#263238;" d="M86.747,250.682c0,0.144-7.35,0.276-16.415,0.295c-9.068,0.019-16.417-0.082-16.418-0.226
						c0-0.144,7.348-0.276,16.417-0.295C79.396,250.437,86.746,250.538,86.747,250.682z"/>
				</g>
			</g>
			<g>
				<g>
					<path style="fill:#263238;" d="M72.494,215.68c-0.095,0.035-0.035-0.793-0.891-1.422c-0.409-0.294-1.057-0.445-1.672-0.206
						c-0.61,0.222-1.129,0.872-1.122,1.627c-0.007,0.755,0.512,1.406,1.122,1.628c0.615,0.24,1.264,0.089,1.673-0.206
						C72.459,216.472,72.4,215.644,72.494,215.68c0.029-0.001,0.083,0.177,0.036,0.506c-0.046,0.322-0.227,0.812-0.704,1.208
						c-0.46,0.396-1.261,0.642-2.059,0.364c-0.791-0.252-1.489-1.091-1.479-2.079c-0.009-0.987,0.689-1.826,1.479-2.078
						c0.798-0.278,1.599-0.032,2.059,0.364c0.477,0.396,0.658,0.886,0.704,1.208C72.577,215.503,72.524,215.681,72.494,215.68z"/>
				</g>
			</g>
			<g>
				<path style="fill:#FF725E;" d="M81.242,249.304H55.221c0.447-0.423,0.934-0.793,1.468-1.103l24.553-0.115V249.304z"/>
			</g>
			<g>
				<g>
					<path style="fill:#263238;" d="M93.302,255.432c0,0.036-0.361,0.07-1.013,0.101c-0.653,0.031-1.597,0.059-2.764,0.083
						c-2.334,0.047-5.557,0.076-9.118,0.076c-2.235-0.012-4.337-0.023-6.179-0.032l-0.091-0.001l-0.064-0.06
						c-1.462-1.377-2.676-2.538-3.515-3.365c-0.839-0.826-1.305-1.317-1.271-1.354c0.033-0.036,0.561,0.387,1.453,1.156
						c0.892,0.769,2.15,1.882,3.642,3.227l-0.155-0.06c1.842-0.009,3.944-0.02,6.179-0.032c3.561,0,6.784,0.029,9.118,0.076
						c1.167,0.023,2.111,0.052,2.764,0.083C92.941,255.361,93.302,255.396,93.302,255.432z"/>
				</g>
			</g>
			<g>
				<g>
					<path style="fill:#263238;" d="M85.206,269.073c0,0.144-6.527,0.26-14.577,0.26c-8.052,0-14.578-0.117-14.578-0.26
						c0-0.144,6.526-0.26,14.578-0.26C78.678,268.813,85.206,268.929,85.206,269.073z"/>
				</g>
			</g>
			<g>
				<g>
					<path style="fill:#263238;" d="M85.206,267.414c0,0.144-6.527,0.26-14.577,0.26c-8.052,0-14.578-0.117-14.578-0.26
						c0-0.144,6.526-0.26,14.578-0.26C78.678,267.154,85.206,267.27,85.206,267.414z"/>
				</g>
			</g>
			<g>
				<g>
					<path style="fill:#263238;" d="M73.293,273.572c-0.056,0.145-1.363-0.325-3.025-0.254c-1.664,0.046-2.935,0.606-3,0.465
						c-0.079-0.108,1.183-0.931,2.982-0.986C72.048,272.726,73.364,273.46,73.293,273.572z"/>
				</g>
			</g>
		</g>
		<g>
			<polyline style="fill:#455A64;" points="141.612,335.169 187.955,321.966 187.838,331.316 141.612,346.146 141.612,336.335 			
				"/>
		</g>
		<g>
			<g>
				<polygon style="fill:#263238;" points="106.797,397.267 184.717,397.267 187.955,328.788 138.501,343.032 85.599,365.23 
					81.865,375.312 				"/>
			</g>
			<g>
				<path style="fill:#263238;" d="M113.136,406.225c0,0-41.24-3.84-41.961-4.501c-0.72-0.66-0.858-26.412-0.858-26.412
					l23.024,14.158L113.136,406.225z"/>
			</g>
			<g>
				<path style="fill:#455A64;" d="M137.431,402.016c0,0-34.693-10.949-47.357-25.327c0,0-6.559-7.717,6.975-14.238
					c10.677-5.145,61.293-21.943,61.293-21.943l0.052-10.128c0,0-68.62,17.703-84.89,36.396c-6.2,7.123-2.971,13.934,0.712,17.801
					c14.366,15.084,38.919,21.649,38.919,21.649L137.431,402.016z"/>
			</g>
		</g>
		<g>
			<g>
				<g>
					<path style="fill:#E0E0E0;" d="M243.939,201.021l-61.673,49.339v18.07h12.64c16.546,0.448,34.202,16.349,34.202,37.635
						c0,19.908-14.834,35.597-34.202,37.635h-12.64v53.085l61.673,0.483c0.36-1.081,12.876-165.975,12.817-196.247H243.939z"/>
				</g>
				<g style="opacity:0.3;">
					<path d="M243.939,201.021l-61.673,49.339v18.07h12.64c16.546,0.448,34.202,16.349,34.202,37.635
						c0,19.908-14.834,35.597-34.202,37.635h-12.64v53.085l61.673,0.483c0.36-1.081,12.876-165.975,12.817-196.247H243.939z"/>
				</g>
				<g>
					<path style="fill:#E0E0E0;" d="M203.207,344.606c21.286,0,38.541-17.255,38.541-38.541c0-21.286-17.256-38.541-38.541-38.541
						c-2.851,0-5.626,0.319-8.301,0.906v-18.07l61.673-49.339c0,0,0.398,195.053,0,196.247l-61.673-0.483v-53.085
						C197.581,344.287,200.356,344.606,203.207,344.606z"/>
				</g>
			</g>
			<g>
				<g>
					<g>
						<g>
							<g>
								<path style="fill:#263238;" d="M232.346,210.266c0,0,0.277-0.023,0.822-0.034c0.566-0.007,1.373-0.018,2.423-0.032
									c2.158-0.014,5.312-0.034,9.396-0.06l0.125-0.001l0,0.126c0.026,16.624,0.077,49.43,0.135,87.13
									c-0.03,27.548-0.057,52.484-0.076,70.558c-0.035,9.011-0.063,16.311-0.083,21.382c-0.021,2.507-0.038,4.461-0.049,5.813
									c-0.011,0.648-0.02,1.15-0.026,1.512c-0.009,0.341-0.027,0.515-0.027,0.515s-0.018-0.174-0.027-0.515
									c-0.006-0.362-0.015-0.864-0.026-1.512c-0.011-1.352-0.028-3.306-0.049-5.813c-0.02-5.071-0.048-12.37-0.083-21.382
									c-0.02-18.074-0.046-43.01-0.076-70.558c0.059-37.701,0.11-70.506,0.135-87.13l0.125,0.125
									c-4.083-0.026-7.238-0.046-9.396-0.059c-1.05-0.014-1.857-0.025-2.423-0.032
									C232.624,210.289,232.346,210.266,232.346,210.266z"/>
							</g>
						</g>
						<g>
							<g>
								<path style="fill:#263238;" d="M256.679,259.285c0,0.144-16.659,0.26-37.205,0.26c-20.553,0-37.209-0.117-37.209-0.26
									c0-0.144,16.656-0.26,37.209-0.26C240.02,259.025,256.679,259.141,256.679,259.285z"/>
							</g>
						</g>
						<g>
							<g>
								
									<rect x="227.216" y="370.051" transform="matrix(-1 -1.224647e-16 1.224647e-16 -1 464.6929 741.1359)" style="fill:#263238;" width="10.261" height="1.035"/>
							</g>
							<g>
								
									<rect x="227.216" y="372.307" transform="matrix(-1 -1.224647e-16 1.224647e-16 -1 464.6929 745.6491)" style="fill:#263238;" width="10.261" height="1.035"/>
							</g>
							<g>
								
									<rect x="227.216" y="374.564" transform="matrix(-1 -1.224647e-16 1.224647e-16 -1 464.6929 750.1621)" style="fill:#263238;" width="10.261" height="1.035"/>
							</g>
							<g>
								
									<rect x="227.216" y="376.82" transform="matrix(-1 -1.224647e-16 1.224647e-16 -1 464.6929 754.6753)" style="fill:#263238;" width="10.261" height="1.035"/>
							</g>
						</g>
						<g>
							<g>
								
									<rect x="227.216" y="378.991" transform="matrix(-1 -1.224647e-16 1.224647e-16 -1 464.6929 759.0161)" style="fill:#263238;" width="10.261" height="1.035"/>
							</g>
							<g>
								
									<rect x="227.216" y="381.247" transform="matrix(-1 -1.224647e-16 1.224647e-16 -1 464.6929 763.5292)" style="fill:#263238;" width="10.261" height="1.035"/>
							</g>
							<g>
								
									<rect x="227.216" y="383.504" transform="matrix(-1 -1.224647e-16 1.224647e-16 -1 464.6929 768.0423)" style="fill:#263238;" width="10.261" height="1.035"/>
							</g>
							<g>
								
									<rect x="227.216" y="385.76" transform="matrix(-1 -1.224647e-16 1.224647e-16 -1 464.6929 772.5554)" style="fill:#263238;" width="10.261" height="1.035"/>
							</g>
						</g>
						<g>
							<g>
								
									<rect x="227.216" y="263.557" transform="matrix(-1 -1.224647e-16 1.224647e-16 -1 464.6929 528.1485)" style="fill:#263238;" width="10.261" height="1.035"/>
							</g>
							<g>
								
									<rect x="227.216" y="265.813" transform="matrix(-1 -1.224647e-16 1.224647e-16 -1 464.6929 532.6615)" style="fill:#263238;" width="10.261" height="1.035"/>
							</g>
							<g>
								
									<rect x="227.216" y="268.07" transform="matrix(-1 -1.224647e-16 1.224647e-16 -1 464.6929 537.1747)" style="fill:#263238;" width="10.261" height="1.035"/>
							</g>
							<g>
								
									<rect x="227.216" y="270.326" transform="matrix(-1 -1.224647e-16 1.224647e-16 -1 464.6929 541.6877)" style="fill:#263238;" width="10.261" height="1.035"/>
							</g>
						</g>
						<g>
							
								<rect x="182.273" y="250.325" transform="matrix(-1 -1.224647e-16 1.224647e-16 -1 394.5573 502.4155)" style="fill:#455A64;" width="30.011" height="1.766"/>
						</g>
					</g>
					<g>
						<g>
							<path style="fill:#263238;" d="M194.622,343.514c0,0.144-2.766,0.26-6.178,0.26c-3.413,0-6.178-0.117-6.178-0.26
								s2.766-0.26,6.178-0.26C191.856,343.253,194.622,343.37,194.622,343.514z"/>
						</g>
					</g>
				</g>
				<g>
					<rect x="250.918" y="279.314" style="fill:#455A64;" width="5.838" height="2.849"/>
				</g>
				<g>
					<rect x="250.918" y="288.381" style="fill:#455A64;" width="5.838" height="2.849"/>
				</g>
				<g>
					<rect x="250.918" y="297.449" style="fill:#455A64;" width="5.838" height="2.849"/>
				</g>
				<g>
					<rect x="250.918" y="306.517" style="fill:#455A64;" width="5.838" height="2.849"/>
				</g>
				<g>
					<rect x="250.918" y="315.585" style="fill:#455A64;" width="5.838" height="2.849"/>
				</g>
				<g>
					<rect x="250.918" y="324.652" style="fill:#455A64;" width="5.838" height="2.849"/>
				</g>
				<g>
					<rect x="250.918" y="333.72" style="fill:#455A64;" width="5.838" height="2.849"/>
				</g>
				<g>
					<rect x="250.918" y="342.788" style="fill:#455A64;" width="5.838" height="2.849"/>
				</g>
				<g>
					<rect x="250.918" y="351.855" style="fill:#455A64;" width="5.838" height="2.849"/>
				</g>
			</g>
		</g>
		<g>
			<g>
				<path style="fill:#E0E0E0;" d="M129.81,195.833l-24.215,2.636v3.866c0,0,9.892,0.422,14.131,7.488h10.083h10.083
					c4.239-7.066,14.131-7.488,14.131-7.488v-3.866L129.81,195.833z"/>
			</g>
			<g style="opacity:0.3;">
				<path d="M129.81,195.833l-24.215,2.636v3.866c0,0,9.892,0.422,14.131,7.488h10.083h10.083
					c4.239-7.066,14.131-7.488,14.131-7.488v-3.866L129.81,195.833z"/>
			</g>
			<g>
				<polygon style="fill:#E0E0E0;" points="99.25,198.469 160.063,198.469 148.853,190.483 110.768,190.483 				"/>
			</g>
			<g>
				<path style="fill:#E0E0E0;" d="M122.577,184.005c-4.289,1.063-9.387,3.006-11.809,6.478h38.085c0,0-2.624-4.405-10.876-6.552
					C132.935,182.619,127.634,182.752,122.577,184.005z"/>
			</g>
			<g>
				<rect x="93.083" y="201.448" style="fill:#E0E0E0;" width="73.347" height="1.773"/>
			</g>
			<g>
				<rect x="113.352" y="209.822" style="fill:#E0E0E0;" width="33.529" height="1.773"/>
			</g>
			<g>
				<polygon style="fill:#E0E0E0;" points="120.896,211.6 126.26,216.964 133.208,216.964 138.87,211.6 				"/>
			</g>
			<g>
				<g>
					<path style="fill:#263238;" d="M129.993,152.101c0.144,0,0.26,6.887,0.26,15.38c0,8.496-0.117,15.382-0.26,15.382
						s-0.26-6.885-0.26-15.382C129.732,158.988,129.849,152.101,129.993,152.101z"/>
				</g>
			</g>
			<g>
				<path style="fill:#E0E0E0;" d="M120.896,396.079c0,0,3.822-131.013,4.345-139.145c0.522-8.133,1.203-42.041,1.203-42.041h4.021
					l0.409,181.192L120.896,396.079z"/>
			</g>
			<g>
				<path style="fill:#E0E0E0;" d="M140.11,396.079c0,0-5.219-131.013-5.741-139.145c-0.522-8.133-1.203-42.041-1.203-42.041h-4.021
					l1.045,181.293L140.11,396.079z"/>
			</g>
			<g>
				<g>
					<path style="fill:#263238;" d="M148.774,190.335c0,0.144-8.508,0.278-19.001,0.301c-10.497,0.022-19.004-0.076-19.004-0.22
						c0-0.144,8.506-0.278,19.003-0.301C140.265,190.092,148.774,190.191,148.774,190.335z"/>
				</g>
			</g>
			<g>
				<g>
					<path style="fill:#263238;" d="M132.277,149.818c-0.043,0.001-0.058-0.203-0.17-0.533c-0.11-0.324-0.351-0.789-0.844-1.136
						c-0.477-0.349-1.24-0.531-1.966-0.251c-0.721,0.259-1.335,1.027-1.327,1.919c-0.008,0.893,0.606,1.661,1.327,1.92
						c0.726,0.281,1.49,0.098,1.966-0.251c0.493-0.347,0.734-0.812,0.844-1.136C132.218,150.02,132.234,149.817,132.277,149.818
						c0.028-0.001,0.085,0.205,0.027,0.582c-0.057,0.369-0.269,0.929-0.817,1.379c-0.528,0.45-1.444,0.728-2.353,0.409
						c-0.901-0.289-1.696-1.246-1.684-2.371c-0.011-1.125,0.783-2.081,1.684-2.37c0.91-0.319,1.825-0.041,2.353,0.409
						c0.548,0.45,0.76,1.01,0.817,1.38C132.361,149.613,132.305,149.819,132.277,149.818z"/>
				</g>
			</g>
			<g>
				<path style="fill:#FF725E;" d="M142.402,188.74h-30.121c0.517-0.49,1.081-0.918,1.7-1.276l28.421-0.133V188.74z"/>
			</g>
			<g>
				<g>
					<path style="fill:#263238;" d="M156.362,195.833c0,0.036-0.418,0.07-1.173,0.101c-0.865,0.022-1.935,0.05-3.199,0.083
						c-2.701,0.047-6.433,0.076-10.554,0.076c-2.592-0.012-5.029-0.023-7.153-0.032l-0.091,0l-0.064-0.06
						c-1.695-1.591-3.103-2.932-4.079-3.884c-0.976-0.952-1.519-1.515-1.486-1.551c0.033-0.036,0.639,0.459,1.668,1.353
						c1.029,0.894,2.481,2.187,4.206,3.746l-0.155-0.06c2.123-0.01,4.56-0.02,7.153-0.032c4.121,0,7.853,0.029,10.554,0.076
						c1.264,0.033,2.334,0.06,3.199,0.083C155.945,195.762,156.362,195.796,156.362,195.833z"/>
				</g>
			</g>
			<g>
				<g>
					<path style="fill:#263238;" d="M146.99,211.623c0,0.144-7.555,0.26-16.873,0.26c-9.321,0-16.875-0.117-16.875-0.26
						s7.554-0.26,16.875-0.26C139.435,211.363,146.99,211.48,146.99,211.623z"/>
				</g>
			</g>
			<g>
				<g>
					<path style="fill:#263238;" d="M146.99,209.703c0,0.144-7.555,0.26-16.873,0.26c-9.321,0-16.875-0.117-16.875-0.26
						c0-0.144,7.554-0.26,16.875-0.26C139.435,209.442,146.99,209.559,146.99,209.703z"/>
				</g>
			</g>
			<g>
				<g>
					<path style="fill:#263238;" d="M140.11,396.079c0,0-0.03-0.311-0.062-0.921c-0.03-0.622-0.073-1.525-0.13-2.705
						c-0.103-2.392-0.255-5.896-0.45-10.408c-0.368-9.055-0.901-22.142-1.56-38.329c-1.269-32.403-3.023-77.209-4.968-126.874
						l0.164,0.232c-0.975-0.386-2.114-0.602-3.255-0.579c-1.246,0.018-2.481,0.318-3.512,0.816l0.148-0.227
						c-1.508,49.626-2.868,94.371-3.851,126.724c-0.516,16.162-0.933,29.226-1.222,38.265c-0.155,4.504-0.276,8.001-0.358,10.389
						c-0.046,1.178-0.082,2.078-0.106,2.7c-0.027,0.608-0.054,0.919-0.054,0.919s-0.008-0.312,0.001-0.921
						c0.013-0.621,0.031-1.523,0.055-2.701c0.06-2.388,0.148-5.886,0.261-10.391c0.25-9.04,0.611-22.105,1.057-38.27
						c0.943-32.353,2.248-77.1,3.696-126.728l0.005-0.158l0.143-0.069c1.099-0.53,2.407-0.847,3.728-0.867
						c1.209-0.024,2.417,0.205,3.455,0.616l0.158,0.063l0.007,0.17c1.884,49.668,3.583,94.475,4.812,126.88
						c0.589,16.19,1.066,29.279,1.395,38.336c0.153,4.514,0.272,8.019,0.353,10.412c0.034,1.181,0.061,2.084,0.079,2.707
						C140.115,395.766,140.11,396.079,140.11,396.079z"/>
				</g>
			</g>
		</g>
		<g>
			<g>
				<path style="fill:#E0E0E0;" d="M404.732,276.731l-62.365,45.285v74.777h62.365c0.212-0.637,9.274-98.089,9.233-120.062H404.732z
					 M372.419,364.91c-1.547,0-3.054-0.163-4.517-0.451l0.002-0.129c-10.713-2.079-16.305-11.433-16.305-22.754
					c0-11.14,5.336-20.518,15.793-22.794v0.009c1.619-0.356,3.3-0.549,5.026-0.549c12.887,0,23.334,10.447,23.334,23.334
					C395.753,354.463,385.306,364.91,372.419,364.91z"/>
			</g>
			<g style="opacity:0.3;">
				<path d="M404.732,276.731l-62.365,45.285v74.777h62.365c0.212-0.637,9.274-98.089,9.233-120.062H404.732z M372.419,364.91
					c-1.547,0-3.054-0.163-4.517-0.451l0.002-0.129c-10.713-2.079-16.305-11.433-16.305-22.754c0-11.14,5.336-20.518,15.793-22.794
					v0.009c1.619-0.356,3.3-0.549,5.026-0.549c12.887,0,23.334,10.447,23.334,23.334C395.753,354.463,385.306,364.91,372.419,364.91
					z"/>
			</g>
			<g>
				<path style="fill:#E0E0E0;" d="M413.965,276.731L351.6,322.016v74.777h62.365C414.206,396.07,413.965,276.731,413.965,276.731z
					 M381.652,364.91c-1.547,0-3.054-0.163-4.517-0.451l0.002-0.129c-10.713-2.079-18.803-11.507-18.803-22.828
					c0-11.14,7.834-20.444,18.292-22.72v0.009c1.619-0.356,3.3-0.549,5.026-0.549c12.887,0,23.334,10.447,23.334,23.334
					C404.986,354.463,394.539,364.91,381.652,364.91z"/>
			</g>
			<g>
				<g>
					<g>
						<g>
							<g>
								<path style="fill:#263238;" d="M395.753,283.578c0-0.007,0.064-0.014,0.191-0.021c0.15-0.005,0.335-0.012,0.563-0.02
									c0.53-0.009,1.258-0.022,2.189-0.039c1.949-0.017,4.739-0.04,8.251-0.07l0.148-0.001l0,0.15
									c0.025,11.238,0.065,29.876,0.112,50.98c-0.03,17.158-0.057,32.688-0.076,43.97c-0.035,5.6-0.063,10.143-0.083,13.324
									c-0.021,1.546-0.037,2.76-0.049,3.623c-0.011,0.391-0.019,0.702-0.026,0.942c-0.009,0.212-0.018,0.321-0.027,0.321
									s-0.018-0.109-0.027-0.321c-0.007-0.24-0.015-0.551-0.026-0.942c-0.012-0.863-0.028-2.077-0.049-3.623
									c-0.02-3.181-0.048-7.724-0.083-13.324c-0.02-11.281-0.047-26.811-0.076-43.97c0.046-21.104,0.087-39.742,0.112-50.98
									l0.149,0.149c-3.513-0.029-6.302-0.053-8.251-0.069c-0.931-0.016-1.659-0.029-2.189-0.039
									c-0.228-0.008-0.413-0.015-0.563-0.02C395.817,283.592,395.753,283.585,395.753,283.578z"/>
							</g>
						</g>
						<g>
							<g>
								<path style="fill:#263238;" d="M355.094,313.255c0-0.144,13.193-0.26,29.464-0.26c16.277,0,29.467,0.117,29.467,0.26
									s-13.191,0.26-29.467,0.26C368.287,313.516,355.094,313.399,355.094,313.255z"/>
							</g>
						</g>
						<g>
							<g>
								
									<rect x="396.187" y="380.315" transform="matrix(-1 -1.224647e-16 1.224647e-16 -1 798.5872 761.257)" style="fill:#263238;" width="6.212" height="0.627"/>
							</g>
							<g>
								
									<rect x="396.187" y="381.681" transform="matrix(-1 -1.224647e-16 1.224647e-16 -1 798.5872 763.9894)" style="fill:#263238;" width="6.212" height="0.627"/>
							</g>
							<g>
								
									<rect x="396.187" y="383.048" transform="matrix(-1 -1.224647e-16 1.224647e-16 -1 798.5872 766.7217)" style="fill:#263238;" width="6.212" height="0.627"/>
							</g>
							<g>
								
									<rect x="396.187" y="384.414" transform="matrix(-1 -1.224647e-16 1.224647e-16 -1 798.5872 769.454)" style="fill:#263238;" width="6.212" height="0.627"/>
							</g>
						</g>
						<g>
							<g>
								
									<rect x="396.187" y="385.728" transform="matrix(-1 -1.224647e-16 1.224647e-16 -1 798.5872 772.0821)" style="fill:#263238;" width="6.212" height="0.627"/>
							</g>
							<g>
								
									<rect x="396.187" y="387.094" transform="matrix(-1 -1.224647e-16 1.224647e-16 -1 798.5872 774.8144)" style="fill:#263238;" width="6.212" height="0.627"/>
							</g>
							<g>
								
									<rect x="396.187" y="388.46" transform="matrix(-1 -1.224647e-16 1.224647e-16 -1 798.5872 777.5467)" style="fill:#263238;" width="6.212" height="0.627"/>
							</g>
							<g>
								
									<rect x="396.187" y="389.826" transform="matrix(-1 -1.224647e-16 1.224647e-16 -1 798.5872 780.2791)" style="fill:#263238;" width="6.212" height="0.627"/>
							</g>
						</g>
						<g>
							<g>
								
									<rect x="396.187" y="315.841" transform="matrix(-1 -1.224647e-16 1.224647e-16 -1 798.5872 632.3096)" style="fill:#263238;" width="6.212" height="0.627"/>
							</g>
							<g>
								
									<rect x="396.187" y="317.208" transform="matrix(-1 -1.224647e-16 1.224647e-16 -1 798.5872 635.0419)" style="fill:#263238;" width="6.212" height="0.627"/>
							</g>
							<g>
								
									<rect x="396.187" y="318.574" transform="matrix(-1 -1.224647e-16 1.224647e-16 -1 798.5872 637.7743)" style="fill:#263238;" width="6.212" height="0.627"/>
							</g>
							<g>
								
									<rect x="396.187" y="319.94" transform="matrix(-1 -1.224647e-16 1.224647e-16 -1 798.5872 640.5066)" style="fill:#263238;" width="6.212" height="0.627"/>
							</g>
						</g>
					</g>
				</g>
				<g>
					<rect x="342.367" y="323.656" style="fill:#455A64;" width="12.624" height="1.725"/>
				</g>
				<g>
					<rect x="342.367" y="329.146" style="fill:#455A64;" width="12.624" height="1.725"/>
				</g>
				<g>
					<rect x="342.367" y="334.636" style="fill:#455A64;" width="12.624" height="1.725"/>
				</g>
				<g>
					<rect x="342.367" y="340.125" style="fill:#455A64;" width="12.624" height="1.725"/>
				</g>
				<g>
					<rect x="342.367" y="345.615" style="fill:#455A64;" width="12.624" height="1.725"/>
				</g>
				<g>
					<rect x="342.367" y="351.105" style="fill:#455A64;" width="12.624" height="1.725"/>
				</g>
				<g>
					<rect x="342.367" y="356.595" style="fill:#455A64;" width="12.624" height="1.725"/>
				</g>
				<g>
					<rect x="342.367" y="362.085" style="fill:#455A64;" width="12.624" height="1.725"/>
				</g>
				<g>
					<rect x="342.367" y="367.574" style="fill:#455A64;" width="12.624" height="1.725"/>
				</g>
			</g>
		</g>
		<g>
			<g>
				<polygon style="fill:#FF725E;" points="163.188,301.805 167.237,247.58 160.226,247.58 136.06,260.611 136.06,279.25 				"/>
			</g>
			<g style="opacity:0.3;">
				<polygon points="163.188,301.805 167.237,247.58 160.226,247.58 136.06,260.611 136.06,279.25 				"/>
			</g>
			<g>
				<polygon style="fill:#FF725E;" points="167.237,301.805 167.237,247.58 141.578,260.767 141.723,281.212 				"/>
			</g>
			<g>
				<g>
					<rect x="131.268" y="277.914" style="fill:#FF725E;" width="6.663" height="118.674"/>
				</g>
				<g>
					<polygon style="fill:#FF725E;" points="137.932,277.914 137.932,396.474 170.588,397.195 170.588,304.537 					"/>
				</g>
				<g style="opacity:0.3;">
					<path d="M170.559,310.186c0,0-24.522,8.547-23.489,39.074c1.033,30.526,23.64,34.189,23.64,34.189L170.559,310.186z"/>
				</g>
				<g>
					<g>
						<path style="fill:#263238;" d="M166.354,382.384c-0.144,0-0.26-15.483-0.26-34.577c0-19.101,0.117-34.581,0.26-34.581
							s0.26,15.479,0.26,34.581C166.615,366.901,166.498,382.384,166.354,382.384z"/>
					</g>
				</g>
				<g>
					<g>
						<path style="fill:#263238;" d="M161.002,377.465c-0.144,0-0.26-13.773-0.26-30.758c0-16.991,0.117-30.761,0.26-30.761
							c0.144,0,0.26,13.77,0.26,30.761C161.263,363.692,161.146,377.465,161.002,377.465z"/>
					</g>
				</g>
				<g>
					<g>
						<path style="fill:#263238;" d="M155.65,373.269c-0.144,0-0.26-11.32-0.26-25.281c0-13.966,0.117-25.283,0.26-25.283
							s0.26,11.318,0.26,25.283C155.91,361.948,155.794,373.269,155.65,373.269z"/>
					</g>
				</g>
				<g>
					<g>
						<path style="fill:#263238;" d="M150.298,364.247c-0.144,0-0.26-7.609-0.26-16.994c0-9.388,0.117-16.995,0.26-16.995
							s0.26,7.608,0.26,16.995C150.558,356.637,150.442,364.247,150.298,364.247z"/>
					</g>
				</g>
				<g>
					<rect x="131.268" y="305.113" style="fill:#FFFFFF;" width="24.382" height="2.852"/>
				</g>
				<g>
					<rect x="131.268" y="310.03" style="fill:#FFFFFF;" width="12.191" height="2.852"/>
				</g>
				<g style="opacity:0.3;">
					<rect x="131.268" y="277.914" width="6.663" height="118.674"/>
				</g>
			</g>
			<g>
				<g>
					<path style="fill:#263238;" d="M131.268,277.914c0-0.017,0.157-0.034,0.458-0.051c0.359-0.013,0.794-0.028,1.318-0.047
						c1.227-0.02,2.874-0.048,4.887-0.081l0.061-0.001l0.052,0.041c3.446,2.744,8.364,6.713,13.797,11.142
						c5.223,4.258,9.932,8.135,13.325,10.962c1.642,1.383,2.994,2.521,4,3.368c0.427,0.374,0.781,0.682,1.071,0.936
						c0.241,0.219,0.362,0.34,0.351,0.354c-0.011,0.014-0.155-0.08-0.417-0.273c-0.307-0.233-0.681-0.517-1.133-0.86
						c-1.033-0.815-2.419-1.91-4.105-3.24c-3.452-2.753-8.198-6.585-13.421-10.843c-5.433-4.429-10.311-8.447-13.693-11.27
						l0.112,0.04c-2.014-0.033-3.66-0.06-4.887-0.081c-0.525-0.019-0.959-0.034-1.318-0.047
						C131.426,277.948,131.268,277.931,131.268,277.914z"/>
				</g>
			</g>
			<g>
				<g>
					<path style="fill:#263238;" d="M141.612,260.706c0,0.144-1.252,0.26-2.797,0.26c-1.545,0-2.797-0.117-2.797-0.26
						c0-0.144,1.252-0.26,2.797-0.26C140.359,260.445,141.612,260.562,141.612,260.706z"/>
				</g>
			</g>
			<g>
				<polygon style="fill:#FFFFFF;" points="167.237,288.461 162.119,288.461 162.119,263.394 167.237,260.283 				"/>
			</g>
			<g>
				<rect x="144.82" y="310.03" style="fill:#FFFFFF;" width="2.852" height="2.852"/>
			</g>
		</g>
		<g>
			<g>
				<g>
					<g>
						<path style="fill:#263238;" d="M305.765,236.767c0.004,0.018-0.165,0.07-0.491,0.154c-0.384,0.092-0.856,0.206-1.427,0.344
							c-1.319,0.298-3.099,0.7-5.263,1.189c-4.513,1.024-10.614,2.408-17.356,3.938c-6.738,1.562-12.834,2.975-17.342,4.02
							c-2.164,0.491-3.943,0.894-5.262,1.193c-0.575,0.12-1.049,0.22-1.436,0.301c-0.33,0.063-0.505,0.088-0.509,0.07
							c-0.004-0.017,0.163-0.076,0.484-0.172c0.381-0.107,0.847-0.237,1.413-0.396c1.31-0.339,3.076-0.797,5.224-1.354
							c4.418-1.115,10.534-2.609,17.311-4.17c6.775-1.562,12.929-2.888,17.396-3.79c2.233-0.453,4.044-0.802,5.298-1.028
							c0.579-0.099,1.057-0.181,1.447-0.248C305.586,236.768,305.762,236.75,305.765,236.767z"/>
					</g>
				</g>
				<g>
					<g>
						<path style="fill:#263238;" d="M182.292,268.513c0.022,0.069-0.774,0.394-2.078,0.865c-1.303,0.471-3.115,1.086-5.125,1.735
							c-2.011,0.65-3.841,1.21-5.173,1.591c-1.333,0.381-2.168,0.582-2.191,0.514c-0.023-0.068,0.772-0.393,2.076-0.864
							c1.303-0.47,3.116-1.086,5.128-1.736c2.011-0.65,3.842-1.21,5.174-1.591S182.27,268.444,182.292,268.513z"/>
					</g>
				</g>
				<g>
					<g>
						<path style="fill:#263238;" d="M123.296,289.562c0,0-0.428,0.198-1.272,0.561c-0.853,0.368-2.106,0.908-3.747,1.616
							c-3.285,1.438-8.132,3.565-14.238,6.584c-3.051,1.512-6.412,3.258-9.999,5.329c-3.565,2.095-7.423,4.46-11.078,7.614
							c-1.762,1.602-3.638,3.396-4.551,5.782c-0.201,0.596-0.333,1.223-0.301,1.855c0.056,0.623,0.21,1.256,0.567,1.796
							c0.67,1.108,1.828,1.875,3.024,2.48c2.446,1.189,5.232,1.781,8.076,2.235c2.858,0.425,5.819,0.668,8.857,0.803
							c12.165,0.474,25.507-0.494,39.738-2.013c14.236-1.553,29.382-3.792,45.247-6.553c31.728-5.542,66.336-13.191,102.265-22.711
							c35.921-9.574,69.803-20.078,99.839-31.72c7.501-2.925,14.756-5.932,21.698-9.092c6.935-3.167,13.579-6.461,19.7-10.16
							c3.048-1.862,5.977-3.822,8.587-6.062c1.297-1.124,2.516-2.326,3.493-3.682c0.957-1.33,1.747-2.93,1.454-4.513
							c-0.014-0.199-0.086-0.383-0.16-0.565c-0.076-0.181-0.125-0.374-0.22-0.546c-0.237-0.316-0.395-0.689-0.705-0.949
							c-0.273-0.289-0.553-0.57-0.892-0.789l-0.482-0.355l-0.524-0.293c-1.402-0.771-2.924-1.308-4.46-1.689
							c-3.068-0.803-6.173-1.166-9.198-1.426c-6.064-0.47-11.87-0.421-17.349-0.254c-5.481,0.182-10.644,0.534-15.465,0.928
							c-9.642,0.808-17.919,1.809-24.673,2.684c-6.755,0.883-11.986,1.666-15.534,2.191c-1.767,0.268-3.116,0.473-4.034,0.612
							c-0.909,0.135-1.377,0.191-1.377,0.191s0.462-0.091,1.369-0.244c0.916-0.151,2.263-0.373,4.026-0.663
							c3.543-0.559,8.771-1.374,15.524-2.288c6.753-0.907,15.029-1.937,24.676-2.774c4.824-0.408,9.989-0.774,15.478-0.969
							c5.487-0.18,11.302-0.242,17.39,0.218c3.039,0.255,6.158,0.613,9.265,1.42c1.555,0.383,3.104,0.923,4.556,1.719l0.543,0.303
							l0.507,0.371c0.353,0.228,0.655,0.525,0.948,0.836c0.327,0.277,0.512,0.684,0.765,1.03c0.104,0.188,0.163,0.402,0.246,0.602
							c0.081,0.203,0.16,0.406,0.177,0.627c0.153,0.858,0.043,1.762-0.275,2.564c-0.312,0.804-0.725,1.571-1.242,2.258
							c-1.006,1.399-2.243,2.619-3.553,3.759c-2.636,2.268-5.577,4.241-8.636,6.115c-6.14,3.721-12.792,7.029-19.734,10.208
							c-6.948,3.171-14.208,6.188-21.713,9.122c-30.051,11.676-63.943,22.198-99.879,31.776
							c-35.943,9.524-70.568,17.161-102.316,22.68c-15.875,2.75-31.032,4.974-45.283,6.51c-14.246,1.501-27.602,2.45-39.801,1.951
							c-3.047-0.142-6.019-0.391-8.894-0.825c-2.862-0.464-5.668-1.062-8.171-2.284c-1.224-0.625-2.429-1.416-3.151-2.61
							c-0.381-0.581-0.552-1.272-0.608-1.946c-0.033-0.684,0.11-1.351,0.323-1.976c0.965-2.49,2.871-4.28,4.652-5.896
							c3.692-3.167,7.566-5.523,11.146-7.61c3.602-2.062,6.973-3.797,10.034-5.296c6.125-2.993,10.986-5.091,14.286-6.499
							c1.65-0.687,2.911-1.212,3.768-1.569C122.855,289.728,123.296,289.562,123.296,289.562z"/>
					</g>
				</g>
			</g>
			<g>
				<path style="fill:#455A64;" d="M315.456,286.636l-27.361,7.845c-1.184,0.339-2.419-0.345-2.759-1.529l0,0
					c-0.339-1.184,0.345-2.419,1.529-2.759l27.361-7.845c1.184-0.34,2.419,0.345,2.759,1.529h0
					C317.324,285.061,316.64,286.296,315.456,286.636z"/>
			</g>
			<g>
				<g>
					<g>
						<path style="fill:#E0E0E0;" d="M420.985,225.143c-14.395-0.819-29.373,1.325-43.667,2.924l0,0
							c-2.392,0.267-4.201-2.183-4.296-4.296c-0.112-2.498,2.07-4.047,4.296-4.296c2.189-0.245,4.379-0.478,6.572-0.695
							c7.915-0.781,15.856-1.38,23.808-1.58c5.868-0.148,11.775-0.115,17.616,0.53c6.778,0.749,18.427,2.397,18.788,11.316
							c0.129,3.179-1.685,6.012-3.676,8.319c-2.435,2.821-5.576,5.082-8.648,7.15c-9.427,6.346-19.962,11.112-30.372,15.581
							c-15.461,6.637-31.272,12.425-47.216,17.786c-2.281,0.767-4.6-0.886-5.284-3c-0.742-2.293,0.875-4.569,3-5.284
							c2.141-0.72,4.28-1.447,6.416-2.184c7.828-2.7,15.617-5.517,23.343-8.498c3.49-1.346,6.967-2.727,10.426-4.149
							c0.888-0.365,1.775-0.733,2.661-1.104c0.205-0.086,0.415-0.166,0.616-0.259c-0.126,0.058-0.837,0.355-0.108,0.046
							c0.353-0.15,0.707-0.3,1.06-0.451c1.57-0.67,3.136-1.35,4.697-2.042c0,0,19.369-9.195,25.044-12.979
							c5.075-3.383,9.434-6.275,8.358-9.055C433.244,225.893,420.985,225.143,420.985,225.143z"/>
					</g>
					<g>
						<g>
							<path style="fill:#263238;" d="M420.985,225.143c0,0,0.377,0.003,1.11,0.057c0.732,0.057,1.822,0.151,3.242,0.338
								c1.417,0.196,3.177,0.447,5.2,1.007c1.002,0.295,2.102,0.632,3.114,1.336c0.248,0.181,0.486,0.394,0.674,0.663
								c0.193,0.273,0.267,0.601,0.337,0.924c0.105,0.672-0.127,1.36-0.471,1.952c-0.705,1.2-1.818,2.162-2.987,3.105
								c-1.187,0.933-2.489,1.83-3.855,2.753c-2.709,1.894-5.881,3.586-9.272,5.385c-3.403,1.787-7.072,3.63-10.976,5.551
								c-1.958,0.95-3.972,1.926-6.038,2.928c-1.053,0.459-2.119,0.925-3.198,1.396c-0.54,0.235-1.083,0.472-1.63,0.71l-0.824,0.352
								l-0.207,0.088l-0.103,0.044l-0.051,0.022l-0.023,0.01c0.027,0.081-0.296-0.683-0.149-0.364l0.407-0.174l0.165,0.359
								c-3.549,1.513-7.272,2.95-11.119,4.498c-0.963,0.381-1.935,0.765-2.914,1.152c-0.99,0.361-1.987,0.726-2.993,1.093
								c-2.012,0.734-4.055,1.481-6.13,2.238c-4.15,1.514-8.422,3.074-12.807,4.674c-2.192,0.8-4.441,1.529-6.701,2.312
								c-0.573,0.202-1.137,0.355-1.622,0.649c-0.494,0.287-0.938,0.666-1.298,1.113c-0.727,0.885-1.085,2.089-0.804,3.208
								c0.271,1.116,1.03,2.129,2.026,2.739c1.008,0.62,2.241,0.745,3.37,0.271c2.363-0.808,4.75-1.625,7.16-2.449
								c4.812-1.668,9.699-3.412,14.64-5.248c9.885-3.662,19.984-7.705,30.147-12.195c5.634-2.489,11.146-5.079,16.393-7.975
								c2.623-1.447,5.181-2.968,7.649-4.58c2.466-1.615,4.886-3.272,7.061-5.169c2.154-1.898,4.111-4.065,5.362-6.574
								c0.615-1.253,0.987-2.62,0.982-3.989c0.019-0.342-0.059-0.682-0.091-1.023c-0.058-0.337-0.048-0.688-0.159-1.012
								l-0.298-0.977c-0.08-0.333-0.29-0.612-0.428-0.921c-0.265-0.63-0.741-1.131-1.137-1.675
								c-0.489-0.469-0.941-0.977-1.509-1.355c-1.066-0.839-2.296-1.442-3.539-1.964c-2.514-1.005-5.156-1.591-7.784-1.987
								c-5.268-0.8-10.47-1.069-15.522-1.079c-5.054-0.008-9.962,0.172-14.7,0.445c-4.738,0.279-9.308,0.653-13.696,1.073
								c-2.192,0.226-4.34,0.447-6.442,0.663c-0.52,0.061-1.061,0.096-1.554,0.177c-0.498,0.088-0.982,0.24-1.432,0.454
								c-0.899,0.424-1.672,1.116-2.064,1.996c-0.774,1.797,0.093,3.951,1.526,5.063c0.739,0.557,1.649,0.8,2.557,0.635
								c0.929-0.104,1.846-0.207,2.75-0.308c3.616-0.407,7.025-0.792,10.215-1.151c6.381-0.693,11.895-1.145,16.411-1.35
								c4.515-0.212,8.028-0.188,10.406-0.105C419.74,225.031,420.985,225.143,420.985,225.143s-0.313,0.004-0.922-0.014
								c-0.609-0.011-1.514-0.067-2.703-0.072c-2.376-0.049-5.885-0.041-10.393,0.202c-4.509,0.236-10.014,0.716-16.389,1.436
								c-3.187,0.372-6.595,0.769-10.208,1.191c-0.904,0.104-1.821,0.21-2.75,0.318c-0.944,0.181-2.015-0.086-2.806-0.694
								c-0.795-0.611-1.388-1.473-1.719-2.437c-0.326-0.96-0.366-2.075,0.067-3.055c0.433-0.979,1.278-1.732,2.238-2.188
								c0.482-0.23,0.998-0.394,1.529-0.489c0.539-0.089,1.048-0.121,1.578-0.185c2.103-0.222,4.252-0.449,6.445-0.68
								c4.39-0.43,8.964-0.815,13.709-1.104c4.745-0.283,9.659-0.472,14.726-0.472c5.065,0.003,10.295,0.264,15.594,1.063
								c2.648,0.397,5.324,0.984,7.896,2.008c1.273,0.532,2.539,1.151,3.652,2.024c0.589,0.393,1.068,0.925,1.581,1.419
								c0.422,0.573,0.921,1.105,1.207,1.772c0.148,0.327,0.366,0.626,0.454,0.978l0.318,1.036c0.117,0.344,0.11,0.712,0.17,1.068
								c0.034,0.36,0.114,0.715,0.096,1.082c0.006,1.46-0.39,2.906-1.029,4.209c-1.302,2.611-3.292,4.805-5.48,6.739
								c-2.208,1.927-4.641,3.593-7.116,5.216c-2.48,1.622-5.048,3.15-7.681,4.603c-5.266,2.909-10.792,5.506-16.433,7.998
								c-10.173,4.495-20.285,8.54-30.18,12.199c-4.946,1.835-9.837,3.577-14.654,5.242c-2.412,0.822-4.801,1.637-7.166,2.444
								c-0.576,0.215-1.276,0.373-1.929,0.299c-0.661-0.058-1.296-0.283-1.853-0.62c-1.108-0.685-1.937-1.786-2.245-3.048
								c-0.319-1.28,0.098-2.648,0.902-3.622c0.399-0.494,0.888-0.91,1.434-1.226c0.551-0.329,1.158-0.491,1.71-0.686
								c2.26-0.779,4.508-1.505,6.7-2.302c4.384-1.592,8.656-3.144,12.806-4.65c2.075-0.753,4.118-1.495,6.13-2.225
								c1.006-0.365,2.004-0.727,2.993-1.086c0.98-0.385,1.951-0.767,2.914-1.145c3.841-1.536,7.582-2.972,11.108-4.464l0.165,0.359
								l-0.423,0.18c0.13,0.327-0.221-0.427-0.162-0.359l0.029-0.012l0.052-0.022l0.104-0.044l0.207-0.088l0.825-0.349
								c0.546-0.236,1.089-0.471,1.628-0.704c1.079-0.467,2.144-0.929,3.196-1.384c2.066-0.995,4.08-1.964,6.038-2.906
								c3.908-1.908,7.581-3.737,10.987-5.509c3.398-1.787,6.561-3.456,9.268-5.33c1.368-0.915,2.67-1.803,3.853-2.722
								c1.165-0.927,2.267-1.877,2.948-3.022c0.333-0.565,0.549-1.202,0.456-1.814c-0.064-0.298-0.13-0.599-0.297-0.839
								c-0.167-0.242-0.387-0.445-0.623-0.619c-0.964-0.682-2.055-1.032-3.045-1.33c-2.003-0.574-3.758-0.842-5.169-1.056
								c-1.415-0.205-2.501-0.318-3.231-0.393C421.359,225.185,420.985,225.143,420.985,225.143z"/>
						</g>
					</g>
				</g>
			</g>
			<g>
				<g>
					<path style="fill:#263238;" d="M375.804,219.781c0.037-0.049,0.516,0.217,1.084,0.883c0.566,0.655,1.184,1.756,1.358,3.1
						c0.173,1.345-0.146,2.567-0.527,3.344c-0.381,0.788-0.777,1.167-0.825,1.129c-0.067-0.046,0.212-0.492,0.485-1.27
						c0.276-0.771,0.51-1.905,0.351-3.136c-0.159-1.231-0.673-2.269-1.135-2.945C376.133,220.204,375.75,219.843,375.804,219.781z"
						/>
				</g>
			</g>
			<g>
				<g>
					<path style="fill:#263238;" d="M352.715,278.504c-0.059-0.064,0.434-0.478,0.887-1.355c0.454-0.857,0.788-2.256,0.3-3.67
						c-0.228-0.699-0.618-1.31-1.054-1.762c-0.441-0.445-0.966-0.72-1.421-0.841c-0.946-0.261-1.492,0.197-1.529,0.117
						c-0.018-0.021,0.077-0.163,0.343-0.315c0.264-0.144,0.723-0.26,1.263-0.162c0.537,0.091,1.148,0.363,1.678,0.856
						c0.518,0.496,0.958,1.162,1.214,1.942c0.546,1.578,0.101,3.151-0.475,4.016C353.344,278.231,352.743,278.552,352.715,278.504z"
						/>
				</g>
			</g>
			<g>
				<g>
					<path style="fill:#263238;" d="M374.353,270.57c-0.076-0.033,0.125-0.528,0.236-1.353c0.115-0.817,0.094-1.994-0.38-3.154
						c-0.475-1.16-1.284-2.015-1.938-2.518c-0.657-0.512-1.146-0.724-1.116-0.801c0.017-0.058,0.568,0.034,1.326,0.499
						c0.751,0.454,1.687,1.346,2.21,2.623c0.521,1.278,0.478,2.57,0.259,3.42C374.734,270.149,374.405,270.599,374.353,270.57z"/>
				</g>
			</g>
			<g>
				<g>
					<path style="fill:#263238;" d="M420.432,251.233c-0.038-0.006,0.05-0.437,0.04-1.238c-0.019-0.786-0.156-2.001-0.842-3.283
						l0.184,0.061c-4.435,1.966-11.926,5.21-20.432,8.839c-6.838,2.885-13.025,5.494-17.588,7.419
						c-2.209,0.905-4.021,1.647-5.353,2.193c-0.592,0.231-1.076,0.42-1.466,0.572c-0.337,0.125-0.518,0.183-0.525,0.167
						c-0.007-0.017,0.16-0.107,0.484-0.263c0.379-0.176,0.851-0.395,1.428-0.662c1.317-0.584,3.107-1.378,5.288-2.346
						c4.547-1.961,10.714-4.621,17.529-7.56c8.507-3.629,16.033-6.79,20.521-8.63l0.128-0.053l0.056,0.113
						c0.693,1.389,0.771,2.622,0.746,3.434c-0.014,0.409-0.063,0.721-0.109,0.927C420.475,251.131,420.446,251.236,420.432,251.233z
						"/>
				</g>
			</g>
			<g>
				
					<rect x="390.672" y="222.196" transform="matrix(0.9971 -0.0766 0.0766 0.9971 -15.9112 30.8333)" style="fill:#455A64;" width="6.636" height="1.28"/>
			</g>
			<g style="opacity:0.3;">
				<g>
					<path d="M375.875,219.829c-1.595,0.54-2.72,1.912-2.829,3.592s0.853,3.533,2.365,4.274c0.539,0.265,1.155,0.443,1.681,0.154
						c0.433-0.238,0.677-0.714,0.834-1.182c0.409-1.219,0.389-2.577-0.055-3.783C377.428,221.678,376.976,220.492,375.875,219.829"
						/>
				</g>
			</g>
			<g style="opacity:0.3;">
				<g>
					<path d="M351.334,270.868c-0.468-0.257-1.08-0.133-1.499,0.199c-0.418,0.332-0.667,0.837-0.811,1.351
						c-0.49,1.741,0.179,3.749,1.615,4.849c0.615,0.471,1.427,0.786,2.164,0.549c0.511-0.164,0.918-0.577,1.162-1.055
						c0.244-0.478,0.34-1.019,0.378-1.555c0.065-0.924-0.043-1.879-0.451-2.711c-0.409-0.832-1.144-1.529-2.042-1.759"/>
				</g>
			</g>
			<g>
				<path style="fill:#455A64;" d="M296.156,238.263l-27.778,6.211c-1.202,0.269-2.394-0.488-2.663-1.69l0,0
					c-0.269-1.202,0.488-2.394,1.69-2.663l27.778-6.211c1.202-0.269,2.395,0.488,2.663,1.69l0,0
					C298.114,236.801,297.358,237.994,296.156,238.263z"/>
			</g>
		</g>
		<g>
			<g>
				<path style="fill:#455A64;" d="M178.449,318.242c-1.096,0.089-2.752,6.622-3.427,9.491c-0.193,0.821,0.437,1.62,1.443,1.857
					c1.989,0.468,3.523,0.345,4.583,0.09c1.031-0.249,1.653-1.076,1.41-1.912C181.64,324.954,179.546,318.153,178.449,318.242z"/>
			</g>
		</g>
		<g>
			<g>
				<g>
					<path style="fill:#455A64;" d="M340.876,380.097c-1.509,0.153-3.787,11.438-4.716,16.393c-0.266,1.418,0.602,2.798,1.985,3.207
						c2.737,0.809,4.848,0.597,6.306,0.155c1.419-0.43,2.275-1.858,1.94-3.302C345.267,391.69,342.386,379.943,340.876,380.097z"/>
				</g>
			</g>
			<g>
				<g>
					<path style="fill:#455A64;" d="M369.625,380.653c-1.509,0.154-3.787,11.438-4.716,16.393c-0.266,1.418,0.602,2.798,1.985,3.207
						c2.737,0.809,4.848,0.597,6.306,0.155c1.419-0.43,2.275-1.858,1.941-3.302C374.016,392.247,371.135,380.499,369.625,380.653z"
						/>
				</g>
			</g>
			<g>
				<g>
					<path style="fill:#455A64;" d="M356.972,384.728c-1.039,0.106-2.607,7.875-3.247,11.286c-0.183,0.976,0.414,1.926,1.367,2.208
						c1.884,0.557,3.338,0.411,4.342,0.107c0.977-0.296,1.566-1.279,1.336-2.273C359.995,392.71,358.012,384.622,356.972,384.728z"
						/>
				</g>
			</g>
			<g>
				<g>
					<path style="fill:#263238;" d="M352.497,392.528c-0.69,0.063-1.731,4.718-2.156,6.762c-0.121,0.585,0.275,1.154,0.908,1.323
						c1.251,0.334,2.216,0.246,2.883,0.064c0.649-0.177,1.04-0.766,0.887-1.362C354.504,397.31,353.187,392.464,352.497,392.528z"/>
				</g>
			</g>
		</g>
		<g>
			<g>
				<g>
					<path style="fill:#455A64;" d="M248.446,387.247c-1.077,0.109-2.703,8.166-3.367,11.703c-0.19,1.012,0.43,1.997,1.417,2.289
						c1.954,0.577,3.461,0.426,4.502,0.111c1.013-0.307,1.624-1.326,1.385-2.358C251.58,395.524,249.523,387.137,248.446,387.247z"
						/>
				</g>
			</g>
			<g>
				<g>
					<path style="fill:#263238;" d="M242.787,390.897c-0.69,0.063-1.731,4.718-2.156,6.763c-0.122,0.585,0.275,1.154,0.908,1.323
						c1.251,0.334,2.216,0.246,2.883,0.064c0.649-0.177,1.04-0.766,0.887-1.362C244.795,395.68,243.478,390.833,242.787,390.897z"/>
				</g>
			</g>
		</g>
		<g>
			<g>
				<g>
					<path style="fill:#455A64;" d="M151.859,380.696c-1.894,0.154-4.753,11.438-5.919,16.393c-0.334,1.418,0.755,2.798,2.492,3.207
						c3.435,0.809,6.085,0.597,7.916,0.155c1.781-0.43,2.856-1.858,2.436-3.302C157.371,392.29,153.755,380.543,151.859,380.696z"/>
				</g>
			</g>
			<g>
				<g>
					<path style="fill:#455A64;" d="M143.941,384.528c-1.214,0.123-3.046,9.2-3.793,13.186c-0.214,1.141,0.484,2.251,1.597,2.579
						c2.202,0.651,3.9,0.48,5.073,0.125c1.141-0.346,1.83-1.494,1.561-2.656C147.473,393.853,145.156,384.404,143.941,384.528z"/>
				</g>
			</g>
			<g>
				<g>
					<path style="fill:#263238;" d="M136.78,391.399c-0.69,0.063-1.731,4.718-2.156,6.762c-0.121,0.585,0.275,1.154,0.908,1.323
						c1.251,0.334,2.216,0.246,2.883,0.064c0.649-0.177,1.04-0.766,0.887-1.362C138.787,396.182,137.47,391.336,136.78,391.399z"/>
				</g>
			</g>
			<g>
				<g>
					<g>
						<path style="fill:#455A64;" d="M147.708,393.878c-1.096,0.089-2.752,6.622-3.427,9.491c-0.193,0.821,0.437,1.62,1.443,1.857
							c1.989,0.468,3.523,0.346,4.583,0.09c1.031-0.249,1.653-1.076,1.41-1.912C150.899,400.591,148.805,393.789,147.708,393.878z"
							/>
					</g>
				</g>
				<g style="opacity:0.3;">
					<g>
						<path d="M147.708,393.878c-1.096,0.089-2.752,6.622-3.427,9.491c-0.193,0.821,0.437,1.62,1.443,1.857
							c1.989,0.468,3.523,0.346,4.583,0.09c1.031-0.249,1.653-1.076,1.41-1.912C150.899,400.591,148.805,393.789,147.708,393.878z"
							/>
					</g>
				</g>
			</g>
			<g>
				<g>
					<g>
						<path style="fill:#455A64;" d="M161.875,390.72c-0.877,0.071-2.201,5.297-2.741,7.591c-0.154,0.657,0.35,1.296,1.154,1.485
							c1.591,0.374,2.818,0.276,3.666,0.072c0.825-0.199,1.322-0.86,1.128-1.529C164.428,396.089,162.753,390.649,161.875,390.72z"
							/>
					</g>
				</g>
				<g style="opacity:0.3;">
					<g>
						<path d="M161.875,390.72c-0.877,0.071-2.201,5.297-2.741,7.591c-0.154,0.657,0.35,1.296,1.154,1.485
							c1.591,0.374,2.818,0.276,3.666,0.072c0.825-0.199,1.322-0.86,1.128-1.529C164.428,396.089,162.753,390.649,161.875,390.72z"
							/>
					</g>
				</g>
			</g>
		</g>
		<g>
			<g>
				<g>
					<path style="fill:#455A64;" d="M177.3,396.866c-0.877,0.071-2.201,5.297-2.741,7.591c-0.154,0.657,0.35,1.296,1.154,1.485
						c1.591,0.375,2.818,0.276,3.666,0.072c0.825-0.199,1.322-0.86,1.128-1.529C179.853,402.235,178.178,396.795,177.3,396.866z"/>
				</g>
			</g>
			<g style="opacity:0.3;">
				<g>
					<path d="M177.3,396.866c-0.877,0.071-2.201,5.297-2.741,7.591c-0.154,0.657,0.35,1.296,1.154,1.485
						c1.591,0.375,2.818,0.276,3.666,0.072c0.825-0.199,1.322-0.86,1.128-1.529C179.853,402.235,178.178,396.795,177.3,396.866z"/>
				</g>
			</g>
		</g>
		<g>
			<g>
				<g>
					<path style="fill:#455A64;" d="M220.131,387.871c-1.509,0.153-3.787,11.438-4.716,16.393c-0.266,1.418,0.602,2.798,1.985,3.207
						c2.737,0.809,4.848,0.597,6.306,0.155c1.419-0.43,2.275-1.858,1.94-3.302C224.522,399.465,221.641,387.717,220.131,387.871z"/>
				</g>
			</g>
			<g>
				<g>
					<path style="fill:#455A64;" d="M194.351,381.583c-1.509,0.154-3.787,11.438-4.716,16.393c-0.266,1.418,0.602,2.798,1.985,3.207
						c2.737,0.809,4.848,0.597,6.306,0.155c1.419-0.43,2.275-1.858,1.941-3.302C198.742,393.177,195.861,381.43,194.351,381.583z"/>
				</g>
			</g>
			<g>
				<g>
					<path style="fill:#455A64;" d="M201.144,388.45c-1.004,0.102-2.519,7.607-3.136,10.902c-0.177,0.943,0.4,1.861,1.32,2.133
						c1.82,0.538,3.224,0.397,4.194,0.103c0.944-0.286,1.513-1.236,1.291-2.196C204.064,396.161,202.148,388.348,201.144,388.45z"/>
				</g>
			</g>
			<g>
				<g>
					<path style="fill:#263238;" d="M214.498,394.221c-0.69,0.063-1.731,4.718-2.156,6.762c-0.122,0.585,0.275,1.154,0.908,1.323
						c1.251,0.334,2.216,0.246,2.883,0.064c0.649-0.177,1.04-0.766,0.887-1.362C216.505,399.004,215.188,394.158,214.498,394.221z"
						/>
				</g>
			</g>
			<g>
				<g>
					<path style="fill:#263238;" d="M188.461,390.17c-1.107,0.102-2.778,7.571-3.459,10.851c-0.195,0.939,0.441,1.852,1.456,2.123
						c2.008,0.535,3.556,0.395,4.626,0.102c1.041-0.285,1.669-1.23,1.424-2.186C191.682,397.844,189.569,390.068,188.461,390.17z"/>
				</g>
			</g>
			<g>
				<g>
					<g>
						<path style="fill:#455A64;" d="M206.246,392.241c-0.877,0.071-2.201,5.297-2.741,7.591c-0.154,0.657,0.35,1.296,1.154,1.485
							c1.591,0.374,2.818,0.276,3.666,0.072c0.825-0.199,1.323-0.86,1.128-1.529C208.799,397.609,207.124,392.169,206.246,392.241z"
							/>
					</g>
				</g>
				<g style="opacity:0.3;">
					<g>
						<path d="M206.246,392.241c-0.877,0.071-2.201,5.297-2.741,7.591c-0.154,0.657,0.35,1.296,1.154,1.485
							c1.591,0.374,2.818,0.276,3.666,0.072c0.825-0.199,1.323-0.86,1.128-1.529C208.799,397.609,207.124,392.169,206.246,392.241z"
							/>
					</g>
				</g>
			</g>
		</g>
		<g>
			<g>
				<g>
					<path style="fill:#455A64;" d="M263.897,373.27c-1.315,0.134-3.301,9.969-4.11,14.288c-0.232,1.236,0.524,2.439,1.73,2.795
						c2.386,0.705,4.226,0.52,5.497,0.135c1.237-0.375,1.983-1.619,1.691-2.878C267.724,383.375,265.213,373.136,263.897,373.27z"/>
				</g>
			</g>
			<g>
				<g>
					<path style="fill:#455A64;" d="M272.87,378.647c-1.077,0.11-2.703,8.166-3.367,11.703c-0.19,1.012,0.43,1.997,1.417,2.289
						c1.954,0.578,3.461,0.426,4.502,0.111c1.013-0.307,1.624-1.326,1.385-2.357C276.005,386.925,273.948,378.538,272.87,378.647z"
						/>
				</g>
			</g>
			<g>
				<g>
					<path style="fill:#263238;" d="M281.92,391.324c-0.69,0.063-1.731,4.718-2.156,6.763c-0.121,0.585,0.275,1.154,0.908,1.323
						c1.251,0.334,2.216,0.246,2.883,0.064c0.649-0.177,1.04-0.766,0.887-1.362C283.928,396.107,282.61,391.26,281.92,391.324z"/>
				</g>
			</g>
			<g>
				<g>
					<g>
						<path style="fill:#455A64;" d="M267.263,390.508c-1.398,0.113-3.509,8.443-4.369,12.101c-0.246,1.047,0.557,2.065,1.84,2.367
							c2.536,0.597,4.492,0.44,5.843,0.114c1.315-0.317,2.108-1.371,1.798-2.438C271.331,399.066,268.662,390.395,267.263,390.508z"
							/>
					</g>
				</g>
				<g style="opacity:0.3;">
					<g>
						<path d="M267.263,390.508c-1.398,0.113-3.509,8.443-4.369,12.101c-0.246,1.047,0.557,2.065,1.84,2.367
							c2.536,0.597,4.492,0.44,5.843,0.114c1.315-0.317,2.108-1.371,1.798-2.438C271.331,399.066,268.662,390.395,267.263,390.508z"
							/>
					</g>
				</g>
			</g>
		</g>
		<g>
			<g>
				<rect x="282.855" y="279.095" style="fill:#FF725E;" width="6.663" height="118.674"/>
			</g>
			<g>
				<polygon style="fill:#FF725E;" points="289.518,279.095 289.518,397.656 322.175,398.376 322.175,305.719 				"/>
			</g>
			<g style="opacity:0.3;">
				<path d="M322.145,311.368c0,0-24.522,8.547-23.489,39.074c1.033,30.526,23.641,34.189,23.641,34.189L322.145,311.368z"/>
			</g>
			<g>
				<g>
					<path style="fill:#263238;" d="M317.941,383.565c-0.144,0-0.261-15.483-0.261-34.577c0-19.101,0.117-34.581,0.261-34.581
						c0.144,0,0.26,15.48,0.26,34.581C318.201,368.082,318.085,383.565,317.941,383.565z"/>
				</g>
			</g>
			<g>
				<g>
					<path style="fill:#263238;" d="M312.589,378.646c-0.144,0-0.26-13.773-0.26-30.758c0-16.991,0.117-30.761,0.26-30.761
						s0.26,13.77,0.26,30.761C312.849,364.874,312.733,378.646,312.589,378.646z"/>
				</g>
			</g>
			<g>
				<g>
					<path style="fill:#263238;" d="M307.237,374.45c-0.144,0-0.26-11.32-0.26-25.281c0-13.966,0.117-25.283,0.26-25.283
						s0.26,11.318,0.26,25.283C307.497,363.13,307.38,374.45,307.237,374.45z"/>
				</g>
			</g>
			<g>
				<g>
					<path style="fill:#263238;" d="M301.884,365.428c-0.144,0-0.26-7.609-0.26-16.994c0-9.388,0.117-16.995,0.26-16.995
						c0.144,0,0.26,7.608,0.26,16.995C302.145,357.819,302.028,365.428,301.884,365.428z"/>
				</g>
			</g>
			<g style="opacity:0.3;">
				<rect x="282.855" y="279.095" width="6.663" height="118.674"/>
			</g>
		</g>
		<g>
			<g>
				<path style="fill:#455A64;" d="M307.927,388.549c-0.371-1.416-0.583-2.829-1.226-4.175c-0.731-1.529-2.283-2.376-3.91-2.504
					l-0.001-0.026c-0.071,0-0.142,0.01-0.213,0.013c-0.071-0.003-0.142-0.013-0.213-0.013l-0.001,0.026
					c-1.626,0.128-3.179,0.975-3.91,2.504c-0.643,1.346-0.855,2.759-1.226,4.175c-0.462,1.764-0.927,3.549-0.877,5.354
					c0.046,1.656,0.583,3.38,1.967,4.563c1.088,0.931,2.662,1.153,4.26,1.125c1.728-0.036,3.172-0.194,4.26-1.125
					c1.384-1.184,1.921-2.908,1.967-4.563C308.854,392.098,308.389,390.314,307.927,388.549z"/>
			</g>
			<g>
				<g>
					<path style="fill:#455A64;" d="M318.993,381.152c-1.509,0.154-3.787,11.438-4.716,16.393c-0.266,1.418,0.602,2.798,1.985,3.207
						c2.737,0.809,4.848,0.597,6.306,0.155c1.419-0.43,2.275-1.858,1.94-3.302C323.384,392.746,320.503,380.999,318.993,381.152z"/>
				</g>
			</g>
			<g>
				<g>
					<path style="fill:#455A64;" d="M326.557,380.827c-0.816,0.083-2.049,6.19-2.552,8.871c-0.144,0.767,0.326,1.514,1.074,1.735
						c1.481,0.438,2.624,0.323,3.413,0.084c0.768-0.233,1.231-1.005,1.05-1.787C328.933,387.101,327.374,380.744,326.557,380.827z"
						/>
				</g>
			</g>
			<g>
				<g>
					<path style="fill:#263238;" d="M330.791,383.694c-0.69,0.063-1.731,4.718-2.156,6.762c-0.121,0.585,0.275,1.154,0.908,1.323
						c1.251,0.334,2.216,0.246,2.883,0.064c0.649-0.177,1.04-0.766,0.887-1.362C332.799,388.477,331.482,383.63,330.791,383.694z"/>
				</g>
			</g>
			<g>
				<g>
					<g>
						<path style="fill:#455A64;" d="M323.746,393.09c-0.769,0.062-1.929,4.641-2.402,6.652c-0.135,0.575,0.306,1.135,1.011,1.301
							c1.394,0.328,2.469,0.242,3.212,0.063c0.723-0.174,1.159-0.754,0.988-1.34C325.982,397.794,324.515,393.027,323.746,393.09z"
							/>
					</g>
				</g>
				<g style="opacity:0.3;">
					<g>
						<path d="M323.746,393.09c-0.769,0.062-1.929,4.641-2.402,6.652c-0.135,0.575,0.306,1.135,1.011,1.301
							c1.394,0.328,2.469,0.242,3.212,0.063c0.723-0.174,1.159-0.754,0.988-1.34C325.982,397.794,324.515,393.027,323.746,393.09z"
							/>
					</g>
				</g>
			</g>
		</g>
		<g>
			<g>
				<g>
					<path style="fill:#455A64;" d="M415.061,380.078c-1.509,0.153-3.787,11.438-4.716,16.393c-0.266,1.418,0.602,2.798,1.985,3.207
						c2.737,0.809,4.848,0.597,6.306,0.155c1.419-0.43,2.275-1.858,1.94-3.302C419.452,391.672,416.571,379.924,415.061,380.078z"/>
				</g>
			</g>
			<g>
				<g>
					<path style="fill:#263238;" d="M426.098,388.027c-0.69,0.063-1.731,4.718-2.156,6.762c-0.122,0.585,0.275,1.154,0.908,1.323
						c1.251,0.334,2.216,0.246,2.883,0.064c0.649-0.177,1.04-0.766,0.887-1.362C428.106,392.81,426.789,387.964,426.098,388.027z"/>
				</g>
			</g>
			<g>
				<g>
					<g>
						<path style="fill:#455A64;" d="M409.285,392.025c-0.769,0.062-1.929,4.641-2.402,6.652c-0.135,0.575,0.306,1.135,1.011,1.301
							c1.394,0.328,2.469,0.242,3.212,0.063c0.723-0.174,1.159-0.754,0.988-1.34C411.522,396.73,410.054,391.963,409.285,392.025z"
							/>
					</g>
				</g>
				<g style="opacity:0.3;">
					<g>
						<path d="M409.285,392.025c-0.769,0.062-1.929,4.641-2.402,6.652c-0.135,0.575,0.306,1.135,1.011,1.301
							c1.394,0.328,2.469,0.242,3.212,0.063c0.723-0.174,1.159-0.754,0.988-1.34C411.522,396.73,410.054,391.963,409.285,392.025z"
							/>
					</g>
				</g>
			</g>
		</g>
		<g>
			<g>
				<g>
					<path style="fill:#455A64;" d="M91.943,349.069c-1.097,0.089-2.752,6.622-3.427,9.491c-0.193,0.821,0.437,1.62,1.443,1.857
						c1.989,0.468,3.523,0.345,4.583,0.09c1.031-0.249,1.653-1.076,1.41-1.912C95.134,355.782,93.04,348.98,91.943,349.069z"/>
				</g>
			</g>
			<g>
				<g>
					<path style="fill:#455A64;" d="M102.569,345.382c-0.693,0.056-1.74,4.186-2.166,6c-0.122,0.519,0.276,1.024,0.912,1.174
						c1.257,0.296,2.227,0.218,2.897,0.057c0.652-0.157,1.045-0.68,0.892-1.209C104.586,349.625,103.263,345.326,102.569,345.382z"
						/>
				</g>
			</g>
			<g>
				<g>
					<path style="fill:#263238;" d="M112.956,347.216c-0.693,0.056-1.74,4.186-2.166,6c-0.122,0.519,0.276,1.024,0.912,1.174
						c1.257,0.296,2.227,0.218,2.897,0.057c0.652-0.157,1.045-0.68,0.892-1.209C114.973,351.459,113.649,347.16,112.956,347.216z"/>
				</g>
			</g>
			<g>
				<g>
					<path style="fill:#263238;" d="M107.393,344.583c-0.53,0.043-1.33,3.202-1.657,4.589c-0.093,0.397,0.211,0.783,0.698,0.898
						c0.962,0.226,1.703,0.167,2.216,0.043c0.498-0.12,0.799-0.52,0.682-0.924C108.936,347.829,107.924,344.54,107.393,344.583z"/>
				</g>
			</g>
			<g>
				<g>
					<path style="fill:#263238;" d="M76.239,364.763c-0.53,0.043-1.331,3.202-1.657,4.589c-0.093,0.397,0.211,0.783,0.697,0.898
						c0.962,0.227,1.703,0.167,2.216,0.043c0.498-0.12,0.799-0.52,0.682-0.924C77.782,368.009,76.769,364.72,76.239,364.763z"/>
				</g>
			</g>
			<g>
				<g>
					<path style="fill:#263238;" d="M84.764,360.839c-0.53,0.043-1.33,3.202-1.657,4.589c-0.093,0.397,0.211,0.783,0.698,0.898
						c0.962,0.226,1.703,0.167,2.216,0.043c0.498-0.12,0.799-0.52,0.682-0.924C86.307,364.084,85.295,360.796,84.764,360.839z"/>
				</g>
			</g>
			<g>
				<g>
					<g>
						<path style="fill:#455A64;" d="M79.809,361.605c-1.096,0.089-2.752,6.622-3.427,9.491c-0.193,0.821,0.437,1.62,1.443,1.857
							c1.989,0.468,3.523,0.345,4.583,0.09c1.031-0.249,1.653-1.076,1.41-1.912C83,368.317,80.906,361.516,79.809,361.605z"/>
					</g>
				</g>
				<g style="opacity:0.3;">
					<g>
						<path d="M79.809,361.605c-1.096,0.089-2.752,6.622-3.427,9.491c-0.193,0.821,0.437,1.62,1.443,1.857
							c1.989,0.468,3.523,0.345,4.583,0.09c1.031-0.249,1.653-1.076,1.41-1.912C83,368.317,80.906,361.516,79.809,361.605z"/>
					</g>
				</g>
			</g>
			<g>
				<g>
					<g>
						<path style="fill:#455A64;" d="M96.174,350.669c-0.796,0.064-1.997,4.805-2.487,6.887c-0.14,0.596,0.317,1.175,1.047,1.347
							c1.443,0.34,2.556,0.251,3.325,0.065c0.748-0.181,1.2-0.78,1.023-1.387C98.489,355.54,96.97,350.605,96.174,350.669z"/>
					</g>
				</g>
				<g style="opacity:0.3;">
					<g>
						<path d="M96.174,350.669c-0.796,0.064-1.997,4.805-2.487,6.887c-0.14,0.596,0.317,1.175,1.047,1.347
							c1.443,0.34,2.556,0.251,3.325,0.065c0.748-0.181,1.2-0.78,1.023-1.387C98.489,355.54,96.97,350.605,96.174,350.669z"/>
					</g>
				</g>
			</g>
			<g>
				<g>
					<g>
						<path style="fill:#455A64;" d="M116.452,339.571c-0.796,0.064-1.997,4.805-2.487,6.887c-0.14,0.596,0.317,1.175,1.047,1.347
							c1.443,0.34,2.556,0.251,3.325,0.065c0.748-0.181,1.2-0.78,1.023-1.387C118.767,344.442,117.248,339.507,116.452,339.571z"/>
					</g>
				</g>
				<g style="opacity:0.3;">
					<g>
						<path d="M116.452,339.571c-0.796,0.064-1.997,4.805-2.487,6.887c-0.14,0.596,0.317,1.175,1.047,1.347
							c1.443,0.34,2.556,0.251,3.325,0.065c0.748-0.181,1.2-0.78,1.023-1.387C118.767,344.442,117.248,339.507,116.452,339.571z"/>
					</g>
				</g>
			</g>
		</g>
	</g>
</g>
<g id="Airplanes">
	<g>
		<g>
			<path style="fill:#EBEBEB;" d="M162.508,172.303c-0.248-0.605-0.585-1.245-1.192-1.489c-0.837-0.338-1.813,0.285-2.188,1.106
				c-0.375,0.821-0.31,1.767-0.238,2.667c-0.792-1.84-3.684-2.262-4.969-0.725c-0.292,0.35-0.506,0.769-0.85,1.067
				c-0.612,0.53-1.494,0.572-2.303,0.59c-9.101,0.206-18.192,0.875-27.226,2.004c1.419,0.702,3.061,0.749,4.644,0.782
				c11.185,0.232,23.715-0.122,34.9,0.11h1.001C164.06,176.436,163.258,174.134,162.508,172.303z"/>
		</g>
		<g>
			<g>
				<g>
					<path style="fill:#263238;" d="M176.27,171.597h12.553c1.44,0,2.86,0.335,4.149,0.979l4.003,2.001c0,0,3.971,1.036,4.592,2.402
						c0.621,1.366-0.121,2.318-1.611,2.442c-1.49,0.124-26.951,0-26.951,0L176.27,171.597z"/>
				</g>
				<g>
					<path style="fill:#263238;" d="M170.061,174.609h13.496c1.134,0,2.054,0.919,2.054,2.054l0,0c0,1.134-0.919,2.053-2.054,2.053
						h-8.979L170.061,174.609z"/>
				</g>
				<g>
					<path style="fill:#455A64;" d="M196.974,174.578l-11.621,0.031l-3.151-3.012h7.737c1.006,0,1.997,0.251,2.881,0.73
						L196.974,174.578z"/>
					<path style="fill:#263238;" d="M185.343,174.634l-0.007-0.007l-3.197-3.055h7.8c1.007,0,2.008,0.253,2.893,0.733l4.24,2.297
						h-0.098L185.343,174.634z M182.264,171.622l3.099,2.962l11.513-0.031l-4.067-2.204c-0.878-0.476-1.871-0.727-2.87-0.727
						H182.264z"/>
				</g>
			</g>
			<g>
				<g>
					<path style="fill:#455A64;" d="M174.999,178.716c-0.035,0.042-0.579-0.343-1.479-1.037c-0.9-0.694-2.156-1.695-3.615-2.884
						l-0.519-0.423l0.674-0.006c1.148-0.01,2.383-0.021,3.675-0.032c2.789-0.011,5.314,0.008,7.142,0.048
						c1.827,0.04,2.958,0.101,2.958,0.173s-1.13,0.141-2.958,0.196c-1.827,0.054-4.352,0.093-7.142,0.104
						c-1.292-0.001-2.527-0.002-3.675-0.003l0.155-0.429c1.435,1.218,2.648,2.27,3.494,3.029
						C174.556,178.209,175.035,178.673,174.999,178.716z"/>
				</g>
			</g>
			<g>
				<g>
					<path style="fill:#263238;" d="M148.189,178.414c0-0.144,4.879-0.26,10.895-0.26c6.019,0,10.896,0.117,10.896,0.26
						s-4.877,0.26-10.896,0.26C153.067,178.675,148.189,178.558,148.189,178.414z"/>
				</g>
			</g>
		</g>
	</g>
	<g>
		<g>
			<g>
				<path style="fill:#FF725E;" d="M388.224,203.585h-10.015c-1.149,0-2.282,0.268-3.31,0.781l-3.193,1.597
					c0,0-3.168,0.826-3.664,1.916c-0.495,1.09,0.096,1.849,1.285,1.948c1.189,0.099,21.501,0,21.501,0L388.224,203.585z"/>
			</g>
			<g>
				<path style="fill:#FF725E;" d="M393.178,205.987h-10.767c-0.905,0-1.638,0.733-1.638,1.638l0,0c0,0.905,0.734,1.638,1.638,1.638
					h7.164L393.178,205.987z"/>
			</g>
			<g>
				<path style="fill:#E0E0E0;" d="M371.706,205.962l9.271,0.025l2.514-2.403h-6.173c-0.803,0-1.593,0.2-2.299,0.583
					L371.706,205.962z"/>
			</g>
		</g>
		<g>
			<g>
				<path style="fill:#263238;" d="M389.238,209.264c-0.071-0.085,1.5-1.514,3.785-3.463l0.155,0.429
					c-0.923,0.002-1.905,0.004-2.932,0.006c-2.225-0.009-4.24-0.046-5.698-0.099c-1.458-0.053-2.36-0.122-2.36-0.193
					c0-0.072,0.902-0.133,2.36-0.175s3.472-0.063,5.698-0.054c1.027,0.01,2.009,0.02,2.932,0.029l0.676,0.007l-0.521,0.422
					C390.999,208.065,389.308,209.349,389.238,209.264z"/>
			</g>
		</g>
		<g>
			<g>
				<path style="fill:#263238;" d="M410.627,209.023c0,0.144-3.892,0.26-8.692,0.26c-4.802,0-8.693-0.117-8.693-0.26
					c0-0.144,3.891-0.26,8.693-0.26C406.735,208.763,410.627,208.88,410.627,209.023z"/>
			</g>
		</g>
		<g>
			<g>
				<path style="fill:#263238;" d="M403.353,207.266c0,0.144-2.296,0.261-5.128,0.261c-2.833,0-5.129-0.117-5.129-0.261
					c0-0.144,2.296-0.26,5.129-0.26C401.057,207.005,403.353,207.122,403.353,207.266z"/>
			</g>
		</g>
	</g>
	<g>
		<g>
			<g>
				<g>
					<path style="fill:#263238;" d="M97.028,276.171h10.015c1.149,0,2.282,0.267,3.31,0.781l3.193,1.597
						c0,0,3.168,0.826,3.663,1.916c0.495,1.09-0.096,1.849-1.285,1.948c-1.189,0.099-21.501,0-21.501,0L97.028,276.171z"/>
				</g>
				<g>
					<path style="fill:#263238;" d="M92.074,278.573h10.767c0.905,0,1.638,0.733,1.638,1.638l0,0c0,0.905-0.733,1.638-1.638,1.638
						h-7.164L92.074,278.573z"/>
				</g>
				<g>
					<path style="fill:#455A64;" d="M113.546,278.548l-9.271,0.025l-2.514-2.403h6.173c0.803,0,1.593,0.2,2.299,0.583
						L113.546,278.548z"/>
					<path style="fill:#263238;" d="M104.265,278.599l-0.007-0.007l-2.56-2.447h6.235c0.805,0,1.604,0.203,2.311,0.586l3.4,1.842
						l-0.098,0.001L104.265,278.599z M101.823,276.196l2.461,2.353l9.163-0.024l-3.228-1.748c-0.7-0.38-1.49-0.58-2.287-0.58
						H101.823z"/>
				</g>
			</g>
			<g>
				<g>
					<path style="fill:#455A64;" d="M96.014,281.85c-0.071,0.085-1.762-1.199-4.095-3.09l-0.521-0.422l0.676-0.007
						c0.923-0.009,1.905-0.019,2.932-0.029c2.225-0.009,4.24,0.013,5.698,0.054c1.458,0.041,2.36,0.103,2.36,0.175
						s-0.902,0.14-2.36,0.193c-1.458,0.053-3.472,0.09-5.698,0.099c-1.027-0.002-2.009-0.004-2.932-0.006l0.155-0.429
						C94.514,280.336,96.084,281.765,96.014,281.85z"/>
				</g>
			</g>
		</g>
		<g>
			<g>
				<path style="fill:#263238;" d="M90.212,281.263c0,0.144-1.437,0.26-3.209,0.26c-1.773,0-3.21-0.117-3.21-0.26
					c0-0.144,1.437-0.26,3.21-0.26C88.775,281.003,90.212,281.119,90.212,281.263z"/>
			</g>
		</g>
		<g>
			<g>
				<path style="fill:#263238;" d="M92.328,280.212c0,0.144-1.276,0.26-2.849,0.26c-1.574,0-2.85-0.117-2.85-0.26
					s1.276-0.26,2.85-0.26C91.052,279.951,92.328,280.068,92.328,280.212z"/>
			</g>
		</g>
	</g>
</g>
</svg>
