<?xml version="1.0" encoding="utf-8"?>
<!-- Generator: Adobe Illustrator 27.5.0, SVG Export Plug-In . SVG Version: 6.00 Build 0)  -->
<svg version="1.1" xmlns="http://www.w3.org/2000/svg" xmlns:xlink="http://www.w3.org/1999/xlink" x="0px" y="0px"
	 viewBox="0 0 750 500" style="enable-background:new 0 0 750 500;" xml:space="preserve">
<g id="Background_Complete">
	<g>
		<g>
			<g>
				<g>
					<path style="fill:#F5F5F5;" d="M93.241,106.176c-0.738-1.969-1.49-3.966-2.731-5.664c-1.241-1.698-3.054-3.089-5.141-3.344
						c-2.087-0.256-4.4,0.871-5.08,2.861c-0.299-4.484-0.935-9.084-3.179-12.978c-2.245-3.893-6.432-6.952-10.918-6.677
						c-4.229,0.259-7.851,3.4-9.863,7.129c-2.012,3.729-2.703,8.007-3.363,12.192c-1.603-1.967-4.989-1.349-6.662,0.559
						c-1.673,1.908-2.097,4.575-2.453,7.088h50.441L93.241,106.176z"/>
				</g>
			</g>
		</g>
	</g>
	<g>
		<g>
			<g>
				<g>
					<path style="fill:#F5F5F5;" d="M212.812,72.836c-0.993-2.651-2.005-5.338-3.675-7.623c-1.67-2.285-4.11-4.157-6.919-4.501
						c-2.809-0.344-5.922,1.172-6.837,3.851c-0.403-6.035-1.258-12.227-4.279-17.467c-3.021-5.24-8.658-9.357-14.695-8.988
						c-5.693,0.348-10.566,4.577-13.275,9.596c-2.708,5.019-3.638,10.776-4.527,16.41c-2.158-2.648-6.714-1.816-8.966,0.753
						c-2.252,2.568-2.823,6.158-3.301,9.54h67.891L212.812,72.836z"/>
				</g>
			</g>
		</g>
	</g>
	<g>
		<g>
			<g>
				<g>
					<path style="fill:#F5F5F5;" d="M485.776,84.823c-0.738-1.969-1.49-3.966-2.73-5.664c-1.241-1.698-3.054-3.089-5.141-3.344
						c-2.087-0.255-4.4,0.871-5.08,2.861c-0.299-4.484-0.935-9.084-3.179-12.978c-2.245-3.893-6.432-6.952-10.918-6.678
						c-4.229,0.259-7.85,3.4-9.863,7.129c-2.012,3.729-2.703,8.007-3.363,12.192c-1.603-1.967-4.988-1.349-6.662,0.559
						c-1.673,1.908-2.097,4.575-2.453,7.088h50.441L485.776,84.823z"/>
				</g>
			</g>
		</g>
	</g>
	<g>
		<g>
			<g>
				<g>
					<path style="fill:#F5F5F5;" d="M373.829,171.974c-0.738-1.969-1.49-3.966-2.731-5.664c-1.241-1.698-3.054-3.089-5.141-3.344
						c-2.087-0.255-4.4,0.871-5.08,2.861c-0.299-4.484-0.935-9.084-3.179-12.978c-2.245-3.893-6.432-6.952-10.918-6.678
						c-4.229,0.259-7.85,3.4-9.863,7.129c-2.012,3.729-2.703,8.007-3.363,12.192c-1.603-1.967-4.988-1.349-6.662,0.559
						c-1.673,1.908-2.097,4.575-2.453,7.088h50.441L373.829,171.974z"/>
				</g>
			</g>
		</g>
	</g>
	<g>
		<g>
			<g>
				<g>
					<path style="fill:#F5F5F5;" d="M719.798,138.819c-0.738-1.969-1.49-3.966-2.731-5.664c-1.241-1.698-3.054-3.089-5.141-3.344
						c-2.087-0.255-4.4,0.871-5.08,2.861c-0.299-4.484-0.935-9.084-3.179-12.978c-2.245-3.893-6.432-6.952-10.918-6.677
						c-4.229,0.259-7.851,3.4-9.863,7.129c-2.012,3.729-2.703,8.006-3.363,12.192c-1.603-1.967-4.989-1.349-6.662,0.559
						c-1.673,1.908-2.097,4.575-2.453,7.088h50.441L719.798,138.819z"/>
				</g>
			</g>
		</g>
	</g>
	<g>
		<g>
			<g>
				<g>
					<path style="fill:#F5F5F5;" d="M662.888,79.442c-0.993-2.65-2.005-5.338-3.675-7.623c-1.67-2.285-4.11-4.157-6.919-4.501
						c-2.809-0.344-5.922,1.172-6.837,3.851c-0.403-6.035-1.258-12.227-4.279-17.467c-3.021-5.24-8.658-9.357-14.695-8.988
						c-5.693,0.348-10.566,4.577-13.275,9.596c-2.708,5.019-3.638,10.776-4.527,16.41c-2.158-2.648-6.714-1.816-8.966,0.753
						c-2.252,2.568-2.823,6.158-3.301,9.54h67.891L662.888,79.442z"/>
				</g>
			</g>
		</g>
	</g>
	<g>
		<g>
			<g>
				<g>
					<g>
						<g>
							<g>
								
									<rect x="234.698" y="292.03" transform="matrix(-1 -1.224647e-16 1.224647e-16 -1 494.0721 689.5974)" style="fill:#EBEBEB;" width="24.675" height="105.537"/>
							</g>
						</g>
					</g>
				</g>
			</g>
		</g>
		<g>
			<g>
				<g>
					<g>
						<g>
							<g>
								<path style="fill:#EBEBEB;" d="M340.605,291.751c0,0-1.214-0.808,1.458-4.308c2.672-3.501-1.458-5.386-1.458-5.386
									c-11.661,6.732-27.938,0-27.938,0s19.192-5.924,21.621-11.578c1.815-4.224-1.385-4.691-3.121-4.658
									c1.959-0.204,6.201-0.898,7.494-3.151c1.701-2.963-4.979-6.463-4.979-6.463s1.092-1.616,0-4.577
									c-1.093-2.962-26.117-7.271-26.117-7.271c7.289,0.808,9.961-6.462,9.961-6.462s12.39,0.269,15.305-4.577
									c2.915-4.847-1.943-6.193-10.204-10.232c-8.26-4.039-26.48-19.118-26.48-19.118s11.418-1.077,14.576-3.77
									c3.158-2.692,0.243-3.231,0.243-3.231c13.605,1.346,8.989-5.923,8.989-5.923c-18.221-5.655-27.939-18.041-27.939-18.041
									s8.503-1.885,12.876-5.924c4.373-4.039-3.645-5.116-3.645-5.116s16.035-2.155,6.802-8.078
									c-7.017-4.503-18.242-10.56-21.732-12.38c3.825,1.405,12.501-0.276,12.501-0.276c10.204-4.577,0-11.309,0-11.309
									c-11.904-6.731-29.396-23.695-29.396-23.695s8.746,4.577,13.119,3.231c4.373-1.346-4.859-6.732-4.859-6.732
									s4.616,1.346,6.559,0c1.943-1.346-5.102-7.539-5.102-7.539c-10.473-6.805-23.383-24.664-28.784-32.335
									c-5.4,7.671-18.311,25.531-28.783,32.335c0,0-7.044,6.193-5.101,7.539c1.943,1.346,6.559,0,6.559,0
									s-9.232,5.386-4.858,6.732c4.373,1.346,13.119-3.231,13.119-3.231s-17.492,16.964-29.396,23.695c0,0-10.204,6.732,0,11.309
									c0,0,8.676,1.682,12.5,0.276c-3.489,1.82-14.715,7.877-21.732,12.38c-9.232,5.923,6.802,8.078,6.802,8.078
									s-8.017,1.077-3.644,5.116c4.373,4.039,12.876,5.924,12.876,5.924s-9.718,12.386-27.939,18.041c0,0-4.616,7.27,8.989,5.923
									c0,0-2.915,0.538,0.243,3.231c3.158,2.693,14.577,3.77,14.577,3.77s-18.221,15.079-26.481,19.118
									c-8.26,4.039-13.119,5.385-10.204,10.232c2.916,4.846,15.305,4.577,15.305,4.577s2.672,7.271,9.96,6.462
									c0,0-25.024,4.308-26.116,7.271c-1.093,2.962,0,4.577,0,4.577s-6.68,3.5-4.979,6.463c1.293,2.253,5.535,2.947,7.494,3.151
									c-1.737-0.034-4.935,0.434-3.121,4.658c2.429,5.655,21.622,11.578,21.622,11.578s-16.277,6.732-27.938,0
									c0,0-4.13,1.885-1.458,5.386c2.673,3.5,1.458,4.308,1.458,4.308s-6.074-4.577-3.401,2.423
									c2.671,7.001,16.762,11.309,16.762,11.309s-8.017,1.346-5.588,5.655c2.429,4.308,12.633,9.424,23.808,10.501
									c11.175,1.077,26.238-2.962,26.238-2.962s-10.204,5.385-3.159,8.347c7.046,2.962,15.063-3.77,15.063-3.77
									s-1.458,6.892,4.373,4.523c5.831-2.369,10.689-6.946,10.689-6.946s1.821,10.156,5.461,7.726
									c3.641,2.43,5.461-7.726,5.461-7.726s4.859,4.577,10.689,6.946c5.831,2.368,4.373-4.523,4.373-4.523
									s8.017,6.732,15.062,3.77c7.045-2.962-3.158-8.347-3.158-8.347s15.062,4.039,26.237,2.962
									c11.175-1.077,21.378-6.193,23.808-10.501c2.429-4.308-5.588-5.655-5.588-5.655s14.091-4.308,16.763-11.309
									C346.679,287.174,340.605,291.751,340.605,291.751z"/>
							</g>
						</g>
					</g>
				</g>
			</g>
		</g>
		<g>
			<g>
				<g>
					<g>
						<g>
							<g>
								<path d="M285.857,130.739c-0.131-0.06-0.259-0.119-0.381-0.176C285.614,130.6,285.74,130.662,285.857,130.739z"/>
							</g>
						</g>
					</g>
				</g>
			</g>
		</g>
	</g>
	<g>
		<g>
			<g>
				<g>
					<g>
						<g>
							<g>
								
									<rect x="121.721" y="319.523" transform="matrix(-1 -1.224647e-16 1.224647e-16 -1 268.1165 717.0899)" style="fill:#E0E0E0;" width="24.675" height="78.045"/>
							</g>
						</g>
					</g>
				</g>
			</g>
		</g>
		<g>
			<g>
				<g>
					<g>
						<g>
							<g>
								<path style="fill:#E0E0E0;" d="M227.627,319.244c0,0-1.214-0.808,1.458-4.308c2.672-3.501-1.458-5.386-1.458-5.386
									c-11.661,6.732-27.938,0-27.938,0s19.192-5.924,21.621-11.578c1.814-4.224-1.385-4.691-3.121-4.658
									c1.959-0.204,6.201-0.898,7.494-3.151c1.701-2.963-4.979-6.463-4.979-6.463s1.092-1.616,0-4.577
									c-1.093-2.962-26.117-7.271-26.117-7.271c7.289,0.808,9.961-6.462,9.961-6.462s12.39,0.269,15.305-4.577
									c2.915-4.847-1.943-6.193-10.204-10.232c-8.26-4.039-26.48-19.118-26.48-19.118s11.418-1.077,14.576-3.77
									c3.158-2.692,0.243-3.231,0.243-3.231c13.605,1.346,8.989-5.923,8.989-5.923c-18.221-5.655-27.939-18.041-27.939-18.041
									s8.503-1.885,12.876-5.924c4.373-4.039-3.645-5.116-3.645-5.116s16.035-2.155,6.802-8.078
									c-7.017-4.503-18.243-10.56-21.732-12.38c3.825,1.405,12.501-0.276,12.501-0.276c10.204-4.577,0-11.309,0-11.309
									c-11.904-6.731-29.396-23.695-29.396-23.695s8.746,4.577,13.119,3.231c4.373-1.346-4.859-6.732-4.859-6.732
									s4.616,1.346,6.559,0c1.943-1.346-5.102-7.539-5.102-7.539c-10.473-6.805-23.383-24.664-28.783-32.335
									c-5.4,7.671-18.311,25.531-28.783,32.335c0,0-7.045,6.193-5.101,7.539c1.943,1.346,6.559,0,6.559,0
									s-9.232,5.386-4.858,6.732c4.373,1.346,13.119-3.231,13.119-3.231s-17.492,16.964-29.396,23.695c0,0-10.204,6.732,0,11.309
									c0,0,8.676,1.682,12.5,0.276c-3.489,1.82-14.715,7.877-21.732,12.38c-9.232,5.924,6.802,8.078,6.802,8.078
									s-8.017,1.077-3.644,5.116c4.373,4.039,12.876,5.924,12.876,5.924s-9.718,12.386-27.939,18.041c0,0-4.616,7.27,8.989,5.923
									c0,0-2.915,0.539,0.243,3.231c3.158,2.693,14.577,3.77,14.577,3.77s-18.221,15.079-26.481,19.118
									c-8.26,4.039-13.119,5.385-10.204,10.232c2.916,4.846,15.305,4.577,15.305,4.577s2.672,7.271,9.96,6.462
									c0,0-25.024,4.308-26.116,7.271c-1.093,2.962,0,4.577,0,4.577s-6.68,3.5-4.979,6.463c1.293,2.253,5.535,2.947,7.494,3.151
									c-1.737-0.034-4.935,0.434-3.121,4.658c2.429,5.655,21.622,11.578,21.622,11.578s-16.277,6.732-27.938,0
									c0,0-4.13,1.885-1.458,5.386c2.673,3.5,1.458,4.308,1.458,4.308s-6.074-4.577-3.401,2.423
									c2.671,7.001,16.762,11.309,16.762,11.309s-8.017,1.346-5.588,5.655c2.429,4.308,12.633,9.424,23.808,10.501
									c11.175,1.077,26.238-2.962,26.238-2.962s-10.204,5.385-3.159,8.347c7.046,2.962,15.063-3.77,15.063-3.77
									s-1.458,6.892,4.373,4.523c5.831-2.369,10.69-6.946,10.69-6.946s1.821,10.156,5.461,7.726
									c3.641,2.43,5.461-7.726,5.461-7.726s4.859,4.577,10.69,6.946c5.831,2.368,4.373-4.523,4.373-4.523s8.017,6.732,15.062,3.77
									c7.045-2.962-3.158-8.347-3.158-8.347s15.062,4.039,26.238,2.962c11.175-1.077,21.378-6.193,23.808-10.501
									c2.429-4.308-5.588-5.655-5.588-5.655s14.091-4.308,16.763-11.309C233.701,314.666,227.627,319.244,227.627,319.244z"/>
							</g>
						</g>
					</g>
				</g>
			</g>
		</g>
		<g>
			<g>
				<g>
					<g>
						<g>
							<g>
								<path style="fill:#E0E0E0;" d="M172.879,158.231c-0.132-0.06-0.259-0.119-0.381-0.176
									C172.636,158.093,172.762,158.155,172.879,158.231z"/>
							</g>
						</g>
					</g>
				</g>
			</g>
		</g>
	</g>
	<g>
		<g>
			<g>
				<g>
					<g>
						<g>
							<g>
								
									<rect x="438.499" y="326.054" transform="matrix(-1 -1.224647e-16 1.224647e-16 -1 900.1064 725.1945)" style="fill:#E0E0E0;" width="23.108" height="73.086"/>
							</g>
						</g>
					</g>
				</g>
			</g>
		</g>
		<g>
			<g>
				<g>
					<g>
						<g>
							<g>
								<path style="fill:#E0E0E0;" d="M537.678,325.793c0,0-1.137-0.757,1.365-4.034c2.502-3.279-1.365-5.044-1.365-5.044
									c-10.92,6.305-26.163,0-26.163,0s17.973-5.547,20.248-10.843c1.699-3.955-1.297-4.393-2.922-4.362
									c1.834-0.191,5.807-0.841,7.018-2.951c1.593-2.774-4.663-6.052-4.663-6.052s1.022-1.513,0-4.286
									c-1.023-2.774-24.458-6.809-24.458-6.809c6.826,0.757,9.328-6.052,9.328-6.052s11.602,0.252,14.333-4.286
									c2.73-4.539-1.82-5.8-9.555-9.582c-7.735-3.783-24.798-17.903-24.798-17.903s10.693-1.009,13.65-3.531
									c2.958-2.521,0.228-3.026,0.228-3.026c12.74,1.261,8.418-5.547,8.418-5.547c-17.063-5.296-26.164-16.895-26.164-16.895
									s7.963-1.765,12.058-5.548c4.095-3.782-3.413-4.791-3.413-4.791s15.016-2.018,6.37-7.565
									c-6.571-4.217-17.083-9.889-20.352-11.593c3.582,1.316,11.707-0.259,11.707-0.259c9.555-4.286,0-10.591,0-10.591
									c-11.148-6.303-27.528-22.189-27.528-22.189s8.19,4.286,12.286,3.025c4.095-1.261-4.55-6.304-4.55-6.304
									s4.323,1.261,6.143,0c1.82-1.261-4.778-7.06-4.778-7.06c-9.807-6.372-21.897-23.097-26.955-30.281
									c-5.057,7.184-17.148,23.909-26.955,30.281c0,0-6.597,5.799-4.777,7.06c1.82,1.261,6.142,0,6.142,0s-8.645,5.044-4.55,6.304
									c4.095,1.261,12.285-3.025,12.285-3.025s-16.381,15.886-27.528,22.189c0,0-9.555,6.305,0,10.591
									c0,0,8.124,1.575,11.706,0.259c-3.268,1.704-13.78,7.376-20.351,11.593c-8.646,5.547,6.37,7.565,6.37,7.565
									s-7.508,1.008-3.412,4.791c4.095,3.782,12.058,5.548,12.058,5.548s-9.1,11.599-26.164,16.895c0,0-4.322,6.808,8.418,5.547
									c0,0-2.73,0.504,0.228,3.026c2.957,2.522,13.651,3.531,13.651,3.531s-17.063,14.121-24.798,17.903
									c-7.735,3.782-12.285,5.043-9.555,9.582c2.731,4.539,14.333,4.286,14.333,4.286s2.502,6.809,9.327,6.052
									c0,0-23.434,4.035-24.457,6.809c-1.023,2.773,0,4.286,0,4.286s-6.255,3.278-4.663,6.052c1.211,2.109,5.184,2.76,7.018,2.951
									c-1.626-0.031-4.622,0.406-2.923,4.362c2.275,5.295,20.248,10.843,20.248,10.843s-15.243,6.305-26.163,0
									c0,0-3.868,1.765-1.366,5.044c2.503,3.278,1.366,4.034,1.366,4.034s-5.688-4.286-3.185,2.269
									c2.501,6.556,15.697,10.591,15.697,10.591s-7.508,1.261-5.233,5.296c2.275,4.035,11.83,8.826,22.296,9.834
									c10.465,1.008,24.571-2.774,24.571-2.774s-9.555,5.043-2.958,7.817c6.598,2.774,14.106-3.53,14.106-3.53
									s-1.365,6.454,4.095,4.236c5.46-2.219,10.01-6.505,10.01-6.505s1.705,9.51,5.114,7.235c3.41,2.275,5.115-7.235,5.115-7.235
									s4.55,4.286,10.01,6.505c5.46,2.218,4.095-4.236,4.095-4.236s7.508,6.304,14.105,3.53c6.598-2.773-2.958-7.817-2.958-7.817
									s14.105,3.782,24.57,2.774c10.465-1.009,20.02-5.8,22.295-9.834c2.275-4.035-5.233-5.296-5.233-5.296
									s13.195-4.034,15.698-10.591C543.365,321.506,537.678,325.793,537.678,325.793z"/>
							</g>
						</g>
					</g>
				</g>
			</g>
		</g>
		<g>
			<g>
				<g>
					<g>
						<g>
							<g>
								<path style="fill:#E0E0E0;" d="M486.408,175.01c-0.123-0.056-0.243-0.111-0.357-0.165
									C486.18,174.88,486.298,174.939,486.408,175.01z"/>
							</g>
						</g>
					</g>
				</g>
			</g>
		</g>
	</g>
	<g>
		<g>
			<g>
				<g>
					<g>
						<g>
							<g>
								
									<rect x="630.037" y="335.129" transform="matrix(-1 -1.224647e-16 1.224647e-16 -1 1279.8145 732.6958)" style="fill:#E0E0E0;" width="19.741" height="62.439"/>
							</g>
						</g>
					</g>
				</g>
			</g>
		</g>
		<g>
			<g>
				<g>
					<g>
						<g>
							<g>
								<path style="fill:#E0E0E0;" d="M714.766,334.905c0,0-0.971-0.646,1.166-3.447c2.138-2.801-1.166-4.309-1.166-4.309
									c-9.329,5.386-22.351,0-22.351,0s15.354-4.739,17.298-9.263c1.452-3.379-1.108-3.753-2.497-3.726
									c1.567-0.163,4.961-0.719,5.995-2.521c1.361-2.37-3.983-5.17-3.983-5.17s0.873-1.293,0-3.662
									c-0.874-2.37-20.895-5.817-20.895-5.817c5.831,0.647,7.969-5.17,7.969-5.17s9.912,0.215,12.245-3.662
									c2.332-3.878-1.555-4.955-8.163-8.186c-6.608-3.232-21.185-15.295-21.185-15.295s9.135-0.862,11.661-3.017
									c2.527-2.154,0.195-2.585,0.195-2.585c10.884,1.077,7.191-4.739,7.191-4.739c-14.577-4.524-22.352-14.434-22.352-14.434
									s6.803-1.508,10.302-4.739c3.498-3.231-2.916-4.093-2.916-4.093s12.828-1.724,5.442-6.463
									c-5.614-3.602-14.595-8.448-17.387-9.904c3.06,1.124,10.001-0.221,10.001-0.221c8.163-3.662,0-9.048,0-9.048
									c-9.524-5.385-23.518-18.957-23.518-18.957s6.997,3.662,10.496,2.585c3.498-1.077-3.887-5.386-3.887-5.386
									s3.693,1.077,5.248,0c1.555-1.077-4.082-6.031-4.082-6.031c-8.378-5.444-18.707-19.732-23.028-25.87
									c-4.321,6.137-14.65,20.426-23.028,25.87c0,0-5.636,4.954-4.081,6.031c1.555,1.077,5.247,0,5.247,0
									s-7.386,4.309-3.887,5.386c3.498,1.077,10.495-2.585,10.495-2.585s-13.994,13.572-23.518,18.957c0,0-8.163,5.386,0,9.048
									c0,0,6.941,1.345,10.001,0.221c-2.792,1.456-11.773,6.302-17.386,9.904c-7.386,4.739,5.442,6.463,5.442,6.463
									s-6.414,0.862-2.915,4.093c3.498,3.231,10.301,4.739,10.301,4.739s-7.774,9.909-22.352,14.434c0,0-3.693,5.816,7.191,4.739
									c0,0-2.332,0.431,0.194,2.585c2.526,2.155,11.662,3.017,11.662,3.017s-14.577,12.063-21.186,15.295
									c-6.608,3.231-10.495,4.308-8.163,8.186c2.333,3.877,12.245,3.662,12.245,3.662s2.138,5.817,7.968,5.17
									c0,0-20.02,3.447-20.894,5.817c-0.874,2.369,0,3.662,0,3.662s-5.344,2.8-3.984,5.17c1.035,1.802,4.429,2.358,5.995,2.521
									c-1.389-0.027-3.948,0.347-2.497,3.726c1.943,4.524,17.298,9.263,17.298,9.263s-13.023,5.386-22.352,0
									c0,0-3.304,1.508-1.167,4.309c2.138,2.8,1.167,3.447,1.167,3.447s-4.859-3.662-2.721,1.939
									c2.137,5.601,13.41,9.048,13.41,9.048s-6.414,1.077-4.471,4.524c1.943,3.447,10.107,7.54,19.047,8.401
									c8.941,0.862,20.991-2.37,20.991-2.37s-8.163,4.308-2.527,6.678c5.637,2.37,12.051-3.016,12.051-3.016
									s-1.166,5.513,3.498,3.619c4.665-1.896,8.552-5.557,8.552-5.557s1.457,8.125,4.369,6.181
									c2.913,1.944,4.369-6.181,4.369-6.181s3.887,3.662,8.552,5.557c4.665,1.895,3.499-3.619,3.499-3.619
									s6.414,5.385,12.05,3.016c5.637-2.369-2.527-6.678-2.527-6.678s12.05,3.231,20.991,2.37
									c8.941-0.862,17.104-4.955,19.047-8.401c1.944-3.447-4.471-4.524-4.471-4.524s11.273-3.447,13.411-9.048
									C719.625,331.243,714.766,334.905,714.766,334.905z"/>
							</g>
						</g>
					</g>
				</g>
			</g>
		</g>
		<g>
			<g>
				<g>
					<g>
						<g>
							<g>
								<path style="fill:#E0E0E0;" d="M670.966,206.089c-0.105-0.048-0.208-0.095-0.305-0.141
									C670.771,205.978,670.871,206.028,670.966,206.089z"/>
							</g>
						</g>
					</g>
				</g>
			</g>
		</g>
	</g>
	<g>
		<g>
			<g>
				<g>
					<g>
						<g>
							<g>
								
									<rect x="523.581" y="308.268" transform="matrix(-1 -1.224647e-16 1.224647e-16 -1 1075.3955 705.8352)" style="fill:#EBEBEB;" width="28.234" height="89.299"/>
							</g>
						</g>
					</g>
				</g>
			</g>
		</g>
		<g>
			<g>
				<g>
					<g>
						<g>
							<g>
								<path style="fill:#EBEBEB;" d="M644.76,307.949c0,0-1.389-0.924,1.668-4.929c3.058-4.006-1.668-6.162-1.668-6.162
									c-13.342,7.703-31.967,0-31.967,0s21.96-6.778,24.739-13.248c2.076-4.833-1.584-5.368-3.571-5.329
									c2.241-0.233,7.095-1.028,8.574-3.605c1.946-3.39-5.697-7.395-5.697-7.395s1.249-1.849,0-5.237
									c-1.25-3.389-29.884-8.319-29.884-8.319c8.34,0.925,11.397-7.394,11.397-7.394s14.176,0.308,17.512-5.237
									c3.336-5.546-2.224-7.087-11.675-11.708c-9.451-4.622-30.299-21.875-30.299-21.875s13.064-1.233,16.678-4.314
									c3.614-3.081,0.278-3.697,0.278-3.697c15.566,1.54,10.285-6.778,10.285-6.778c-20.848-6.47-31.968-20.643-31.968-20.643
									s9.729-2.157,14.733-6.778c5.003-4.621-4.17-5.853-4.17-5.853s18.347-2.466,7.783-9.243
									c-8.029-5.152-20.873-12.082-24.866-14.165c4.376,1.608,14.303-0.316,14.303-0.316c11.675-5.237,0-12.94,0-12.94
									c-13.621-7.702-33.635-27.112-33.635-27.112s10.007,5.237,15.011,3.697c5.003-1.54-5.56-7.703-5.56-7.703
									s5.282,1.54,7.505,0c2.224-1.541-5.838-8.626-5.838-8.626c-11.983-7.786-26.755-28.221-32.934-36.999
									c-6.179,8.777-20.952,29.213-32.934,36.999c0,0-8.06,7.086-5.837,8.626c2.224,1.54,7.505,0,7.505,0
									s-10.563,6.162-5.559,7.703c5.003,1.541,15.01-3.697,15.01-3.697s-20.014,19.41-33.635,27.112c0,0-11.675,7.703,0,12.94
									c0,0,9.927,1.924,14.303,0.316c-3.992,2.082-16.837,9.013-24.865,14.165c-10.564,6.778,7.783,9.243,7.783,9.243
									s-9.173,1.232-4.169,5.853c5.003,4.621,14.733,6.778,14.733,6.778s-11.119,14.172-31.968,20.643
									c0,0-5.281,8.318,10.285,6.778c0,0-3.335,0.616,0.278,3.697c3.613,3.081,16.679,4.314,16.679,4.314
									s-20.848,17.253-30.299,21.875c-9.451,4.621-15.01,6.161-11.675,11.708c3.336,5.545,17.513,5.237,17.513,5.237
									s3.057,8.319,11.396,7.394c0,0-28.633,4.93-29.883,8.319c-1.25,3.389,0,5.237,0,5.237s-7.643,4.005-5.697,7.395
									c1.48,2.577,6.334,3.372,8.575,3.605c-1.987-0.038-5.647,0.497-3.571,5.329c2.78,6.47,24.74,13.248,24.74,13.248
									s-18.625,7.703-31.967,0c0,0-4.726,2.157-1.669,6.162c3.058,4.005,1.669,4.929,1.669,4.929s-6.95-5.237-3.891,2.773
									c3.056,8.011,19.18,12.94,19.18,12.94s-9.173,1.54-6.394,6.47c2.779,4.93,14.455,10.784,27.242,12.016
									c12.787,1.232,30.021-3.389,30.021-3.389s-11.675,6.162-3.614,9.551c8.062,3.389,17.235-4.313,17.235-4.313
									s-1.668,7.885,5.003,5.176c6.672-2.711,12.231-7.948,12.231-7.948s2.083,11.62,6.249,8.84c4.166,2.78,6.249-8.84,6.249-8.84
									s5.56,5.237,12.231,7.948c6.672,2.71,5.004-5.176,5.004-5.176s9.173,7.702,17.234,4.313
									c8.061-3.389-3.614-9.551-3.614-9.551s17.234,4.621,30.021,3.389c12.787-1.232,24.461-7.086,27.242-12.016
									c2.78-4.93-6.394-6.47-6.394-6.47s16.123-4.929,19.181-12.94C651.71,302.711,644.76,307.949,644.76,307.949z"/>
							</g>
						</g>
					</g>
				</g>
			</g>
		</g>
		<g>
			<g>
				<g>
					<g>
						<g>
							<g>
								<path style="fill:#EBEBEB;" d="M582.117,123.717c-0.15-0.069-0.297-0.136-0.436-0.201
									C581.839,123.558,581.983,123.629,582.117,123.717z"/>
							</g>
						</g>
					</g>
				</g>
			</g>
		</g>
	</g>
</g>
<g id="Background_Simple" style="display:none;">
	<path style="display:inline;fill:#F5F5F5;" d="M150.155,148.861l1.192-3.484c10.052-29.37,35.07-51.229,65.473-55.903
		c3.908-0.601,7.861-0.92,11.825-0.939c28.544-0.137,56.785,15.283,72.404,39.534c9.186,14.263,14.719,31.789,28.394,41.711
		c17.798,12.913,42.157,8.104,63.331,2.769c21.174-5.336,45.563-10.085,63.306,2.907c11.112,8.136,17.083,21.861,19.325,35.527
		c5.935,36.18-11.979,73.618-40.19,96.457c-28.211,22.839-65.214,32.438-101.432,33.045c-50.737,0.851-102.84-15.924-139.719-51.386
		S137.756,198.573,150.155,148.861z"/>
	
		<ellipse transform="matrix(0.9023 -0.4311 0.4311 0.9023 0.8023 244.8062)" style="display:inline;fill:#F5F5F5;" cx="540.458" cy="120.633" rx="40.993" ry="40.994"/>
</g>
<g id="Floor">
	<g>
		<g>
			<path style="fill:#263238;" d="M702.117,399.267c0,0.144-146.467,0.26-327.102,0.26c-180.697,0-327.133-0.117-327.133-0.26
				c0-0.144,146.436-0.26,327.133-0.26C555.65,399.006,702.117,399.123,702.117,399.267z"/>
		</g>
	</g>
</g>
<g id="Plants">
	<g>
		<g>
			<g>
				<path style="fill:#455A64;" d="M340.749,394.855l1.465-1.734l11.939,4.99l-10.213-7.349l2.928-2.69l10.199,8.764l-7.722-10.77
					l3.551-2.927l8.154,12.826l-6.525-14.5l1.818-1.26l8.767,12.066l-6.005-13.542l2.778-1.132c0,0,10.935,14.387,11.207,14.387
					c0.272,0-8.411-15.579-8.411-15.579l3.858-1.447l8.435,13.445l-3.166-14.763l4.893-0.525l4.32,19.656l-1.317-19.609l3.883,0.047
					l0.115,18.597l5.491-17.759l1.815,0.356l-3.391,19.132l8.029-17.441l0.945,0.068l-6.698,18.14l9.766-16.871l4.764,1.472
					l-7.712,17.519l11.661-15.064l3.546,1.864l-8.237,12.574l12.2-9.605l1.81,1.764l-8.398,8.297l10.924-5.978l2.897,2.503
					l-7.555,4.712l9.141-1.387c0,0,0.524,1.23,1.429,3.165H338.24l0,0C338.653,397.668,339.469,396.527,340.749,394.855z"/>
			</g>
		</g>
	</g>
	<g>
		<g>
			<g>
				<path style="fill:#455A64;" d="M86.627,452.804l1.465-1.734l11.939,4.99l-10.213-7.349l2.928-2.69l10.199,8.764l-7.722-10.77
					l3.551-2.927l8.154,12.827l-6.525-14.5l1.818-1.26l8.767,12.066l-6.006-13.542l2.778-1.132c0,0,10.936,14.387,11.207,14.387
					c0.272,0-8.411-15.579-8.411-15.579l3.858-1.447l8.435,13.445l-3.166-14.764l4.893-0.525l4.32,19.656l-1.317-19.609l3.883,0.047
					l0.115,18.597l5.491-17.759l1.815,0.356l-3.391,19.132l8.029-17.441l0.945,0.068l-6.698,18.14l9.766-16.871l4.764,1.472
					l-7.712,17.519l11.661-15.064l3.547,1.864l-8.237,12.574l12.2-9.605l1.81,1.764l-8.398,8.297l10.924-5.978l2.897,2.503
					l-7.555,4.712l9.141-1.387c0,0,0.524,1.23,1.43,3.165H84.118l0,0C84.531,455.617,85.347,454.476,86.627,452.804z"/>
			</g>
		</g>
	</g>
	<g>
		<g>
			<g>
				<path style="fill:#455A64;" d="M508.679,463.601l2.018-2.387l16.437,6.87l-14.06-10.118l4.031-3.703l14.042,12.066
					l-10.631-14.827l4.889-4.029l11.225,17.659l-8.983-19.963l2.503-1.735l12.07,16.612l-8.268-18.644l3.824-1.559
					c0,0,15.055,19.807,15.429,19.807s-11.58-21.448-11.58-21.448l5.311-1.992l11.613,18.51l-4.359-20.326l6.736-0.722l5.947,27.062
					l-1.813-26.997l5.345,0.064l0.158,25.604l7.56-24.451l2.498,0.491l-4.668,26.34l11.054-24.012l1.302,0.094l-9.221,24.975
					l13.445-23.228l6.558,2.026l-10.618,24.119l16.054-20.739l4.883,2.566l-11.341,17.311l16.796-13.224l2.492,2.428l-11.562,11.422
					l15.04-8.23l3.988,3.447l-10.401,6.488l12.584-1.909c0,0,0.722,1.694,1.968,4.357H505.225l0,0
					C505.793,467.473,506.917,465.903,508.679,463.601z"/>
			</g>
		</g>
	</g>
	<g>
		<g>
			<g>
				<g>
					<g>
						<g>
							<g>
								<path style="fill:#FF725E;" d="M394.319,424.587c1.89,0.5,3.443,1.942,4.373,3.661c0.93,1.72,1.291,3.698,1.365,5.651
									c0.143,3.78-1.4,7.852-3.223,11.166c-3.544-2.256-4.987-6.911-5.57-9.318C390.341,431.942,390.985,424.505,394.319,424.587"
									/>
							</g>
						</g>
					</g>
				</g>
			</g>
		</g>
		<g>
			<g>
				<g>
					<g>
						<g>
							<g>
								<path style="fill:#FF725E;" d="M401.402,450.647c-0.82-2.024-0.295-4.461,1.099-6.142c1.394-1.681,3.554-2.631,5.732-2.793
									c1.007-0.075,2.127,0.052,2.821,0.785c0.649,0.685,0.752,1.764,0.445,2.657c-0.307,0.893-0.961,1.625-1.677,2.241
									C407.37,449.508,404.608,451.102,401.402,450.647"/>
							</g>
						</g>
					</g>
				</g>
			</g>
		</g>
		<g>
			<g>
				<g>
					<g>
						<g>
							<g>
								<g>
									<path style="fill:#263238;" d="M399.118,462.651c-0.02-0.001-0.018-0.279-0.004-0.78c0.017-0.552,0.039-1.265,0.065-2.121
										c0.084-1.777,0.154-4.315,1.13-6.916c0.959-2.593,2.543-4.635,3.968-5.746c0.706-0.565,1.342-0.935,1.8-1.146
										c0.224-0.115,0.412-0.175,0.534-0.225c0.124-0.046,0.191-0.066,0.194-0.058c0.031,0.057-1.045,0.424-2.404,1.579
										c-1.368,1.128-2.892,3.144-3.835,5.693c-0.958,2.548-1.06,5.055-1.193,6.83c-0.058,0.893-0.106,1.618-0.152,2.117
										C399.175,462.377,399.137,462.652,399.118,462.651z"/>
								</g>
							</g>
						</g>
					</g>
				</g>
			</g>
		</g>
		<g>
			<g>
				<g>
					<g>
						<g>
							<g>
								<g>
									<path style="fill:#263238;" d="M394.329,430.294c0.009-0.002,0.039,0.111,0.089,0.328c0.052,0.245,0.119,0.56,0.202,0.949
										c0.171,0.825,0.402,2.022,0.676,3.504c0.548,2.963,1.248,7.067,1.919,11.616c0.67,4.551,1.183,8.683,1.512,11.678
										c0.165,1.498,0.288,2.711,0.363,3.55c0.033,0.397,0.059,0.717,0.08,0.967c0.015,0.221,0.019,0.338,0.009,0.339
										c-0.009,0.001-0.031-0.114-0.064-0.333c-0.034-0.249-0.077-0.567-0.131-0.962c-0.111-0.87-0.263-2.07-0.449-3.539
										c-0.379-2.988-0.922-7.113-1.591-11.661c-0.67-4.546-1.34-8.652-1.839-11.622c-0.245-1.46-0.445-2.654-0.59-3.518
										c-0.062-0.393-0.112-0.711-0.152-0.958C394.332,430.412,394.32,430.296,394.329,430.294z"/>
								</g>
							</g>
						</g>
					</g>
				</g>
			</g>
		</g>
		<g>
			<g>
				<g>
					<g>
						<g>
							<g>
								<path style="fill:#FF725E;" d="M396.332,453.731c-1.394-4.388-5.042-7.993-9.446-9.337
									c-1.122-0.342-2.537-0.462-3.278,0.446c-0.743,0.91-0.338,2.279,0.248,3.297c2.436,4.237,7.626,6.701,12.449,5.911"/>
							</g>
						</g>
					</g>
				</g>
			</g>
		</g>
		<g>
			<g>
				<g>
					<g>
						<g>
							<g>
								<g>
									<path style="fill:#263238;" d="M387.928,447.842c0.006-0.018,0.257,0.05,0.708,0.189c0.226,0.068,0.503,0.152,0.811,0.286
										c0.308,0.133,0.673,0.253,1.046,0.454c0.378,0.189,0.798,0.388,1.218,0.657c0.435,0.244,0.869,0.553,1.324,0.88
										c0.891,0.677,1.811,1.508,2.641,2.504c0.82,1.004,1.465,2.064,1.956,3.071c0.23,0.512,0.45,0.997,0.6,1.473
										c0.179,0.466,0.288,0.917,0.393,1.327c0.121,0.406,0.159,0.79,0.223,1.119c0.066,0.329,0.088,0.618,0.104,0.854
										c0.037,0.471,0.048,0.731,0.029,0.732c-0.062,0.007-0.112-1.04-0.543-2.656c-0.116-0.401-0.234-0.844-0.419-1.299
										c-0.156-0.466-0.381-0.94-0.613-1.44c-0.495-0.984-1.134-2.02-1.939-3.006c-0.815-0.978-1.713-1.799-2.582-2.477
										c-0.443-0.328-0.866-0.639-1.29-0.888c-0.409-0.273-0.818-0.479-1.186-0.677
										C388.916,448.185,387.909,447.898,387.928,447.842z"/>
								</g>
							</g>
						</g>
					</g>
				</g>
			</g>
		</g>
	</g>
	<g>
		<g>
			<g>
				<path style="fill:#263238;" d="M289.081,468.309c-0.108,0.095-2.65-2.608-5.677-6.037c-3.028-3.43-5.395-6.287-5.287-6.382
					c0.108-0.095,2.649,2.607,5.677,6.037C286.822,465.356,289.189,468.213,289.081,468.309z"/>
			</g>
		</g>
		<g>
			<g>
				<path style="fill:#263238;" d="M291.965,467.663c-0.047,0.04-0.608-0.502-1.331-1.531c-0.724-1.025-1.572-2.564-2.167-4.396
					c-0.591-1.834-0.806-3.578-0.82-4.833c-0.017-1.258,0.12-2.026,0.181-2.021c0.17-0.004-0.048,3.113,1.135,6.693
					C290.101,465.168,292.105,467.566,291.965,467.663z"/>
			</g>
		</g>
		<g>
			<g>
				<path style="fill:#263238;" d="M299.683,451.675c0.071,0.062-0.566,0.781-1.317,2.107c-0.755,1.32-1.544,3.301-1.821,5.606
					c-0.265,2.308,0.043,4.418,0.472,5.877c0.423,1.464,0.876,2.311,0.793,2.355c-0.031,0.017-0.167-0.181-0.388-0.558
					c-0.229-0.372-0.493-0.949-0.756-1.686c-0.532-1.469-0.914-3.657-0.638-6.049c0.286-2.39,1.165-4.43,2.023-5.735
					c0.426-0.656,0.817-1.156,1.126-1.465C299.479,451.812,299.657,451.651,299.683,451.675z"/>
			</g>
		</g>
	</g>
	<g>
		<g>
			<g>
				<path style="fill:#263238;" d="M690.107,451.346c-0.108,0.095-2.65-2.608-5.677-6.037c-3.028-3.43-5.395-6.287-5.287-6.382
					c0.108-0.095,2.649,2.607,5.677,6.037C687.848,448.394,690.215,451.251,690.107,451.346z"/>
			</g>
		</g>
		<g>
			<g>
				<path style="fill:#263238;" d="M692.991,450.701c-0.047,0.04-0.608-0.502-1.331-1.531c-0.724-1.025-1.572-2.564-2.168-4.396
					c-0.591-1.834-0.806-3.578-0.82-4.833c-0.017-1.258,0.12-2.025,0.181-2.021c0.17-0.004-0.048,3.114,1.135,6.693
					C691.127,448.206,693.131,450.604,692.991,450.701z"/>
			</g>
		</g>
		<g>
			<g>
				<path style="fill:#263238;" d="M700.709,434.713c0.071,0.062-0.566,0.781-1.317,2.107c-0.755,1.32-1.544,3.301-1.821,5.607
					c-0.265,2.308,0.043,4.418,0.472,5.877c0.423,1.464,0.876,2.311,0.792,2.355c-0.031,0.017-0.167-0.181-0.388-0.558
					c-0.229-0.372-0.494-0.949-0.756-1.686c-0.532-1.469-0.914-3.657-0.638-6.049c0.286-2.39,1.165-4.43,2.023-5.735
					c0.426-0.656,0.817-1.156,1.126-1.465C700.505,434.85,700.683,434.689,700.709,434.713z"/>
			</g>
		</g>
	</g>
	<g>
		<g>
			<g>
				<path style="fill:#263238;" d="M36.793,439.87c-0.108,0.095-2.65-2.608-5.677-6.037c-3.028-3.43-5.395-6.287-5.287-6.382
					c0.108-0.095,2.649,2.607,5.677,6.037C34.534,436.917,36.901,439.775,36.793,439.87z"/>
			</g>
		</g>
		<g>
			<g>
				<path style="fill:#263238;" d="M39.677,439.224c-0.047,0.04-0.608-0.502-1.331-1.531c-0.724-1.025-1.572-2.564-2.167-4.396
					c-0.591-1.834-0.806-3.578-0.82-4.833c-0.017-1.258,0.12-2.025,0.181-2.021c0.17-0.004-0.048,3.114,1.135,6.693
					C37.813,436.729,39.817,439.128,39.677,439.224z"/>
			</g>
		</g>
		<g>
			<g>
				<path style="fill:#263238;" d="M47.395,423.236c0.071,0.062-0.566,0.781-1.317,2.107c-0.755,1.32-1.544,3.301-1.821,5.607
					c-0.265,2.308,0.043,4.418,0.472,5.877c0.423,1.464,0.876,2.311,0.793,2.355c-0.031,0.017-0.167-0.181-0.388-0.558
					c-0.229-0.372-0.493-0.949-0.756-1.686c-0.532-1.469-0.914-3.657-0.638-6.049c0.286-2.39,1.165-4.43,2.023-5.735
					c0.426-0.656,0.817-1.156,1.126-1.465C47.19,423.373,47.368,423.212,47.395,423.236z"/>
			</g>
		</g>
	</g>
</g>
<g id="Sun">
	<g>
		<g>
			<g>
				<circle style="fill-rule:evenodd;clip-rule:evenodd;fill:#FF725E;" cx="362.4" cy="97.733" r="28.759"/>
			</g>
			<g style="opacity:0.9;">
				<circle style="fill-rule:evenodd;clip-rule:evenodd;fill:#FFFFFF;" cx="362.4" cy="97.733" r="28.759"/>
			</g>
		</g>
		<g>
			<g>
				<circle style="fill-rule:evenodd;clip-rule:evenodd;fill:#FF725E;" cx="362.4" cy="97.733" r="25.649"/>
			</g>
			<g style="opacity:0.6;">
				<circle style="fill-rule:evenodd;clip-rule:evenodd;fill:#FFFFFF;" cx="362.4" cy="97.733" r="25.649"/>
			</g>
		</g>
		<g>
			<g>
				<circle style="fill-rule:evenodd;clip-rule:evenodd;fill:#FF725E;" cx="362.401" cy="97.733" r="21.343"/>
			</g>
			<g style="opacity:0.3;">
				<circle style="fill-rule:evenodd;clip-rule:evenodd;fill:#FFFFFF;" cx="362.401" cy="97.733" r="21.343"/>
			</g>
		</g>
		<g>
			<circle style="fill-rule:evenodd;clip-rule:evenodd;fill:#FF725E;" cx="362.401" cy="97.733" r="17.089"/>
		</g>
	</g>
</g>
<g id="Bears_3">
	<g>
		<g>
			<path style="fill:#FF725E;" d="M401.498,267.611c1.572-3.678,4.735-6.5,8.353-7.92c2.719-1.067,5.838-1.366,8.5-0.152
				c3.425,1.561,5.529,5.442,5.816,9.325c0.287,3.882-1.003,7.734-2.849,11.12l-9.063,3.601c-3.77,0.893-7.913-1.059-10.041-4.42
				C400.086,275.804,399.927,271.289,401.498,267.611z"/>
		</g>
		<g>
			<path style="fill:#FF725E;" d="M371.739,307.456c0,0,5.186-1.65,9.395-6.387c7.66-8.621,10.244-18.561,23.357-24.306l9.425-3.093
				c0,0,0.41-6.187,4.917-7.513s6.147,2.652,6.147,2.652s23.358-6.629,40.568-15.909c17.211-9.281,25.816-17.677,52.452-19.445
				c26.636-1.768,48.354-5.745,63.106-11.048c14.752-5.303,74.99-26.074,104.904,20.77c0,0,17.366-0.533,20.337,11.139
				c4.771,18.743-9.246,22.201-9.246,22.201s4.301,11.736,3.776,34.275s-4.213,56.567,5.622,68.941
				c9.835,12.374,17.211,24.306,0,35.354c-17.211,11.048-30.734,15.467-34.422,7.955c-3.688-7.513,0-10.606,0-10.606l-22.948-19.887
				c0,0-11.064,22.096-18.03,23.864s-29.504-0.884-29.504-7.955s4.098-9.28,4.098-9.28l5.737-38.889c0,0-49.795,3.012-64.079,0.891
				c0,0,8.758,44.185,3.431,50.372c-5.327,6.187-18.85,11.49-22.538,7.513c-3.688-3.977-19.669-31.819-19.669-31.819
				s-22.128,41.541-33.602,43.309c-11.474,1.768-32.783-10.606-32.783-14.584c0-3.977,3.278-3.977,7.376-7.513
				c4.098-3.535,7.786-30.493,11.474-38.448l8.452-19.744c0,0-5.67-4.939-13.739-4.704c-8.069,0.235-47.863,2.399-58.985,1.929
				c-11.122-0.47-26.502-5.221-29.773-13.218c-3.271-7.996-5.888-15.522-4.143-20.696
				C364.597,308.402,371.739,307.456,371.739,307.456z"/>
		</g>
		<g>
			<g>
				<path style="fill:#FF725E;" d="M427.183,285.084c-0.038,0.007-0.14-0.426-0.326-1.203c-0.196-0.771-0.448-1.909-1.036-3.187
					c-0.568-1.26-1.645-2.693-3.411-3.236c-1.737-0.546-3.887-0.392-5.874,0.336c-2.002,0.736-3.589,2.182-4.371,3.844
					c-0.818,1.652-0.826,3.421-0.332,4.713c0.48,1.312,1.305,2.163,1.932,2.621c0.635,0.465,1.065,0.603,1.046,0.65
					c-0.006,0.017-0.115-0.008-0.319-0.072c-0.202-0.069-0.494-0.195-0.841-0.411c-0.688-0.425-1.604-1.277-2.162-2.657
					c-0.574-1.359-0.608-3.278,0.243-5.051c0.807-1.787,2.509-3.353,4.62-4.125c2.099-0.765,4.328-0.917,6.209-0.305
					c1.923,0.62,3.06,2.223,3.597,3.541c0.566,1.348,0.762,2.509,0.899,3.298C427.182,284.635,427.216,285.078,427.183,285.084z"/>
			</g>
		</g>
		<g>
			<g>
				<path style="fill:#263238;" d="M479.005,314.545c0.036,0.005-0.006,0.554-0.112,1.545c-0.102,0.991-0.29,2.42-0.557,4.182
					c-0.532,3.522-1.437,8.367-2.763,13.641c-1.33,5.276-2.827,9.972-4.03,13.325c-0.6,1.677-1.113,3.025-1.493,3.945
					c-0.377,0.922-0.601,1.426-0.635,1.413c-0.034-0.013,0.126-0.541,0.445-1.483c0.345-1.032,0.794-2.376,1.335-3.994
					c1.111-3.377,2.547-8.074,3.873-13.333c1.322-5.258,2.281-10.075,2.904-13.575c0.292-1.681,0.534-3.077,0.72-4.149
					C478.86,315.081,478.969,314.54,479.005,314.545z"/>
			</g>
		</g>
		<g>
			<g>
				<path style="fill:#263238;" d="M537.066,345.695c0.014,0.011-0.087,0.177-0.293,0.483c-0.244,0.35-0.549,0.788-0.922,1.323
					c-0.855,1.199-2.02,2.833-3.44,4.826c-2.906,4.074-6.888,9.723-11.178,16.038c-4.289,6.318-8.073,12.103-10.79,16.306
					c-1.329,2.055-2.419,3.74-3.219,4.976c-0.36,0.544-0.655,0.988-0.89,1.344c-0.208,0.304-0.325,0.46-0.341,0.45
					c-0.015-0.01,0.072-0.183,0.251-0.505c0.214-0.369,0.481-0.831,0.807-1.396c0.709-1.207,1.76-2.939,3.08-5.066
					c2.638-4.255,6.377-10.078,10.67-16.401c4.294-6.32,8.327-11.941,11.311-15.961c1.491-2.011,2.714-3.626,3.576-4.73
					c0.405-0.512,0.736-0.93,1-1.265C536.922,345.83,537.052,345.685,537.066,345.695z"/>
			</g>
		</g>
		<g>
			<g>
				<path style="fill:#263238;" d="M562.474,361.554c0.003,0.036-0.484,0.099-1.368,0.182c-0.884,0.088-2.167,0.164-3.754,0.21
					c-3.174,0.097-7.575-0.013-12.388-0.619c-4.815-0.608-9.106-1.592-12.16-2.459c-1.527-0.434-2.753-0.818-3.589-1.118
					c-0.838-0.294-1.295-0.472-1.284-0.507c0.011-0.034,0.489,0.079,1.344,0.313c0.852,0.239,2.091,0.569,3.624,0.956
					c3.067,0.772,7.343,1.693,12.13,2.298c4.786,0.602,9.156,0.77,12.318,0.767c1.581,0.001,2.863-0.019,3.747-0.044
					C561.98,361.512,562.471,361.518,562.474,361.554z"/>
			</g>
		</g>
		<g>
			<g>
				<path style="fill:#263238;" d="M630.358,352.374c0.022,0.028-0.263,0.28-0.802,0.714c-0.545,0.423-1.366,0.997-2.429,1.628
					c-2.125,1.258-5.237,2.708-8.832,3.834c-3.589,1.152-6.955,1.777-9.398,2.088c-1.225,0.144-2.217,0.237-2.907,0.255
					c-0.689,0.029-1.069,0.027-1.072-0.009c-0.006-0.087,1.508-0.221,3.926-0.611c2.414-0.402,5.737-1.079,9.293-2.22
					c3.562-1.116,6.661-2.496,8.809-3.658C629.098,353.232,630.303,352.302,630.358,352.374z"/>
			</g>
		</g>
		<g>
			<g>
				<path style="fill:#263238;" d="M653.154,396.326c-0.013,0.013-0.174-0.132-0.471-0.418c-0.332-0.33-0.756-0.752-1.281-1.273
					c-0.28-0.284-0.586-0.594-0.917-0.93c-0.32-0.36-0.664-0.747-1.032-1.16c-0.737-0.836-1.595-1.773-2.448-2.889
					c-0.438-0.551-0.895-1.127-1.37-1.726c-0.449-0.622-0.915-1.269-1.397-1.937c-0.992-1.321-1.906-2.833-2.923-4.386
					c-1.922-3.177-3.849-6.784-5.56-10.715c-1.704-3.936-2.981-7.824-3.98-11.399c-0.468-1.797-0.912-3.504-1.217-5.128
					c-0.363-1.611-0.59-3.132-0.806-4.519c-0.246-1.382-0.336-2.651-0.468-3.757c-0.136-1.106-0.192-2.064-0.228-2.848
					c-0.034-0.738-0.062-1.336-0.084-1.803c-0.013-0.412-0.012-0.629,0.006-0.63c0.018-0.001,0.051,0.214,0.098,0.624
					c0.047,0.465,0.107,1.059,0.181,1.793c0.067,0.779,0.152,1.732,0.315,2.831c0.159,1.099,0.274,2.36,0.542,3.732
					c0.239,1.377,0.485,2.887,0.865,4.487c0.321,1.612,0.779,3.306,1.257,5.09c1.02,3.548,2.302,7.408,3.996,11.32
					c1.701,3.907,3.602,7.499,5.491,10.671c1,1.551,1.895,3.063,2.867,4.388c0.471,0.671,0.927,1.32,1.366,1.945
					c0.464,0.603,0.91,1.183,1.337,1.738c0.831,1.125,1.666,2.074,2.379,2.926c0.355,0.422,0.688,0.817,0.997,1.185
					c0.318,0.346,0.612,0.665,0.881,0.958c0.494,0.548,0.895,0.991,1.208,1.338C653.03,396.144,653.167,396.314,653.154,396.326z"/>
			</g>
		</g>
		<g>
			<path style="fill:#FFBF9D;" d="M387.641,346.47c-1.112,0.75-16.953-4.894-19.875-7.882c-7.983-8.163-7.518-20.004-5.982-25.14
				c1.536-5.135,8.713-6.411,8.713-6.411s5.069-0.989,8.346-3.736c2.63,0.415,5.827,2.204,6.524,2.784c0,0,4.579,1.941,7.827,12.641
				c1.614,5.314,1.858,10.44,1.763,13.882C394.956,332.608,394.881,346.47,387.641,346.47z"/>
		</g>
		<g>
			<g>
				<path style="fill:#263238;" d="M408.971,276.179c-0.02-0.03,0.242-0.237,0.735-0.586c0.49-0.352,1.223-0.826,2.148-1.38
					c1.848-1.11,4.505-2.488,7.581-3.674c3.078-1.183,5.974-1.941,8.09-2.353c1.058-0.208,1.92-0.346,2.52-0.411
					c0.599-0.07,0.932-0.091,0.938-0.056c0.013,0.081-1.295,0.323-3.378,0.827c-2.083,0.502-4.933,1.308-7.983,2.48
					c-3.047,1.175-5.703,2.487-7.586,3.508C410.151,275.553,409.016,276.247,408.971,276.179z"/>
			</g>
		</g>
		<g>
			<g>
				<g>
					<path style="fill:#FF725E;" d="M435.003,294.145c3.439-0.792,6.839-2.283,9.265-4.941c2.426-2.658,3.705-6.638,2.592-10.118
						c-0.865-2.704-3.032-4.786-5.465-6.093c-3.236-1.738-7.127-2.261-10.589-1.085c-3.461,1.176-6.393,4.141-7.307,7.81
						c-0.914,3.67,0.389,7.918,3.367,10.099"/>
				</g>
				<g>
					<g>
						<path style="fill:#263238;" d="M426.867,289.818c0,0-0.832-0.407-1.826-1.699c-0.979-1.261-2.084-3.505-2-6.447
							c0.046-1.455,0.433-3.054,1.259-4.562c0.82-1.507,2.054-2.93,3.647-4.026c1.585-1.101,3.554-1.842,5.651-2.012
							c2.095-0.183,4.301,0.145,6.365,0.972c2.065,0.817,3.916,2.074,5.284,3.684c1.378,1.599,2.18,3.608,2.243,5.554
							c0.085,1.947-0.423,3.773-1.184,5.303c-0.757,1.543-1.821,2.778-2.908,3.732c-2.212,1.904-4.456,2.75-5.971,3.246
							c-0.766,0.247-1.375,0.387-1.787,0.48c-0.415,0.083-0.634,0.119-0.638,0.101c-0.004-0.017,0.207-0.087,0.612-0.203
							c0.402-0.126,0.999-0.296,1.747-0.57c1.481-0.549,3.671-1.44,5.791-3.329c1.044-0.948,2.05-2.151,2.765-3.648
							c0.717-1.483,1.186-3.241,1.092-5.088c-0.074-1.845-0.833-3.724-2.152-5.247c-1.309-1.532-3.093-2.742-5.088-3.531
							c-3.983-1.626-8.509-1.204-11.553,0.952c-3.104,2.088-4.717,5.41-4.808,8.207c-0.129,2.836,0.887,5.043,1.795,6.311
							C426.125,289.297,426.915,289.766,426.867,289.818z"/>
					</g>
				</g>
			</g>
			<g>
				<path style="fill:#FFBF9D;" d="M426.577,282.593c0.628-2.522,2.643-4.56,5.022-5.368c2.379-0.808,5.054-0.449,7.277,0.746
					c1.672,0.898,3.162,2.329,3.756,4.188c0.765,2.391-0.114,5.127-1.782,6.954c-1.667,1.827-4.847,2.765-7.21,3.309l-4.211-1.697
					C427.383,289.225,425.949,285.115,426.577,282.593z"/>
			</g>
			<g>
				<g>
					<path style="fill:#263238;" d="M430.05,289.972c-0.078-0.148,2.724-1.395,5.425-3.948c2.728-2.522,4.195-5.212,4.338-5.123
						c0.056,0.03-0.238,0.739-0.894,1.789c-0.655,1.048-1.702,2.421-3.089,3.715c-1.387,1.293-2.829,2.243-3.926,2.815
						C430.807,289.795,430.075,290.029,430.05,289.972z"/>
				</g>
			</g>
		</g>
		<g>
			<g>
				<path style="fill:#263238;" d="M364.25,333.21c0.025-0.104,0.982,0.316,2.553,0.127c1.54-0.173,3.676-1.106,5.118-3.035
					c1.452-1.925,1.956-4.144,2.145-5.708c0.188-1.584,0.118-2.585,0.205-2.59c0.055-0.007,0.258,0.99,0.161,2.624
					c-0.1,1.609-0.557,3.944-2.096,5.988c-1.541,2.062-3.857,3.002-5.498,3.087c-0.829,0.049-1.501-0.059-1.938-0.202
					C364.461,333.364,364.239,333.237,364.25,333.21z"/>
			</g>
		</g>
		<g>
			<g>
				<path style="fill:none;stroke:#4E585D;stroke-miterlimit:10;" d="M362.4,317.822"/>
			</g>
		</g>
		<g>
			<path style="fill:#263238;" d="M372.884,306.085c-3.394,0.978-6.878,1.711-9.906,3.691c-1.38,0.903-2.715,2.076-3.362,3.811
				c-0.967,2.589-0.199,5.734,0.576,8.569c0.177,0.647,0.402,1.365,0.907,1.68c0.642,0.4,1.359-0.066,1.907-0.546
				c3.443-3.021,6.936-6.775,8.689-11.503C372.258,310.263,372.999,307.805,372.884,306.085z"/>
		</g>
		<g style="opacity:0.3;">
			<path d="M402.813,323.336c0.454,2.025,3.319,3.059,6.4,2.311c3.081-0.748,5.211-2.996,4.757-5.021
				c-0.454-2.025-3.319-3.059-6.4-2.311C404.49,319.063,402.359,321.311,402.813,323.336z"/>
		</g>
		<g>
			<path style="fill:#FFFFFF;" d="M399.917,316.292c5.181,0.965,10.248-2.373,11.318-7.456c1.07-5.083-2.263-9.986-7.443-10.951
				c-5.181-0.965-10.248,2.373-11.318,7.456C391.404,310.424,394.737,315.327,399.917,316.292z"/>
		</g>
		<g>
			<path style="fill:#263238;" d="M392.474,305.341c0.412-1.957,1.425-3.646,2.8-4.94c1.74-0.759,3.712-1.036,5.707-0.665
				c5.181,0.965,8.513,5.868,7.443,10.951c-0.412,1.957-1.425,3.646-2.801,4.94c-1.739,0.758-3.711,1.036-5.706,0.664
				C394.737,315.327,391.404,310.424,392.474,305.341z"/>
		</g>
		<g>
			<g>
				<path style="fill:#263238;" d="M699.975,291.802c-0.018,0.002-0.06-0.177-0.126-0.521c-0.069-0.403-0.155-0.901-0.26-1.508
					c-0.222-1.386-0.523-3.265-0.889-5.553c-0.765-4.684-1.805-11.163-3.458-18.207c-1.626-7.047-3.698-13.294-5.819-17.523
					c-1.064-2.111-2.101-3.724-2.886-4.785c-0.381-0.48-0.694-0.875-0.947-1.194c-0.213-0.278-0.319-0.43-0.306-0.442
					c0.013-0.012,0.144,0.115,0.383,0.371c0.275,0.305,0.615,0.681,1.029,1.14c0.842,1.032,1.939,2.632,3.055,4.742
					c2.226,4.226,4.367,10.5,5.998,17.571c1.659,7.069,2.643,13.569,3.315,18.271c0.333,2.352,0.571,4.26,0.725,5.579
					c0.066,0.612,0.12,1.115,0.163,1.521C699.985,291.615,699.993,291.799,699.975,291.802z"/>
			</g>
		</g>
	</g>
	<g>
		<g>
			<path style="fill:#FF725E;" d="M606.494,187.913c-1.94-2.746-5.279-4.372-8.64-4.471c-1.632-0.048-3.304,0.251-4.715,1.072
				c-1.411,0.822-2.535,2.205-2.836,3.81l8.485,13.27c3.293,0.676,6.87-1.164,8.452-4.13
				C608.821,194.497,608.433,190.659,606.494,187.913z"/>
		</g>
		<g>
			<g>
				<path style="fill:#FF725E;" d="M517.739,194.188c0,0,13.73-15.19,44.648-16.171c30.918-0.981,36.98,19.613,36.98,19.613
					s3.449,9.736,4.244,17.979c0.403,4.186,2.48,24.632,3.804,37.327c1.101,10.559-17.786,16.806-21.417,14.482
					c-5.136-3.287,0.145-5.521-6.029-15.523c-5.02-8.133-13.64-20.921-14.549-20.921c-0.909,0-16.671-1.308-16.671-1.308
					s0,0-11.215,10.787s-10.151,28.731-22.882,26.116c-12.731-2.615-4.702-32.981-4.702-32.981s-15.462,6.306-28.285,4.805"/>
			</g>
			<g>
				<g>
					<path style="fill:#263238;" d="M481.663,238.393c0,0,0.165,0,0.487,0.019c0.335,0.022,0.812,0.054,1.437,0.095
						c1.268,0.07,3.157,0.078,5.612-0.091c4.892-0.401,12.093-1.665,20.696-4.959l0.257-0.098l-0.066,0.266
						c-0.624,2.497-1.164,5.194-1.604,8.059c-0.437,2.865-0.771,5.908-0.842,9.105c-0.04,3.18,0.107,6.582,1.23,9.856
						c0.574,1.615,1.459,3.193,2.821,4.328c1.378,1.126,3.212,1.564,5.049,1.641c0.915-0.001,1.852-0.059,2.733-0.366
						c0.882-0.29,1.712-0.746,2.454-1.335c1.473-1.207,2.582-2.852,3.55-4.58c1.911-3.49,3.395-7.356,5.4-11.098
						c1-1.871,2.119-3.718,3.429-5.464c1.283-1.766,2.875-3.339,4.481-4.852c3.195-3.076,6.461-6.221,9.791-9.428l0.079-0.076
						l0.111,0.009c4.611,0.36,9.332,0.728,14.147,1.104l1.81,0.141l0.454,0.036l0.227,0.018c0.052,0.005,0.153,0.03,0.222,0.061
						c0.06,0.03,0.084,0.055,0.127,0.083c0.284,0.223,0.482,0.449,0.69,0.685c0.809,0.941,1.535,1.93,2.266,2.927
						c1.452,1.998,2.86,4.05,4.263,6.131c1.401,2.081,2.792,4.194,4.172,6.336c1.365,2.157,2.785,4.278,4.05,6.564
						c1.228,2.286,2.16,4.824,2.361,7.479c0.133,1.313,0.018,2.661,0.412,3.83c0.402,1.142,1.517,2.03,2.569,2.572
						c1.368,0.436,2.943,0.229,4.406-0.016c1.48-0.281,2.931-0.709,4.338-1.234c2.807-1.059,5.471-2.511,7.705-4.44
						c2.207-1.903,4.029-4.461,4.186-7.354c0.07-1.407-0.2-2.89-0.315-4.337c-0.148-1.452-0.294-2.898-0.441-4.338
						c-0.585-5.759-1.159-11.416-1.721-16.956c-0.281-2.77-0.559-5.511-0.834-8.221c-0.296-2.709-0.488-5.397-0.903-8.008
						c-0.876-5.226-2.265-10.235-3.879-14.993c-1.753-4.677-4.995-8.542-8.636-11.47c-3.666-2.951-7.894-4.871-12.098-6.02
						c-1.032-0.367-2.104-0.537-3.152-0.753c-0.525-0.106-1.047-0.211-1.566-0.315l-0.777-0.156l-0.784-0.083
						c-2.088-0.189-4.122-0.512-6.132-0.453c-8.022-0.14-15.283,0.856-21.473,2.355c-6.199,1.512-11.327,3.589-15.313,5.648
						c-3.993,2.061-6.854,4.09-8.702,5.562c-0.919,0.744-1.596,1.34-2.042,1.752c-0.44,0.417-0.665,0.632-0.665,0.632
						s0.047-0.062,0.149-0.177c0.115-0.119,0.273-0.281,0.479-0.493c0.434-0.425,1.102-1.035,2.013-1.795
						c1.831-1.503,4.682-3.565,8.674-5.66c3.985-2.094,9.121-4.207,15.337-5.751c6.21-1.531,13.486-2.557,21.552-2.44
						c2.021-0.065,4.071,0.254,6.175,0.439l0.79,0.082l0.784,0.156c0.524,0.104,1.051,0.208,1.581,0.314
						c1.058,0.215,2.139,0.385,3.183,0.752c4.248,1.15,8.532,3.083,12.256,6.068c3.701,2.97,6.992,6.862,8.801,11.66
						c1.629,4.779,3.029,9.799,3.919,15.065c0.423,2.643,0.618,5.332,0.916,8.037c0.277,2.709,0.558,5.45,0.842,8.219
						c0.567,5.539,1.145,11.195,1.734,16.953c0.147,1.439,0.295,2.885,0.443,4.337l0.223,2.183c0.068,0.718,0.163,1.485,0.096,2.24
						c-0.099,1.513-0.592,3.002-1.396,4.288c-0.792,1.296-1.822,2.43-2.963,3.424c-2.297,1.983-5.006,3.457-7.862,4.536
						c-1.432,0.535-2.908,0.971-4.426,1.259c-1.516,0.243-3.092,0.489-4.682-0.008c-0.169-0.057-0.332-0.157-0.496-0.236
						l-0.415-0.296c-0.28-0.191-0.552-0.394-0.795-0.643c-0.524-0.443-0.918-1.061-1.172-1.709c-0.442-1.349-0.303-2.686-0.44-3.962
						c-0.196-2.574-1.094-5.027-2.301-7.278c-1.235-2.235-2.67-4.383-4.027-6.529c-1.378-2.139-2.766-4.25-4.164-6.329
						c-1.4-2.078-2.805-4.128-4.249-6.118c-0.725-0.991-1.452-1.982-2.235-2.893c-0.192-0.224-0.406-0.453-0.601-0.606
						c-0.02-0.013-0.053-0.042-0.062-0.044l0.008,0.003c0,0,0.013-0.065,0.012-0.096l-0.003-0.06
						c-0.002,0.292-0.009,0.08-0.013,0.145l-0.228-0.018l-0.455-0.036l-1.815-0.143c-4.827-0.381-9.559-0.754-14.182-1.118
						l0.19-0.068c-3.334,3.203-6.604,6.344-9.802,9.417c-1.621,1.524-3.164,3.046-4.438,4.79c-1.294,1.719-2.404,3.543-3.399,5.398
						c-1.997,3.711-3.483,7.564-5.423,11.095c-0.985,1.748-2.119,3.435-3.665,4.697c-0.779,0.616-1.659,1.098-2.592,1.401
						c-0.933,0.322-1.916,0.382-2.87,0.379c-1.888-0.08-3.826-0.544-5.286-1.742c-1.438-1.204-2.346-2.85-2.93-4.506
						c-1.139-3.358-1.27-6.786-1.221-9.99c0.082-3.218,0.428-6.272,0.878-9.146c0.453-2.875,1.005-5.571,1.644-8.082l0.19,0.167
						c-8.658,3.271-15.878,4.49-20.792,4.847c-2.464,0.146-4.358,0.113-5.627,0.018c-0.625-0.058-1.101-0.102-1.436-0.133
						C481.824,238.419,481.663,238.393,481.663,238.393z"/>
				</g>
			</g>
		</g>
		<g>
			<g>
				<path style="fill:#FF725E;" d="M566.975,232.125c-1.015-0.372-1.781-1.172-2.272-2.06c-0.492-0.888-0.74-1.867-0.985-2.835
					c-0.803-3.179-1.61-6.38-1.752-9.639"/>
			</g>
			<g>
				<g>
					<path style="fill:#263238;" d="M561.965,217.59c0.078-0.003,0.158,0.886,0.39,2.303c0.225,1.419,0.64,3.359,1.17,5.492
						c0.542,2.134,0.889,4.118,1.76,5.231c0.826,1.146,1.736,1.428,1.69,1.508c0.01,0.057-1.005-0.106-1.982-1.283
						c-0.483-0.576-0.886-1.39-1.174-2.317c-0.286-0.93-0.529-1.943-0.8-3.015c-0.532-2.142-0.895-4.121-1.029-5.569
						C561.849,218.494,561.899,217.592,561.965,217.59z"/>
				</g>
			</g>
		</g>
		<g>
			<g>
				<path style="fill:#FF725E;" d="M548.361,222.828c1.083,1.375,1.485,3.175,1.078,4.825c-0.407,1.65-1.617,3.122-3.243,3.945"/>
			</g>
			<g>
				<g>
					<path style="fill:#263238;" d="M546.196,231.598c-0.039-0.074,0.474-0.357,1.144-0.98c0.664-0.614,1.478-1.631,1.827-2.959
						c0.354-1.328,0.116-2.611-0.204-3.453c-0.319-0.855-0.67-1.326-0.602-1.377c0.042-0.04,0.508,0.357,0.941,1.232
						c0.43,0.856,0.761,2.259,0.369,3.73c-0.387,1.469-1.33,2.535-2.093,3.109C546.803,231.484,546.219,231.652,546.196,231.598z"/>
				</g>
			</g>
		</g>
		<g>
			<g>
				<g>
					<path style="fill:#FF725E;" d="M533.572,228.284c0,0-4.924-2.953-9.554-1.454c-4.63,1.499-16.647,9.299-23.155,10.94
						c-6.508,1.64-25.597,2.783-29.103-0.621c-3.666-3.559-5.855-7.324-5.663-10.396c0.193-3.072,4.174-4.795,4.174-4.795
						s2.74-1.768,4.427-5.025c3.07-5.928,2.997-11.699,9.676-17.012l4.964-3.263c0,0-0.739-3.388,1.659-4.866
						c2.398-1.478,5.08,0.294,5.08,0.294c0.565,0.011,18.418,2.101,18.418,2.101s1.851-3.713,5.794-2.542
						c3.767,1.119,4.005,3.017,4.005,3.017"/>
				</g>
				<g>
					<path style="fill:#FFBF9D;" d="M482.72,239.472c-4.996-0.091-7.233-0.201-10.758-2.286c-5.739-3.395-5.739-7.362-5.546-10.434
						c0.193-3.072,4.174-4.795,4.174-4.795s1.641-1.064,3.166-3.054c2.594-0.213,3.608,0.038,4.09,0.262c0,0,3.838,1.102,7.17,6.592
						c1.655,2.727,1.696,5.514,1.645,7.313C486.662,233.072,486.302,237.896,482.72,239.472z"/>
				</g>
				<g>
					<g>
						<path style="fill:#FFFFFF;" d="M491.605,222.52c2.956-1.359,4.251-4.857,2.892-7.813c-1.359-2.956-4.857-4.251-7.813-2.892
							c-2.956,1.359-4.251,4.857-2.892,7.813S488.649,223.879,491.605,222.52z"/>
					</g>
					<g>
						<path style="fill:#263238;" d="M483.792,219.628c-0.523-1.138-0.645-2.355-0.438-3.501c0.589-1.005,1.474-1.849,2.612-2.372
							c2.956-1.359,6.454-0.064,7.813,2.892c0.523,1.138,0.645,2.355,0.438,3.501c-0.589,1.004-1.474,1.848-2.612,2.371
							C488.649,223.879,485.151,222.584,483.792,219.628z"/>
					</g>
				</g>
				<g>
					<path style="fill:#FF725E;" d="M479.598,193.518c0.427-2.357,1.934-4.454,3.912-5.806c1.487-1.016,3.322-1.647,5.096-1.336
						c2.283,0.4,4.096,2.335,4.817,4.538c0.72,2.203,0.487,4.619-0.147,6.848l-4.949,3.413c-2.144,1.07-4.913,0.55-6.669-1.081
						C479.903,198.463,479.171,195.875,479.598,193.518z"/>
				</g>
				<g>
					<g>
						<path style="fill:#263238;" d="M487.952,197.614c-0.043-0.05,0.531-0.645,1.569-1.488c1.035-0.842,2.551-1.91,4.341-2.891
							c1.793-0.978,3.51-1.678,4.778-2.095c1.269-0.419,2.08-0.581,2.099-0.517c0.05,0.154-3.096,1.124-6.627,3.069
							C490.571,195.614,488.055,197.739,487.952,197.614z"/>
					</g>
				</g>
				<g>
					<g>
						<path style="fill:#263238;" d="M470.176,236.039c0.004-0.091,0.623-0.022,1.501-0.363c0.867-0.322,1.975-1.142,2.588-2.426
							c0.61-1.295,0.63-2.655,0.54-3.597c-0.09-0.954-0.254-1.54-0.176-1.564c0.057-0.021,0.35,0.529,0.541,1.513
							c0.188,0.967,0.239,2.439-0.434,3.872c-0.686,1.437-1.962,2.293-2.942,2.552C470.795,236.302,470.158,236.087,470.176,236.039
							z"/>
					</g>
				</g>
				<g>
					<g>
						<path style="fill:none;stroke:#4E585D;stroke-miterlimit:10;" d="M466.626,228.976"/>
					</g>
				</g>
				<g>
					<path style="fill:#263238;" d="M471.83,220.903c0.312,0.977,0.28,2.652,0.155,3.616c-0.389,2.991-1.962,5.675-3.609,7.927
						c-0.262,0.358-0.628,0.733-1.071,0.596c-0.348-0.108-0.585-0.49-0.783-0.838c-0.866-1.525-1.772-3.231-1.555-4.87
						c0.145-1.098,0.783-1.973,1.487-2.697C467.997,223.047,469.924,221.967,471.83,220.903"/>
				</g>
				<g style="opacity:0.3;">
					<path d="M491.735,226.23c0.559,1.104,2.43,1.282,4.179,0.396c1.75-0.885,2.715-2.498,2.156-3.602
						c-0.559-1.104-2.43-1.282-4.179-0.396C492.142,223.513,491.176,225.126,491.735,226.23z"/>
				</g>
			</g>
			<g>
				<g>
					<g>
						<path style="fill:#FF725E;" d="M503.84,200.307c2.2-1.081,4.263-2.611,5.483-4.737c1.22-2.127,1.454-4.923,0.151-6.999
							c-1.013-1.613-2.809-2.608-4.661-3.056c-2.464-0.595-5.178-0.293-7.333,1.042s-3.668,3.744-3.704,6.278
							c-0.037,2.534,1.517,5.078,3.877,6.004"/>
					</g>
					<g>
						<g>
							<path style="fill:#263238;" d="M497.652,198.839c-0.007,0.017-0.151-0.028-0.424-0.131c-0.264-0.118-0.657-0.304-1.097-0.645
								c-0.875-0.654-2.017-1.956-2.424-3.944c-0.43-1.965,0.202-4.553,2.061-6.479c1.819-1.972,4.885-2.99,7.912-2.592
								c1.513,0.187,2.965,0.686,4.167,1.51c1.205,0.812,2.111,2.016,2.47,3.317c0.729,2.632-0.21,5.12-1.41,6.666
								c-1.216,1.59-2.59,2.481-3.529,3.034c-0.475,0.277-0.861,0.46-1.123,0.581c-0.265,0.115-0.408,0.168-0.415,0.152
								c-0.02-0.039,0.522-0.311,1.432-0.905c0.895-0.598,2.208-1.522,3.339-3.08c1.118-1.508,1.948-3.888,1.247-6.31
								c-0.344-1.194-1.17-2.277-2.298-3.033c-1.124-0.763-2.502-1.237-3.943-1.414c-2.884-0.376-5.778,0.575-7.502,2.408
								c-1.772,1.801-2.404,4.222-2.044,6.079c0.338,1.89,1.38,3.175,2.189,3.854C497.08,198.605,497.679,198.785,497.652,198.839z"
								/>
						</g>
					</g>
				</g>
				<g>
					<path style="fill:#FFBF9D;" d="M496.311,194.194c0.025-1.742,1.065-3.397,2.546-4.315c1.481-0.917,3.346-1.125,5.04-0.716
						c1.273,0.307,2.507,0.991,3.203,2.1c0.896,1.427,0.735,3.349-0.103,4.81c-0.838,1.462-2.84,2.595-4.352,3.339l-3.117-0.407
						C497.907,198.369,496.286,195.936,496.311,194.194z"/>
				</g>
				<g>
					<g>
						<path style="fill:#263238;" d="M499.829,198.414c-0.099-0.125,1.544-1.404,2.963-3.488c1.442-2.07,2.05-4.061,2.202-4.013
							c0.128,0.016-0.273,2.149-1.773,4.309C501.74,197.391,499.889,198.528,499.829,198.414z"/>
					</g>
				</g>
			</g>
		</g>
		<g>
			<g>
				<path style="fill:#263238;" d="M515.675,230.919c0.019,0.031-0.374,0.299-1.103,0.759c-0.724,0.467-1.809,1.084-3.179,1.79
					c-2.736,1.417-6.687,3.08-11.249,4.267c-4.567,1.176-8.829,1.639-11.909,1.728c-1.54,0.047-2.788,0.034-3.648-0.023
					c-0.86-0.048-1.334-0.092-1.333-0.128c0.001-0.036,0.478-0.061,1.336-0.074c0.858-0.005,2.099-0.048,3.627-0.142
					c3.056-0.182,7.27-0.698,11.796-1.864c4.521-1.176,8.456-2.769,11.217-4.093c1.382-0.66,2.488-1.224,3.241-1.636
					C515.228,231.098,515.656,230.889,515.675,230.919z"/>
			</g>
		</g>
		<g>
			<g>
				<path style="fill:#263238;" d="M521.284,201.333c-0.14,0.078-1.258-1.951-3.228-3.965c-1.952-2.033-3.944-3.215-3.862-3.352
					c0.049-0.119,2.218,0.892,4.236,2.99C520.462,199.088,521.404,201.288,521.284,201.333z"/>
			</g>
		</g>
		<g>
			<g>
				<path style="fill:#263238;" d="M528.492,198.151c-0.044,0.054-0.596-0.317-1.395-1.024c-0.805-0.698-1.828-1.751-3.042-2.786
					c-1.213-1.038-2.449-1.787-3.398-2.219c-0.947-0.437-1.582-0.607-1.564-0.687c0.011-0.061,0.684-0.018,1.704,0.346
					c1.018,0.357,2.346,1.093,3.594,2.161c1.249,1.065,2.228,2.159,2.961,2.918C528.078,197.63,528.54,198.094,528.492,198.151z"/>
			</g>
		</g>
		<g>
			<g>
				<path style="fill:#263238;" d="M497.589,204.639c0.013,0.012-0.056,0.11-0.203,0.288c-0.14,0.185-0.382,0.423-0.706,0.719
					c-0.664,0.562-1.75,1.3-3.287,1.701c-1.513,0.406-3.505,0.486-5.471-0.334c-0.494-0.207-0.969-0.499-1.392-0.88
					c-0.411-0.385-0.8-0.872-0.937-1.497c-0.147-0.612,0.029-1.336,0.505-1.801c0.459-0.468,1.111-0.725,1.78-0.695
					c0.682,0.028,1.295,0.403,1.686,0.898c0.396,0.498,0.613,1.109,0.63,1.722c0.021,1.251-0.741,2.299-1.636,2.89
					c-0.918,0.604-1.969,0.777-2.903,0.758c-0.938-0.026-1.813-0.228-2.531-0.602c-0.718-0.371-1.266-0.917-1.538-1.512
					c-0.273-0.59-0.314-1.166-0.24-1.609c0.069-0.449,0.253-0.762,0.396-0.944c0.145-0.185,0.254-0.249,0.262-0.241
					c0.052,0.03-0.371,0.368-0.456,1.21c-0.039,0.411,0.03,0.936,0.3,1.454c0.264,0.516,0.775,0.993,1.442,1.313
					c0.668,0.323,1.491,0.493,2.372,0.499c0.874,0.001,1.831-0.182,2.629-0.724c0.785-0.529,1.423-1.461,1.393-2.477
					c-0.014-0.989-0.781-2.074-1.83-2.116c-0.512-0.027-1.04,0.182-1.386,0.538c-0.356,0.348-0.48,0.858-0.377,1.33
					c0.231,0.962,1.154,1.661,2.02,2.046c1.832,0.793,3.727,0.763,5.191,0.417c1.485-0.339,2.563-1.002,3.249-1.502
					C497.233,204.967,497.552,204.605,497.589,204.639z"/>
			</g>
		</g>
	</g>
</g>
<g id="Bear_2">
	<g>
		<g>
			<path style="fill:#FF725E;" d="M223.478,366.875c-1.044-2.504-3.886-4.122-6.572-3.742c-1.654,0.234-3.167,1.145-4.307,2.365
				c-1.171,1.253-1.984,2.857-2.208,4.557c-0.224,1.701,0.161,3.491,1.142,4.898c1.456,2.089,4.057,3.142,6.596,3.326
				c2.54,0.184,5.066-0.386,7.548-0.952L223.478,366.875z"/>
		</g>
		<g>
			<path style="fill:#FF725E;" d="M314.263,327.778c-17.108,0.171-23.295,19.558-23.295,19.558
				c-6.451-1.665-12.278,5.827-12.278,5.827s-24.139-1.873-39.122,0.208c-14.983,2.081-19.145,15.191-19.145,15.191
				c-0.824,1.242-0.624,6.035-0.624,6.035s-0.45,25.922,0,36.625c0.405,9.63,1.357,12.092,1.357,12.092h18.364
				c0,0,1.415-2.007-3.073-4.601c-1.784-1.031,3.329-8.116,3.329-8.116s4.498,10.324,5.746,12.716h16.357
				c0,0,1.939-3.007-2.959-4.809c-1.657-0.61-2.497-16.856,0-16.44c2.497,0.416,17.688-1.04,17.688-1.04s-1.249-1.457,1.457,5.41
				c2.705,6.867,3.954,13.318,6.451,15.214c2.497,1.896,14.151,1.642,15.191,0c1.04-1.641-2.289-4.185-2.289-4.185l2.289-12.486
				l5.158,11.928c0.915,2.115,2.979,3.502,5.283,3.549l16.612,0.339l0.183-0.074c2.345-5.596-4.137-6.793-6.01-11.579
				c-1.873-4.786-1.665-30.59-1.04-34.96s17.98-16.196,23.598-21.607c5.619-5.411,7.669-11.286,4.586-17.01
				c-1.529-2.84-12.577-1.546-12.577-1.546s-6.015-2.403-9.292-4.259C322.933,327.902,323.786,327.683,314.263,327.778z"/>
		</g>
		<g>
			<g>
				<path style="fill:#263238;" d="M306.221,391.969c0.062,0.014-0.057,0.917-0.469,2.328c-0.416,1.406-1.152,3.316-2.284,5.258
					c-0.563,0.972-1.166,1.858-1.758,2.63c-0.59,0.779-1.188,1.411-1.582,1.996c-0.408,0.582-0.599,1.121-0.636,1.508
					c-0.038,0.387,0.02,0.611-0.023,0.622c-0.024,0.01-0.154-0.197-0.179-0.629c-0.027-0.429,0.135-1.059,0.528-1.699
					c0.382-0.652,0.956-1.312,1.509-2.086c0.56-0.774,1.139-1.651,1.692-2.605C305.257,395.475,306.065,391.921,306.221,391.969z"/>
			</g>
		</g>
		<g>
			<g>
				<path style="fill:#263238;" d="M272.5,390.772c0.083,0,0.135,0.774,0.532,1.964c0.379,1.194,1.057,2.797,1.828,4.564
					c0.774,1.767,1.466,3.382,1.869,4.593c0.415,1.208,0.528,2,0.464,2.013c-0.076,0.017-0.312-0.724-0.808-1.882
					c-0.486-1.162-1.225-2.743-2.002-4.516c-0.774-1.773-1.408-3.422-1.706-4.673C272.362,391.586,272.439,390.766,272.5,390.772z"
					/>
			</g>
		</g>
		<g>
			<g>
				<path style="fill:#263238;" d="M239.128,411.928c-0.071-0.06,0.77-1.059,2.009-2.756c1.236-1.69,2.908-4.087,4.091-7.044
					c1.202-2.955,1.485-5.871,1.642-7.955c0.141-2.095,0.174-3.402,0.256-3.401c0.036,0,0.068,0.326,0.096,0.916
					c0.028,0.59,0.045,1.445,0.016,2.503c-0.063,2.1-0.292,5.093-1.525,8.129c-1.214,3.033-2.964,5.432-4.283,7.076
					c-0.663,0.825-1.226,1.469-1.635,1.896C239.39,411.724,239.155,411.952,239.128,411.928z"/>
			</g>
		</g>
		<g>
			<g>
				<path style="fill:#263238;" d="M246.846,397.541c0.05-0.064,0.764,0.451,1.964,1.189c1.199,0.738,2.915,1.67,4.95,2.328
					c4.095,1.353,7.672,0.876,7.665,1.067c0.007,0.057-0.863,0.24-2.298,0.272c-1.428,0.021-3.437-0.152-5.529-0.844
					c-2.094-0.677-3.828-1.688-4.991-2.515C247.44,398.208,246.807,397.589,246.846,397.541z"/>
			</g>
		</g>
		<g>
			<g>
				<path style="fill:#FF725E;" d="M301.221,379.795c0,0,1.604-3.901,5.76-6.035c4.156-2.133,17.323-6.47,22.847-9.785
					c5.524-3.315,19.232-15.524,19.291-20.214c0.062-4.904-1.015-8.943-3.234-10.893c-2.22-1.95-6.089-0.409-6.089-0.409
					s-3.058,0.666-6.416-0.393c-6.111-1.927-9.986-5.886-18.124-4.943l-5.581,1.165c0,0-1.804-2.798-4.433-2.168
					c-2.63,0.63-3.241,3.654-3.241,3.654s-5.599,1.365-14.458,18.853"/>
			</g>
			<g>
				<path style="fill:#FFBF9D;" d="M343.492,352.574c3.322-3.459,4.763-5.055,5.733-8.865c1.578-6.203-1.119-8.889-3.339-10.839
					s-6.089-0.409-6.089-0.409s-1.835,0.396-4.221,0.085c-1.902,1.62-2.418,2.479-2.592,2.959c0,0-1.85,3.357-0.373,9.341
					c0.734,2.973,2.602,4.889,3.859,6.073C336.469,350.919,339.994,353.943,343.492,352.574z"/>
			</g>
			<g>
				<g>
					<path style="fill:#FFFFFF;" d="M329.401,340.259c0.87,2.999-0.856,6.136-3.855,7.006s-6.136-0.856-7.006-3.855
						c-0.87-2.999,0.856-6.136,3.855-7.006C325.395,335.534,328.531,337.26,329.401,340.259z"/>
				</g>
				<g>
					<path style="fill:#263238;" d="M322.395,336.404c-1.155,0.335-2.115,1.01-2.816,1.88c-0.359,1.058-0.417,2.231-0.081,3.386
						c0.87,2.999,4.007,4.725,7.006,3.855c1.155-0.335,2.115-1.011,2.817-1.881c0.359-1.058,0.416-2.231,0.081-3.385
						C328.531,337.26,325.395,335.534,322.395,336.404z"/>
				</g>
			</g>
			<g>
				<path style="fill:#FF725E;" d="M310.304,320.165c-1.893-1.306-4.339-1.702-6.599-1.273c-1.698,0.323-3.37,1.144-4.361,2.561
					c-1.274,1.823-1.187,4.368-0.177,6.35c1.01,1.982,2.812,3.46,4.757,4.539l5.674-1.054c2.18-0.733,3.702-2.969,3.782-5.268
					S312.197,321.471,310.304,320.165z"/>
			</g>
			<g>
				<g>
					<path style="fill:#263238;" d="M311.48,327.778c0.016,0.161-3.132,0.436-6.837,1.543c-3.713,1.083-6.505,2.561-6.579,2.418
						c-0.032-0.058,0.627-0.502,1.771-1.084c1.142-0.582,2.781-1.277,4.661-1.834c1.881-0.553,3.634-0.86,4.909-0.992
						C310.68,327.697,311.475,327.712,311.48,327.778z"/>
				</g>
			</g>
			<g>
				<g>
					<path style="fill:#263238;" d="M349.654,341.717c0.047,0.023-0.236,0.603-1.102,1.098c-0.841,0.493-2.29,0.783-3.735,0.275
						c-1.433-0.514-2.4-1.548-2.93-2.333c-0.539-0.799-0.713-1.372-0.657-1.397c0.072-0.038,0.362,0.469,0.95,1.175
						c0.581,0.698,1.519,1.603,2.81,2.064c1.286,0.452,2.591,0.255,3.397-0.113C349.213,342.121,349.588,341.656,349.654,341.717z"
						/>
				</g>
			</g>
			<g>
				<g>
					<path style="fill:none;stroke:#4E585D;stroke-miterlimit:10;" d="M347.256,334.518"/>
				</g>
			</g>
			<g>
				<path style="fill:#263238;" d="M338.24,332.589c0.453,0.874,1.614,1.987,2.354,2.554c2.298,1.762,5.189,2.509,7.836,2.915
					c0.421,0.065,0.924,0.07,1.131-0.325c0.163-0.31,0.063-0.73-0.039-1.1c-0.451-1.622-0.997-3.394-2.259-4.356
					c-0.845-0.645-1.872-0.804-2.842-0.816C342.294,331.435,340.254,332.013,338.24,332.589"/>
			</g>
			<g style="opacity:0.3;">
				<path d="M328.379,349.735c0.373,1.128-0.774,2.521-2.561,3.111c-1.787,0.59-3.538,0.154-3.91-0.973
					c-0.372-1.128,0.774-2.52,2.561-3.111C326.256,348.171,328.007,348.607,328.379,349.735z"/>
			</g>
		</g>
		<g>
			<g>
				<g>
					<path style="fill:#FF725E;" d="M302.55,340.407c-2.226,0.764-4.663,1.131-6.936,0.52c-2.273-0.611-4.333-2.346-4.862-4.639
						c-0.411-1.782,0.129-3.677,1.079-5.24c1.264-2.079,3.309-3.72,5.676-4.281c2.367-0.561,5.031,0.042,6.779,1.733
						c1.748,1.692,2.426,4.472,1.457,6.704"/>
				</g>
				<g>
					<g>
						<path style="fill:#263238;" d="M305.743,335.205c-0.056-0.019,0.225-0.549,0.305-1.581c0.084-1.009-0.085-2.587-1.141-4.095
							c-1.018-1.5-3.09-2.708-5.513-2.722c-2.412-0.069-5.016,1.253-6.711,3.468c-0.854,1.099-1.465,2.356-1.707,3.635
							c-0.25,1.278-0.073,2.57,0.504,3.611c1.169,2.114,3.347,3.162,5.129,3.424c1.824,0.287,3.341,0.021,4.354-0.181
							c1.02-0.215,1.573-0.398,1.586-0.356c0.006,0.017-0.126,0.079-0.384,0.182c-0.26,0.097-0.645,0.236-1.155,0.372
							c-1.012,0.264-2.549,0.597-4.456,0.348c-1.866-0.23-4.198-1.277-5.496-3.559c-0.643-1.127-0.849-2.562-0.584-3.933
							c0.254-1.377,0.899-2.704,1.798-3.861c1.782-2.33,4.554-3.728,7.131-3.628c2.572,0.041,4.762,1.366,5.808,2.993
							c1.078,1.626,1.188,3.286,1.039,4.325c-0.067,0.531-0.207,0.924-0.307,1.183C305.827,335.083,305.759,335.212,305.743,335.205
							z"/>
					</g>
				</g>
			</g>
			<g>
				<path style="fill:#FFBF9D;" d="M303.492,331.147c-1.202-1.163-3.032-1.577-4.659-1.191c-1.627,0.386-3.032,1.514-3.901,2.942
					c-0.653,1.074-1.024,2.377-0.742,3.601c0.363,1.576,1.78,2.768,3.342,3.188c1.562,0.42,3.689-0.173,5.218-0.698l1.834-2.396
					C305.25,335.06,304.694,332.309,303.492,331.147z"/>
			</g>
			<g>
				<g>
					<path style="fill:#263238;" d="M303.979,336.397c0.038,0.124-1.989,0.618-4.471,0.155c-2.486-0.443-4.208-1.62-4.129-1.723
						c0.073-0.141,1.84,0.789,4.223,1.211C301.978,336.486,303.96,336.239,303.979,336.397z"/>
				</g>
			</g>
		</g>
		<g>
			<g>
				<path style="fill:#263238;" d="M291.318,355.601c-0.083,0.099-1.647-1.461-2.52-3.979c-0.895-2.511-0.651-4.706-0.524-4.681
					c0.161-0.003,0.156,2.107,1.016,4.508C290.121,353.859,291.445,355.503,291.318,355.601z"/>
			</g>
		</g>
		<g>
			<g>
				<path style="fill:#263238;" d="M278.824,360.596c-0.113,0.066-0.947-1.559-0.966-3.761c-0.038-2.202,0.753-3.848,0.868-3.785
					c0.15,0.05-0.387,1.692-0.347,3.778C278.393,358.914,278.972,360.543,278.824,360.596z"/>
			</g>
		</g>
		<g>
			<g>
				<path style="fill:#263238;" d="M219.719,379.664c-0.057,0.015-0.355-0.81-0.568-2.21c-0.215-1.395-0.287-3.373,0.065-5.512
					c0.359-2.138,1.067-3.987,1.722-5.237c0.654-1.255,1.203-1.94,1.252-1.907c0.157,0.076-1.789,3.029-2.46,7.229
					C219.006,376.218,219.892,379.643,219.719,379.664z"/>
			</g>
		</g>
		<g>
			<g>
				<path style="fill:#263238;" d="M318.396,321.171c0.145,0.041-0.177,1.551-0.389,3.43c-0.221,1.879-0.251,3.422-0.402,3.429
					c-0.137,0.01-0.342-1.56-0.116-3.488C317.708,322.612,318.265,321.129,318.396,321.171z"/>
			</g>
		</g>
		<g>
			<g>
				<path style="fill:#263238;" d="M322.604,322.604c0.111,0.104-0.874,1.28-1.824,2.895c-0.961,1.609-1.518,3.038-1.663,2.99
					c-0.131-0.035,0.22-1.586,1.215-3.256C321.318,323.559,322.511,322.506,322.604,322.604z"/>
			</g>
		</g>
	</g>
</g>
<g id="Bear_1">
	<g>
		<g>
			<path style="fill:#FF725E;" d="M108.283,279.958c0,0,3.903-4.549,10.461-5.576c6.558-1.027,26.256-1.011,35.186-3.021
				s32.865-12.375,35.035-18.677c2.269-6.589,2.616-12.518,0.49-16.138c-2.126-3.62-8.033-3.264-8.033-3.264
				s-4.423-0.464-8.481-3.389c-7.387-5.323-10.851-12.391-22.25-14.745l-8.05-0.915c0,0-1.187-4.578-5.015-4.901
				c-3.829-0.322-6.001,3.486-6.001,3.486s-13.867-0.95-33.612,18.699"/>
		</g>
		<g>
			<path style="fill:#FFBF9D;" d="M177.445,262.066c6.024-3.187,8.679-4.698,11.684-9.406c4.893-7.665,2.451-12.493,0.325-16.113
				c-2.126-3.62-8.033-3.264-8.033-3.264s-2.653-0.284-5.733-1.767c-3.288,1.338-4.367,2.268-4.816,2.838
				c0,0-3.992,3.705-4.666,12.437c-0.335,4.337,1.332,7.755,2.501,9.913C168.707,256.704,172.115,262.354,177.445,262.066z"/>
		</g>
		<g>
			<path style="fill:#FF725E;" d="M122.992,214.525c-11.716,3.205-18.223,9.926-18.223,9.926
				c-7.816,7.033-20.384,24.616-29.044,47.511s-30.275,83.885-31.606,92.946c-1.731,11.788-5.333,44.823,37.966,52.149
				c43.299,7.326,58.244-1.532,73.761-0.227c9.381,0.789,27.696,4.319,31.685-2.52c7.39-12.669,12.735-26.1,2.547-24.268
				c0,0-12.226-13.737-25.98-16.942l-22.414-7.326c0,0,4.075-10.074-4.585-26.558c-8.66-16.484-4.075-28.389-3.057-31.137
				c1.019-2.747,9.169-33.426,18.848-39.379"/>
		</g>
		<g>
			<path style="fill:#FF725E;" d="M159.138,264.262c-6.282,2.412-9.447,10.464-7.201,18.201
				c2.245,7.736,10.852,18.163,12.723,53.817c1.871,35.654,2.245,41.036,0,40.363s-31.807-10.427-31.807-10.427l-14.326-29.936
				l-3.261-33.299l25.471-33.636l13.82-6.391L159.138,264.262z"/>
		</g>
		<g>
			<path style="fill:#FF725E;" d="M48.084,387.948c-3.272-1.522-7.558-0.734-10.196,1.577c-2.638,2.311-3.651,5.901-2.975,9.156
				c0.676,3.255,2.902,6.155,5.787,8.215c5.395,3.852,13.974,4.513,18.92,0.202L48.084,387.948z"/>
		</g>
		<g>
			<g>
				<path style="fill:#263238;" d="M131.871,313.967c0.014,0.001,0.009,0.178-0.005,0.518c-0.016,0.382-0.036,0.877-0.062,1.494
					c-0.046,1.305-0.09,3.21-0.031,5.608c0.033,1.199,0.093,2.52,0.196,3.949c0.085,1.435,0.283,2.949,0.7,4.529
					c0.826,3.145,2.376,6.537,4.666,9.712l0.011,0.016l0.005,0.009c2.169,3.638,3.894,8.036,4.643,12.822
					c0.739,4.671,0.48,9.283-0.463,13.323l-0.182-0.294c3.889,0.929,7.521,1.765,10.73,2.652c3.211,0.88,6.013,1.772,8.298,2.617
					c2.286,0.842,4.055,1.632,5.25,2.203c0.596,0.289,1.044,0.534,1.349,0.695c0.303,0.163,0.458,0.254,0.451,0.267
					c-0.007,0.013-0.173-0.053-0.489-0.192c-0.353-0.159-0.81-0.365-1.38-0.621c-1.213-0.523-2.993-1.265-5.285-2.064
					c-2.291-0.801-5.093-1.653-8.303-2.5c-3.21-0.855-6.834-1.662-10.737-2.577l-0.237-0.055l0.055-0.239
					c0.912-3.985,1.156-8.528,0.428-13.131c-0.738-4.716-2.427-9.054-4.55-12.652l0.016,0.024c-2.332-3.264-3.864-6.692-4.68-9.908
					c-0.409-1.605-0.595-3.175-0.66-4.607c-0.085-1.437-0.125-2.765-0.137-3.969c-0.017-2.408,0.075-4.318,0.172-5.622
					c0.048-0.653,0.1-1.154,0.141-1.492C131.825,314.14,131.857,313.966,131.871,313.967z"/>
			</g>
		</g>
		<g>
			<g>
				<path style="fill:#263238;" d="M64.093,411.205c-0.014,0.033-0.489-0.153-1.34-0.519c-0.424-0.186-0.948-0.404-1.543-0.686
					c-0.591-0.329-1.244-0.692-1.957-1.089c-0.732-0.394-1.449-0.962-2.264-1.501c-0.799-0.563-1.575-1.269-2.416-1.976
					c-1.596-1.516-3.19-3.357-4.564-5.497c-2.714-4.322-4.035-8.781-4.89-11.958c-0.422-1.599-0.728-2.899-0.937-3.799
					c-0.207-0.9-0.306-1.402-0.271-1.411s0.199,0.475,0.467,1.359c0.286,0.98,0.654,2.24,1.096,3.751
					c0.943,3.144,2.309,7.535,4.975,11.779c1.351,2.102,2.902,3.916,4.452,5.426c0.819,0.704,1.571,1.412,2.347,1.981
					c0.793,0.545,1.487,1.125,2.199,1.533c0.691,0.417,1.325,0.799,1.899,1.144c0.559,0.285,1.056,0.538,1.493,0.761
					C63.659,410.923,64.107,411.172,64.093,411.205z"/>
			</g>
		</g>
		<g>
			<g>
				<path style="fill:#FFFFFF;" d="M155.265,246.888c-4.424-0.346-7.73-4.213-7.383-8.637c0.346-4.424,4.213-7.729,8.637-7.383
					c4.424,0.346,7.73,4.213,7.383,8.637C163.556,243.928,159.689,247.234,155.265,246.888z"/>
			</g>
			<g>
				<path style="fill:#263238;" d="M163.902,239.505c0.133-1.703-0.284-3.318-1.089-4.687c-1.227-1.008-2.757-1.672-4.461-1.805
					c-4.424-0.346-8.29,2.96-8.637,7.383c-0.133,1.704,0.284,3.318,1.089,4.687c1.227,1.008,2.757,1.671,4.461,1.804
					C159.689,247.234,163.556,243.928,163.902,239.505z"/>
			</g>
		</g>
		<g>
			<path style="fill:#FF725E;" d="M148.966,206.171c-1.972-2.606-5.096-4.229-8.336-4.657c-2.435-0.322-5.057,0.042-7.025,1.512
				c-2.532,1.892-3.548,5.364-3.068,8.488c0.48,3.124,2.252,5.921,4.396,8.243l8.124,1.107c3.268-0.018,6.318-2.357,7.45-5.422
				C151.64,212.377,150.938,208.777,148.966,206.171z"/>
		</g>
		<g>
			<g>
				<path style="fill:#263238;" d="M145.303,214.347c-0.019,0.078-1.118-0.143-2.901-0.416c-1.783-0.275-4.259-0.568-7.007-0.658
					c-2.749-0.085-5.239,0.049-7.036,0.21c-1.797,0.159-2.908,0.309-2.922,0.23c-0.012-0.062,1.079-0.342,2.88-0.596
					c1.799-0.256,4.315-0.451,7.094-0.365c2.778,0.091,5.275,0.446,7.055,0.816C144.247,213.938,145.318,214.286,145.303,214.347z"
					/>
			</g>
		</g>
		<g>
			<g>
				<g>
					<path style="fill:#263238;" d="M135.656,233.34c-0.056-0.04,0.572-0.62,1.155-1.98c0.578-1.326,1.07-3.543,0.321-6.072
						c-0.703-2.505-2.976-5.089-6.266-6.202c-3.254-1.184-7.395-0.557-10.695,1.692c-1.655,1.111-3.051,2.546-3.956,4.183
						c-0.915,1.63-1.256,3.484-0.934,5.167c0.301,1.688,1.124,3.169,2.114,4.333c0.991,1.178,2.179,2.022,3.345,2.623
						c2.352,1.198,4.526,1.503,5.987,1.67c1.476,0.152,2.303,0.137,2.303,0.183c0,0.018-0.205,0.035-0.599,0.052
						c-0.393,0.008-0.974,0.017-1.721-0.034c-1.48-0.107-3.693-0.355-6.136-1.543c-1.208-0.595-2.46-1.456-3.506-2.669
						c-1.045-1.2-1.925-2.74-2.259-4.53c-0.358-1.786,0.001-3.783,0.959-5.498c0.948-1.727,2.398-3.217,4.113-4.37
						c3.417-2.332,7.742-2.979,11.143-1.713c3.424,1.186,5.773,3.919,6.462,6.553c0.733,2.649,0.159,4.925-0.49,6.259
						C136.338,232.812,135.656,233.34,135.656,233.34z"/>
				</g>
			</g>
			<g>
				<path style="fill:#FFBF9D;" d="M134.428,226.862c-1.103-2.104-3.388-3.479-5.755-3.684c-2.367-0.205-4.765,0.691-6.574,2.232
					c-1.36,1.158-2.441,2.75-2.605,4.529c-0.212,2.288,1.168,4.528,3.088,5.79c1.92,1.263,5.054,1.41,7.352,1.383l3.542-2.415
					C135.057,232.924,135.531,228.966,134.428,226.862z"/>
			</g>
			<g>
				<g>
					<path style="fill:#263238;" d="M132.745,234.163c-0.01,0.063-0.726,0.02-1.85-0.247c-1.122-0.264-2.646-0.788-4.199-1.633
						c-1.552-0.849-2.817-1.846-3.647-2.647c-0.833-0.801-1.256-1.379-1.209-1.421c0.115-0.119,2.059,1.97,5.105,3.611
						C129.974,233.497,132.783,234.001,132.745,234.163z"/>
				</g>
			</g>
		</g>
		<g>
			<g>
				<path style="fill:#263238;" d="M190.597,250.163c0.036,0.027-0.615,0.655-1.987,0.914c-1.339,0.268-3.388,0.005-5.084-1.303
					c-1.68-1.313-2.526-3.11-2.907-4.392c-0.388-1.303-0.394-2.147-0.337-2.153c0.084-0.014,0.222,0.804,0.686,2.034
					c0.457,1.215,1.316,2.881,2.877,4.099c1.562,1.204,3.445,1.512,4.712,1.351C189.849,250.566,190.551,250.076,190.597,250.163z"
					/>
			</g>
		</g>
		<g>
			<g>
				<path style="fill:none;stroke:#4E585D;stroke-miterlimit:10;" d="M190.568,239.383"/>
			</g>
		</g>
		<g>
			<path style="fill:#263238;" d="M179.264,232.762c0.222,1.382,1.292,3.4,2.038,4.495c2.315,3.401,5.883,5.698,9.274,7.425
				c0.539,0.275,1.215,0.505,1.67,0.066c0.357-0.346,0.411-0.957,0.437-1.502c0.115-2.389,0.167-5.024-1.106-6.884
				c-0.853-1.247-2.168-1.919-3.471-2.367C185.249,233.011,182.238,232.883,179.264,232.762"/>
		</g>
		<g style="opacity:0.3;">
			<path d="M158.32,251.502c0,1.688-2.168,3.056-4.842,3.056c-2.674,0-4.842-1.368-4.842-3.056c0-1.688,2.168-3.056,4.842-3.056
				C156.152,248.446,158.32,249.814,158.32,251.502z"/>
		</g>
		<g>
			<g>
				<path style="fill:#263238;" d="M108.878,268.853c-0.008-0.035,0.331-0.134,0.954-0.282c0.62-0.158,1.535-0.313,2.673-0.437
					c2.274-0.254,5.481-0.236,8.912,0.502c3.43,0.749,6.357,2.061,8.322,3.233c0.985,0.584,1.753,1.104,2.252,1.504
					c0.505,0.393,0.772,0.623,0.751,0.652c-0.055,0.076-1.192-0.761-3.183-1.835c-1.987-1.076-4.881-2.309-8.252-3.045
					c-3.372-0.724-6.517-0.801-8.771-0.644C110.278,268.653,108.897,268.945,108.878,268.853z"/>
			</g>
		</g>
		<g>
			<g>
				<path style="fill:#263238;" d="M160.892,219.7c0-0.016,0.097-0.031,0.282-0.042c0.185-0.008,0.461-0.02,0.821,0.034
					c0.348,0.054,0.828,0.19,1.189,0.615c0.176,0.206,0.326,0.486,0.336,0.821c0.009,0.33-0.147,0.693-0.439,0.918
					c-0.587,0.447-1.378,0.491-2.14,0.422c-0.76-0.064-1.573-0.174-2.422-0.345c-1.697-0.346-3.543-0.938-5.369-1.861l0.256-0.445
					c0.709,0.46,1.493,0.956,2.105,1.707c0.807,0.942,1.038,2.448,0.237,3.469c-0.409,0.507-1.055,0.711-1.61,0.736
					c-0.57,0.035-1.088-0.054-1.596-0.118c-2.033-0.31-3.777-0.999-5.123-1.753c-1.351-0.756-2.325-1.553-2.944-2.148
					c-0.619-0.599-0.905-0.981-0.885-0.999c0.073-0.088,1.313,1.413,4.003,2.823c1.337,0.696,3.046,1.327,5.018,1.602
					c0.954,0.122,2.128,0.29,2.744-0.467c0.593-0.75,0.456-2.014-0.249-2.819c-0.535-0.661-1.272-1.142-1.977-1.601l0.256-0.445
					c1.778,0.909,3.575,1.508,5.23,1.875c0.829,0.182,1.623,0.306,2.367,0.388c0.718,0.091,1.437,0.041,1.891-0.288
					c0.464-0.333,0.409-0.96,0.106-1.305c-0.282-0.373-0.689-0.522-1.017-0.602C161.287,219.734,160.888,219.745,160.892,219.7z"/>
			</g>
		</g>
	</g>
</g>
</svg>
